<?xml version="1.0" encoding="UTF-8" standalone="no"?>
<!DOCTYPE svg PUBLIC "-//W3C//DTD SVG 1.1//EN"
 "http://www.w3.org/Graphics/SVG/1.1/DTD/svg11.dtd">
<!-- Generated by graphviz version 2.38.0 (20140413.2041)
 -->
<!-- Title: G Pages: 1 -->
<svg width="795pt" height="519pt"
 viewBox="0.00 0.00 794.52 518.65" xmlns="http://www.w3.org/2000/svg" xmlns:xlink="http://www.w3.org/1999/xlink">
<g id="graph0" class="graph" transform="scale(1 1) rotate(0) translate(4 514.647)">
<title>G</title>
<polygon fill="white" stroke="none" points="-4,4 -4,-514.647 790.522,-514.647 790.522,4 -4,4"/>
<!-- Id01104798 -->
<g id="node1" class="node"><title>Id01104798</title>
<ellipse fill="none" stroke="black" cx="479.175" cy="-492.647" rx="41.6928" ry="18"/>
<text text-anchor="middle" x="479.175" y="-488.947" font-family="Times New Roman,serif" font-size="14.00">program</text>
</g>
<!-- Id01103CE0 -->
<g id="node2" class="node"><title>Id01103CE0</title>
<ellipse fill="none" stroke="black" cx="360.175" cy="-419.647" rx="27" ry="18"/>
<text text-anchor="middle" x="360.175" y="-415.947" font-family="Times New Roman,serif" font-size="14.00">stmt</text>
</g>
<!-- Id01104798&#45;&gt;Id01103CE0 -->
<g id="edge6" class="edge"><title>Id01104798&#45;&gt;Id01103CE0</title>
<path fill="none" stroke="black" d="M455.665,-477.619C436.311,-466.073 408.821,-449.671 388.303,-437.429"/>
<polygon fill="black" stroke="black" points="390.082,-434.415 379.701,-432.296 386.495,-440.426 390.082,-434.415"/>
</g>
<!-- Id011045F8 -->
<g id="node8" class="node"><title>Id011045F8</title>
<ellipse fill="none" stroke="black" cx="479.175" cy="-419.647" rx="27" ry="18"/>
<text text-anchor="middle" x="479.175" y="-415.947" font-family="Times New Roman,serif" font-size="14.00">stmt</text>
</g>
<!-- Id01104798&#45;&gt;Id011045F8 -->
<g id="edge12" class="edge"><title>Id01104798&#45;&gt;Id011045F8</title>
<path fill="none" stroke="black" d="M479.175,-474.46C479.175,-466.436 479.175,-456.694 479.175,-447.716"/>
<polygon fill="black" stroke="black" points="482.675,-447.676 479.175,-437.676 475.675,-447.676 482.675,-447.676"/>
</g>
<!-- Id011040F8 -->
<g id="node14" class="node"><title>Id011040F8</title>
<ellipse fill="none" stroke="black" cx="571.175" cy="-419.647" rx="27" ry="18"/>
<text text-anchor="middle" x="571.175" y="-415.947" font-family="Times New Roman,serif" font-size="14.00">stmt</text>
</g>
<!-- Id01104798&#45;&gt;Id011040F8 -->
<g id="edge18" class="edge"><title>Id01104798&#45;&gt;Id011040F8</title>
<path fill="none" stroke="black" d="M498.686,-476.589C512.443,-465.973 530.994,-451.656 545.886,-440.164"/>
<polygon fill="black" stroke="black" points="548.389,-442.653 554.167,-433.773 544.112,-437.111 548.389,-442.653"/>
</g>
<!-- Id01103C80 -->
<g id="node3" class="node"><title>Id01103C80</title>
<ellipse fill="none" stroke="black" cx="217.175" cy="-337.777" rx="27" ry="18"/>
<text text-anchor="middle" x="217.175" y="-334.077" font-family="Times New Roman,serif" font-size="14.00">=</text>
</g>
<!-- Id01103CE0&#45;&gt;Id01103C80 -->
<g id="edge5" class="edge"><title>Id01103CE0&#45;&gt;Id01103C80</title>
<path fill="none" stroke="black" d="M339.99,-407.373C315.504,-393.697 274.048,-370.542 246.153,-354.962"/>
<polygon fill="black" stroke="black" points="247.695,-351.814 237.258,-349.993 244.281,-357.925 247.695,-351.814"/>
</g>
<!-- Id01103BC0 -->
<g id="node4" class="node"><title>Id01103BC0</title>
<ellipse fill="none" stroke="black" cx="67.1751" cy="-222.43" rx="67.3507" ry="26.7407"/>
<text text-anchor="middle" x="67.1751" y="-226.23" font-family="Times New Roman,serif" font-size="14.00">var or method</text>
<text text-anchor="middle" x="67.1751" y="-211.23" font-family="Times New Roman,serif" font-size="14.00"> localnum = 0</text>
</g>
<!-- Id01103C80&#45;&gt;Id01103BC0 -->
<g id="edge3" class="edge"><title>Id01103C80&#45;&gt;Id01103BC0</title>
<path fill="none" stroke="black" d="M199.968,-323.774C177.178,-306.553 136.323,-275.681 105.926,-252.712"/>
<polygon fill="black" stroke="black" points="107.743,-249.698 97.6541,-246.461 103.522,-255.283 107.743,-249.698"/>
</g>
<!-- Id01103C20 -->
<g id="node6" class="node"><title>Id01103C20</title>
<ellipse fill="none" stroke="black" cx="217.175" cy="-222.43" rx="64.1938" ry="37.4533"/>
<text text-anchor="middle" x="217.175" y="-233.73" font-family="Times New Roman,serif" font-size="14.00">BOOLEAN</text>
<text text-anchor="middle" x="217.175" y="-218.73" font-family="Times New Roman,serif" font-size="14.00"> mref = #16</text>
<text text-anchor="middle" x="217.175" y="-203.73" font-family="Times New Roman,serif" font-size="14.00"> val_id = #10</text>
</g>
<!-- Id01103C80&#45;&gt;Id01103C20 -->
<g id="edge4" class="edge"><title>Id01103C80&#45;&gt;Id01103C20</title>
<path fill="none" stroke="black" d="M217.175,-319.562C217.175,-306.412 217.175,-287.636 217.175,-270.162"/>
<polygon fill="black" stroke="black" points="220.675,-270.076 217.175,-260.076 213.675,-270.076 220.675,-270.076"/>
</g>
<!-- IdVal01103BC0 -->
<g id="node5" class="node"><title>IdVal01103BC0</title>
<ellipse fill="none" stroke="black" cx="67.1751" cy="-110.477" rx="27" ry="18"/>
<text text-anchor="middle" x="67.1751" y="-106.777" font-family="Times New Roman,serif" font-size="14.00">a</text>
</g>
<!-- Id01103BC0&#45;&gt;IdVal01103BC0 -->
<g id="edge1" class="edge"><title>Id01103BC0&#45;&gt;IdVal01103BC0</title>
<path fill="none" stroke="black" d="M67.1751,-195.373C67.1751,-178.333 67.1751,-156.113 67.1751,-138.821"/>
<polygon fill="black" stroke="black" points="70.6752,-138.782 67.1751,-128.782 63.6752,-138.782 70.6752,-138.782"/>
</g>
<!-- IdVal01103C20 -->
<g id="node7" class="node"><title>IdVal01103C20</title>
<ellipse fill="none" stroke="black" cx="217.175" cy="-110.477" rx="27.0966" ry="18"/>
<text text-anchor="middle" x="217.175" y="-106.777" font-family="Times New Roman,serif" font-size="14.00">false</text>
</g>
<!-- Id01103C20&#45;&gt;IdVal01103C20 -->
<g id="edge2" class="edge"><title>Id01103C20&#45;&gt;IdVal01103C20</title>
<path fill="none" stroke="black" d="M217.175,-184.817C217.175,-169.832 217.175,-152.79 217.175,-138.908"/>
<polygon fill="black" stroke="black" points="220.675,-138.551 217.175,-128.551 213.675,-138.551 220.675,-138.551"/>
</g>
<!-- Id01103DF0 -->
<g id="node9" class="node"><title>Id01103DF0</title>
<ellipse fill="none" stroke="black" cx="479.175" cy="-337.777" rx="27" ry="18"/>
<text text-anchor="middle" x="479.175" y="-334.077" font-family="Times New Roman,serif" font-size="14.00">=</text>
</g>
<!-- Id011045F8&#45;&gt;Id01103DF0 -->
<g id="edge11" class="edge"><title>Id011045F8&#45;&gt;Id01103DF0</title>
<path fill="none" stroke="black" d="M479.175,-401.316C479.175,-390.989 479.175,-377.654 479.175,-365.953"/>
<polygon fill="black" stroke="black" points="482.675,-365.799 479.175,-355.799 475.675,-365.799 482.675,-365.799"/>
</g>
<!-- Id01103D30 -->
<g id="node10" class="node"><title>Id01103D30</title>
<ellipse fill="none" stroke="black" cx="367.175" cy="-222.43" rx="67.3507" ry="26.7407"/>
<text text-anchor="middle" x="367.175" y="-226.23" font-family="Times New Roman,serif" font-size="14.00">var or method</text>
<text text-anchor="middle" x="367.175" y="-211.23" font-family="Times New Roman,serif" font-size="14.00"> localnum = 1</text>
</g>
<!-- Id01103DF0&#45;&gt;Id01103D30 -->
<g id="edge9" class="edge"><title>Id01103DF0&#45;&gt;Id01103D30</title>
<path fill="none" stroke="black" d="M464.99,-322.421C448.279,-305.509 420.025,-276.915 398.167,-254.795"/>
<polygon fill="black" stroke="black" points="400.544,-252.221 391.026,-247.568 395.565,-257.141 400.544,-252.221"/>
</g>
<!-- Id01103D90 -->
<g id="node12" class="node"><title>Id01103D90</title>
<ellipse fill="none" stroke="black" cx="517.175" cy="-222.43" rx="64.1938" ry="37.4533"/>
<text text-anchor="middle" x="517.175" y="-233.73" font-family="Times New Roman,serif" font-size="14.00">INT</text>
<text text-anchor="middle" x="517.175" y="-218.73" font-family="Times New Roman,serif" font-size="14.00"> mref = #20</text>
<text text-anchor="middle" x="517.175" y="-203.73" font-family="Times New Roman,serif" font-size="14.00"> val_id = #17</text>
</g>
<!-- Id01103DF0&#45;&gt;Id01103D90 -->
<g id="edge10" class="edge"><title>Id01103DF0&#45;&gt;Id01103D90</title>
<path fill="none" stroke="black" d="M484.782,-320.052C489.276,-306.647 495.805,-287.174 501.825,-269.217"/>
<polygon fill="black" stroke="black" points="505.241,-270.038 505.101,-259.444 498.604,-267.813 505.241,-270.038"/>
</g>
<!-- IdVal01103D30 -->
<g id="node11" class="node"><title>IdVal01103D30</title>
<ellipse fill="none" stroke="black" cx="367.175" cy="-110.477" rx="27" ry="18"/>
<text text-anchor="middle" x="367.175" y="-106.777" font-family="Times New Roman,serif" font-size="14.00">b</text>
</g>
<!-- Id01103D30&#45;&gt;IdVal01103D30 -->
<g id="edge7" class="edge"><title>Id01103D30&#45;&gt;IdVal01103D30</title>
<path fill="none" stroke="black" d="M367.175,-195.373C367.175,-178.333 367.175,-156.113 367.175,-138.821"/>
<polygon fill="black" stroke="black" points="370.675,-138.782 367.175,-128.782 363.675,-138.782 370.675,-138.782"/>
</g>
<!-- IdVal01103D90 -->
<g id="node13" class="node"><title>IdVal01103D90</title>
<ellipse fill="none" stroke="black" cx="517.175" cy="-110.477" rx="27" ry="18"/>
<text text-anchor="middle" x="517.175" y="-106.777" font-family="Times New Roman,serif" font-size="14.00">1</text>
</g>
<!-- Id01103D90&#45;&gt;IdVal01103D90 -->
<g id="edge8" class="edge"><title>Id01103D90&#45;&gt;IdVal01103D90</title>
<path fill="none" stroke="black" d="M517.175,-184.817C517.175,-169.832 517.175,-152.79 517.175,-138.908"/>
<polygon fill="black" stroke="black" points="520.675,-138.551 517.175,-128.551 513.675,-138.551 520.675,-138.551"/>
</g>
<!-- Id011046F8 -->
<g id="node15" class="node"><title>Id011046F8</title>
<ellipse fill="none" stroke="black" cx="633.175" cy="-337.777" rx="60.2083" ry="26.7407"/>
<text text-anchor="middle" x="633.175" y="-341.577" font-family="Times New Roman,serif" font-size="14.00">method_call</text>
<text text-anchor="middle" x="633.175" y="-326.577" font-family="Times New Roman,serif" font-size="14.00"> mref = #24</text>
</g>
<!-- Id011040F8&#45;&gt;Id011046F8 -->
<g id="edge17" class="edge"><title>Id011040F8&#45;&gt;Id011046F8</title>
<path fill="none" stroke="black" d="M583.129,-403.247C590.083,-394.289 599.125,-382.641 607.607,-371.714"/>
<polygon fill="black" stroke="black" points="610.573,-373.601 613.94,-363.556 605.043,-369.309 610.573,-373.601"/>
</g>
<!-- IdMethodNameVal011046F8 -->
<g id="node16" class="node"><title>IdMethodNameVal011046F8</title>
<ellipse fill="none" stroke="black" cx="633.175" cy="-222.43" rx="33.5952" ry="18"/>
<text text-anchor="middle" x="633.175" y="-218.73" font-family="Times New Roman,serif" font-size="14.00">println</text>
</g>
<!-- Id011046F8&#45;&gt;IdMethodNameVal011046F8 -->
<g id="edge13" class="edge"><title>Id011046F8&#45;&gt;IdMethodNameVal011046F8</title>
<path fill="none" stroke="black" d="M633.175,-310.773C633.175,-292.743 633.175,-268.787 633.175,-250.524"/>
<polygon fill="black" stroke="black" points="636.675,-250.517 633.175,-240.517 629.675,-250.517 636.675,-250.517"/>
<text text-anchor="middle" x="648.175" y="-281.707" font-family="Times New Roman,serif" font-size="14.00">name</text>
</g>
<!-- Id010FE250 -->
<g id="node17" class="node"><title>Id010FE250</title>
<ellipse fill="none" stroke="black" cx="722.175" cy="-222.43" rx="37.0935" ry="18"/>
<text text-anchor="middle" x="722.175" y="-218.73" font-family="Times New Roman,serif" font-size="14.00">params</text>
</g>
<!-- Id011046F8&#45;&gt;Id010FE250 -->
<g id="edge14" class="edge"><title>Id011046F8&#45;&gt;Id010FE250</title>
<path fill="none" stroke="black" d="M652.487,-312.182C667.539,-293.012 688.325,-266.54 703.272,-247.504"/>
<polygon fill="black" stroke="black" points="706.064,-249.616 709.487,-239.589 700.559,-245.293 706.064,-249.616"/>
</g>
<!-- Id01104698 -->
<g id="node18" class="node"><title>Id01104698</title>
<ellipse fill="none" stroke="black" cx="722.175" cy="-110.477" rx="64.1938" ry="37.4533"/>
<text text-anchor="middle" x="722.175" y="-121.777" font-family="Times New Roman,serif" font-size="14.00">STRING</text>
<text text-anchor="middle" x="722.175" y="-106.777" font-family="Times New Roman,serif" font-size="14.00"> mref = #29</text>
<text text-anchor="middle" x="722.175" y="-91.7767" font-family="Times New Roman,serif" font-size="14.00"> val_id = #26</text>
</g>
<!-- Id010FE250&#45;&gt;Id01104698 -->
<g id="edge16" class="edge"><title>Id010FE250&#45;&gt;Id01104698</title>
<path fill="none" stroke="black" d="M722.175,-204.25C722.175,-191.845 722.175,-174.465 722.175,-158.097"/>
<polygon fill="black" stroke="black" points="725.675,-158.089 722.175,-148.09 718.675,-158.09 725.675,-158.089"/>
</g>
<!-- IdVal01104698 -->
<g id="node19" class="node"><title>IdVal01104698</title>
<ellipse fill="none" stroke="black" cx="722.175" cy="-18" rx="55.7903" ry="18"/>
<text text-anchor="middle" x="722.175" y="-14.3" font-family="Times New Roman,serif" font-size="14.00">Hello world!</text>
</g>
<!-- Id01104698&#45;&gt;IdVal01104698 -->
<g id="edge15" class="edge"><title>Id01104698&#45;&gt;IdVal01104698</title>
<path fill="none" stroke="black" d="M722.175,-72.9371C722.175,-63.9712 722.175,-54.5316 722.175,-46.0996"/>
<polygon fill="black" stroke="black" points="725.675,-46.0694 722.175,-36.0695 718.675,-46.0695 725.675,-46.0694"/>
</g>
</g>
</svg>
