<?xml version="1.0" encoding="UTF-8" standalone="no"?>
<!DOCTYPE svg PUBLIC "-//W3C//DTD SVG 1.1//EN"
 "http://www.w3.org/Graphics/SVG/1.1/DTD/svg11.dtd">
<!-- Generated by graphviz version 2.38.0 (20140413.2041)
 -->
<!-- Title: G Pages: 1 -->
<svg width="590pt" height="371pt"
 viewBox="0.00 0.00 589.52 370.95" xmlns="http://www.w3.org/2000/svg" xmlns:xlink="http://www.w3.org/1999/xlink">
<g id="graph0" class="graph" transform="scale(1 1) rotate(0) translate(4 366.953)">
<title>G</title>
<polygon fill="white" stroke="none" points="-4,4 -4,-366.953 585.522,-366.953 585.522,4 -4,4"/>
<!-- Id012E4788 -->
<g id="node1" class="node"><title>Id012E4788</title>
<ellipse fill="none" stroke="black" cx="291.175" cy="-344.953" rx="41.6928" ry="18"/>
<text text-anchor="middle" x="291.175" y="-341.253" font-family="Times New Roman,serif" font-size="14.00">program</text>
</g>
<!-- Id012E3D90 -->
<g id="node2" class="node"><title>Id012E3D90</title>
<ellipse fill="none" stroke="black" cx="236.175" cy="-272.953" rx="27" ry="18"/>
<text text-anchor="middle" x="236.175" y="-269.253" font-family="Times New Roman,serif" font-size="14.00">stmt</text>
</g>
<!-- Id012E4788&#45;&gt;Id012E3D90 -->
<g id="edge6" class="edge"><title>Id012E4788&#45;&gt;Id012E3D90</title>
<path fill="none" stroke="black" d="M278.419,-327.718C271.279,-318.631 262.256,-307.147 254.384,-297.129"/>
<polygon fill="black" stroke="black" points="257.04,-294.843 248.109,-289.142 251.535,-299.168 257.04,-294.843"/>
</g>
<!-- Id012E3FB8 -->
<g id="node8" class="node"><title>Id012E3FB8</title>
<ellipse fill="none" stroke="black" cx="347.175" cy="-272.953" rx="27" ry="18"/>
<text text-anchor="middle" x="347.175" y="-269.253" font-family="Times New Roman,serif" font-size="14.00">stmt</text>
</g>
<!-- Id012E4788&#45;&gt;Id012E3FB8 -->
<g id="edge12" class="edge"><title>Id012E4788&#45;&gt;Id012E3FB8</title>
<path fill="none" stroke="black" d="M304.163,-327.718C311.433,-318.631 320.62,-307.147 328.635,-297.129"/>
<polygon fill="black" stroke="black" points="331.51,-299.137 335.024,-289.142 326.044,-294.765 331.51,-299.137"/>
</g>
<!-- Id012E3D30 -->
<g id="node3" class="node"><title>Id012E3D30</title>
<ellipse fill="none" stroke="black" cx="217.175" cy="-200.953" rx="27" ry="18"/>
<text text-anchor="middle" x="217.175" y="-197.253" font-family="Times New Roman,serif" font-size="14.00">=</text>
</g>
<!-- Id012E3D90&#45;&gt;Id012E3D30 -->
<g id="edge5" class="edge"><title>Id012E3D90&#45;&gt;Id012E3D30</title>
<path fill="none" stroke="black" d="M231.576,-255.008C229.429,-247.098 226.822,-237.493 224.419,-228.641"/>
<polygon fill="black" stroke="black" points="227.73,-227.476 221.732,-218.742 220.974,-229.31 227.73,-227.476"/>
</g>
<!-- Id012D51E8 -->
<g id="node4" class="node"><title>Id012D51E8</title>
<ellipse fill="none" stroke="black" cx="67.1751" cy="-109.477" rx="67.3507" ry="26.7407"/>
<text text-anchor="middle" x="67.1751" y="-113.277" font-family="Times New Roman,serif" font-size="14.00">var or method</text>
<text text-anchor="middle" x="67.1751" y="-98.2767" font-family="Times New Roman,serif" font-size="14.00"> localnum = 0</text>
</g>
<!-- Id012E3D30&#45;&gt;Id012D51E8 -->
<g id="edge3" class="edge"><title>Id012E3D30&#45;&gt;Id012D51E8</title>
<path fill="none" stroke="black" d="M197.565,-188.256C175.975,-175.377 140.548,-154.244 112.067,-137.255"/>
<polygon fill="black" stroke="black" points="113.855,-134.246 103.474,-132.129 110.269,-140.258 113.855,-134.246"/>
</g>
<!-- Id012E3CD0 -->
<g id="node6" class="node"><title>Id012E3CD0</title>
<ellipse fill="none" stroke="black" cx="217.175" cy="-109.477" rx="64.1938" ry="37.4533"/>
<text text-anchor="middle" x="217.175" y="-120.777" font-family="Times New Roman,serif" font-size="14.00">BOOLEAN</text>
<text text-anchor="middle" x="217.175" y="-105.777" font-family="Times New Roman,serif" font-size="14.00"> mref = #16</text>
<text text-anchor="middle" x="217.175" y="-90.7767" font-family="Times New Roman,serif" font-size="14.00"> val_id = #10</text>
</g>
<!-- Id012E3D30&#45;&gt;Id012E3CD0 -->
<g id="edge4" class="edge"><title>Id012E3D30&#45;&gt;Id012E3CD0</title>
<path fill="none" stroke="black" d="M217.175,-182.701C217.175,-175.396 217.175,-166.494 217.175,-157.469"/>
<polygon fill="black" stroke="black" points="220.675,-157.306 217.175,-147.306 213.675,-157.306 220.675,-157.306"/>
</g>
<!-- IdVal012D51E8 -->
<g id="node5" class="node"><title>IdVal012D51E8</title>
<ellipse fill="none" stroke="black" cx="67.1751" cy="-18" rx="27" ry="18"/>
<text text-anchor="middle" x="67.1751" y="-14.3" font-family="Times New Roman,serif" font-size="14.00">a</text>
</g>
<!-- Id012D51E8&#45;&gt;IdVal012D51E8 -->
<g id="edge1" class="edge"><title>Id012D51E8&#45;&gt;IdVal012D51E8</title>
<path fill="none" stroke="black" d="M67.1751,-82.5963C67.1751,-71.1366 67.1751,-57.6563 67.1751,-46.063"/>
<polygon fill="black" stroke="black" points="70.6752,-46.0586 67.1751,-36.0586 63.6752,-46.0587 70.6752,-46.0586"/>
</g>
<!-- IdVal012E3CD0 -->
<g id="node7" class="node"><title>IdVal012E3CD0</title>
<ellipse fill="none" stroke="black" cx="217.175" cy="-18" rx="27.0966" ry="18"/>
<text text-anchor="middle" x="217.175" y="-14.3" font-family="Times New Roman,serif" font-size="14.00">false</text>
</g>
<!-- Id012E3CD0&#45;&gt;IdVal012E3CD0 -->
<g id="edge2" class="edge"><title>Id012E3CD0&#45;&gt;IdVal012E3CD0</title>
<path fill="none" stroke="black" d="M217.175,-71.8249C217.175,-63.3308 217.175,-54.4344 217.175,-46.4159"/>
<polygon fill="black" stroke="black" points="220.675,-46.1461 217.175,-36.1461 213.675,-46.1462 220.675,-46.1461"/>
</g>
<!-- Id012E3EE0 -->
<g id="node9" class="node"><title>Id012E3EE0</title>
<ellipse fill="none" stroke="black" cx="367.175" cy="-200.953" rx="27" ry="18"/>
<text text-anchor="middle" x="367.175" y="-197.253" font-family="Times New Roman,serif" font-size="14.00">=</text>
</g>
<!-- Id012E3FB8&#45;&gt;Id012E3EE0 -->
<g id="edge11" class="edge"><title>Id012E3FB8&#45;&gt;Id012E3EE0</title>
<path fill="none" stroke="black" d="M352.017,-255.008C354.277,-247.098 357.021,-237.493 359.55,-228.641"/>
<polygon fill="black" stroke="black" points="362.996,-229.319 362.378,-218.742 356.266,-227.396 362.996,-229.319"/>
</g>
<!-- Id012E3E20 -->
<g id="node10" class="node"><title>Id012E3E20</title>
<ellipse fill="none" stroke="black" cx="367.175" cy="-109.477" rx="67.3507" ry="26.7407"/>
<text text-anchor="middle" x="367.175" y="-113.277" font-family="Times New Roman,serif" font-size="14.00">var or method</text>
<text text-anchor="middle" x="367.175" y="-98.2767" font-family="Times New Roman,serif" font-size="14.00"> localnum = 1</text>
</g>
<!-- Id012E3EE0&#45;&gt;Id012E3E20 -->
<g id="edge9" class="edge"><title>Id012E3EE0&#45;&gt;Id012E3E20</title>
<path fill="none" stroke="black" d="M367.175,-182.701C367.175,-172.465 367.175,-159.095 367.175,-146.645"/>
<polygon fill="black" stroke="black" points="370.675,-146.492 367.175,-136.492 363.675,-146.492 370.675,-146.492"/>
</g>
<!-- Id012E3E80 -->
<g id="node12" class="node"><title>Id012E3E80</title>
<ellipse fill="none" stroke="black" cx="517.175" cy="-109.477" rx="64.1938" ry="37.4533"/>
<text text-anchor="middle" x="517.175" y="-120.777" font-family="Times New Roman,serif" font-size="14.00">INT</text>
<text text-anchor="middle" x="517.175" y="-105.777" font-family="Times New Roman,serif" font-size="14.00"> mref = #20</text>
<text text-anchor="middle" x="517.175" y="-90.7767" font-family="Times New Roman,serif" font-size="14.00"> val_id = #17</text>
</g>
<!-- Id012E3EE0&#45;&gt;Id012E3E80 -->
<g id="edge10" class="edge"><title>Id012E3EE0&#45;&gt;Id012E3E80</title>
<path fill="none" stroke="black" d="M386.785,-188.256C406.334,-176.595 437.227,-158.166 464.037,-142.174"/>
<polygon fill="black" stroke="black" points="466.155,-144.986 472.95,-136.858 462.569,-138.975 466.155,-144.986"/>
</g>
<!-- IdVal012E3E20 -->
<g id="node11" class="node"><title>IdVal012E3E20</title>
<ellipse fill="none" stroke="black" cx="367.175" cy="-18" rx="27" ry="18"/>
<text text-anchor="middle" x="367.175" y="-14.3" font-family="Times New Roman,serif" font-size="14.00">b</text>
</g>
<!-- Id012E3E20&#45;&gt;IdVal012E3E20 -->
<g id="edge7" class="edge"><title>Id012E3E20&#45;&gt;IdVal012E3E20</title>
<path fill="none" stroke="black" d="M367.175,-82.5963C367.175,-71.1366 367.175,-57.6563 367.175,-46.063"/>
<polygon fill="black" stroke="black" points="370.675,-46.0586 367.175,-36.0586 363.675,-46.0587 370.675,-46.0586"/>
</g>
<!-- IdVal012E3E80 -->
<g id="node13" class="node"><title>IdVal012E3E80</title>
<ellipse fill="none" stroke="black" cx="517.175" cy="-18" rx="27" ry="18"/>
<text text-anchor="middle" x="517.175" y="-14.3" font-family="Times New Roman,serif" font-size="14.00">1</text>
</g>
<!-- Id012E3E80&#45;&gt;IdVal012E3E80 -->
<g id="edge8" class="edge"><title>Id012E3E80&#45;&gt;IdVal012E3E80</title>
<path fill="none" stroke="black" d="M517.175,-71.8249C517.175,-63.3308 517.175,-54.4344 517.175,-46.4159"/>
<polygon fill="black" stroke="black" points="520.675,-46.1461 517.175,-36.1461 513.675,-46.1462 520.675,-46.1461"/>
</g>
</g>
</svg>
