<?xml version="1.0" encoding="UTF-8" standalone="no"?>
<!DOCTYPE svg PUBLIC "-//W3C//DTD SVG 1.1//EN"
 "http://www.w3.org/Graphics/SVG/1.1/DTD/svg11.dtd">
<!-- Generated by graphviz version 2.38.0 (20140413.2041)
 -->
<!-- Title: G Pages: 1 -->
<svg width="1503pt" height="952pt"
 viewBox="0.00 0.00 1503.47 952.03" xmlns="http://www.w3.org/2000/svg" xmlns:xlink="http://www.w3.org/1999/xlink">
<g id="graph0" class="graph" transform="scale(1 1) rotate(0) translate(4 948.034)">
<title>G</title>
<polygon fill="white" stroke="none" points="-4,4 -4,-948.034 1499.47,-948.034 1499.47,4 -4,4"/>
<!-- Id016D5540 -->
<g id="node1" class="node"><title>Id016D5540</title>
<ellipse fill="none" stroke="black" cx="937.295" cy="-926.034" rx="41.6928" ry="18"/>
<text text-anchor="middle" x="937.295" y="-922.334" font-family="Times New Roman,serif" font-size="14.00">program</text>
</g>
<!-- Id016D3FE0 -->
<g id="node2" class="node"><title>Id016D3FE0</title>
<ellipse fill="none" stroke="black" cx="757.295" cy="-853.034" rx="27" ry="18"/>
<text text-anchor="middle" x="757.295" y="-849.334" font-family="Times New Roman,serif" font-size="14.00">stmt</text>
</g>
<!-- Id016D5540&#45;&gt;Id016D3FE0 -->
<g id="edge14" class="edge"><title>Id016D5540&#45;&gt;Id016D3FE0</title>
<path fill="none" stroke="black" d="M907.572,-913.309C874.945,-900.44 822.759,-879.855 789.265,-866.644"/>
<polygon fill="black" stroke="black" points="790.517,-863.375 779.93,-862.962 787.948,-869.887 790.517,-863.375"/>
</g>
<!-- Id016D4588 -->
<g id="node16" class="node"><title>Id016D4588</title>
<ellipse fill="none" stroke="black" cx="853.295" cy="-853.034" rx="27" ry="18"/>
<text text-anchor="middle" x="853.295" y="-849.334" font-family="Times New Roman,serif" font-size="14.00">stmt</text>
</g>
<!-- Id016D5540&#45;&gt;Id016D4588 -->
<g id="edge20" class="edge"><title>Id016D5540&#45;&gt;Id016D4588</title>
<path fill="none" stroke="black" d="M919.069,-909.628C906.841,-899.293 890.605,-885.57 877.324,-874.344"/>
<polygon fill="black" stroke="black" points="879.396,-871.512 869.499,-867.73 874.877,-876.858 879.396,-871.512"/>
</g>
<!-- Id016D4498 -->
<g id="node22" class="node"><title>Id016D4498</title>
<ellipse fill="none" stroke="black" cx="937.295" cy="-853.034" rx="27" ry="18"/>
<text text-anchor="middle" x="937.295" y="-849.334" font-family="Times New Roman,serif" font-size="14.00">stmt</text>
</g>
<!-- Id016D5540&#45;&gt;Id016D4498 -->
<g id="edge26" class="edge"><title>Id016D5540&#45;&gt;Id016D4498</title>
<path fill="none" stroke="black" d="M937.295,-907.847C937.295,-899.823 937.295,-890.081 937.295,-881.103"/>
<polygon fill="black" stroke="black" points="940.795,-881.062 937.295,-871.062 933.795,-881.062 940.795,-881.062"/>
</g>
<!-- Id016D4448 -->
<g id="node28" class="node"><title>Id016D4448</title>
<ellipse fill="none" stroke="black" cx="1027.3" cy="-853.034" rx="27" ry="18"/>
<text text-anchor="middle" x="1027.3" y="-849.334" font-family="Times New Roman,serif" font-size="14.00">stmt</text>
</g>
<!-- Id016D5540&#45;&gt;Id016D4448 -->
<g id="edge47" class="edge"><title>Id016D5540&#45;&gt;Id016D4448</title>
<path fill="none" stroke="black" d="M956.382,-909.976C969.753,-899.428 987.755,-885.226 1002.28,-873.772"/>
<polygon fill="black" stroke="black" points="1004.68,-876.335 1010.36,-867.393 1000.34,-870.839 1004.68,-876.335"/>
</g>
<!-- Id016D4308 -->
<g id="node49" class="node"><title>Id016D4308</title>
<ellipse fill="none" stroke="black" cx="1135.3" cy="-853.034" rx="27" ry="18"/>
<text text-anchor="middle" x="1135.3" y="-849.334" font-family="Times New Roman,serif" font-size="14.00">stmt</text>
</g>
<!-- Id016D5540&#45;&gt;Id016D4308 -->
<g id="edge53" class="edge"><title>Id016D5540&#45;&gt;Id016D4308</title>
<path fill="none" stroke="black" d="M968.233,-913.94C1004.62,-900.892 1064.78,-879.319 1102.11,-865.932"/>
<polygon fill="black" stroke="black" points="1103.77,-869.057 1112,-862.387 1101.41,-862.468 1103.77,-869.057"/>
</g>
<!-- Id016D3F70 -->
<g id="node3" class="node"><title>Id016D3F70</title>
<ellipse fill="none" stroke="black" cx="438.295" cy="-771.164" rx="27" ry="18"/>
<text text-anchor="middle" x="438.295" y="-767.464" font-family="Times New Roman,serif" font-size="14.00">=</text>
</g>
<!-- Id016D3FE0&#45;&gt;Id016D3F70 -->
<g id="edge13" class="edge"><title>Id016D3FE0&#45;&gt;Id016D3F70</title>
<path fill="none" stroke="black" d="M732.529,-845.833C676.114,-831.708 537.926,-797.109 473.028,-780.86"/>
<polygon fill="black" stroke="black" points="473.816,-777.449 463.265,-778.415 472.116,-784.24 473.816,-777.449"/>
</g>
<!-- Id016C51E8 -->
<g id="node4" class="node"><title>Id016C51E8</title>
<ellipse fill="none" stroke="black" cx="168.295" cy="-655.817" rx="67.3507" ry="26.7407"/>
<text text-anchor="middle" x="168.295" y="-659.617" font-family="Times New Roman,serif" font-size="14.00">var or method</text>
<text text-anchor="middle" x="168.295" y="-644.617" font-family="Times New Roman,serif" font-size="14.00"> localnum = 1</text>
</g>
<!-- Id016D3F70&#45;&gt;Id016C51E8 -->
<g id="edge11" class="edge"><title>Id016D3F70&#45;&gt;Id016C51E8</title>
<path fill="none" stroke="black" d="M415.74,-760.695C373.719,-743.054 282.362,-704.702 223.183,-679.859"/>
<polygon fill="black" stroke="black" points="224.188,-676.485 213.613,-675.841 221.479,-682.939 224.188,-676.485"/>
</g>
<!-- Id016D3F00 -->
<g id="node6" class="node"><title>Id016D3F00</title>
<ellipse fill="none" stroke="black" cx="438.295" cy="-655.817" rx="28.6953" ry="18"/>
<text text-anchor="middle" x="438.295" y="-652.117" font-family="Times New Roman,serif" font-size="14.00">array</text>
</g>
<!-- Id016D3F70&#45;&gt;Id016D3F00 -->
<g id="edge12" class="edge"><title>Id016D3F70&#45;&gt;Id016D3F00</title>
<path fill="none" stroke="black" d="M438.295,-752.949C438.295,-734.618 438.295,-705.353 438.295,-683.923"/>
<polygon fill="black" stroke="black" points="441.795,-683.822 438.295,-673.822 434.795,-683.822 441.795,-683.822"/>
</g>
<!-- IdVal016C51E8 -->
<g id="node5" class="node"><title>IdVal016C51E8</title>
<ellipse fill="none" stroke="black" cx="53.2953" cy="-529.864" rx="53.0913" ry="18"/>
<text text-anchor="middle" x="53.2953" y="-526.164" font-family="Times New Roman,serif" font-size="14.00">some_array</text>
</g>
<!-- Id016C51E8&#45;&gt;IdVal016C51E8 -->
<g id="edge1" class="edge"><title>Id016C51E8&#45;&gt;IdVal016C51E8</title>
<path fill="none" stroke="black" d="M145.575,-630.328C125.287,-608.46 95.7462,-576.619 75.5893,-554.893"/>
<polygon fill="black" stroke="black" points="77.9893,-552.334 68.6221,-547.384 72.8577,-557.095 77.9893,-552.334"/>
</g>
<!-- Id016D3CD0 -->
<g id="node7" class="node"><title>Id016D3CD0</title>
<ellipse fill="none" stroke="black" cx="189.295" cy="-529.864" rx="64.1938" ry="37.4533"/>
<text text-anchor="middle" x="189.295" y="-541.164" font-family="Times New Roman,serif" font-size="14.00">STRING</text>
<text text-anchor="middle" x="189.295" y="-526.164" font-family="Times New Roman,serif" font-size="14.00"> mref = #31</text>
<text text-anchor="middle" x="189.295" y="-511.164" font-family="Times New Roman,serif" font-size="14.00"> val_id = #28</text>
</g>
<!-- Id016D3F00&#45;&gt;Id016D3CD0 -->
<g id="edge3" class="edge"><title>Id016D3F00&#45;&gt;Id016D3CD0</title>
<path fill="none" stroke="black" d="M416.634,-644.034C379.164,-625.381 301.075,-586.508 246.948,-559.563"/>
<polygon fill="black" stroke="black" points="248.319,-556.336 237.807,-555.013 245.199,-562.603 248.319,-556.336"/>
</g>
<!-- Id016D3D40 -->
<g id="node9" class="node"><title>Id016D3D40</title>
<ellipse fill="none" stroke="black" cx="336.295" cy="-529.864" rx="64.1938" ry="37.4533"/>
<text text-anchor="middle" x="336.295" y="-541.164" font-family="Times New Roman,serif" font-size="14.00">INT</text>
<text text-anchor="middle" x="336.295" y="-526.164" font-family="Times New Roman,serif" font-size="14.00"> mref = #35</text>
<text text-anchor="middle" x="336.295" y="-511.164" font-family="Times New Roman,serif" font-size="14.00"> val_id = #32</text>
</g>
<!-- Id016D3F00&#45;&gt;Id016D3D40 -->
<g id="edge5" class="edge"><title>Id016D3F00&#45;&gt;Id016D3D40</title>
<path fill="none" stroke="black" d="M425.788,-639.618C411.988,-622.847 389.198,-595.153 370.071,-571.908"/>
<polygon fill="black" stroke="black" points="372.535,-569.395 363.479,-563.898 367.13,-573.843 372.535,-569.395"/>
</g>
<!-- Id016D3DB0 -->
<g id="node11" class="node"><title>Id016D3DB0</title>
<ellipse fill="none" stroke="black" cx="483.295" cy="-529.864" rx="64.1938" ry="37.4533"/>
<text text-anchor="middle" x="483.295" y="-541.164" font-family="Times New Roman,serif" font-size="14.00">BOOLEAN</text>
<text text-anchor="middle" x="483.295" y="-526.164" font-family="Times New Roman,serif" font-size="14.00"> mref = #39</text>
<text text-anchor="middle" x="483.295" y="-511.164" font-family="Times New Roman,serif" font-size="14.00"> val_id = #36</text>
</g>
<!-- Id016D3F00&#45;&gt;Id016D3DB0 -->
<g id="edge7" class="edge"><title>Id016D3F00&#45;&gt;Id016D3DB0</title>
<path fill="none" stroke="black" d="M444.364,-638.1C450.106,-622.284 458.987,-597.821 466.818,-576.251"/>
<polygon fill="black" stroke="black" points="470.204,-577.18 470.327,-566.586 463.624,-574.791 470.204,-577.18"/>
</g>
<!-- Id016D3E90 -->
<g id="node13" class="node"><title>Id016D3E90</title>
<ellipse fill="none" stroke="black" cx="594.295" cy="-529.864" rx="28.6953" ry="18"/>
<text text-anchor="middle" x="594.295" y="-526.164" font-family="Times New Roman,serif" font-size="14.00">array</text>
</g>
<!-- Id016D3F00&#45;&gt;Id016D3E90 -->
<g id="edge10" class="edge"><title>Id016D3F00&#45;&gt;Id016D3E90</title>
<path fill="none" stroke="black" d="M457.249,-641.885C481.039,-625.404 522.788,-595.645 556.295,-567.34 561.74,-562.741 567.391,-557.561 572.619,-552.581"/>
<polygon fill="black" stroke="black" points="575.16,-554.992 579.902,-545.517 570.287,-549.967 575.16,-554.992"/>
</g>
<!-- IdVal016D3CD0 -->
<g id="node8" class="node"><title>IdVal016D3CD0</title>
<ellipse fill="none" stroke="black" cx="189.295" cy="-417.91" rx="27" ry="18"/>
<text text-anchor="middle" x="189.295" y="-414.21" font-family="Times New Roman,serif" font-size="14.00">first</text>
</g>
<!-- Id016D3CD0&#45;&gt;IdVal016D3CD0 -->
<g id="edge2" class="edge"><title>Id016D3CD0&#45;&gt;IdVal016D3CD0</title>
<path fill="none" stroke="black" d="M189.295,-492.251C189.295,-477.265 189.295,-460.223 189.295,-446.341"/>
<polygon fill="black" stroke="black" points="192.795,-445.985 189.295,-435.985 185.795,-445.985 192.795,-445.985"/>
</g>
<!-- IdVal016D3D40 -->
<g id="node10" class="node"><title>IdVal016D3D40</title>
<ellipse fill="none" stroke="black" cx="336.295" cy="-417.91" rx="27" ry="18"/>
<text text-anchor="middle" x="336.295" y="-414.21" font-family="Times New Roman,serif" font-size="14.00">2</text>
</g>
<!-- Id016D3D40&#45;&gt;IdVal016D3D40 -->
<g id="edge4" class="edge"><title>Id016D3D40&#45;&gt;IdVal016D3D40</title>
<path fill="none" stroke="black" d="M336.295,-492.251C336.295,-477.265 336.295,-460.223 336.295,-446.341"/>
<polygon fill="black" stroke="black" points="339.795,-445.985 336.295,-435.985 332.795,-445.985 339.795,-445.985"/>
</g>
<!-- IdVal016D3DB0 -->
<g id="node12" class="node"><title>IdVal016D3DB0</title>
<ellipse fill="none" stroke="black" cx="483.295" cy="-417.91" rx="27" ry="18"/>
<text text-anchor="middle" x="483.295" y="-414.21" font-family="Times New Roman,serif" font-size="14.00">true</text>
</g>
<!-- Id016D3DB0&#45;&gt;IdVal016D3DB0 -->
<g id="edge6" class="edge"><title>Id016D3DB0&#45;&gt;IdVal016D3DB0</title>
<path fill="none" stroke="black" d="M483.295,-492.251C483.295,-477.265 483.295,-460.223 483.295,-446.341"/>
<polygon fill="black" stroke="black" points="486.795,-445.985 483.295,-435.985 479.795,-445.985 486.795,-445.985"/>
</g>
<!-- Id016D3E20 -->
<g id="node14" class="node"><title>Id016D3E20</title>
<ellipse fill="none" stroke="black" cx="594.295" cy="-417.91" rx="64.1938" ry="37.4533"/>
<text text-anchor="middle" x="594.295" y="-429.21" font-family="Times New Roman,serif" font-size="14.00">INT</text>
<text text-anchor="middle" x="594.295" y="-414.21" font-family="Times New Roman,serif" font-size="14.00"> mref = #35</text>
<text text-anchor="middle" x="594.295" y="-399.21" font-family="Times New Roman,serif" font-size="14.00"> val_id = #40</text>
</g>
<!-- Id016D3E90&#45;&gt;Id016D3E20 -->
<g id="edge9" class="edge"><title>Id016D3E90&#45;&gt;Id016D3E20</title>
<path fill="none" stroke="black" d="M594.295,-511.683C594.295,-499.279 594.295,-481.899 594.295,-465.53"/>
<polygon fill="black" stroke="black" points="597.795,-465.523 594.295,-455.523 590.795,-465.523 597.795,-465.523"/>
</g>
<!-- IdVal016D3E20 -->
<g id="node15" class="node"><title>IdVal016D3E20</title>
<ellipse fill="none" stroke="black" cx="594.295" cy="-316.563" rx="27" ry="18"/>
<text text-anchor="middle" x="594.295" y="-312.863" font-family="Times New Roman,serif" font-size="14.00">4</text>
</g>
<!-- Id016D3E20&#45;&gt;IdVal016D3E20 -->
<g id="edge8" class="edge"><title>Id016D3E20&#45;&gt;IdVal016D3E20</title>
<path fill="none" stroke="black" d="M594.295,-380.199C594.295,-368.509 594.295,-355.789 594.295,-344.884"/>
<polygon fill="black" stroke="black" points="597.795,-344.69 594.295,-334.69 590.795,-344.69 597.795,-344.69"/>
</g>
<!-- Id016D4150 -->
<g id="node17" class="node"><title>Id016D4150</title>
<ellipse fill="none" stroke="black" cx="743.295" cy="-771.164" rx="27" ry="18"/>
<text text-anchor="middle" x="743.295" y="-767.464" font-family="Times New Roman,serif" font-size="14.00">=</text>
</g>
<!-- Id016D4588&#45;&gt;Id016D4150 -->
<g id="edge19" class="edge"><title>Id016D4588&#45;&gt;Id016D4150</title>
<path fill="none" stroke="black" d="M835.622,-839.201C817.661,-826.16 789.643,-805.817 769.181,-790.959"/>
<polygon fill="black" stroke="black" points="771.073,-788.008 760.925,-784.964 766.96,-793.672 771.073,-788.008"/>
</g>
<!-- Id016D4070 -->
<g id="node18" class="node"><title>Id016D4070</title>
<ellipse fill="none" stroke="black" cx="593.295" cy="-655.817" rx="67.3507" ry="26.7407"/>
<text text-anchor="middle" x="593.295" y="-659.617" font-family="Times New Roman,serif" font-size="14.00">var or method</text>
<text text-anchor="middle" x="593.295" y="-644.617" font-family="Times New Roman,serif" font-size="14.00"> localnum = 2</text>
</g>
<!-- Id016D4150&#45;&gt;Id016D4070 -->
<g id="edge17" class="edge"><title>Id016D4150&#45;&gt;Id016D4070</title>
<path fill="none" stroke="black" d="M726.088,-757.161C703.298,-739.94 662.443,-709.068 632.047,-686.099"/>
<polygon fill="black" stroke="black" points="633.863,-683.085 623.774,-679.848 629.643,-688.669 633.863,-683.085"/>
</g>
<!-- Id016D40E0 -->
<g id="node20" class="node"><title>Id016D40E0</title>
<ellipse fill="none" stroke="black" cx="743.295" cy="-655.817" rx="64.1938" ry="37.4533"/>
<text text-anchor="middle" x="743.295" y="-667.117" font-family="Times New Roman,serif" font-size="14.00">INT</text>
<text text-anchor="middle" x="743.295" y="-652.117" font-family="Times New Roman,serif" font-size="14.00"> mref = #35</text>
<text text-anchor="middle" x="743.295" y="-637.117" font-family="Times New Roman,serif" font-size="14.00"> val_id = #41</text>
</g>
<!-- Id016D4150&#45;&gt;Id016D40E0 -->
<g id="edge18" class="edge"><title>Id016D4150&#45;&gt;Id016D40E0</title>
<path fill="none" stroke="black" d="M743.295,-752.949C743.295,-739.799 743.295,-721.023 743.295,-703.549"/>
<polygon fill="black" stroke="black" points="746.795,-703.463 743.295,-693.463 739.795,-703.463 746.795,-703.463"/>
</g>
<!-- IdVal016D4070 -->
<g id="node19" class="node"><title>IdVal016D4070</title>
<ellipse fill="none" stroke="black" cx="668.295" cy="-529.864" rx="27" ry="18"/>
<text text-anchor="middle" x="668.295" y="-526.164" font-family="Times New Roman,serif" font-size="14.00">a</text>
</g>
<!-- Id016D4070&#45;&gt;IdVal016D4070 -->
<g id="edge15" class="edge"><title>Id016D4070&#45;&gt;IdVal016D4070</title>
<path fill="none" stroke="black" d="M608.654,-629.434C621.72,-607.84 640.373,-577.011 653.326,-555.603"/>
<polygon fill="black" stroke="black" points="656.484,-557.146 658.666,-546.778 650.495,-553.522 656.484,-557.146"/>
</g>
<!-- IdVal016D40E0 -->
<g id="node21" class="node"><title>IdVal016D40E0</title>
<ellipse fill="none" stroke="black" cx="743.295" cy="-529.864" rx="27" ry="18"/>
<text text-anchor="middle" x="743.295" y="-526.164" font-family="Times New Roman,serif" font-size="14.00">0</text>
</g>
<!-- Id016D40E0&#45;&gt;IdVal016D40E0 -->
<g id="edge16" class="edge"><title>Id016D40E0&#45;&gt;IdVal016D40E0</title>
<path fill="none" stroke="black" d="M743.295,-618.297C743.295,-599.018 743.295,-575.761 743.295,-558.081"/>
<polygon fill="black" stroke="black" points="746.795,-557.879 743.295,-547.879 739.795,-557.879 746.795,-557.879"/>
</g>
<!-- Id016D5240 -->
<g id="node23" class="node"><title>Id016D5240</title>
<ellipse fill="none" stroke="black" cx="937.295" cy="-771.164" rx="27" ry="18"/>
<text text-anchor="middle" x="937.295" y="-767.464" font-family="Times New Roman,serif" font-size="14.00">=</text>
</g>
<!-- Id016D4498&#45;&gt;Id016D5240 -->
<g id="edge25" class="edge"><title>Id016D4498&#45;&gt;Id016D5240</title>
<path fill="none" stroke="black" d="M937.295,-834.703C937.295,-824.376 937.295,-811.041 937.295,-799.34"/>
<polygon fill="black" stroke="black" points="940.795,-799.186 937.295,-789.186 933.795,-799.186 940.795,-799.186"/>
</g>
<!-- Id016D4A38 -->
<g id="node24" class="node"><title>Id016D4A38</title>
<ellipse fill="none" stroke="black" cx="893.295" cy="-655.817" rx="67.3507" ry="26.7407"/>
<text text-anchor="middle" x="893.295" y="-659.617" font-family="Times New Roman,serif" font-size="14.00">var or method</text>
<text text-anchor="middle" x="893.295" y="-644.617" font-family="Times New Roman,serif" font-size="14.00"> localnum = 3</text>
</g>
<!-- Id016D5240&#45;&gt;Id016D4A38 -->
<g id="edge23" class="edge"><title>Id016D5240&#45;&gt;Id016D4A38</title>
<path fill="none" stroke="black" d="M930.803,-753.439C924.529,-737.278 914.833,-712.299 906.87,-691.787"/>
<polygon fill="black" stroke="black" points="910.12,-690.486 903.238,-682.431 903.594,-693.02 910.12,-690.486"/>
</g>
<!-- Id016D4AA8 -->
<g id="node26" class="node"><title>Id016D4AA8</title>
<ellipse fill="none" stroke="black" cx="1043.3" cy="-655.817" rx="64.1938" ry="37.4533"/>
<text text-anchor="middle" x="1043.3" y="-667.117" font-family="Times New Roman,serif" font-size="14.00">INT</text>
<text text-anchor="middle" x="1043.3" y="-652.117" font-family="Times New Roman,serif" font-size="14.00"> mref = #35</text>
<text text-anchor="middle" x="1043.3" y="-637.117" font-family="Times New Roman,serif" font-size="14.00"> val_id = #32</text>
</g>
<!-- Id016D5240&#45;&gt;Id016D4AA8 -->
<g id="edge24" class="edge"><title>Id016D5240&#45;&gt;Id016D4AA8</title>
<path fill="none" stroke="black" d="M951.153,-755.345C965.047,-740.488 987.051,-716.959 1006.07,-696.62"/>
<polygon fill="black" stroke="black" points="1008.65,-698.987 1012.92,-689.293 1003.54,-694.206 1008.65,-698.987"/>
</g>
<!-- IdVal016D4A38 -->
<g id="node25" class="node"><title>IdVal016D4A38</title>
<ellipse fill="none" stroke="black" cx="893.295" cy="-529.864" rx="27" ry="18"/>
<text text-anchor="middle" x="893.295" y="-526.164" font-family="Times New Roman,serif" font-size="14.00">b</text>
</g>
<!-- Id016D4A38&#45;&gt;IdVal016D4A38 -->
<g id="edge21" class="edge"><title>Id016D4A38&#45;&gt;IdVal016D4A38</title>
<path fill="none" stroke="black" d="M893.295,-628.832C893.295,-608.157 893.295,-579.305 893.295,-558.267"/>
<polygon fill="black" stroke="black" points="896.795,-558.063 893.295,-548.063 889.795,-558.063 896.795,-558.063"/>
</g>
<!-- IdVal016D4AA8 -->
<g id="node27" class="node"><title>IdVal016D4AA8</title>
<ellipse fill="none" stroke="black" cx="1040.3" cy="-529.864" rx="27" ry="18"/>
<text text-anchor="middle" x="1040.3" y="-526.164" font-family="Times New Roman,serif" font-size="14.00">2</text>
</g>
<!-- Id016D4AA8&#45;&gt;IdVal016D4AA8 -->
<g id="edge22" class="edge"><title>Id016D4AA8&#45;&gt;IdVal016D4AA8</title>
<path fill="none" stroke="black" d="M1042.41,-618.297C1041.94,-599.018 1041.38,-575.761 1040.95,-558.081"/>
<polygon fill="black" stroke="black" points="1044.45,-557.792 1040.71,-547.879 1037.45,-557.961 1044.45,-557.792"/>
</g>
<!-- Id016D5450 -->
<g id="node29" class="node"><title>Id016D5450</title>
<ellipse fill="none" stroke="black" cx="1082.3" cy="-771.164" rx="36.2938" ry="18"/>
<text text-anchor="middle" x="1082.3" y="-767.464" font-family="Times New Roman,serif" font-size="14.00">if_stmt</text>
</g>
<!-- Id016D4448&#45;&gt;Id016D5450 -->
<g id="edge46" class="edge"><title>Id016D4448&#45;&gt;Id016D5450</title>
<path fill="none" stroke="black" d="M1038.16,-836.254C1045.89,-825.025 1056.44,-809.714 1065.28,-796.873"/>
<polygon fill="black" stroke="black" points="1068.29,-798.68 1071.07,-788.459 1062.52,-794.71 1068.29,-798.68"/>
</g>
<!-- Id016CDFA0 -->
<g id="node30" class="node"><title>Id016CDFA0</title>
<ellipse fill="none" stroke="black" cx="1161.3" cy="-655.817" rx="35.9954" ry="18"/>
<text text-anchor="middle" x="1161.3" y="-652.117" font-family="Times New Roman,serif" font-size="14.00">branch</text>
</g>
<!-- Id016D5450&#45;&gt;Id016CDFA0 -->
<g id="edge45" class="edge"><title>Id016D5450&#45;&gt;Id016CDFA0</title>
<path fill="none" stroke="black" d="M1093.61,-753.924C1106.81,-734.986 1128.77,-703.479 1144.09,-681.507"/>
<polygon fill="black" stroke="black" points="1147.15,-683.232 1150,-673.027 1141.41,-679.229 1147.15,-683.232"/>
</g>
<!-- Id016D51D0 -->
<g id="node31" class="node"><title>Id016D51D0</title>
<ellipse fill="none" stroke="black" cx="1144.3" cy="-529.864" rx="58.8803" ry="26.7407"/>
<text text-anchor="middle" x="1144.3" y="-533.664" font-family="Times New Roman,serif" font-size="14.00">&lt;</text>
<text text-anchor="middle" x="1144.3" y="-518.664" font-family="Times New Roman,serif" font-size="14.00"> mref = #45</text>
</g>
<!-- Id016CDFA0&#45;&gt;Id016D51D0 -->
<g id="edge31" class="edge"><title>Id016CDFA0&#45;&gt;Id016D51D0</title>
<path fill="none" stroke="black" d="M1158.97,-637.842C1156.48,-619.706 1152.46,-590.416 1149.26,-567.066"/>
<polygon fill="black" stroke="black" points="1152.73,-566.577 1147.9,-557.145 1145.79,-567.528 1152.73,-566.577"/>
<text text-anchor="middle" x="1180.8" y="-589.14" font-family="Times New Roman,serif" font-size="14.00">condition</text>
</g>
<!-- IdBody016CDFA0 -->
<g id="node36" class="node"><title>IdBody016CDFA0</title>
<ellipse fill="none" stroke="black" cx="1253.3" cy="-529.864" rx="29.795" ry="18"/>
<text text-anchor="middle" x="1253.3" y="-526.164" font-family="Times New Roman,serif" font-size="14.00">body</text>
</g>
<!-- Id016CDFA0&#45;&gt;IdBody016CDFA0 -->
<g id="edge44" class="edge"><title>Id016CDFA0&#45;&gt;IdBody016CDFA0</title>
<path fill="none" stroke="black" d="M1177.05,-639.338C1187.37,-628.813 1200.82,-614.311 1211.3,-600.34 1221.8,-586.319 1232.01,-569.533 1239.73,-555.972"/>
<polygon fill="black" stroke="black" points="1242.82,-557.61 1244.65,-547.174 1236.71,-554.193 1242.82,-557.61"/>
</g>
<!-- Id016D4D00 -->
<g id="node32" class="node"><title>Id016D4D00</title>
<ellipse fill="none" stroke="black" cx="989.295" cy="-417.91" rx="67.3507" ry="26.7407"/>
<text text-anchor="middle" x="989.295" y="-421.71" font-family="Times New Roman,serif" font-size="14.00">var or method</text>
<text text-anchor="middle" x="989.295" y="-406.71" font-family="Times New Roman,serif" font-size="14.00"> localnum = 2</text>
</g>
<!-- Id016D51D0&#45;&gt;Id016D4D00 -->
<g id="edge29" class="edge"><title>Id016D51D0&#45;&gt;Id016D4D00</title>
<path fill="none" stroke="black" d="M1113.3,-506.877C1089.23,-489.799 1055.65,-465.981 1029.51,-447.435"/>
<polygon fill="black" stroke="black" points="1031.48,-444.546 1021.3,-441.614 1027.43,-450.255 1031.48,-444.546"/>
</g>
<!-- Id016D4C90 -->
<g id="node34" class="node"><title>Id016D4C90</title>
<ellipse fill="none" stroke="black" cx="1141.3" cy="-417.91" rx="67.3507" ry="26.7407"/>
<text text-anchor="middle" x="1141.3" y="-421.71" font-family="Times New Roman,serif" font-size="14.00">var or method</text>
<text text-anchor="middle" x="1141.3" y="-406.71" font-family="Times New Roman,serif" font-size="14.00"> localnum = 3</text>
</g>
<!-- Id016D51D0&#45;&gt;Id016D4C90 -->
<g id="edge30" class="edge"><title>Id016D51D0&#45;&gt;Id016D4C90</title>
<path fill="none" stroke="black" d="M1143.58,-502.806C1143.2,-488.565 1142.71,-470.705 1142.28,-455.128"/>
<polygon fill="black" stroke="black" points="1145.77,-454.681 1142,-444.781 1138.78,-454.872 1145.77,-454.681"/>
</g>
<!-- IdVal016D4D00 -->
<g id="node33" class="node"><title>IdVal016D4D00</title>
<ellipse fill="none" stroke="black" cx="989.295" cy="-316.563" rx="27" ry="18"/>
<text text-anchor="middle" x="989.295" y="-312.863" font-family="Times New Roman,serif" font-size="14.00">a</text>
</g>
<!-- Id016D4D00&#45;&gt;IdVal016D4D00 -->
<g id="edge27" class="edge"><title>Id016D4D00&#45;&gt;IdVal016D4D00</title>
<path fill="none" stroke="black" d="M989.295,-390.808C989.295,-376.698 989.295,-359.284 989.295,-344.977"/>
<polygon fill="black" stroke="black" points="992.795,-344.748 989.295,-334.748 985.795,-344.748 992.795,-344.748"/>
</g>
<!-- IdVal016D4C90 -->
<g id="node35" class="node"><title>IdVal016D4C90</title>
<ellipse fill="none" stroke="black" cx="1141.3" cy="-316.563" rx="27" ry="18"/>
<text text-anchor="middle" x="1141.3" y="-312.863" font-family="Times New Roman,serif" font-size="14.00">b</text>
</g>
<!-- Id016D4C90&#45;&gt;IdVal016D4C90 -->
<g id="edge28" class="edge"><title>Id016D4C90&#45;&gt;IdVal016D4C90</title>
<path fill="none" stroke="black" d="M1141.3,-390.808C1141.3,-376.698 1141.3,-359.284 1141.3,-344.977"/>
<polygon fill="black" stroke="black" points="1144.8,-344.748 1141.3,-334.748 1137.8,-344.748 1144.8,-344.748"/>
</g>
<!-- Id016D4678 -->
<g id="node37" class="node"><title>Id016D4678</title>
<ellipse fill="none" stroke="black" cx="1253.3" cy="-417.91" rx="27" ry="18"/>
<text text-anchor="middle" x="1253.3" y="-414.21" font-family="Times New Roman,serif" font-size="14.00">stmt</text>
</g>
<!-- IdBody016CDFA0&#45;&gt;Id016D4678 -->
<g id="edge37" class="edge"><title>IdBody016CDFA0&#45;&gt;Id016D4678</title>
<path fill="none" stroke="black" d="M1253.3,-511.683C1253.3,-494.174 1253.3,-466.75 1253.3,-446.252"/>
<polygon fill="black" stroke="black" points="1256.8,-445.97 1253.3,-435.97 1249.8,-445.97 1256.8,-445.97"/>
</g>
<!-- Id016D43A8 -->
<g id="node43" class="node"><title>Id016D43A8</title>
<ellipse fill="none" stroke="black" cx="1325.3" cy="-417.91" rx="27" ry="18"/>
<text text-anchor="middle" x="1325.3" y="-414.21" font-family="Times New Roman,serif" font-size="14.00">stmt</text>
</g>
<!-- IdBody016CDFA0&#45;&gt;Id016D43A8 -->
<g id="edge43" class="edge"><title>IdBody016CDFA0&#45;&gt;Id016D43A8</title>
<path fill="none" stroke="black" d="M1263.92,-512.64C1275.9,-494.345 1295.51,-464.402 1309.33,-443.291"/>
<polygon fill="black" stroke="black" points="1312.31,-445.127 1314.86,-434.843 1306.46,-441.292 1312.31,-445.127"/>
</g>
<!-- Id016D4D70 -->
<g id="node38" class="node"><title>Id016D4D70</title>
<ellipse fill="none" stroke="black" cx="1223.3" cy="-316.563" rx="27" ry="18"/>
<text text-anchor="middle" x="1223.3" y="-312.863" font-family="Times New Roman,serif" font-size="14.00">=</text>
</g>
<!-- Id016D4678&#45;&gt;Id016D4D70 -->
<g id="edge36" class="edge"><title>Id016D4678&#45;&gt;Id016D4D70</title>
<path fill="none" stroke="black" d="M1248.21,-400.057C1243.59,-384.786 1236.72,-362.023 1231.36,-344.275"/>
<polygon fill="black" stroke="black" points="1234.65,-343.06 1228.41,-334.499 1227.95,-345.084 1234.65,-343.06"/>
</g>
<!-- Id016D52B0 -->
<g id="node39" class="node"><title>Id016D52B0</title>
<ellipse fill="none" stroke="black" cx="1073.3" cy="-201.217" rx="67.3507" ry="26.7407"/>
<text text-anchor="middle" x="1073.3" y="-205.017" font-family="Times New Roman,serif" font-size="14.00">var or method</text>
<text text-anchor="middle" x="1073.3" y="-190.017" font-family="Times New Roman,serif" font-size="14.00"> localnum = 2</text>
</g>
<!-- Id016D4D70&#45;&gt;Id016D52B0 -->
<g id="edge34" class="edge"><title>Id016D4D70&#45;&gt;Id016D52B0</title>
<path fill="none" stroke="black" d="M1206.09,-302.561C1183.3,-285.34 1142.44,-254.468 1112.05,-231.499"/>
<polygon fill="black" stroke="black" points="1113.86,-228.484 1103.77,-225.248 1109.64,-234.069 1113.86,-228.484"/>
</g>
<!-- Id016D4B40 -->
<g id="node41" class="node"><title>Id016D4B40</title>
<ellipse fill="none" stroke="black" cx="1223.3" cy="-201.217" rx="64.1938" ry="37.4533"/>
<text text-anchor="middle" x="1223.3" y="-212.517" font-family="Times New Roman,serif" font-size="14.00">STRING</text>
<text text-anchor="middle" x="1223.3" y="-197.517" font-family="Times New Roman,serif" font-size="14.00"> mref = #31</text>
<text text-anchor="middle" x="1223.3" y="-182.517" font-family="Times New Roman,serif" font-size="14.00"> val_id = #47</text>
</g>
<!-- Id016D4D70&#45;&gt;Id016D4B40 -->
<g id="edge35" class="edge"><title>Id016D4D70&#45;&gt;Id016D4B40</title>
<path fill="none" stroke="black" d="M1223.3,-298.349C1223.3,-285.199 1223.3,-266.423 1223.3,-248.949"/>
<polygon fill="black" stroke="black" points="1226.8,-248.863 1223.3,-238.863 1219.8,-248.863 1226.8,-248.863"/>
</g>
<!-- IdVal016D52B0 -->
<g id="node40" class="node"><title>IdVal016D52B0</title>
<ellipse fill="none" stroke="black" cx="1073.3" cy="-99.8701" rx="27" ry="18"/>
<text text-anchor="middle" x="1073.3" y="-96.1701" font-family="Times New Roman,serif" font-size="14.00">a</text>
</g>
<!-- Id016D52B0&#45;&gt;IdVal016D52B0 -->
<g id="edge32" class="edge"><title>Id016D52B0&#45;&gt;IdVal016D52B0</title>
<path fill="none" stroke="black" d="M1073.3,-174.115C1073.3,-160.004 1073.3,-142.591 1073.3,-128.284"/>
<polygon fill="black" stroke="black" points="1076.8,-128.054 1073.3,-118.054 1069.8,-128.054 1076.8,-128.054"/>
</g>
<!-- IdVal016D4B40 -->
<g id="node42" class="node"><title>IdVal016D4B40</title>
<ellipse fill="none" stroke="black" cx="1223.3" cy="-99.8701" rx="27" ry="18"/>
<text text-anchor="middle" x="1223.3" y="-96.1701" font-family="Times New Roman,serif" font-size="14.00">123</text>
</g>
<!-- Id016D4B40&#45;&gt;IdVal016D4B40 -->
<g id="edge33" class="edge"><title>Id016D4B40&#45;&gt;IdVal016D4B40</title>
<path fill="none" stroke="black" d="M1223.3,-163.506C1223.3,-151.816 1223.3,-139.095 1223.3,-128.191"/>
<polygon fill="black" stroke="black" points="1226.8,-127.997 1223.3,-117.997 1219.8,-127.997 1226.8,-127.997"/>
</g>
<!-- Id016D4E50 -->
<g id="node44" class="node"><title>Id016D4E50</title>
<ellipse fill="none" stroke="black" cx="1339.3" cy="-316.563" rx="60.2083" ry="26.7407"/>
<text text-anchor="middle" x="1339.3" y="-320.363" font-family="Times New Roman,serif" font-size="14.00">method_call</text>
<text text-anchor="middle" x="1339.3" y="-305.363" font-family="Times New Roman,serif" font-size="14.00"> mref = #51</text>
</g>
<!-- Id016D43A8&#45;&gt;Id016D4E50 -->
<g id="edge42" class="edge"><title>Id016D43A8&#45;&gt;Id016D4E50</title>
<path fill="none" stroke="black" d="M1327.73,-399.605C1329.52,-386.928 1332.01,-369.267 1334.22,-353.578"/>
<polygon fill="black" stroke="black" points="1337.69,-354.016 1335.62,-343.625 1330.76,-353.039 1337.69,-354.016"/>
</g>
<!-- IdMethodNameVal016D4E50 -->
<g id="node45" class="node"><title>IdMethodNameVal016D4E50</title>
<ellipse fill="none" stroke="black" cx="1339.3" cy="-201.217" rx="33.5952" ry="18"/>
<text text-anchor="middle" x="1339.3" y="-197.517" font-family="Times New Roman,serif" font-size="14.00">println</text>
</g>
<!-- Id016D4E50&#45;&gt;IdMethodNameVal016D4E50 -->
<g id="edge38" class="edge"><title>Id016D4E50&#45;&gt;IdMethodNameVal016D4E50</title>
<path fill="none" stroke="black" d="M1339.3,-289.559C1339.3,-271.53 1339.3,-247.573 1339.3,-229.311"/>
<polygon fill="black" stroke="black" points="1342.8,-229.304 1339.3,-219.304 1335.8,-229.304 1342.8,-229.304"/>
<text text-anchor="middle" x="1354.3" y="-260.493" font-family="Times New Roman,serif" font-size="14.00">name</text>
</g>
<!-- Id016CE400 -->
<g id="node46" class="node"><title>Id016CE400</title>
<ellipse fill="none" stroke="black" cx="1428.3" cy="-201.217" rx="37.0935" ry="18"/>
<text text-anchor="middle" x="1428.3" y="-197.517" font-family="Times New Roman,serif" font-size="14.00">params</text>
</g>
<!-- Id016D4E50&#45;&gt;Id016CE400 -->
<g id="edge39" class="edge"><title>Id016D4E50&#45;&gt;Id016CE400</title>
<path fill="none" stroke="black" d="M1358.61,-290.969C1373.66,-271.799 1394.45,-245.327 1409.39,-226.291"/>
<polygon fill="black" stroke="black" points="1412.18,-228.402 1415.61,-218.376 1406.68,-224.079 1412.18,-228.402"/>
</g>
<!-- Id016D4DE0 -->
<g id="node47" class="node"><title>Id016D4DE0</title>
<ellipse fill="none" stroke="black" cx="1428.3" cy="-99.8701" rx="67.3507" ry="26.7407"/>
<text text-anchor="middle" x="1428.3" y="-103.67" font-family="Times New Roman,serif" font-size="14.00">var or method</text>
<text text-anchor="middle" x="1428.3" y="-88.6701" font-family="Times New Roman,serif" font-size="14.00"> localnum = 2</text>
</g>
<!-- Id016CE400&#45;&gt;Id016D4DE0 -->
<g id="edge41" class="edge"><title>Id016CE400&#45;&gt;Id016D4DE0</title>
<path fill="none" stroke="black" d="M1428.3,-182.912C1428.3,-170.355 1428.3,-152.91 1428.3,-137.334"/>
<polygon fill="black" stroke="black" points="1431.8,-136.932 1428.3,-126.932 1424.8,-136.932 1431.8,-136.932"/>
</g>
<!-- IdVal016D4DE0 -->
<g id="node48" class="node"><title>IdVal016D4DE0</title>
<ellipse fill="none" stroke="black" cx="1428.3" cy="-18" rx="27" ry="18"/>
<text text-anchor="middle" x="1428.3" y="-14.3" font-family="Times New Roman,serif" font-size="14.00">a</text>
</g>
<!-- Id016D4DE0&#45;&gt;IdVal016D4DE0 -->
<g id="edge40" class="edge"><title>Id016D4DE0&#45;&gt;IdVal016D4DE0</title>
<path fill="none" stroke="black" d="M1428.3,-72.7176C1428.3,-64.2726 1428.3,-54.8903 1428.3,-46.3604"/>
<polygon fill="black" stroke="black" points="1431.8,-46.1464 1428.3,-36.1464 1424.8,-46.1464 1431.8,-46.1464"/>
</g>
<!-- Id016D4F30 -->
<g id="node50" class="node"><title>Id016D4F30</title>
<ellipse fill="none" stroke="black" cx="1261.3" cy="-771.164" rx="60.2083" ry="26.7407"/>
<text text-anchor="middle" x="1261.3" y="-774.964" font-family="Times New Roman,serif" font-size="14.00">method_call</text>
<text text-anchor="middle" x="1261.3" y="-759.964" font-family="Times New Roman,serif" font-size="14.00"> mref = #51</text>
</g>
<!-- Id016D4308&#45;&gt;Id016D4F30 -->
<g id="edge52" class="edge"><title>Id016D4308&#45;&gt;Id016D4F30</title>
<path fill="none" stroke="black" d="M1154.16,-840.076C1171.25,-829.242 1197.05,-812.888 1219.05,-798.943"/>
<polygon fill="black" stroke="black" points="1221.01,-801.845 1227.58,-793.535 1217.26,-795.933 1221.01,-801.845"/>
</g>
<!-- IdMethodNameVal016D4F30 -->
<g id="node51" class="node"><title>IdMethodNameVal016D4F30</title>
<ellipse fill="none" stroke="black" cx="1261.3" cy="-655.817" rx="33.5952" ry="18"/>
<text text-anchor="middle" x="1261.3" y="-652.117" font-family="Times New Roman,serif" font-size="14.00">println</text>
</g>
<!-- Id016D4F30&#45;&gt;IdMethodNameVal016D4F30 -->
<g id="edge48" class="edge"><title>Id016D4F30&#45;&gt;IdMethodNameVal016D4F30</title>
<path fill="none" stroke="black" d="M1261.3,-744.16C1261.3,-726.13 1261.3,-702.173 1261.3,-683.911"/>
<polygon fill="black" stroke="black" points="1264.8,-683.904 1261.3,-673.904 1257.8,-683.904 1264.8,-683.904"/>
<text text-anchor="middle" x="1276.3" y="-715.094" font-family="Times New Roman,serif" font-size="14.00">name</text>
</g>
<!-- Id016CE588 -->
<g id="node52" class="node"><title>Id016CE588</title>
<ellipse fill="none" stroke="black" cx="1356.3" cy="-655.817" rx="37.0935" ry="18"/>
<text text-anchor="middle" x="1356.3" y="-652.117" font-family="Times New Roman,serif" font-size="14.00">params</text>
</g>
<!-- Id016D4F30&#45;&gt;Id016CE588 -->
<g id="edge49" class="edge"><title>Id016D4F30&#45;&gt;Id016CE588</title>
<path fill="none" stroke="black" d="M1281.68,-745.848C1297.89,-726.496 1320.46,-699.574 1336.52,-680.413"/>
<polygon fill="black" stroke="black" points="1339.22,-682.633 1342.97,-672.721 1333.86,-678.137 1339.22,-682.633"/>
</g>
<!-- Id016D4EC0 -->
<g id="node53" class="node"><title>Id016D4EC0</title>
<ellipse fill="none" stroke="black" cx="1394.3" cy="-529.864" rx="64.1938" ry="37.4533"/>
<text text-anchor="middle" x="1394.3" y="-541.164" font-family="Times New Roman,serif" font-size="14.00">STRING</text>
<text text-anchor="middle" x="1394.3" y="-526.164" font-family="Times New Roman,serif" font-size="14.00"> mref = #31</text>
<text text-anchor="middle" x="1394.3" y="-511.164" font-family="Times New Roman,serif" font-size="14.00"> val_id = #57</text>
</g>
<!-- Id016CE588&#45;&gt;Id016D4EC0 -->
<g id="edge51" class="edge"><title>Id016CE588&#45;&gt;Id016D4EC0</title>
<path fill="none" stroke="black" d="M1361.5,-637.842C1366.33,-622.087 1373.74,-597.915 1380.29,-576.532"/>
<polygon fill="black" stroke="black" points="1383.65,-577.53 1383.23,-566.944 1376.96,-575.479 1383.65,-577.53"/>
</g>
<!-- IdVal016D4EC0 -->
<g id="node54" class="node"><title>IdVal016D4EC0</title>
<ellipse fill="none" stroke="black" cx="1397.3" cy="-417.91" rx="27" ry="18"/>
<text text-anchor="middle" x="1397.3" y="-414.21" font-family="Times New Roman,serif" font-size="14.00">end</text>
</g>
<!-- Id016D4EC0&#45;&gt;IdVal016D4EC0 -->
<g id="edge50" class="edge"><title>Id016D4EC0&#45;&gt;IdVal016D4EC0</title>
<path fill="none" stroke="black" d="M1395.29,-492.251C1395.7,-477.265 1396.17,-460.223 1396.55,-446.341"/>
<polygon fill="black" stroke="black" points="1400.06,-446.077 1396.83,-435.985 1393.06,-445.886 1400.06,-446.077"/>
</g>
</g>
</svg>
