<?xml version="1.0" encoding="UTF-8" standalone="no"?>
<!DOCTYPE svg PUBLIC "-//W3C//DTD SVG 1.1//EN"
 "http://www.w3.org/Graphics/SVG/1.1/DTD/svg11.dtd">
<!-- Generated by graphviz version 2.38.0 (20140413.2041)
 -->
<!-- Title: G Pages: 1 -->
<svg width="523pt" height="404pt"
 viewBox="0.00 0.00 522.74 404.00" xmlns="http://www.w3.org/2000/svg" xmlns:xlink="http://www.w3.org/1999/xlink">
<g id="graph0" class="graph" transform="scale(1 1) rotate(0) translate(4 400)">
<title>G</title>
<polygon fill="white" stroke="none" points="-4,4 -4,-400 518.745,-400 518.745,4 -4,4"/>
<!-- Id00CB04D0 -->
<g id="node1" class="node"><title>Id00CB04D0</title>
<ellipse fill="none" stroke="black" cx="234.745" cy="-378" rx="41.6928" ry="18"/>
<text text-anchor="middle" x="234.745" y="-374.3" font-family="Times New Roman,serif" font-size="14.00">program</text>
</g>
<!-- Id00CB9A48 -->
<g id="node2" class="node"><title>Id00CB9A48</title>
<ellipse fill="none" stroke="black" cx="195.745" cy="-306" rx="27" ry="18"/>
<text text-anchor="middle" x="195.745" y="-302.3" font-family="Times New Roman,serif" font-size="14.00">stmt</text>
</g>
<!-- Id00CB04D0&#45;&gt;Id00CB9A48 -->
<g id="edge6" class="edge"><title>Id00CB04D0&#45;&gt;Id00CB9A48</title>
<path fill="none" stroke="black" d="M225.502,-360.411C220.839,-352.042 215.083,-341.71 209.879,-332.37"/>
<polygon fill="black" stroke="black" points="212.845,-330.502 204.921,-323.47 206.73,-333.909 212.845,-330.502"/>
</g>
<!-- Id00CC2380 -->
<g id="node8" class="node"><title>Id00CC2380</title>
<ellipse fill="none" stroke="black" cx="274.745" cy="-306" rx="27" ry="18"/>
<text text-anchor="middle" x="274.745" y="-302.3" font-family="Times New Roman,serif" font-size="14.00">stmt</text>
</g>
<!-- Id00CB04D0&#45;&gt;Id00CC2380 -->
<g id="edge17" class="edge"><title>Id00CB04D0&#45;&gt;Id00CC2380</title>
<path fill="none" stroke="black" d="M244.224,-360.411C249.076,-351.921 255.082,-341.41 260.479,-331.964"/>
<polygon fill="black" stroke="black" points="263.686,-333.407 265.608,-322.988 257.608,-329.934 263.686,-333.407"/>
</g>
<!-- Id00CB99C8 -->
<g id="node3" class="node"><title>Id00CB99C8</title>
<ellipse fill="none" stroke="black" cx="181.745" cy="-234" rx="27" ry="18"/>
<text text-anchor="middle" x="181.745" y="-230.3" font-family="Times New Roman,serif" font-size="14.00">=</text>
</g>
<!-- Id00CB9A48&#45;&gt;Id00CB99C8 -->
<g id="edge5" class="edge"><title>Id00CB9A48&#45;&gt;Id00CB99C8</title>
<path fill="none" stroke="black" d="M192.356,-288.055C190.814,-280.346 188.95,-271.027 187.217,-262.364"/>
<polygon fill="black" stroke="black" points="190.593,-261.395 185.2,-252.275 183.729,-262.768 190.593,-261.395"/>
</g>
<!-- Id00CB98F0 -->
<g id="node4" class="node"><title>Id00CB98F0</title>
<ellipse fill="none" stroke="black" cx="61.7445" cy="-162" rx="61.99" ry="18"/>
<text text-anchor="middle" x="61.7445" y="-158.3" font-family="Times New Roman,serif" font-size="14.00">var or method</text>
</g>
<!-- Id00CB99C8&#45;&gt;Id00CB98F0 -->
<g id="edge3" class="edge"><title>Id00CB99C8&#45;&gt;Id00CB98F0</title>
<path fill="none" stroke="black" d="M161.929,-221.441C144.338,-211.18 118.219,-195.943 97.0596,-183.6"/>
<polygon fill="black" stroke="black" points="98.7359,-180.526 88.3345,-178.511 95.2088,-186.573 98.7359,-180.526"/>
</g>
<!-- Id00CB9978 -->
<g id="node6" class="node"><title>Id00CB9978</title>
<ellipse fill="none" stroke="black" cx="185.745" cy="-162" rx="44.393" ry="18"/>
<text text-anchor="middle" x="185.745" y="-158.3" font-family="Times New Roman,serif" font-size="14.00">STRING</text>
</g>
<!-- Id00CB99C8&#45;&gt;Id00CB9978 -->
<g id="edge4" class="edge"><title>Id00CB99C8&#45;&gt;Id00CB9978</title>
<path fill="none" stroke="black" d="M182.733,-215.697C183.174,-207.983 183.704,-198.712 184.195,-190.112"/>
<polygon fill="black" stroke="black" points="187.691,-190.288 184.767,-180.104 180.702,-189.888 187.691,-190.288"/>
</g>
<!-- IdVal00CB98F0 -->
<g id="node5" class="node"><title>IdVal00CB98F0</title>
<ellipse fill="none" stroke="black" cx="61.7445" cy="-90" rx="27" ry="18"/>
<text text-anchor="middle" x="61.7445" y="-86.3" font-family="Times New Roman,serif" font-size="14.00">a</text>
</g>
<!-- Id00CB98F0&#45;&gt;IdVal00CB98F0 -->
<g id="edge1" class="edge"><title>Id00CB98F0&#45;&gt;IdVal00CB98F0</title>
<path fill="none" stroke="black" d="M61.7445,-143.697C61.7445,-135.983 61.7445,-126.712 61.7445,-118.112"/>
<polygon fill="black" stroke="black" points="65.2446,-118.104 61.7445,-108.104 58.2446,-118.104 65.2446,-118.104"/>
</g>
<!-- IdVal00CB9978 -->
<g id="node7" class="node"><title>IdVal00CB9978</title>
<ellipse fill="none" stroke="black" cx="185.745" cy="-90" rx="27" ry="18"/>
<text text-anchor="middle" x="185.745" y="-86.3" font-family="Times New Roman,serif" font-size="14.00">asdr</text>
</g>
<!-- Id00CB9978&#45;&gt;IdVal00CB9978 -->
<g id="edge2" class="edge"><title>Id00CB9978&#45;&gt;IdVal00CB9978</title>
<path fill="none" stroke="black" d="M185.745,-143.697C185.745,-135.983 185.745,-126.712 185.745,-118.112"/>
<polygon fill="black" stroke="black" points="189.245,-118.104 185.745,-108.104 182.245,-118.104 189.245,-118.104"/>
</g>
<!-- Id00CC2510 -->
<g id="node9" class="node"><title>Id00CC2510</title>
<ellipse fill="none" stroke="black" cx="281.745" cy="-234" rx="55.4913" ry="18"/>
<text text-anchor="middle" x="281.745" y="-230.3" font-family="Times New Roman,serif" font-size="14.00">method_call</text>
</g>
<!-- Id00CC2380&#45;&gt;Id00CC2510 -->
<g id="edge16" class="edge"><title>Id00CC2380&#45;&gt;Id00CC2510</title>
<path fill="none" stroke="black" d="M276.475,-287.697C277.246,-279.983 278.173,-270.712 279.033,-262.112"/>
<polygon fill="black" stroke="black" points="282.522,-262.403 280.034,-252.104 275.556,-261.706 282.522,-262.403"/>
</g>
<!-- IdMethodName00CC2510 -->
<g id="node10" class="node"><title>IdMethodName00CC2510</title>
<ellipse fill="none" stroke="black" cx="279.745" cy="-162" rx="29.795" ry="18"/>
<text text-anchor="middle" x="279.745" y="-158.3" font-family="Times New Roman,serif" font-size="14.00">name</text>
</g>
<!-- Id00CC2510&#45;&gt;IdMethodName00CC2510 -->
<g id="edge7" class="edge"><title>Id00CC2510&#45;&gt;IdMethodName00CC2510</title>
<path fill="none" stroke="black" d="M281.25,-215.697C281.03,-207.983 280.765,-198.712 280.519,-190.112"/>
<polygon fill="black" stroke="black" points="284.017,-190 280.233,-180.104 277.02,-190.2 284.017,-190"/>
</g>
<!-- Id00CB9AD0 -->
<g id="node12" class="node"><title>Id00CB9AD0</title>
<ellipse fill="none" stroke="black" cx="390.745" cy="-162" rx="37.0935" ry="18"/>
<text text-anchor="middle" x="390.745" y="-158.3" font-family="Times New Roman,serif" font-size="14.00">params</text>
</g>
<!-- Id00CC2510&#45;&gt;Id00CB9AD0 -->
<g id="edge9" class="edge"><title>Id00CC2510&#45;&gt;Id00CB9AD0</title>
<path fill="none" stroke="black" d="M305.665,-217.638C321.781,-207.288 343.173,-193.551 360.474,-182.44"/>
<polygon fill="black" stroke="black" points="362.576,-185.25 369.099,-176.901 358.793,-179.36 362.576,-185.25"/>
</g>
<!-- IdMethodNameVal00CC2510 -->
<g id="node11" class="node"><title>IdMethodNameVal00CC2510</title>
<ellipse fill="none" stroke="black" cx="271.745" cy="-90" rx="27" ry="18"/>
<text text-anchor="middle" x="271.745" y="-86.3" font-family="Times New Roman,serif" font-size="14.00">b</text>
</g>
<!-- IdMethodName00CC2510&#45;&gt;IdMethodNameVal00CC2510 -->
<g id="edge8" class="edge"><title>IdMethodName00CC2510&#45;&gt;IdMethodNameVal00CC2510</title>
<path fill="none" stroke="black" d="M277.767,-143.697C276.885,-135.983 275.826,-126.712 274.843,-118.112"/>
<polygon fill="black" stroke="black" points="278.312,-117.642 273.699,-108.104 271.357,-118.437 278.312,-117.642"/>
</g>
<!-- Id00CC2010 -->
<g id="node13" class="node"><title>Id00CC2010</title>
<ellipse fill="none" stroke="black" cx="343.745" cy="-90" rx="27" ry="18"/>
<text text-anchor="middle" x="343.745" y="-86.3" font-family="Times New Roman,serif" font-size="14.00">INT</text>
</g>
<!-- Id00CB9AD0&#45;&gt;Id00CC2010 -->
<g id="edge11" class="edge"><title>Id00CB9AD0&#45;&gt;Id00CC2010</title>
<path fill="none" stroke="black" d="M379.844,-144.765C373.947,-135.983 366.548,-124.963 359.987,-115.19"/>
<polygon fill="black" stroke="black" points="362.743,-113.017 354.263,-106.666 356.932,-116.919 362.743,-113.017"/>
</g>
<!-- Id00CC2060 -->
<g id="node15" class="node"><title>Id00CC2060</title>
<ellipse fill="none" stroke="black" cx="415.745" cy="-90" rx="27" ry="18"/>
<text text-anchor="middle" x="415.745" y="-86.3" font-family="Times New Roman,serif" font-size="14.00">INT</text>
</g>
<!-- Id00CB9AD0&#45;&gt;Id00CC2060 -->
<g id="edge13" class="edge"><title>Id00CB9AD0&#45;&gt;Id00CC2060</title>
<path fill="none" stroke="black" d="M396.796,-144.055C399.652,-136.059 403.126,-126.331 406.316,-117.4"/>
<polygon fill="black" stroke="black" points="409.681,-118.384 409.748,-107.789 403.089,-116.029 409.681,-118.384"/>
</g>
<!-- Id00CC2420 -->
<g id="node17" class="node"><title>Id00CC2420</title>
<ellipse fill="none" stroke="black" cx="487.745" cy="-90" rx="27" ry="18"/>
<text text-anchor="middle" x="487.745" y="-86.3" font-family="Times New Roman,serif" font-size="14.00">INT</text>
</g>
<!-- Id00CB9AD0&#45;&gt;Id00CC2420 -->
<g id="edge15" class="edge"><title>Id00CB9AD0&#45;&gt;Id00CC2420</title>
<path fill="none" stroke="black" d="M410.843,-146.496C425.545,-135.886 445.623,-121.397 461.576,-109.884"/>
<polygon fill="black" stroke="black" points="463.894,-112.528 469.955,-103.838 459.798,-106.852 463.894,-112.528"/>
</g>
<!-- IdVal00CC2010 -->
<g id="node14" class="node"><title>IdVal00CC2010</title>
<ellipse fill="none" stroke="black" cx="343.745" cy="-18" rx="27" ry="18"/>
<text text-anchor="middle" x="343.745" y="-14.3" font-family="Times New Roman,serif" font-size="14.00">1</text>
</g>
<!-- Id00CC2010&#45;&gt;IdVal00CC2010 -->
<g id="edge10" class="edge"><title>Id00CC2010&#45;&gt;IdVal00CC2010</title>
<path fill="none" stroke="black" d="M343.745,-71.6966C343.745,-63.9827 343.745,-54.7125 343.745,-46.1124"/>
<polygon fill="black" stroke="black" points="347.245,-46.1043 343.745,-36.1043 340.245,-46.1044 347.245,-46.1043"/>
</g>
<!-- IdVal00CC2060 -->
<g id="node16" class="node"><title>IdVal00CC2060</title>
<ellipse fill="none" stroke="black" cx="415.745" cy="-18" rx="27" ry="18"/>
<text text-anchor="middle" x="415.745" y="-14.3" font-family="Times New Roman,serif" font-size="14.00">2</text>
</g>
<!-- Id00CC2060&#45;&gt;IdVal00CC2060 -->
<g id="edge12" class="edge"><title>Id00CC2060&#45;&gt;IdVal00CC2060</title>
<path fill="none" stroke="black" d="M415.745,-71.6966C415.745,-63.9827 415.745,-54.7125 415.745,-46.1124"/>
<polygon fill="black" stroke="black" points="419.245,-46.1043 415.745,-36.1043 412.245,-46.1044 419.245,-46.1043"/>
</g>
<!-- IdVal00CC2420 -->
<g id="node18" class="node"><title>IdVal00CC2420</title>
<ellipse fill="none" stroke="black" cx="487.745" cy="-18" rx="27" ry="18"/>
<text text-anchor="middle" x="487.745" y="-14.3" font-family="Times New Roman,serif" font-size="14.00">3</text>
</g>
<!-- Id00CC2420&#45;&gt;IdVal00CC2420 -->
<g id="edge14" class="edge"><title>Id00CC2420&#45;&gt;IdVal00CC2420</title>
<path fill="none" stroke="black" d="M487.745,-71.6966C487.745,-63.9827 487.745,-54.7125 487.745,-46.1124"/>
<polygon fill="black" stroke="black" points="491.245,-46.1043 487.745,-36.1043 484.245,-46.1044 491.245,-46.1043"/>
</g>
</g>
</svg>
