<?xml version="1.0" encoding="UTF-8" standalone="no"?>
<!DOCTYPE svg PUBLIC "-//W3C//DTD SVG 1.1//EN"
 "http://www.w3.org/Graphics/SVG/1.1/DTD/svg11.dtd">
<!-- Generated by graphviz version 2.38.0 (20140413.2041)
 -->
<!-- Title: G Pages: 1 -->
<svg width="1277pt" height="858pt"
 viewBox="0.00 0.00 1277.18 857.82" xmlns="http://www.w3.org/2000/svg" xmlns:xlink="http://www.w3.org/1999/xlink">
<g id="graph0" class="graph" transform="scale(1 1) rotate(0) translate(4 853.82)">
<title>G</title>
<polygon fill="white" stroke="none" points="-4,4 -4,-853.82 1273.18,-853.82 1273.18,4 -4,4"/>
<!-- Id00B355D0 -->
<g id="node1" class="node"><title>Id00B355D0</title>
<ellipse fill="none" stroke="black" cx="749" cy="-831.82" rx="41.6928" ry="18"/>
<text text-anchor="middle" x="749" y="-828.12" font-family="Times New Roman,serif" font-size="14.00">program</text>
</g>
<!-- Id00B33E60 -->
<g id="node2" class="node"><title>Id00B33E60</title>
<ellipse fill="none" stroke="black" cx="466" cy="-749.95" rx="27" ry="18"/>
<text text-anchor="middle" x="466" y="-746.25" font-family="Times New Roman,serif" font-size="14.00">stmt</text>
</g>
<!-- Id00B355D0&#45;&gt;Id00B33E60 -->
<g id="edge11" class="edge"><title>Id00B355D0&#45;&gt;Id00B33E60</title>
<path fill="none" stroke="black" d="M715.145,-821.266C660.839,-805.939 554.84,-776.023 500.272,-760.623"/>
<polygon fill="black" stroke="black" points="500.964,-757.182 490.39,-757.834 499.063,-763.918 500.964,-757.182"/>
</g>
<!-- Id00B343C0 -->
<g id="node13" class="node"><title>Id00B343C0</title>
<ellipse fill="none" stroke="black" cx="599" cy="-749.95" rx="27" ry="18"/>
<text text-anchor="middle" x="599" y="-746.25" font-family="Times New Roman,serif" font-size="14.00">stmt</text>
</g>
<!-- Id00B355D0&#45;&gt;Id00B343C0 -->
<g id="edge20" class="edge"><title>Id00B355D0&#45;&gt;Id00B343C0</title>
<path fill="none" stroke="black" d="M723.893,-817.452C697.518,-803.408 656.076,-781.341 628.242,-766.521"/>
<polygon fill="black" stroke="black" points="629.838,-763.405 619.366,-761.795 626.548,-769.584 629.838,-763.405"/>
</g>
<!-- Id00B352E8 -->
<g id="node22" class="node"><title>Id00B352E8</title>
<ellipse fill="none" stroke="black" cx="749" cy="-749.95" rx="59.2941" ry="26.7407"/>
<text text-anchor="middle" x="749" y="-753.75" font-family="Times New Roman,serif" font-size="14.00">def_method</text>
<text text-anchor="middle" x="749" y="-738.75" font-family="Times New Roman,serif" font-size="14.00"> mref = #48</text>
</g>
<!-- Id00B355D0&#45;&gt;Id00B352E8 -->
<g id="edge36" class="edge"><title>Id00B355D0&#45;&gt;Id00B352E8</title>
<path fill="none" stroke="black" d="M749,-813.49C749,-805.756 749,-796.336 749,-787.179"/>
<polygon fill="black" stroke="black" points="752.5,-787.054 749,-777.054 745.5,-787.054 752.5,-787.054"/>
</g>
<!-- Id00B34140 -->
<g id="node38" class="node"><title>Id00B34140</title>
<ellipse fill="none" stroke="black" cx="868" cy="-749.95" rx="27" ry="18"/>
<text text-anchor="middle" x="868" y="-746.25" font-family="Times New Roman,serif" font-size="14.00">stmt</text>
</g>
<!-- Id00B355D0&#45;&gt;Id00B34140 -->
<g id="edge42" class="edge"><title>Id00B355D0&#45;&gt;Id00B34140</title>
<path fill="none" stroke="black" d="M770.55,-816.357C790.447,-803.002 820.061,-783.126 841.419,-768.791"/>
<polygon fill="black" stroke="black" points="843.376,-771.693 849.729,-763.213 839.475,-765.88 843.376,-771.693"/>
</g>
<!-- Id00B344B0 -->
<g id="node44" class="node"><title>Id00B344B0</title>
<ellipse fill="none" stroke="black" cx="948" cy="-749.95" rx="27" ry="18"/>
<text text-anchor="middle" x="948" y="-746.25" font-family="Times New Roman,serif" font-size="14.00">stmt</text>
</g>
<!-- Id00B355D0&#45;&gt;Id00B344B0 -->
<g id="edge48" class="edge"><title>Id00B355D0&#45;&gt;Id00B344B0</title>
<path fill="none" stroke="black" d="M782.701,-821.176C814.611,-811.559 863.527,-795.548 904,-776.82 909.461,-774.293 915.121,-771.287 920.49,-768.233"/>
<polygon fill="black" stroke="black" points="922.323,-771.215 929.164,-763.125 918.771,-765.183 922.323,-771.215"/>
</g>
<!-- Id00B33DF0 -->
<g id="node3" class="node"><title>Id00B33DF0</title>
<ellipse fill="none" stroke="black" cx="283" cy="-645.21" rx="27" ry="18"/>
<text text-anchor="middle" x="283" y="-641.51" font-family="Times New Roman,serif" font-size="14.00">=</text>
</g>
<!-- Id00B33E60&#45;&gt;Id00B33DF0 -->
<g id="edge10" class="edge"><title>Id00B33E60&#45;&gt;Id00B33DF0</title>
<path fill="none" stroke="black" d="M446.067,-737.76C413.616,-719.541 349.234,-683.395 311.807,-662.383"/>
<polygon fill="black" stroke="black" points="313.341,-659.231 302.908,-657.387 309.914,-665.334 313.341,-659.231"/>
</g>
<!-- Id00B33BC0 -->
<g id="node4" class="node"><title>Id00B33BC0</title>
<ellipse fill="none" stroke="black" cx="98" cy="-540.47" rx="67.3507" ry="26.7407"/>
<text text-anchor="middle" x="98" y="-544.27" font-family="Times New Roman,serif" font-size="14.00">var or method</text>
<text text-anchor="middle" x="98" y="-529.27" font-family="Times New Roman,serif" font-size="14.00"> localnum = 1</text>
</g>
<!-- Id00B33DF0&#45;&gt;Id00B33BC0 -->
<g id="edge8" class="edge"><title>Id00B33DF0&#45;&gt;Id00B33BC0</title>
<path fill="none" stroke="black" d="M262.85,-633.02C234.759,-617.42 183.003,-588.677 144.952,-567.545"/>
<polygon fill="black" stroke="black" points="146.525,-564.415 136.083,-562.62 143.126,-570.535 146.525,-564.415"/>
</g>
<!-- Id00B33D80 -->
<g id="node6" class="node"><title>Id00B33D80</title>
<ellipse fill="none" stroke="black" cx="283" cy="-540.47" rx="28.6953" ry="18"/>
<text text-anchor="middle" x="283" y="-536.77" font-family="Times New Roman,serif" font-size="14.00">array</text>
</g>
<!-- Id00B33DF0&#45;&gt;Id00B33D80 -->
<g id="edge9" class="edge"><title>Id00B33DF0&#45;&gt;Id00B33D80</title>
<path fill="none" stroke="black" d="M283,-626.782C283,-610.893 283,-587.163 283,-568.761"/>
<polygon fill="black" stroke="black" points="286.5,-568.641 283,-558.641 279.5,-568.641 286.5,-568.641"/>
</g>
<!-- IdVal00B33BC0 -->
<g id="node5" class="node"><title>IdVal00B33BC0</title>
<ellipse fill="none" stroke="black" cx="27" cy="-425.123" rx="27" ry="18"/>
<text text-anchor="middle" x="27" y="-421.423" font-family="Times New Roman,serif" font-size="14.00">a</text>
</g>
<!-- Id00B33BC0&#45;&gt;IdVal00B33BC0 -->
<g id="edge1" class="edge"><title>Id00B33BC0&#45;&gt;IdVal00B33BC0</title>
<path fill="none" stroke="black" d="M82.2428,-514.315C70.376,-495.37 54.1937,-469.536 42.4118,-450.727"/>
<polygon fill="black" stroke="black" points="45.2943,-448.736 37.0196,-442.119 39.362,-452.452 45.2943,-448.736"/>
</g>
<!-- Id00B33C30 -->
<g id="node7" class="node"><title>Id00B33C30</title>
<ellipse fill="none" stroke="black" cx="136" cy="-425.123" rx="64.1938" ry="37.4533"/>
<text text-anchor="middle" x="136" y="-436.423" font-family="Times New Roman,serif" font-size="14.00">INT</text>
<text text-anchor="middle" x="136" y="-421.423" font-family="Times New Roman,serif" font-size="14.00"> mref = #30</text>
<text text-anchor="middle" x="136" y="-406.423" font-family="Times New Roman,serif" font-size="14.00"> val_id = #27</text>
</g>
<!-- Id00B33D80&#45;&gt;Id00B33C30 -->
<g id="edge3" class="edge"><title>Id00B33D80&#45;&gt;Id00B33C30</title>
<path fill="none" stroke="black" d="M265.56,-526.023C245.14,-510.278 210.508,-483.574 182.184,-461.735"/>
<polygon fill="black" stroke="black" points="184.057,-458.759 174.001,-455.425 179.783,-464.303 184.057,-458.759"/>
</g>
<!-- Id00B33CA0 -->
<g id="node9" class="node"><title>Id00B33CA0</title>
<ellipse fill="none" stroke="black" cx="283" cy="-425.123" rx="64.1938" ry="37.4533"/>
<text text-anchor="middle" x="283" y="-436.423" font-family="Times New Roman,serif" font-size="14.00">INT</text>
<text text-anchor="middle" x="283" y="-421.423" font-family="Times New Roman,serif" font-size="14.00"> mref = #30</text>
<text text-anchor="middle" x="283" y="-406.423" font-family="Times New Roman,serif" font-size="14.00"> val_id = #31</text>
</g>
<!-- Id00B33D80&#45;&gt;Id00B33CA0 -->
<g id="edge5" class="edge"><title>Id00B33D80&#45;&gt;Id00B33CA0</title>
<path fill="none" stroke="black" d="M283,-522.255C283,-509.106 283,-490.33 283,-472.856"/>
<polygon fill="black" stroke="black" points="286.5,-472.77 283,-462.77 279.5,-472.77 286.5,-472.77"/>
</g>
<!-- Id00B33D10 -->
<g id="node11" class="node"><title>Id00B33D10</title>
<ellipse fill="none" stroke="black" cx="430" cy="-425.123" rx="64.1938" ry="37.4533"/>
<text text-anchor="middle" x="430" y="-436.423" font-family="Times New Roman,serif" font-size="14.00">INT</text>
<text text-anchor="middle" x="430" y="-421.423" font-family="Times New Roman,serif" font-size="14.00"> mref = #30</text>
<text text-anchor="middle" x="430" y="-406.423" font-family="Times New Roman,serif" font-size="14.00"> val_id = #32</text>
</g>
<!-- Id00B33D80&#45;&gt;Id00B33D10 -->
<g id="edge7" class="edge"><title>Id00B33D80&#45;&gt;Id00B33D10</title>
<path fill="none" stroke="black" d="M300.44,-526.023C320.86,-510.278 355.492,-483.574 383.816,-461.735"/>
<polygon fill="black" stroke="black" points="386.217,-464.303 391.999,-455.425 381.943,-458.759 386.217,-464.303"/>
</g>
<!-- IdVal00B33C30 -->
<g id="node8" class="node"><title>IdVal00B33C30</title>
<ellipse fill="none" stroke="black" cx="136" cy="-313.17" rx="27" ry="18"/>
<text text-anchor="middle" x="136" y="-309.47" font-family="Times New Roman,serif" font-size="14.00">1</text>
</g>
<!-- Id00B33C30&#45;&gt;IdVal00B33C30 -->
<g id="edge2" class="edge"><title>Id00B33C30&#45;&gt;IdVal00B33C30</title>
<path fill="none" stroke="black" d="M136,-387.511C136,-372.525 136,-355.483 136,-341.601"/>
<polygon fill="black" stroke="black" points="139.5,-341.245 136,-331.245 132.5,-341.245 139.5,-341.245"/>
</g>
<!-- IdVal00B33CA0 -->
<g id="node10" class="node"><title>IdVal00B33CA0</title>
<ellipse fill="none" stroke="black" cx="283" cy="-313.17" rx="27" ry="18"/>
<text text-anchor="middle" x="283" y="-309.47" font-family="Times New Roman,serif" font-size="14.00">2</text>
</g>
<!-- Id00B33CA0&#45;&gt;IdVal00B33CA0 -->
<g id="edge4" class="edge"><title>Id00B33CA0&#45;&gt;IdVal00B33CA0</title>
<path fill="none" stroke="black" d="M283,-387.511C283,-372.525 283,-355.483 283,-341.601"/>
<polygon fill="black" stroke="black" points="286.5,-341.245 283,-331.245 279.5,-341.245 286.5,-341.245"/>
</g>
<!-- IdVal00B33D10 -->
<g id="node12" class="node"><title>IdVal00B33D10</title>
<ellipse fill="none" stroke="black" cx="394" cy="-313.17" rx="27" ry="18"/>
<text text-anchor="middle" x="394" y="-309.47" font-family="Times New Roman,serif" font-size="14.00">3</text>
</g>
<!-- Id00B33D10&#45;&gt;IdVal00B33D10 -->
<g id="edge6" class="edge"><title>Id00B33D10&#45;&gt;IdVal00B33D10</title>
<path fill="none" stroke="black" d="M418.212,-388.121C413.13,-372.598 407.295,-354.775 402.626,-340.516"/>
<polygon fill="black" stroke="black" points="405.898,-339.262 399.46,-330.847 399.246,-341.44 405.898,-339.262"/>
</g>
<!-- Id00B34008 -->
<g id="node14" class="node"><title>Id00B34008</title>
<ellipse fill="none" stroke="black" cx="554" cy="-645.21" rx="60.2083" ry="26.7407"/>
<text text-anchor="middle" x="554" y="-649.01" font-family="Times New Roman,serif" font-size="14.00">method_call</text>
<text text-anchor="middle" x="554" y="-634.01" font-family="Times New Roman,serif" font-size="14.00"> mref = #36</text>
</g>
<!-- Id00B343C0&#45;&gt;Id00B34008 -->
<g id="edge19" class="edge"><title>Id00B343C0&#45;&gt;Id00B34008</title>
<path fill="none" stroke="black" d="M591.77,-732.443C585.733,-718.66 576.918,-698.535 569.323,-681.194"/>
<polygon fill="black" stroke="black" points="572.472,-679.66 565.254,-671.904 566.06,-682.468 572.472,-679.66"/>
</g>
<!-- IdMethodNameVal00B34008 -->
<g id="node15" class="node"><title>IdMethodNameVal00B34008</title>
<ellipse fill="none" stroke="black" cx="496" cy="-540.47" rx="33.5952" ry="18"/>
<text text-anchor="middle" x="496" y="-536.77" font-family="Times New Roman,serif" font-size="14.00">println</text>
</g>
<!-- Id00B34008&#45;&gt;IdMethodNameVal00B34008 -->
<g id="edge12" class="edge"><title>Id00B34008&#45;&gt;IdMethodNameVal00B34008</title>
<path fill="none" stroke="black" d="M539.812,-619.077C530.841,-603.186 519.284,-582.716 510.293,-566.789"/>
<polygon fill="black" stroke="black" points="513.299,-564.993 505.335,-558.006 507.203,-568.434 513.299,-564.993"/>
<text text-anchor="middle" x="544" y="-589.14" font-family="Times New Roman,serif" font-size="14.00">name</text>
</g>
<!-- Id00B2E090 -->
<g id="node16" class="node"><title>Id00B2E090</title>
<ellipse fill="none" stroke="black" cx="585" cy="-540.47" rx="37.0935" ry="18"/>
<text text-anchor="middle" x="585" y="-536.77" font-family="Times New Roman,serif" font-size="14.00">params</text>
</g>
<!-- Id00B34008&#45;&gt;Id00B2E090 -->
<g id="edge13" class="edge"><title>Id00B34008&#45;&gt;Id00B2E090</title>
<path fill="none" stroke="black" d="M561.743,-618.55C566.347,-603.29 572.182,-583.951 576.856,-568.462"/>
<polygon fill="black" stroke="black" points="580.338,-569.037 579.876,-558.452 573.637,-567.014 580.338,-569.037"/>
</g>
<!-- Id00B33F90 -->
<g id="node17" class="node"><title>Id00B33F90</title>
<ellipse fill="none" stroke="black" cx="585" cy="-425.123" rx="58.8803" ry="26.7407"/>
<text text-anchor="middle" x="585" y="-428.923" font-family="Times New Roman,serif" font-size="14.00">*</text>
<text text-anchor="middle" x="585" y="-413.923" font-family="Times New Roman,serif" font-size="14.00"> mref = #40</text>
</g>
<!-- Id00B2E090&#45;&gt;Id00B33F90 -->
<g id="edge18" class="edge"><title>Id00B2E090&#45;&gt;Id00B33F90</title>
<path fill="none" stroke="black" d="M585,-522.255C585,-506.434 585,-482.468 585,-462.424"/>
<polygon fill="black" stroke="black" points="588.5,-462.363 585,-452.363 581.5,-462.363 588.5,-462.363"/>
</g>
<!-- Id00B33EB0 -->
<g id="node18" class="node"><title>Id00B33EB0</title>
<ellipse fill="none" stroke="black" cx="506" cy="-313.17" rx="67.3507" ry="26.7407"/>
<text text-anchor="middle" x="506" y="-316.97" font-family="Times New Roman,serif" font-size="14.00">var or method</text>
<text text-anchor="middle" x="506" y="-301.97" font-family="Times New Roman,serif" font-size="14.00"> localnum = 1</text>
</g>
<!-- Id00B33F90&#45;&gt;Id00B33EB0 -->
<g id="edge16" class="edge"><title>Id00B33F90&#45;&gt;Id00B33EB0</title>
<path fill="none" stroke="black" d="M567.271,-399.448C556.269,-384.135 541.99,-364.262 529.985,-347.552"/>
<polygon fill="black" stroke="black" points="532.621,-345.223 523.943,-339.144 526.936,-349.307 532.621,-345.223"/>
</g>
<!-- Id00B33F20 -->
<g id="node20" class="node"><title>Id00B33F20</title>
<ellipse fill="none" stroke="black" cx="656" cy="-313.17" rx="64.1938" ry="37.4533"/>
<text text-anchor="middle" x="656" y="-324.47" font-family="Times New Roman,serif" font-size="14.00">STRING</text>
<text text-anchor="middle" x="656" y="-309.47" font-family="Times New Roman,serif" font-size="14.00"> mref = #45</text>
<text text-anchor="middle" x="656" y="-294.47" font-family="Times New Roman,serif" font-size="14.00"> val_id = #42</text>
</g>
<!-- Id00B33F90&#45;&gt;Id00B33F20 -->
<g id="edge17" class="edge"><title>Id00B33F90&#45;&gt;Id00B33F20</title>
<path fill="none" stroke="black" d="M601.111,-399.173C609.107,-386.79 618.996,-371.475 628.169,-357.271"/>
<polygon fill="black" stroke="black" points="631.279,-358.906 633.763,-348.607 625.398,-355.109 631.279,-358.906"/>
</g>
<!-- IdVal00B33EB0 -->
<g id="node19" class="node"><title>IdVal00B33EB0</title>
<ellipse fill="none" stroke="black" cx="506" cy="-211.823" rx="27" ry="18"/>
<text text-anchor="middle" x="506" y="-208.123" font-family="Times New Roman,serif" font-size="14.00">a</text>
</g>
<!-- Id00B33EB0&#45;&gt;IdVal00B33EB0 -->
<g id="edge14" class="edge"><title>Id00B33EB0&#45;&gt;IdVal00B33EB0</title>
<path fill="none" stroke="black" d="M506,-286.068C506,-271.958 506,-254.544 506,-240.237"/>
<polygon fill="black" stroke="black" points="509.5,-240.008 506,-230.008 502.5,-240.008 509.5,-240.008"/>
</g>
<!-- IdVal00B33F20 -->
<g id="node21" class="node"><title>IdVal00B33F20</title>
<ellipse fill="none" stroke="black" cx="656" cy="-211.823" rx="27" ry="18"/>
<text text-anchor="middle" x="656" y="-208.123" font-family="Times New Roman,serif" font-size="14.00">a</text>
</g>
<!-- Id00B33F20&#45;&gt;IdVal00B33F20 -->
<g id="edge15" class="edge"><title>Id00B33F20&#45;&gt;IdVal00B33F20</title>
<path fill="none" stroke="black" d="M656,-275.459C656,-263.769 656,-251.049 656,-240.144"/>
<polygon fill="black" stroke="black" points="659.5,-239.95 656,-229.95 652.5,-239.95 659.5,-239.95"/>
</g>
<!-- IdName00B352E8 -->
<g id="node23" class="node"><title>IdName00B352E8</title>
<ellipse fill="none" stroke="black" cx="663" cy="-645.21" rx="30.5947" ry="18"/>
<text text-anchor="middle" x="663" y="-641.51" font-family="Times New Roman,serif" font-size="14.00">some</text>
</g>
<!-- Id00B352E8&#45;&gt;IdName00B352E8 -->
<g id="edge21" class="edge"><title>Id00B352E8&#45;&gt;IdName00B352E8</title>
<path fill="none" stroke="black" d="M728.619,-724.602C714.746,-708.028 696.48,-686.208 682.744,-669.797"/>
<polygon fill="black" stroke="black" points="685.123,-667.187 676.021,-661.765 679.756,-671.68 685.123,-667.187"/>
<text text-anchor="middle" x="727" y="-693.88" font-family="Times New Roman,serif" font-size="14.00">name</text>
</g>
<!-- Id00B2E330 -->
<g id="node24" class="node"><title>Id00B2E330</title>
<ellipse fill="none" stroke="black" cx="749" cy="-645.21" rx="37.0935" ry="18"/>
<text text-anchor="middle" x="749" y="-641.51" font-family="Times New Roman,serif" font-size="14.00">params</text>
</g>
<!-- Id00B352E8&#45;&gt;Id00B2E330 -->
<g id="edge24" class="edge"><title>Id00B352E8&#45;&gt;Id00B2E330</title>
<path fill="none" stroke="black" d="M749,-723.025C749,-708.005 749,-689.102 749,-673.807"/>
<polygon fill="black" stroke="black" points="752.5,-673.414 749,-663.414 745.5,-673.414 752.5,-673.414"/>
</g>
<!-- Id00B2DF40 -->
<g id="node27" class="node"><title>Id00B2DF40</title>
<ellipse fill="none" stroke="black" cx="834" cy="-645.21" rx="29.795" ry="18"/>
<text text-anchor="middle" x="834" y="-641.51" font-family="Times New Roman,serif" font-size="14.00">body</text>
</g>
<!-- Id00B352E8&#45;&gt;Id00B2DF40 -->
<g id="edge35" class="edge"><title>Id00B352E8&#45;&gt;Id00B2DF40</title>
<path fill="none" stroke="black" d="M769.144,-724.602C782.856,-708.028 800.909,-686.208 814.486,-669.797"/>
<polygon fill="black" stroke="black" points="817.453,-671.701 821.131,-661.765 812.059,-667.239 817.453,-671.701"/>
</g>
<!-- Id00B348F0 -->
<g id="node25" class="node"><title>Id00B348F0</title>
<ellipse fill="none" stroke="black" cx="730" cy="-540.47" rx="71.3357" ry="26.7407"/>
<text text-anchor="middle" x="730" y="-544.27" font-family="Times New Roman,serif" font-size="14.00">param</text>
<text text-anchor="middle" x="730" y="-529.27" font-family="Times New Roman,serif" font-size="14.00"> localnum = #0</text>
</g>
<!-- Id00B2E330&#45;&gt;Id00B348F0 -->
<g id="edge22" class="edge"><title>Id00B2E330&#45;&gt;Id00B348F0</title>
<path fill="none" stroke="black" d="M745.863,-627.245C743.366,-613.746 739.785,-594.381 736.657,-577.466"/>
<polygon fill="black" stroke="black" points="740.042,-576.522 734.781,-567.325 733.158,-577.795 740.042,-576.522"/>
</g>
<!-- IdNameVal00B348F0 -->
<g id="node26" class="node"><title>IdNameVal00B348F0</title>
<ellipse fill="none" stroke="black" cx="730" cy="-425.123" rx="27" ry="18"/>
<text text-anchor="middle" x="730" y="-421.423" font-family="Times New Roman,serif" font-size="14.00">arr</text>
</g>
<!-- Id00B348F0&#45;&gt;IdNameVal00B348F0 -->
<g id="edge23" class="edge"><title>Id00B348F0&#45;&gt;IdNameVal00B348F0</title>
<path fill="none" stroke="black" d="M730,-513.466C730,-495.436 730,-471.48 730,-453.217"/>
<polygon fill="black" stroke="black" points="733.5,-453.21 730,-443.21 726.5,-453.211 733.5,-453.21"/>
<text text-anchor="middle" x="745" y="-484.4" font-family="Times New Roman,serif" font-size="14.00">name</text>
</g>
<!-- Id00B34690 -->
<g id="node28" class="node"><title>Id00B34690</title>
<ellipse fill="none" stroke="black" cx="846" cy="-540.47" rx="27" ry="18"/>
<text text-anchor="middle" x="846" y="-536.77" font-family="Times New Roman,serif" font-size="14.00">stmt</text>
</g>
<!-- Id00B2DF40&#45;&gt;Id00B34690 -->
<g id="edge34" class="edge"><title>Id00B2DF40&#45;&gt;Id00B34690</title>
<path fill="none" stroke="black" d="M835.982,-627.245C837.849,-611.257 840.677,-587.042 842.853,-568.413"/>
<polygon fill="black" stroke="black" points="846.332,-568.799 844.016,-558.461 839.379,-567.987 846.332,-568.799"/>
</g>
<!-- Id00B350B8 -->
<g id="node29" class="node"><title>Id00B350B8</title>
<ellipse fill="none" stroke="black" cx="846" cy="-425.123" rx="27" ry="18"/>
<text text-anchor="middle" x="846" y="-421.423" font-family="Times New Roman,serif" font-size="14.00">=</text>
</g>
<!-- Id00B34690&#45;&gt;Id00B350B8 -->
<g id="edge33" class="edge"><title>Id00B34690&#45;&gt;Id00B350B8</title>
<path fill="none" stroke="black" d="M846,-522.255C846,-503.924 846,-474.66 846,-453.229"/>
<polygon fill="black" stroke="black" points="849.5,-453.129 846,-443.129 842.5,-453.129 849.5,-453.129"/>
</g>
<!-- Id00B34960 -->
<g id="node30" class="node"><title>Id00B34960</title>
<ellipse fill="none" stroke="black" cx="806" cy="-313.17" rx="67.3507" ry="26.7407"/>
<text text-anchor="middle" x="806" y="-316.97" font-family="Times New Roman,serif" font-size="14.00">var or method</text>
<text text-anchor="middle" x="806" y="-301.97" font-family="Times New Roman,serif" font-size="14.00"> localnum = 0</text>
</g>
<!-- Id00B350B8&#45;&gt;Id00B34960 -->
<g id="edge31" class="edge"><title>Id00B350B8&#45;&gt;Id00B34960</title>
<path fill="none" stroke="black" d="M839.925,-407.424C834.353,-392.109 825.92,-368.926 818.855,-349.507"/>
<polygon fill="black" stroke="black" points="822.12,-348.244 815.412,-340.043 815.542,-350.637 822.12,-348.244"/>
</g>
<!-- Id00B35048 -->
<g id="node32" class="node"><title>Id00B35048</title>
<ellipse fill="none" stroke="black" cx="950" cy="-313.17" rx="58.8803" ry="26.7407"/>
<text text-anchor="middle" x="950" y="-316.97" font-family="Times New Roman,serif" font-size="14.00">+</text>
<text text-anchor="middle" x="950" y="-301.97" font-family="Times New Roman,serif" font-size="14.00"> mref = #54</text>
</g>
<!-- Id00B350B8&#45;&gt;Id00B35048 -->
<g id="edge32" class="edge"><title>Id00B350B8&#45;&gt;Id00B35048</title>
<path fill="none" stroke="black" d="M860.026,-409.295C875.433,-393.006 900.618,-366.379 920.43,-345.433"/>
<polygon fill="black" stroke="black" points="923.129,-347.673 927.458,-338.003 918.043,-342.863 923.129,-347.673"/>
</g>
<!-- IdVal00B34960 -->
<g id="node31" class="node"><title>IdVal00B34960</title>
<ellipse fill="none" stroke="black" cx="806" cy="-211.823" rx="27" ry="18"/>
<text text-anchor="middle" x="806" y="-208.123" font-family="Times New Roman,serif" font-size="14.00">arr</text>
</g>
<!-- Id00B34960&#45;&gt;IdVal00B34960 -->
<g id="edge25" class="edge"><title>Id00B34960&#45;&gt;IdVal00B34960</title>
<path fill="none" stroke="black" d="M806,-286.068C806,-271.958 806,-254.544 806,-240.237"/>
<polygon fill="black" stroke="black" points="809.5,-240.008 806,-230.008 802.5,-240.008 809.5,-240.008"/>
</g>
<!-- Id00B34A00 -->
<g id="node33" class="node"><title>Id00B34A00</title>
<ellipse fill="none" stroke="black" cx="926" cy="-211.823" rx="67.3507" ry="26.7407"/>
<text text-anchor="middle" x="926" y="-215.623" font-family="Times New Roman,serif" font-size="14.00">var or method</text>
<text text-anchor="middle" x="926" y="-200.623" font-family="Times New Roman,serif" font-size="14.00"> localnum = 0</text>
</g>
<!-- Id00B35048&#45;&gt;Id00B34A00 -->
<g id="edge29" class="edge"><title>Id00B35048&#45;&gt;Id00B34A00</title>
<path fill="none" stroke="black" d="M943.757,-286.327C941.001,-274.919 937.714,-261.312 934.721,-248.925"/>
<polygon fill="black" stroke="black" points="938.046,-247.78 932.295,-238.882 931.241,-249.424 938.046,-247.78"/>
</g>
<!-- Id00B34FD8 -->
<g id="node35" class="node"><title>Id00B34FD8</title>
<ellipse fill="none" stroke="black" cx="1040" cy="-211.823" rx="28.6953" ry="18"/>
<text text-anchor="middle" x="1040" y="-208.123" font-family="Times New Roman,serif" font-size="14.00">array</text>
</g>
<!-- Id00B35048&#45;&gt;Id00B34FD8 -->
<g id="edge30" class="edge"><title>Id00B35048&#45;&gt;Id00B34FD8</title>
<path fill="none" stroke="black" d="M971.786,-288.121C986.317,-272.081 1005.29,-251.133 1019.54,-235.405"/>
<polygon fill="black" stroke="black" points="1022.39,-237.471 1026.51,-227.71 1017.21,-232.771 1022.39,-237.471"/>
</g>
<!-- IdVal00B34A00 -->
<g id="node34" class="node"><title>IdVal00B34A00</title>
<ellipse fill="none" stroke="black" cx="926" cy="-110.477" rx="27" ry="18"/>
<text text-anchor="middle" x="926" y="-106.777" font-family="Times New Roman,serif" font-size="14.00">arr</text>
</g>
<!-- Id00B34A00&#45;&gt;IdVal00B34A00 -->
<g id="edge26" class="edge"><title>Id00B34A00&#45;&gt;IdVal00B34A00</title>
<path fill="none" stroke="black" d="M926,-184.721C926,-170.611 926,-153.198 926,-138.89"/>
<polygon fill="black" stroke="black" points="929.5,-138.661 926,-128.661 922.5,-138.661 929.5,-138.661"/>
</g>
<!-- Id00B34A70 -->
<g id="node36" class="node"><title>Id00B34A70</title>
<ellipse fill="none" stroke="black" cx="1040" cy="-110.477" rx="64.1938" ry="37.4533"/>
<text text-anchor="middle" x="1040" y="-121.777" font-family="Times New Roman,serif" font-size="14.00">INT</text>
<text text-anchor="middle" x="1040" y="-106.777" font-family="Times New Roman,serif" font-size="14.00"> mref = #30</text>
<text text-anchor="middle" x="1040" y="-91.7767" font-family="Times New Roman,serif" font-size="14.00"> val_id = #55</text>
</g>
<!-- Id00B34FD8&#45;&gt;Id00B34A70 -->
<g id="edge28" class="edge"><title>Id00B34FD8&#45;&gt;Id00B34A70</title>
<path fill="none" stroke="black" d="M1040,-193.518C1040,-183.79 1040,-171.127 1040,-158.672"/>
<polygon fill="black" stroke="black" points="1043.5,-158.328 1040,-148.329 1036.5,-158.329 1043.5,-158.328"/>
</g>
<!-- IdVal00B34A70 -->
<g id="node37" class="node"><title>IdVal00B34A70</title>
<ellipse fill="none" stroke="black" cx="1040" cy="-18" rx="27" ry="18"/>
<text text-anchor="middle" x="1040" y="-14.3" font-family="Times New Roman,serif" font-size="14.00">4</text>
</g>
<!-- Id00B34A70&#45;&gt;IdVal00B34A70 -->
<g id="edge27" class="edge"><title>Id00B34A70&#45;&gt;IdVal00B34A70</title>
<path fill="none" stroke="black" d="M1040,-72.9371C1040,-63.9712 1040,-54.5316 1040,-46.0996"/>
<polygon fill="black" stroke="black" points="1043.5,-46.0694 1040,-36.0695 1036.5,-46.0695 1043.5,-46.0694"/>
</g>
<!-- Id00B35198 -->
<g id="node39" class="node"><title>Id00B35198</title>
<ellipse fill="none" stroke="black" cx="942" cy="-645.21" rx="60.2083" ry="26.7407"/>
<text text-anchor="middle" x="942" y="-649.01" font-family="Times New Roman,serif" font-size="14.00">method_call</text>
<text text-anchor="middle" x="942" y="-634.01" font-family="Times New Roman,serif" font-size="14.00"> mref = #48</text>
</g>
<!-- Id00B34140&#45;&gt;Id00B35198 -->
<g id="edge41" class="edge"><title>Id00B34140&#45;&gt;Id00B35198</title>
<path fill="none" stroke="black" d="M879.239,-733.346C889.454,-719.163 904.871,-697.76 917.868,-679.715"/>
<polygon fill="black" stroke="black" points="921.016,-681.333 924.02,-671.173 915.336,-677.242 921.016,-681.333"/>
</g>
<!-- IdMethodNameVal00B35198 -->
<g id="node40" class="node"><title>IdMethodNameVal00B35198</title>
<ellipse fill="none" stroke="black" cx="938" cy="-540.47" rx="30.5947" ry="18"/>
<text text-anchor="middle" x="938" y="-536.77" font-family="Times New Roman,serif" font-size="14.00">some</text>
</g>
<!-- Id00B35198&#45;&gt;IdMethodNameVal00B35198 -->
<g id="edge37" class="edge"><title>Id00B35198&#45;&gt;IdMethodNameVal00B35198</title>
<path fill="none" stroke="black" d="M940.991,-618.285C940.406,-603.264 939.67,-584.362 939.074,-569.066"/>
<polygon fill="black" stroke="black" points="942.556,-568.53 938.67,-558.674 935.562,-568.802 942.556,-568.53"/>
<text text-anchor="middle" x="956" y="-589.14" font-family="Times New Roman,serif" font-size="14.00">name</text>
</g>
<!-- Id00B2E598 -->
<g id="node41" class="node"><title>Id00B2E598</title>
<ellipse fill="none" stroke="black" cx="1024" cy="-540.47" rx="37.0935" ry="18"/>
<text text-anchor="middle" x="1024" y="-536.77" font-family="Times New Roman,serif" font-size="14.00">params</text>
</g>
<!-- Id00B35198&#45;&gt;Id00B2E598 -->
<g id="edge38" class="edge"><title>Id00B35198&#45;&gt;Id00B2E598</title>
<path fill="none" stroke="black" d="M961.641,-619.601C974.714,-603.222 991.806,-581.807 1004.79,-565.54"/>
<polygon fill="black" stroke="black" points="1007.66,-567.556 1011.16,-557.557 1002.19,-563.189 1007.66,-567.556"/>
</g>
<!-- Id00B34DA8 -->
<g id="node42" class="node"><title>Id00B34DA8</title>
<ellipse fill="none" stroke="black" cx="1043" cy="-425.123" rx="67.3507" ry="26.7407"/>
<text text-anchor="middle" x="1043" y="-428.923" font-family="Times New Roman,serif" font-size="14.00">var or method</text>
<text text-anchor="middle" x="1043" y="-413.923" font-family="Times New Roman,serif" font-size="14.00"> localnum = 1</text>
</g>
<!-- Id00B2E598&#45;&gt;Id00B34DA8 -->
<g id="edge40" class="edge"><title>Id00B2E598&#45;&gt;Id00B34DA8</title>
<path fill="none" stroke="black" d="M1026.89,-522.255C1029.54,-506.434 1033.56,-482.468 1036.92,-462.424"/>
<polygon fill="black" stroke="black" points="1040.4,-462.804 1038.6,-452.363 1033.5,-461.647 1040.4,-462.804"/>
</g>
<!-- IdVal00B34DA8 -->
<g id="node43" class="node"><title>IdVal00B34DA8</title>
<ellipse fill="none" stroke="black" cx="1054" cy="-313.17" rx="27" ry="18"/>
<text text-anchor="middle" x="1054" y="-309.47" font-family="Times New Roman,serif" font-size="14.00">a</text>
</g>
<!-- Id00B34DA8&#45;&gt;IdVal00B34DA8 -->
<g id="edge39" class="edge"><title>Id00B34DA8&#45;&gt;IdVal00B34DA8</title>
<path fill="none" stroke="black" d="M1045.61,-398.066C1047.32,-380.922 1049.56,-358.532 1051.3,-341.195"/>
<polygon fill="black" stroke="black" points="1054.79,-341.444 1052.3,-331.145 1047.82,-340.747 1054.79,-341.444"/>
</g>
<!-- Id00B34E18 -->
<g id="node45" class="node"><title>Id00B34E18</title>
<ellipse fill="none" stroke="black" cx="1113" cy="-645.21" rx="60.2083" ry="26.7407"/>
<text text-anchor="middle" x="1113" y="-649.01" font-family="Times New Roman,serif" font-size="14.00">method_call</text>
<text text-anchor="middle" x="1113" y="-634.01" font-family="Times New Roman,serif" font-size="14.00"> mref = #36</text>
</g>
<!-- Id00B344B0&#45;&gt;Id00B34E18 -->
<g id="edge47" class="edge"><title>Id00B344B0&#45;&gt;Id00B34E18</title>
<path fill="none" stroke="black" d="M967.251,-736.964C992.378,-721.317 1037.07,-693.489 1070.36,-672.76"/>
<polygon fill="black" stroke="black" points="1072.35,-675.643 1078.99,-667.386 1068.65,-669.701 1072.35,-675.643"/>
</g>
<!-- IdMethodNameVal00B34E18 -->
<g id="node46" class="node"><title>IdMethodNameVal00B34E18</title>
<ellipse fill="none" stroke="black" cx="1113" cy="-540.47" rx="33.5952" ry="18"/>
<text text-anchor="middle" x="1113" y="-536.77" font-family="Times New Roman,serif" font-size="14.00">println</text>
</g>
<!-- Id00B34E18&#45;&gt;IdMethodNameVal00B34E18 -->
<g id="edge43" class="edge"><title>Id00B34E18&#45;&gt;IdMethodNameVal00B34E18</title>
<path fill="none" stroke="black" d="M1113,-618.285C1113,-603.264 1113,-584.362 1113,-569.066"/>
<polygon fill="black" stroke="black" points="1116.5,-568.674 1113,-558.674 1109.5,-568.674 1116.5,-568.674"/>
<text text-anchor="middle" x="1128" y="-589.14" font-family="Times New Roman,serif" font-size="14.00">name</text>
</g>
<!-- Id00B2E250 -->
<g id="node47" class="node"><title>Id00B2E250</title>
<ellipse fill="none" stroke="black" cx="1202" cy="-540.47" rx="37.0935" ry="18"/>
<text text-anchor="middle" x="1202" y="-536.77" font-family="Times New Roman,serif" font-size="14.00">params</text>
</g>
<!-- Id00B34E18&#45;&gt;Id00B2E250 -->
<g id="edge44" class="edge"><title>Id00B34E18&#45;&gt;Id00B2E250</title>
<path fill="none" stroke="black" d="M1134.09,-619.862C1148.49,-603.238 1167.47,-581.336 1181.7,-564.909"/>
<polygon fill="black" stroke="black" points="1184.36,-567.182 1188.26,-557.331 1179.07,-562.598 1184.36,-567.182"/>
</g>
<!-- Id00B35278 -->
<g id="node48" class="node"><title>Id00B35278</title>
<ellipse fill="none" stroke="black" cx="1202" cy="-425.123" rx="67.3507" ry="26.7407"/>
<text text-anchor="middle" x="1202" y="-428.923" font-family="Times New Roman,serif" font-size="14.00">var or method</text>
<text text-anchor="middle" x="1202" y="-413.923" font-family="Times New Roman,serif" font-size="14.00"> localnum = 1</text>
</g>
<!-- Id00B2E250&#45;&gt;Id00B35278 -->
<g id="edge46" class="edge"><title>Id00B2E250&#45;&gt;Id00B35278</title>
<path fill="none" stroke="black" d="M1202,-522.255C1202,-506.434 1202,-482.468 1202,-462.424"/>
<polygon fill="black" stroke="black" points="1205.5,-462.363 1202,-452.363 1198.5,-462.363 1205.5,-462.363"/>
</g>
<!-- IdVal00B35278 -->
<g id="node49" class="node"><title>IdVal00B35278</title>
<ellipse fill="none" stroke="black" cx="1202" cy="-313.17" rx="27" ry="18"/>
<text text-anchor="middle" x="1202" y="-309.47" font-family="Times New Roman,serif" font-size="14.00">a</text>
</g>
<!-- Id00B35278&#45;&gt;IdVal00B35278 -->
<g id="edge45" class="edge"><title>Id00B35278&#45;&gt;IdVal00B35278</title>
<path fill="none" stroke="black" d="M1202,-398.066C1202,-381.027 1202,-358.806 1202,-341.514"/>
<polygon fill="black" stroke="black" points="1205.5,-341.475 1202,-331.475 1198.5,-341.475 1205.5,-341.475"/>
</g>
</g>
</svg>
