<?xml version="1.0" encoding="UTF-8" standalone="no"?>
<!DOCTYPE svg PUBLIC "-//W3C//DTD SVG 1.1//EN"
 "http://www.w3.org/Graphics/SVG/1.1/DTD/svg11.dtd">
<!-- Generated by graphviz version 2.38.0 (20140413.2041)
 -->
<!-- Title: G Pages: 1 -->
<svg width="272pt" height="332pt"
 viewBox="0.00 0.00 272.49 332.00" xmlns="http://www.w3.org/2000/svg" xmlns:xlink="http://www.w3.org/1999/xlink">
<g id="graph0" class="graph" transform="scale(1 1) rotate(0) translate(4 328)">
<title>G</title>
<polygon fill="white" stroke="none" points="-4,4 -4,-328 268.489,-328 268.489,4 -4,4"/>
<!-- Id01544518 -->
<g id="node1" class="node"><title>Id01544518</title>
<ellipse fill="none" stroke="black" cx="131.745" cy="-306" rx="41.6928" ry="18"/>
<text text-anchor="middle" x="131.745" y="-302.3" font-family="Times New Roman,serif" font-size="14.00">program</text>
</g>
<!-- Id01543E88 -->
<g id="node2" class="node"><title>Id01543E88</title>
<ellipse fill="none" stroke="black" cx="131.745" cy="-234" rx="27" ry="18"/>
<text text-anchor="middle" x="131.745" y="-230.3" font-family="Times New Roman,serif" font-size="14.00">stmt</text>
</g>
<!-- Id01544518&#45;&gt;Id01543E88 -->
<g id="edge6" class="edge"><title>Id01544518&#45;&gt;Id01543E88</title>
<path fill="none" stroke="black" d="M131.745,-287.697C131.745,-279.983 131.745,-270.712 131.745,-262.112"/>
<polygon fill="black" stroke="black" points="135.245,-262.104 131.745,-252.104 128.245,-262.104 135.245,-262.104"/>
</g>
<!-- Id01543E38 -->
<g id="node3" class="node"><title>Id01543E38</title>
<ellipse fill="none" stroke="black" cx="131.745" cy="-162" rx="27" ry="18"/>
<text text-anchor="middle" x="131.745" y="-158.3" font-family="Times New Roman,serif" font-size="14.00">=</text>
</g>
<!-- Id01543E88&#45;&gt;Id01543E38 -->
<g id="edge5" class="edge"><title>Id01543E88&#45;&gt;Id01543E38</title>
<path fill="none" stroke="black" d="M131.745,-215.697C131.745,-207.983 131.745,-198.712 131.745,-190.112"/>
<polygon fill="black" stroke="black" points="135.245,-190.104 131.745,-180.104 128.245,-190.104 135.245,-190.104"/>
</g>
<!-- Id015351E8 -->
<g id="node4" class="node"><title>Id015351E8</title>
<ellipse fill="none" stroke="black" cx="61.7445" cy="-90" rx="61.99" ry="18"/>
<text text-anchor="middle" x="61.7445" y="-86.3" font-family="Times New Roman,serif" font-size="14.00">var or method</text>
</g>
<!-- Id01543E38&#45;&gt;Id015351E8 -->
<g id="edge3" class="edge"><title>Id01543E38&#45;&gt;Id015351E8</title>
<path fill="none" stroke="black" d="M117.24,-146.496C108.089,-137.344 96.0504,-125.306 85.5256,-114.781"/>
<polygon fill="black" stroke="black" points="87.7383,-112.044 78.1923,-107.448 82.7886,-116.994 87.7383,-112.044"/>
</g>
<!-- Id01544018 -->
<g id="node6" class="node"><title>Id01544018</title>
<ellipse fill="none" stroke="black" cx="202.745" cy="-90" rx="61.99" ry="18"/>
<text text-anchor="middle" x="202.745" y="-86.3" font-family="Times New Roman,serif" font-size="14.00">var or method</text>
</g>
<!-- Id01543E38&#45;&gt;Id01544018 -->
<g id="edge4" class="edge"><title>Id01543E38&#45;&gt;Id01544018</title>
<path fill="none" stroke="black" d="M146.456,-146.496C155.828,-137.255 168.186,-125.072 178.934,-114.475"/>
<polygon fill="black" stroke="black" points="181.398,-116.961 186.062,-107.448 176.483,-111.976 181.398,-116.961"/>
</g>
<!-- IdVal015351E8 -->
<g id="node5" class="node"><title>IdVal015351E8</title>
<ellipse fill="none" stroke="black" cx="61.7445" cy="-18" rx="27" ry="18"/>
<text text-anchor="middle" x="61.7445" y="-14.3" font-family="Times New Roman,serif" font-size="14.00">a</text>
</g>
<!-- Id015351E8&#45;&gt;IdVal015351E8 -->
<g id="edge1" class="edge"><title>Id015351E8&#45;&gt;IdVal015351E8</title>
<path fill="none" stroke="black" d="M61.7445,-71.6966C61.7445,-63.9827 61.7445,-54.7125 61.7445,-46.1124"/>
<polygon fill="black" stroke="black" points="65.2446,-46.1043 61.7445,-36.1043 58.2446,-46.1044 65.2446,-46.1043"/>
</g>
<!-- IdVal01544018 -->
<g id="node7" class="node"><title>IdVal01544018</title>
<ellipse fill="none" stroke="black" cx="202.745" cy="-18" rx="27" ry="18"/>
<text text-anchor="middle" x="202.745" y="-14.3" font-family="Times New Roman,serif" font-size="14.00">b</text>
</g>
<!-- Id01544018&#45;&gt;IdVal01544018 -->
<g id="edge2" class="edge"><title>Id01544018&#45;&gt;IdVal01544018</title>
<path fill="none" stroke="black" d="M202.745,-71.6966C202.745,-63.9827 202.745,-54.7125 202.745,-46.1124"/>
<polygon fill="black" stroke="black" points="206.245,-46.1043 202.745,-36.1043 199.245,-46.1044 206.245,-46.1043"/>
</g>
</g>
</svg>
