<?xml version="1.0" encoding="UTF-8" standalone="no"?>
<!DOCTYPE svg PUBLIC "-//W3C//DTD SVG 1.1//EN"
 "http://www.w3.org/Graphics/SVG/1.1/DTD/svg11.dtd">
<!-- Generated by graphviz version 2.38.0 (20140413.2041)
 -->
<!-- Title: G Pages: 1 -->
<svg width="1155pt" height="767pt"
 viewBox="0.00 0.00 1155.10 767.08" xmlns="http://www.w3.org/2000/svg" xmlns:xlink="http://www.w3.org/1999/xlink">
<g id="graph0" class="graph" transform="scale(1 1) rotate(0) translate(4 763.08)">
<title>G</title>
<polygon fill="white" stroke="none" points="-4,4 -4,-763.08 1151.1,-763.08 1151.1,4 -4,4"/>
<!-- Id00D05410 -->
<g id="node1" class="node"><title>Id00D05410</title>
<ellipse fill="none" stroke="black" cx="713" cy="-741.08" rx="41.6928" ry="18"/>
<text text-anchor="middle" x="713" y="-737.38" font-family="Times New Roman,serif" font-size="14.00">program</text>
</g>
<!-- Id00D03F00 -->
<g id="node2" class="node"><title>Id00D03F00</title>
<ellipse fill="none" stroke="black" cx="521" cy="-659.21" rx="27" ry="18"/>
<text text-anchor="middle" x="521" y="-655.51" font-family="Times New Roman,serif" font-size="14.00">stmt</text>
</g>
<!-- Id00D05410&#45;&gt;Id00D03F00 -->
<g id="edge11" class="edge"><title>Id00D05410&#45;&gt;Id00D03F00</title>
<path fill="none" stroke="black" d="M683.839,-727.95C648.552,-713.271 589.345,-688.641 552.879,-673.472"/>
<polygon fill="black" stroke="black" points="553.813,-670.069 543.236,-669.46 551.125,-676.533 553.813,-670.069"/>
</g>
<!-- Id00D041D8 -->
<g id="node13" class="node"><title>Id00D041D8</title>
<ellipse fill="none" stroke="black" cx="661" cy="-659.21" rx="27" ry="18"/>
<text text-anchor="middle" x="661" y="-655.51" font-family="Times New Roman,serif" font-size="14.00">stmt</text>
</g>
<!-- Id00D05410&#45;&gt;Id00D041D8 -->
<g id="edge20" class="edge"><title>Id00D05410&#45;&gt;Id00D041D8</title>
<path fill="none" stroke="black" d="M702.226,-723.531C694.901,-712.28 685.086,-697.205 676.871,-684.587"/>
<polygon fill="black" stroke="black" points="679.619,-682.394 671.23,-675.923 673.753,-686.213 679.619,-682.394"/>
</g>
<!-- Id00D04B48 -->
<g id="node22" class="node"><title>Id00D04B48</title>
<ellipse fill="none" stroke="black" cx="767" cy="-659.21" rx="59.2941" ry="26.7407"/>
<text text-anchor="middle" x="767" y="-663.01" font-family="Times New Roman,serif" font-size="14.00">def_method</text>
<text text-anchor="middle" x="767" y="-648.01" font-family="Times New Roman,serif" font-size="14.00"> mref = #49</text>
</g>
<!-- Id00D05410&#45;&gt;Id00D04B48 -->
<g id="edge33" class="edge"><title>Id00D05410&#45;&gt;Id00D04B48</title>
<path fill="none" stroke="black" d="M724.189,-723.531C730.029,-714.892 737.394,-704 744.361,-693.695"/>
<polygon fill="black" stroke="black" points="747.376,-695.485 750.077,-685.24 741.577,-691.564 747.376,-695.485"/>
</g>
<!-- Id00D04958 -->
<g id="node35" class="node"><title>Id00D04958</title>
<ellipse fill="none" stroke="black" cx="871" cy="-659.21" rx="27" ry="18"/>
<text text-anchor="middle" x="871" y="-655.51" font-family="Times New Roman,serif" font-size="14.00">stmt</text>
</g>
<!-- Id00D05410&#45;&gt;Id00D04958 -->
<g id="edge39" class="edge"><title>Id00D05410&#45;&gt;Id00D04958</title>
<path fill="none" stroke="black" d="M743.425,-728.651C768.633,-718.706 805.048,-703.226 835,-686.08 838.507,-684.073 842.089,-681.801 845.569,-679.457"/>
<polygon fill="black" stroke="black" points="847.739,-682.209 853.905,-673.593 843.712,-676.484 847.739,-682.209"/>
</g>
<!-- Id00D03E90 -->
<g id="node3" class="node"><title>Id00D03E90</title>
<ellipse fill="none" stroke="black" cx="283" cy="-554.47" rx="27" ry="18"/>
<text text-anchor="middle" x="283" y="-550.77" font-family="Times New Roman,serif" font-size="14.00">=</text>
</g>
<!-- Id00D03F00&#45;&gt;Id00D03E90 -->
<g id="edge10" class="edge"><title>Id00D03F00&#45;&gt;Id00D03E90</title>
<path fill="none" stroke="black" d="M499.036,-648.729C456.726,-630.464 363.778,-590.34 314.737,-569.17"/>
<polygon fill="black" stroke="black" points="315.825,-565.828 305.257,-565.078 313.051,-572.255 315.825,-565.828"/>
</g>
<!-- Id00CF51E8 -->
<g id="node4" class="node"><title>Id00CF51E8</title>
<ellipse fill="none" stroke="black" cx="98" cy="-449.73" rx="67.3507" ry="26.7407"/>
<text text-anchor="middle" x="98" y="-453.53" font-family="Times New Roman,serif" font-size="14.00">var or method</text>
<text text-anchor="middle" x="98" y="-438.53" font-family="Times New Roman,serif" font-size="14.00"> localnum = 1</text>
</g>
<!-- Id00D03E90&#45;&gt;Id00CF51E8 -->
<g id="edge8" class="edge"><title>Id00D03E90&#45;&gt;Id00CF51E8</title>
<path fill="none" stroke="black" d="M262.85,-542.28C234.759,-526.68 183.003,-497.937 144.952,-476.805"/>
<polygon fill="black" stroke="black" points="146.525,-473.675 136.083,-471.88 143.126,-479.795 146.525,-473.675"/>
</g>
<!-- Id00D03E20 -->
<g id="node6" class="node"><title>Id00D03E20</title>
<ellipse fill="none" stroke="black" cx="283" cy="-449.73" rx="28.6953" ry="18"/>
<text text-anchor="middle" x="283" y="-446.03" font-family="Times New Roman,serif" font-size="14.00">array</text>
</g>
<!-- Id00D03E90&#45;&gt;Id00D03E20 -->
<g id="edge9" class="edge"><title>Id00D03E90&#45;&gt;Id00D03E20</title>
<path fill="none" stroke="black" d="M283,-536.042C283,-520.153 283,-496.423 283,-478.021"/>
<polygon fill="black" stroke="black" points="286.5,-477.901 283,-467.901 279.5,-477.901 286.5,-477.901"/>
</g>
<!-- IdVal00CF51E8 -->
<g id="node5" class="node"><title>IdVal00CF51E8</title>
<ellipse fill="none" stroke="black" cx="27" cy="-348.383" rx="27" ry="18"/>
<text text-anchor="middle" x="27" y="-344.683" font-family="Times New Roman,serif" font-size="14.00">a</text>
</g>
<!-- Id00CF51E8&#45;&gt;IdVal00CF51E8 -->
<g id="edge1" class="edge"><title>Id00CF51E8&#45;&gt;IdVal00CF51E8</title>
<path fill="none" stroke="black" d="M80.0837,-423.661C69.026,-408.188 54.9233,-388.455 44.0334,-373.217"/>
<polygon fill="black" stroke="black" points="46.7022,-370.932 38.0402,-364.831 41.0071,-375.002 46.7022,-370.932"/>
</g>
<!-- Id00D03CD0 -->
<g id="node7" class="node"><title>Id00D03CD0</title>
<ellipse fill="none" stroke="black" cx="136" cy="-348.383" rx="64.1938" ry="37.4533"/>
<text text-anchor="middle" x="136" y="-359.683" font-family="Times New Roman,serif" font-size="14.00">INT</text>
<text text-anchor="middle" x="136" y="-344.683" font-family="Times New Roman,serif" font-size="14.00"> mref = #30</text>
<text text-anchor="middle" x="136" y="-329.683" font-family="Times New Roman,serif" font-size="14.00"> val_id = #27</text>
</g>
<!-- Id00D03E20&#45;&gt;Id00D03CD0 -->
<g id="edge3" class="edge"><title>Id00D03E20&#45;&gt;Id00D03CD0</title>
<path fill="none" stroke="black" d="M264.083,-435.946C244.421,-422.658 212.821,-401.301 185.929,-383.127"/>
<polygon fill="black" stroke="black" points="187.629,-380.051 177.384,-377.352 183.71,-385.851 187.629,-380.051"/>
</g>
<!-- Id00D03D40 -->
<g id="node9" class="node"><title>Id00D03D40</title>
<ellipse fill="none" stroke="black" cx="283" cy="-348.383" rx="64.1938" ry="37.4533"/>
<text text-anchor="middle" x="283" y="-359.683" font-family="Times New Roman,serif" font-size="14.00">INT</text>
<text text-anchor="middle" x="283" y="-344.683" font-family="Times New Roman,serif" font-size="14.00"> mref = #30</text>
<text text-anchor="middle" x="283" y="-329.683" font-family="Times New Roman,serif" font-size="14.00"> val_id = #31</text>
</g>
<!-- Id00D03E20&#45;&gt;Id00D03D40 -->
<g id="edge5" class="edge"><title>Id00D03E20&#45;&gt;Id00D03D40</title>
<path fill="none" stroke="black" d="M283,-431.425C283,-421.696 283,-409.034 283,-396.579"/>
<polygon fill="black" stroke="black" points="286.5,-396.235 283,-386.235 279.5,-396.235 286.5,-396.235"/>
</g>
<!-- Id00D03DB0 -->
<g id="node11" class="node"><title>Id00D03DB0</title>
<ellipse fill="none" stroke="black" cx="430" cy="-348.383" rx="64.1938" ry="37.4533"/>
<text text-anchor="middle" x="430" y="-359.683" font-family="Times New Roman,serif" font-size="14.00">INT</text>
<text text-anchor="middle" x="430" y="-344.683" font-family="Times New Roman,serif" font-size="14.00"> mref = #30</text>
<text text-anchor="middle" x="430" y="-329.683" font-family="Times New Roman,serif" font-size="14.00"> val_id = #32</text>
</g>
<!-- Id00D03E20&#45;&gt;Id00D03DB0 -->
<g id="edge7" class="edge"><title>Id00D03E20&#45;&gt;Id00D03DB0</title>
<path fill="none" stroke="black" d="M301.917,-435.946C321.579,-422.658 353.179,-401.301 380.071,-383.127"/>
<polygon fill="black" stroke="black" points="382.29,-385.851 388.616,-377.352 378.371,-380.051 382.29,-385.851"/>
</g>
<!-- IdVal00D03CD0 -->
<g id="node8" class="node"><title>IdVal00D03CD0</title>
<ellipse fill="none" stroke="black" cx="136" cy="-222.43" rx="27" ry="18"/>
<text text-anchor="middle" x="136" y="-218.73" font-family="Times New Roman,serif" font-size="14.00">1</text>
</g>
<!-- Id00D03CD0&#45;&gt;IdVal00D03CD0 -->
<g id="edge2" class="edge"><title>Id00D03CD0&#45;&gt;IdVal00D03CD0</title>
<path fill="none" stroke="black" d="M136,-310.864C136,-291.585 136,-268.328 136,-250.648"/>
<polygon fill="black" stroke="black" points="139.5,-250.446 136,-240.446 132.5,-250.446 139.5,-250.446"/>
</g>
<!-- IdVal00D03D40 -->
<g id="node10" class="node"><title>IdVal00D03D40</title>
<ellipse fill="none" stroke="black" cx="283" cy="-222.43" rx="27" ry="18"/>
<text text-anchor="middle" x="283" y="-218.73" font-family="Times New Roman,serif" font-size="14.00">2</text>
</g>
<!-- Id00D03D40&#45;&gt;IdVal00D03D40 -->
<g id="edge4" class="edge"><title>Id00D03D40&#45;&gt;IdVal00D03D40</title>
<path fill="none" stroke="black" d="M283,-310.864C283,-291.585 283,-268.328 283,-250.648"/>
<polygon fill="black" stroke="black" points="286.5,-250.446 283,-240.446 279.5,-250.446 286.5,-250.446"/>
</g>
<!-- IdVal00D03DB0 -->
<g id="node12" class="node"><title>IdVal00D03DB0</title>
<ellipse fill="none" stroke="black" cx="392" cy="-222.43" rx="27" ry="18"/>
<text text-anchor="middle" x="392" y="-218.73" font-family="Times New Roman,serif" font-size="14.00">3</text>
</g>
<!-- Id00D03DB0&#45;&gt;IdVal00D03DB0 -->
<g id="edge6" class="edge"><title>Id00D03DB0&#45;&gt;IdVal00D03DB0</title>
<path fill="none" stroke="black" d="M418.907,-311.198C412.9,-291.605 405.61,-267.826 400.135,-249.964"/>
<polygon fill="black" stroke="black" points="403.421,-248.742 397.143,-240.207 396.728,-250.794 403.421,-248.742"/>
</g>
<!-- Id00D04140 -->
<g id="node14" class="node"><title>Id00D04140</title>
<ellipse fill="none" stroke="black" cx="655" cy="-554.47" rx="60.2083" ry="26.7407"/>
<text text-anchor="middle" x="655" y="-558.27" font-family="Times New Roman,serif" font-size="14.00">method_call</text>
<text text-anchor="middle" x="655" y="-543.27" font-family="Times New Roman,serif" font-size="14.00"> mref = #36</text>
</g>
<!-- Id00D041D8&#45;&gt;Id00D04140 -->
<g id="edge19" class="edge"><title>Id00D041D8&#45;&gt;Id00D04140</title>
<path fill="none" stroke="black" d="M659.982,-640.782C659.196,-627.317 658.081,-608.222 657.105,-591.509"/>
<polygon fill="black" stroke="black" points="660.596,-591.262 656.519,-581.483 653.608,-591.67 660.596,-591.262"/>
</g>
<!-- IdMethodNameVal00D04140 -->
<g id="node15" class="node"><title>IdMethodNameVal00D04140</title>
<ellipse fill="none" stroke="black" cx="566" cy="-449.73" rx="33.5952" ry="18"/>
<text text-anchor="middle" x="566" y="-446.03" font-family="Times New Roman,serif" font-size="14.00">println</text>
</g>
<!-- Id00D04140&#45;&gt;IdMethodNameVal00D04140 -->
<g id="edge12" class="edge"><title>Id00D04140&#45;&gt;IdMethodNameVal00D04140</title>
<path fill="none" stroke="black" d="M633.908,-529.122C619.419,-512.396 600.301,-490.327 586.043,-473.867"/>
<polygon fill="black" stroke="black" points="588.668,-471.552 579.475,-466.285 583.377,-476.135 588.668,-471.552"/>
<text text-anchor="middle" x="631" y="-498.4" font-family="Times New Roman,serif" font-size="14.00">name</text>
</g>
<!-- Id00CFDF68 -->
<g id="node16" class="node"><title>Id00CFDF68</title>
<ellipse fill="none" stroke="black" cx="655" cy="-449.73" rx="37.0935" ry="18"/>
<text text-anchor="middle" x="655" y="-446.03" font-family="Times New Roman,serif" font-size="14.00">params</text>
</g>
<!-- Id00D04140&#45;&gt;Id00CFDF68 -->
<g id="edge13" class="edge"><title>Id00D04140&#45;&gt;Id00CFDF68</title>
<path fill="none" stroke="black" d="M655,-527.544C655,-512.524 655,-493.622 655,-478.326"/>
<polygon fill="black" stroke="black" points="658.5,-477.934 655,-467.934 651.5,-477.934 658.5,-477.934"/>
</g>
<!-- Id00D040D0 -->
<g id="node17" class="node"><title>Id00D040D0</title>
<ellipse fill="none" stroke="black" cx="654" cy="-348.383" rx="58.8803" ry="26.7407"/>
<text text-anchor="middle" x="654" y="-352.183" font-family="Times New Roman,serif" font-size="14.00">*</text>
<text text-anchor="middle" x="654" y="-337.183" font-family="Times New Roman,serif" font-size="14.00"> mref = #40</text>
</g>
<!-- Id00CFDF68&#45;&gt;Id00D040D0 -->
<g id="edge18" class="edge"><title>Id00CFDF68&#45;&gt;Id00D040D0</title>
<path fill="none" stroke="black" d="M654.826,-431.425C654.699,-418.868 654.524,-401.423 654.367,-385.847"/>
<polygon fill="black" stroke="black" points="657.863,-385.409 654.262,-375.445 650.863,-385.48 657.863,-385.409"/>
</g>
<!-- Id00D03FC0 -->
<g id="node18" class="node"><title>Id00D03FC0</title>
<ellipse fill="none" stroke="black" cx="504" cy="-222.43" rx="67.3507" ry="26.7407"/>
<text text-anchor="middle" x="504" y="-226.23" font-family="Times New Roman,serif" font-size="14.00">var or method</text>
<text text-anchor="middle" x="504" y="-211.23" font-family="Times New Roman,serif" font-size="14.00"> localnum = 1</text>
</g>
<!-- Id00D040D0&#45;&gt;Id00D03FC0 -->
<g id="edge16" class="edge"><title>Id00D040D0&#45;&gt;Id00D03FC0</title>
<path fill="none" stroke="black" d="M626.488,-324.648C602.267,-304.633 566.821,-275.342 540.284,-253.414"/>
<polygon fill="black" stroke="black" points="542.295,-250.535 532.357,-246.863 537.836,-255.931 542.295,-250.535"/>
</g>
<!-- Id00D04060 -->
<g id="node20" class="node"><title>Id00D04060</title>
<ellipse fill="none" stroke="black" cx="654" cy="-222.43" rx="64.1938" ry="37.4533"/>
<text text-anchor="middle" x="654" y="-233.73" font-family="Times New Roman,serif" font-size="14.00">STRING</text>
<text text-anchor="middle" x="654" y="-218.73" font-family="Times New Roman,serif" font-size="14.00"> mref = #45</text>
<text text-anchor="middle" x="654" y="-203.73" font-family="Times New Roman,serif" font-size="14.00"> val_id = #42</text>
</g>
<!-- Id00D040D0&#45;&gt;Id00D04060 -->
<g id="edge17" class="edge"><title>Id00D040D0&#45;&gt;Id00D04060</title>
<path fill="none" stroke="black" d="M654,-321.399C654,-306.701 654,-287.872 654,-270.654"/>
<polygon fill="black" stroke="black" points="657.5,-270.194 654,-260.194 650.5,-270.194 657.5,-270.194"/>
</g>
<!-- IdVal00D03FC0 -->
<g id="node19" class="node"><title>IdVal00D03FC0</title>
<ellipse fill="none" stroke="black" cx="504" cy="-110.477" rx="27" ry="18"/>
<text text-anchor="middle" x="504" y="-106.777" font-family="Times New Roman,serif" font-size="14.00">a</text>
</g>
<!-- Id00D03FC0&#45;&gt;IdVal00D03FC0 -->
<g id="edge14" class="edge"><title>Id00D03FC0&#45;&gt;IdVal00D03FC0</title>
<path fill="none" stroke="black" d="M504,-195.373C504,-178.333 504,-156.113 504,-138.821"/>
<polygon fill="black" stroke="black" points="507.5,-138.782 504,-128.782 500.5,-138.782 507.5,-138.782"/>
</g>
<!-- IdVal00D04060 -->
<g id="node21" class="node"><title>IdVal00D04060</title>
<ellipse fill="none" stroke="black" cx="654" cy="-110.477" rx="27" ry="18"/>
<text text-anchor="middle" x="654" y="-106.777" font-family="Times New Roman,serif" font-size="14.00">a</text>
</g>
<!-- Id00D04060&#45;&gt;IdVal00D04060 -->
<g id="edge15" class="edge"><title>Id00D04060&#45;&gt;IdVal00D04060</title>
<path fill="none" stroke="black" d="M654,-184.817C654,-169.832 654,-152.79 654,-138.908"/>
<polygon fill="black" stroke="black" points="657.5,-138.551 654,-128.551 650.5,-138.551 657.5,-138.551"/>
</g>
<!-- IdName00D04B48 -->
<g id="node23" class="node"><title>IdName00D04B48</title>
<ellipse fill="none" stroke="black" cx="767" cy="-554.47" rx="30.5947" ry="18"/>
<text text-anchor="middle" x="767" y="-550.77" font-family="Times New Roman,serif" font-size="14.00">some</text>
</g>
<!-- Id00D04B48&#45;&gt;IdName00D04B48 -->
<g id="edge21" class="edge"><title>Id00D04B48&#45;&gt;IdName00D04B48</title>
<path fill="none" stroke="black" d="M767,-632.285C767,-617.264 767,-598.362 767,-583.066"/>
<polygon fill="black" stroke="black" points="770.5,-582.674 767,-572.674 763.5,-582.674 770.5,-582.674"/>
<text text-anchor="middle" x="782" y="-603.14" font-family="Times New Roman,serif" font-size="14.00">name</text>
</g>
<!-- Id00CFE4E0 -->
<g id="node24" class="node"><title>Id00CFE4E0</title>
<ellipse fill="none" stroke="black" cx="846" cy="-554.47" rx="29.795" ry="18"/>
<text text-anchor="middle" x="846" y="-550.77" font-family="Times New Roman,serif" font-size="14.00">body</text>
</g>
<!-- Id00D04B48&#45;&gt;Id00CFE4E0 -->
<g id="edge32" class="edge"><title>Id00D04B48&#45;&gt;Id00CFE4E0</title>
<path fill="none" stroke="black" d="M786.09,-633.638C790.96,-627.353 796.181,-620.602 801,-614.34 809.854,-602.837 819.645,-590.038 827.827,-579.319"/>
<polygon fill="black" stroke="black" points="830.713,-581.307 833.996,-571.234 825.147,-577.061 830.713,-581.307"/>
</g>
<!-- Id00D04318 -->
<g id="node25" class="node"><title>Id00D04318</title>
<ellipse fill="none" stroke="black" cx="846" cy="-449.73" rx="27" ry="18"/>
<text text-anchor="middle" x="846" y="-446.03" font-family="Times New Roman,serif" font-size="14.00">stmt</text>
</g>
<!-- Id00CFE4E0&#45;&gt;Id00D04318 -->
<g id="edge27" class="edge"><title>Id00CFE4E0&#45;&gt;Id00D04318</title>
<path fill="none" stroke="black" d="M846,-536.042C846,-520.153 846,-496.423 846,-478.021"/>
<polygon fill="black" stroke="black" points="849.5,-477.901 846,-467.901 842.5,-477.901 849.5,-477.901"/>
</g>
<!-- Id00D048B8 -->
<g id="node31" class="node"><title>Id00D048B8</title>
<ellipse fill="none" stroke="black" cx="918" cy="-449.73" rx="27" ry="18"/>
<text text-anchor="middle" x="918" y="-446.03" font-family="Times New Roman,serif" font-size="14.00">stmt</text>
</g>
<!-- Id00CFE4E0&#45;&gt;Id00D048B8 -->
<g id="edge31" class="edge"><title>Id00CFE4E0&#45;&gt;Id00D048B8</title>
<path fill="none" stroke="black" d="M857.25,-537.417C869.048,-520.581 887.721,-493.936 901.253,-474.628"/>
<polygon fill="black" stroke="black" points="904.192,-476.532 907.065,-466.334 898.459,-472.515 904.192,-476.532"/>
</g>
<!-- Id00D04A68 -->
<g id="node26" class="node"><title>Id00D04A68</title>
<ellipse fill="none" stroke="black" cx="846" cy="-348.383" rx="60.2083" ry="26.7407"/>
<text text-anchor="middle" x="846" y="-352.183" font-family="Times New Roman,serif" font-size="14.00">method_call</text>
<text text-anchor="middle" x="846" y="-337.183" font-family="Times New Roman,serif" font-size="14.00"> mref = #36</text>
</g>
<!-- Id00D04318&#45;&gt;Id00D04A68 -->
<g id="edge26" class="edge"><title>Id00D04318&#45;&gt;Id00D04A68</title>
<path fill="none" stroke="black" d="M846,-431.425C846,-418.868 846,-401.423 846,-385.847"/>
<polygon fill="black" stroke="black" points="849.5,-385.445 846,-375.445 842.5,-385.445 849.5,-385.445"/>
</g>
<!-- IdMethodNameVal00D04A68 -->
<g id="node27" class="node"><title>IdMethodNameVal00D04A68</title>
<ellipse fill="none" stroke="black" cx="770" cy="-222.43" rx="33.5952" ry="18"/>
<text text-anchor="middle" x="770" y="-218.73" font-family="Times New Roman,serif" font-size="14.00">println</text>
</g>
<!-- Id00D04A68&#45;&gt;IdMethodNameVal00D04A68 -->
<g id="edge22" class="edge"><title>Id00D04A68&#45;&gt;IdMethodNameVal00D04A68</title>
<path fill="none" stroke="black" d="M830.62,-322.299C817.413,-300.759 798.474,-269.87 785.292,-248.37"/>
<polygon fill="black" stroke="black" points="788.239,-246.482 780.029,-239.786 782.272,-250.141 788.239,-246.482"/>
<text text-anchor="middle" x="828" y="-281.707" font-family="Times New Roman,serif" font-size="14.00">name</text>
</g>
<!-- Id00CFE3C8 -->
<g id="node28" class="node"><title>Id00CFE3C8</title>
<ellipse fill="none" stroke="black" cx="859" cy="-222.43" rx="37.0935" ry="18"/>
<text text-anchor="middle" x="859" y="-218.73" font-family="Times New Roman,serif" font-size="14.00">params</text>
</g>
<!-- Id00D04A68&#45;&gt;Id00CFE3C8 -->
<g id="edge23" class="edge"><title>Id00D04A68&#45;&gt;Id00CFE3C8</title>
<path fill="none" stroke="black" d="M848.725,-321.399C850.894,-300.724 853.92,-271.871 856.126,-250.834"/>
<polygon fill="black" stroke="black" points="859.634,-250.94 857.196,-240.63 852.672,-250.21 859.634,-250.94"/>
</g>
<!-- Id00D049F8 -->
<g id="node29" class="node"><title>Id00D049F8</title>
<ellipse fill="none" stroke="black" cx="859" cy="-110.477" rx="64.1938" ry="37.4533"/>
<text text-anchor="middle" x="859" y="-121.777" font-family="Times New Roman,serif" font-size="14.00">STRING</text>
<text text-anchor="middle" x="859" y="-106.777" font-family="Times New Roman,serif" font-size="14.00"> mref = #45</text>
<text text-anchor="middle" x="859" y="-91.7767" font-family="Times New Roman,serif" font-size="14.00"> val_id = #54</text>
</g>
<!-- Id00CFE3C8&#45;&gt;Id00D049F8 -->
<g id="edge25" class="edge"><title>Id00CFE3C8&#45;&gt;Id00D049F8</title>
<path fill="none" stroke="black" d="M859,-204.25C859,-191.845 859,-174.465 859,-158.097"/>
<polygon fill="black" stroke="black" points="862.5,-158.089 859,-148.09 855.5,-158.09 862.5,-158.089"/>
</g>
<!-- IdVal00D049F8 -->
<g id="node30" class="node"><title>IdVal00D049F8</title>
<ellipse fill="none" stroke="black" cx="859" cy="-18" rx="29.795" ry="18"/>
<text text-anchor="middle" x="859" y="-14.3" font-family="Times New Roman,serif" font-size="14.00">Hello</text>
</g>
<!-- Id00D049F8&#45;&gt;IdVal00D049F8 -->
<g id="edge24" class="edge"><title>Id00D049F8&#45;&gt;IdVal00D049F8</title>
<path fill="none" stroke="black" d="M859,-72.9371C859,-63.9712 859,-54.5316 859,-46.0996"/>
<polygon fill="black" stroke="black" points="862.5,-46.0694 859,-36.0695 855.5,-46.0695 862.5,-46.0694"/>
</g>
<!-- IdName00D048B8 -->
<g id="node32" class="node"><title>IdName00D048B8</title>
<ellipse fill="none" stroke="black" cx="967" cy="-348.383" rx="31.6951" ry="18"/>
<text text-anchor="middle" x="967" y="-344.683" font-family="Times New Roman,serif" font-size="14.00">return</text>
</g>
<!-- Id00D048B8&#45;&gt;IdName00D048B8 -->
<g id="edge30" class="edge"><title>Id00D048B8&#45;&gt;IdName00D048B8</title>
<path fill="none" stroke="black" d="M926.091,-432.325C933.752,-416.794 945.373,-393.232 954.274,-375.185"/>
<polygon fill="black" stroke="black" points="957.612,-376.329 958.897,-365.813 951.334,-373.233 957.612,-376.329"/>
</g>
<!-- Id00D04AD8 -->
<g id="node33" class="node"><title>Id00D04AD8</title>
<ellipse fill="none" stroke="black" cx="978" cy="-222.43" rx="64.1938" ry="37.4533"/>
<text text-anchor="middle" x="978" y="-233.73" font-family="Times New Roman,serif" font-size="14.00">INT</text>
<text text-anchor="middle" x="978" y="-218.73" font-family="Times New Roman,serif" font-size="14.00"> mref = #30</text>
<text text-anchor="middle" x="978" y="-203.73" font-family="Times New Roman,serif" font-size="14.00"> val_id = #55</text>
</g>
<!-- IdName00D048B8&#45;&gt;Id00D04AD8 -->
<g id="edge29" class="edge"><title>IdName00D048B8&#45;&gt;Id00D04AD8</title>
<path fill="none" stroke="black" d="M968.53,-330.148C969.909,-314.599 972.003,-291.004 973.872,-269.951"/>
<polygon fill="black" stroke="black" points="977.369,-270.136 974.767,-259.866 970.396,-269.518 977.369,-270.136"/>
<text text-anchor="middle" x="987.5" y="-281.707" font-family="Times New Roman,serif" font-size="14.00">value</text>
</g>
<!-- IdVal00D04AD8 -->
<g id="node34" class="node"><title>IdVal00D04AD8</title>
<ellipse fill="none" stroke="black" cx="978" cy="-110.477" rx="27" ry="18"/>
<text text-anchor="middle" x="978" y="-106.777" font-family="Times New Roman,serif" font-size="14.00">5</text>
</g>
<!-- Id00D04AD8&#45;&gt;IdVal00D04AD8 -->
<g id="edge28" class="edge"><title>Id00D04AD8&#45;&gt;IdVal00D04AD8</title>
<path fill="none" stroke="black" d="M978,-184.817C978,-169.832 978,-152.79 978,-138.908"/>
<polygon fill="black" stroke="black" points="981.5,-138.551 978,-128.551 974.5,-138.551 981.5,-138.551"/>
</g>
<!-- Id00D04E90 -->
<g id="node36" class="node"><title>Id00D04E90</title>
<ellipse fill="none" stroke="black" cx="997" cy="-554.47" rx="60.2083" ry="26.7407"/>
<text text-anchor="middle" x="997" y="-558.27" font-family="Times New Roman,serif" font-size="14.00">method_call</text>
<text text-anchor="middle" x="997" y="-543.27" font-family="Times New Roman,serif" font-size="14.00"> mref = #36</text>
</g>
<!-- Id00D04958&#45;&gt;Id00D04E90 -->
<g id="edge38" class="edge"><title>Id00D04958&#45;&gt;Id00D04E90</title>
<path fill="none" stroke="black" d="M887.472,-644.779C906.051,-629.63 936.827,-604.535 961.033,-584.797"/>
<polygon fill="black" stroke="black" points="963.425,-587.363 968.963,-578.331 959.001,-581.938 963.425,-587.363"/>
</g>
<!-- IdMethodNameVal00D04E90 -->
<g id="node37" class="node"><title>IdMethodNameVal00D04E90</title>
<ellipse fill="none" stroke="black" cx="997" cy="-449.73" rx="33.5952" ry="18"/>
<text text-anchor="middle" x="997" y="-446.03" font-family="Times New Roman,serif" font-size="14.00">println</text>
</g>
<!-- Id00D04E90&#45;&gt;IdMethodNameVal00D04E90 -->
<g id="edge34" class="edge"><title>Id00D04E90&#45;&gt;IdMethodNameVal00D04E90</title>
<path fill="none" stroke="black" d="M997,-527.544C997,-512.524 997,-493.622 997,-478.326"/>
<polygon fill="black" stroke="black" points="1000.5,-477.934 997,-467.934 993.5,-477.934 1000.5,-477.934"/>
<text text-anchor="middle" x="1012" y="-498.4" font-family="Times New Roman,serif" font-size="14.00">name</text>
</g>
<!-- Id00CFE2E8 -->
<g id="node38" class="node"><title>Id00CFE2E8</title>
<ellipse fill="none" stroke="black" cx="1086" cy="-449.73" rx="37.0935" ry="18"/>
<text text-anchor="middle" x="1086" y="-446.03" font-family="Times New Roman,serif" font-size="14.00">params</text>
</g>
<!-- Id00D04E90&#45;&gt;Id00CFE2E8 -->
<g id="edge35" class="edge"><title>Id00D04E90&#45;&gt;Id00CFE2E8</title>
<path fill="none" stroke="black" d="M1018.09,-529.122C1032.49,-512.498 1051.47,-490.596 1065.7,-474.169"/>
<polygon fill="black" stroke="black" points="1068.36,-476.441 1072.26,-466.591 1063.07,-471.858 1068.36,-476.441"/>
</g>
<!-- Id00D04FE0 -->
<g id="node39" class="node"><title>Id00D04FE0</title>
<ellipse fill="none" stroke="black" cx="1087" cy="-348.383" rx="60.2083" ry="26.7407"/>
<text text-anchor="middle" x="1087" y="-352.183" font-family="Times New Roman,serif" font-size="14.00">method_call</text>
<text text-anchor="middle" x="1087" y="-337.183" font-family="Times New Roman,serif" font-size="14.00"> mref = #49</text>
</g>
<!-- Id00CFE2E8&#45;&gt;Id00D04FE0 -->
<g id="edge37" class="edge"><title>Id00CFE2E8&#45;&gt;Id00D04FE0</title>
<path fill="none" stroke="black" d="M1086.17,-431.425C1086.3,-418.868 1086.48,-401.423 1086.63,-385.847"/>
<polygon fill="black" stroke="black" points="1090.14,-385.48 1086.74,-375.445 1083.14,-385.409 1090.14,-385.48"/>
</g>
<!-- IdMethodNameVal00D04FE0 -->
<g id="node40" class="node"><title>IdMethodNameVal00D04FE0</title>
<ellipse fill="none" stroke="black" cx="1091" cy="-222.43" rx="30.5947" ry="18"/>
<text text-anchor="middle" x="1091" y="-218.73" font-family="Times New Roman,serif" font-size="14.00">some</text>
</g>
<!-- Id00D04FE0&#45;&gt;IdMethodNameVal00D04FE0 -->
<g id="edge36" class="edge"><title>Id00D04FE0&#45;&gt;IdMethodNameVal00D04FE0</title>
<path fill="none" stroke="black" d="M1087.84,-321.399C1088.51,-300.724 1089.44,-271.871 1090.12,-250.834"/>
<polygon fill="black" stroke="black" points="1093.62,-250.737 1090.44,-240.63 1086.62,-250.511 1093.62,-250.737"/>
<text text-anchor="middle" x="1104" y="-281.707" font-family="Times New Roman,serif" font-size="14.00">name</text>
</g>
</g>
</svg>
