<?xml version="1.0" encoding="UTF-8" standalone="no"?>
<!DOCTYPE svg PUBLIC "-//W3C//DTD SVG 1.1//EN"
 "http://www.w3.org/Graphics/SVG/1.1/DTD/svg11.dtd">
<!-- Generated by graphviz version 2.38.0 (20140413.2041)
 -->
<!-- Title: G Pages: 1 -->
<svg width="1560pt" height="609pt"
 viewBox="0.00 0.00 1559.52 609.39" xmlns="http://www.w3.org/2000/svg" xmlns:xlink="http://www.w3.org/1999/xlink">
<g id="graph0" class="graph" transform="scale(1 1) rotate(0) translate(4 605.387)">
<title>G</title>
<polygon fill="white" stroke="none" points="-4,4 -4,-605.387 1555.52,-605.387 1555.52,4 -4,4"/>
<!-- Id01165708 -->
<g id="node1" class="node"><title>Id01165708</title>
<ellipse fill="none" stroke="black" cx="775.175" cy="-583.387" rx="41.6928" ry="18"/>
<text text-anchor="middle" x="775.175" y="-579.687" font-family="Times New Roman,serif" font-size="14.00">program</text>
</g>
<!-- Id0115CB50 -->
<g id="node2" class="node"><title>Id0115CB50</title>
<ellipse fill="none" stroke="black" cx="571.175" cy="-510.387" rx="27" ry="18"/>
<text text-anchor="middle" x="571.175" y="-506.687" font-family="Times New Roman,serif" font-size="14.00">stmt</text>
</g>
<!-- Id01165708&#45;&gt;Id0115CB50 -->
<g id="edge6" class="edge"><title>Id01165708&#45;&gt;Id0115CB50</title>
<path fill="none" stroke="black" d="M743.747,-571.449C705.992,-558.308 642.933,-536.361 604.397,-522.949"/>
<polygon fill="black" stroke="black" points="605.283,-519.552 594.689,-519.57 602.982,-526.163 605.283,-519.552"/>
</g>
<!-- Id01164658 -->
<g id="node8" class="node"><title>Id01164658</title>
<ellipse fill="none" stroke="black" cx="683.175" cy="-510.387" rx="27" ry="18"/>
<text text-anchor="middle" x="683.175" y="-506.687" font-family="Times New Roman,serif" font-size="14.00">stmt</text>
</g>
<!-- Id01165708&#45;&gt;Id01164658 -->
<g id="edge12" class="edge"><title>Id01165708&#45;&gt;Id01164658</title>
<path fill="none" stroke="black" d="M755.664,-567.33C741.908,-556.713 723.356,-542.396 708.465,-530.904"/>
<polygon fill="black" stroke="black" points="710.238,-527.852 700.183,-524.513 705.962,-533.393 710.238,-527.852"/>
</g>
<!-- Id011644C8 -->
<g id="node14" class="node"><title>Id011644C8</title>
<ellipse fill="none" stroke="black" cx="775.175" cy="-510.387" rx="27" ry="18"/>
<text text-anchor="middle" x="775.175" y="-506.687" font-family="Times New Roman,serif" font-size="14.00">stmt</text>
</g>
<!-- Id01165708&#45;&gt;Id011644C8 -->
<g id="edge21" class="edge"><title>Id01165708&#45;&gt;Id011644C8</title>
<path fill="none" stroke="black" d="M775.175,-565.2C775.175,-557.176 775.175,-547.434 775.175,-538.456"/>
<polygon fill="black" stroke="black" points="778.675,-538.416 775.175,-528.416 771.675,-538.416 778.675,-538.416"/>
</g>
<!-- Id01164158 -->
<g id="node23" class="node"><title>Id01164158</title>
<ellipse fill="none" stroke="black" cx="874.175" cy="-510.387" rx="27" ry="18"/>
<text text-anchor="middle" x="874.175" y="-506.687" font-family="Times New Roman,serif" font-size="14.00">stmt</text>
</g>
<!-- Id01165708&#45;&gt;Id01164158 -->
<g id="edge30" class="edge"><title>Id01165708&#45;&gt;Id01164158</title>
<path fill="none" stroke="black" d="M795.688,-567.676C810.789,-556.846 831.446,-542.031 847.778,-530.318"/>
<polygon fill="black" stroke="black" points="850.257,-532.847 856.344,-524.175 846.178,-527.159 850.257,-532.847"/>
</g>
<!-- Id01164068 -->
<g id="node32" class="node"><title>Id01164068</title>
<ellipse fill="none" stroke="black" cx="1010.18" cy="-510.387" rx="27" ry="18"/>
<text text-anchor="middle" x="1010.18" y="-506.687" font-family="Times New Roman,serif" font-size="14.00">stmt</text>
</g>
<!-- Id01165708&#45;&gt;Id01164068 -->
<g id="edge39" class="edge"><title>Id01165708&#45;&gt;Id01164068</title>
<path fill="none" stroke="black" d="M808.346,-572.365C852.832,-558.925 931.403,-535.186 976.263,-521.633"/>
<polygon fill="black" stroke="black" points="977.54,-524.903 986.1,-518.66 975.516,-518.202 977.54,-524.903"/>
</g>
<!-- Id0115CF20 -->
<g id="node3" class="node"><title>Id0115CF20</title>
<ellipse fill="none" stroke="black" cx="217.175" cy="-428.517" rx="27" ry="18"/>
<text text-anchor="middle" x="217.175" y="-424.817" font-family="Times New Roman,serif" font-size="14.00">=</text>
</g>
<!-- Id0115CB50&#45;&gt;Id0115CF20 -->
<g id="edge5" class="edge"><title>Id0115CB50&#45;&gt;Id0115CF20</title>
<path fill="none" stroke="black" d="M546,-503.707C483.972,-489.712 323.663,-453.543 252.317,-437.446"/>
<polygon fill="black" stroke="black" points="252.984,-434.008 242.459,-435.221 251.443,-440.836 252.984,-434.008"/>
</g>
<!-- Id0115CAF0 -->
<g id="node4" class="node"><title>Id0115CAF0</title>
<ellipse fill="none" stroke="black" cx="67.1751" cy="-313.17" rx="67.3507" ry="26.7407"/>
<text text-anchor="middle" x="67.1751" y="-316.97" font-family="Times New Roman,serif" font-size="14.00">var or method</text>
<text text-anchor="middle" x="67.1751" y="-301.97" font-family="Times New Roman,serif" font-size="14.00"> localnum = 1</text>
</g>
<!-- Id0115CF20&#45;&gt;Id0115CAF0 -->
<g id="edge3" class="edge"><title>Id0115CF20&#45;&gt;Id0115CAF0</title>
<path fill="none" stroke="black" d="M199.968,-414.515C177.178,-397.293 136.323,-366.421 105.926,-343.452"/>
<polygon fill="black" stroke="black" points="107.743,-340.438 97.6541,-337.201 103.522,-346.023 107.743,-340.438"/>
</g>
<!-- Id0115CEC0 -->
<g id="node6" class="node"><title>Id0115CEC0</title>
<ellipse fill="none" stroke="black" cx="217.175" cy="-313.17" rx="64.1938" ry="37.4533"/>
<text text-anchor="middle" x="217.175" y="-324.47" font-family="Times New Roman,serif" font-size="14.00">INT</text>
<text text-anchor="middle" x="217.175" y="-309.47" font-family="Times New Roman,serif" font-size="14.00"> mref = #16</text>
<text text-anchor="middle" x="217.175" y="-294.47" font-family="Times New Roman,serif" font-size="14.00"> val_id = #10</text>
</g>
<!-- Id0115CF20&#45;&gt;Id0115CEC0 -->
<g id="edge4" class="edge"><title>Id0115CF20&#45;&gt;Id0115CEC0</title>
<path fill="none" stroke="black" d="M217.175,-410.302C217.175,-397.152 217.175,-378.376 217.175,-360.902"/>
<polygon fill="black" stroke="black" points="220.675,-360.816 217.175,-350.816 213.675,-360.816 220.675,-360.816"/>
</g>
<!-- IdVal0115CAF0 -->
<g id="node5" class="node"><title>IdVal0115CAF0</title>
<ellipse fill="none" stroke="black" cx="67.1751" cy="-211.823" rx="27" ry="18"/>
<text text-anchor="middle" x="67.1751" y="-208.123" font-family="Times New Roman,serif" font-size="14.00">a</text>
</g>
<!-- Id0115CAF0&#45;&gt;IdVal0115CAF0 -->
<g id="edge1" class="edge"><title>Id0115CAF0&#45;&gt;IdVal0115CAF0</title>
<path fill="none" stroke="black" d="M67.1751,-286.068C67.1751,-271.958 67.1751,-254.544 67.1751,-240.237"/>
<polygon fill="black" stroke="black" points="70.6752,-240.008 67.1751,-230.008 63.6752,-240.008 70.6752,-240.008"/>
</g>
<!-- IdVal0115CEC0 -->
<g id="node7" class="node"><title>IdVal0115CEC0</title>
<ellipse fill="none" stroke="black" cx="217.175" cy="-211.823" rx="27" ry="18"/>
<text text-anchor="middle" x="217.175" y="-208.123" font-family="Times New Roman,serif" font-size="14.00">1</text>
</g>
<!-- Id0115CEC0&#45;&gt;IdVal0115CEC0 -->
<g id="edge2" class="edge"><title>Id0115CEC0&#45;&gt;IdVal0115CEC0</title>
<path fill="none" stroke="black" d="M217.175,-275.459C217.175,-263.769 217.175,-251.049 217.175,-240.144"/>
<polygon fill="black" stroke="black" points="220.675,-239.95 217.175,-229.95 213.675,-239.95 220.675,-239.95"/>
</g>
<!-- Id01163EC0 -->
<g id="node9" class="node"><title>Id01163EC0</title>
<ellipse fill="none" stroke="black" cx="517.175" cy="-428.517" rx="27" ry="18"/>
<text text-anchor="middle" x="517.175" y="-424.817" font-family="Times New Roman,serif" font-size="14.00">=</text>
</g>
<!-- Id01164658&#45;&gt;Id01163EC0 -->
<g id="edge11" class="edge"><title>Id01164658&#45;&gt;Id01163EC0</title>
<path fill="none" stroke="black" d="M661.813,-499.109C632.803,-485.151 580.777,-460.118 547.667,-444.188"/>
<polygon fill="black" stroke="black" points="548.984,-440.937 538.455,-439.755 545.949,-447.245 548.984,-440.937"/>
</g>
<!-- Id01163E00 -->
<g id="node10" class="node"><title>Id01163E00</title>
<ellipse fill="none" stroke="black" cx="367.175" cy="-313.17" rx="67.3507" ry="26.7407"/>
<text text-anchor="middle" x="367.175" y="-316.97" font-family="Times New Roman,serif" font-size="14.00">var or method</text>
<text text-anchor="middle" x="367.175" y="-301.97" font-family="Times New Roman,serif" font-size="14.00"> localnum = 2</text>
</g>
<!-- Id01163EC0&#45;&gt;Id01163E00 -->
<g id="edge9" class="edge"><title>Id01163EC0&#45;&gt;Id01163E00</title>
<path fill="none" stroke="black" d="M499.968,-414.515C477.178,-397.293 436.323,-366.421 405.926,-343.452"/>
<polygon fill="black" stroke="black" points="407.743,-340.438 397.654,-337.201 403.522,-346.023 407.743,-340.438"/>
</g>
<!-- Id01163E60 -->
<g id="node12" class="node"><title>Id01163E60</title>
<ellipse fill="none" stroke="black" cx="517.175" cy="-313.17" rx="64.1938" ry="37.4533"/>
<text text-anchor="middle" x="517.175" y="-324.47" font-family="Times New Roman,serif" font-size="14.00">INT</text>
<text text-anchor="middle" x="517.175" y="-309.47" font-family="Times New Roman,serif" font-size="14.00"> mref = #16</text>
<text text-anchor="middle" x="517.175" y="-294.47" font-family="Times New Roman,serif" font-size="14.00"> val_id = #17</text>
</g>
<!-- Id01163EC0&#45;&gt;Id01163E60 -->
<g id="edge10" class="edge"><title>Id01163EC0&#45;&gt;Id01163E60</title>
<path fill="none" stroke="black" d="M517.175,-410.302C517.175,-397.152 517.175,-378.376 517.175,-360.902"/>
<polygon fill="black" stroke="black" points="520.675,-360.816 517.175,-350.816 513.675,-360.816 520.675,-360.816"/>
</g>
<!-- IdVal01163E00 -->
<g id="node11" class="node"><title>IdVal01163E00</title>
<ellipse fill="none" stroke="black" cx="367.175" cy="-211.823" rx="27" ry="18"/>
<text text-anchor="middle" x="367.175" y="-208.123" font-family="Times New Roman,serif" font-size="14.00">b</text>
</g>
<!-- Id01163E00&#45;&gt;IdVal01163E00 -->
<g id="edge7" class="edge"><title>Id01163E00&#45;&gt;IdVal01163E00</title>
<path fill="none" stroke="black" d="M367.175,-286.068C367.175,-271.958 367.175,-254.544 367.175,-240.237"/>
<polygon fill="black" stroke="black" points="370.675,-240.008 367.175,-230.008 363.675,-240.008 370.675,-240.008"/>
</g>
<!-- IdVal01163E60 -->
<g id="node13" class="node"><title>IdVal01163E60</title>
<ellipse fill="none" stroke="black" cx="514.175" cy="-211.823" rx="27" ry="18"/>
<text text-anchor="middle" x="514.175" y="-208.123" font-family="Times New Roman,serif" font-size="14.00">2</text>
</g>
<!-- Id01163E60&#45;&gt;IdVal01163E60 -->
<g id="edge8" class="edge"><title>Id01163E60&#45;&gt;IdVal01163E60</title>
<path fill="none" stroke="black" d="M516.067,-275.459C515.714,-263.769 515.329,-251.049 515,-240.144"/>
<polygon fill="black" stroke="black" points="518.493,-239.84 514.692,-229.95 511.496,-240.051 518.493,-239.84"/>
</g>
<!-- Id01164978 -->
<g id="node15" class="node"><title>Id01164978</title>
<ellipse fill="none" stroke="black" cx="775.175" cy="-428.517" rx="27" ry="18"/>
<text text-anchor="middle" x="775.175" y="-424.817" font-family="Times New Roman,serif" font-size="14.00">=</text>
</g>
<!-- Id011644C8&#45;&gt;Id01164978 -->
<g id="edge20" class="edge"><title>Id011644C8&#45;&gt;Id01164978</title>
<path fill="none" stroke="black" d="M775.175,-492.056C775.175,-481.729 775.175,-468.395 775.175,-456.693"/>
<polygon fill="black" stroke="black" points="778.675,-456.539 775.175,-446.539 771.675,-456.539 778.675,-456.539"/>
</g>
<!-- Id01164798 -->
<g id="node16" class="node"><title>Id01164798</title>
<ellipse fill="none" stroke="black" cx="667.175" cy="-313.17" rx="67.3507" ry="26.7407"/>
<text text-anchor="middle" x="667.175" y="-316.97" font-family="Times New Roman,serif" font-size="14.00">var or method</text>
<text text-anchor="middle" x="667.175" y="-301.97" font-family="Times New Roman,serif" font-size="14.00"> localnum = 3</text>
</g>
<!-- Id01164978&#45;&gt;Id01164798 -->
<g id="edge18" class="edge"><title>Id01164978&#45;&gt;Id01164798</title>
<path fill="none" stroke="black" d="M761.056,-412.699C744.996,-395.844 718.302,-367.829 697.476,-345.971"/>
<polygon fill="black" stroke="black" points="699.813,-343.35 690.381,-338.525 694.746,-348.179 699.813,-343.35"/>
</g>
<!-- Id01164918 -->
<g id="node18" class="node"><title>Id01164918</title>
<ellipse fill="none" stroke="black" cx="811.175" cy="-313.17" rx="58.8803" ry="26.7407"/>
<text text-anchor="middle" x="811.175" y="-316.97" font-family="Times New Roman,serif" font-size="14.00">+</text>
<text text-anchor="middle" x="811.175" y="-301.97" font-family="Times New Roman,serif" font-size="14.00"> mref = #21</text>
</g>
<!-- Id01164978&#45;&gt;Id01164918 -->
<g id="edge19" class="edge"><title>Id01164978&#45;&gt;Id01164918</title>
<path fill="none" stroke="black" d="M780.487,-410.792C785.597,-394.704 793.482,-369.878 799.98,-349.419"/>
<polygon fill="black" stroke="black" points="803.349,-350.374 803.04,-339.784 796.677,-348.255 803.349,-350.374"/>
</g>
<!-- IdVal01164798 -->
<g id="node17" class="node"><title>IdVal01164798</title>
<ellipse fill="none" stroke="black" cx="586.175" cy="-211.823" rx="27" ry="18"/>
<text text-anchor="middle" x="586.175" y="-208.123" font-family="Times New Roman,serif" font-size="14.00">c</text>
</g>
<!-- Id01164798&#45;&gt;IdVal01164798 -->
<g id="edge13" class="edge"><title>Id01164798&#45;&gt;IdVal01164798</title>
<path fill="none" stroke="black" d="M646.944,-287.357C634.134,-271.646 617.679,-251.463 605.124,-236.064"/>
<polygon fill="black" stroke="black" points="607.629,-233.598 598.597,-228.059 602.204,-238.021 607.629,-233.598"/>
</g>
<!-- Id01164828 -->
<g id="node19" class="node"><title>Id01164828</title>
<ellipse fill="none" stroke="black" cx="698.175" cy="-211.823" rx="67.3507" ry="26.7407"/>
<text text-anchor="middle" x="698.175" y="-215.623" font-family="Times New Roman,serif" font-size="14.00">var or method</text>
<text text-anchor="middle" x="698.175" y="-200.623" font-family="Times New Roman,serif" font-size="14.00"> localnum = 1</text>
</g>
<!-- Id01164918&#45;&gt;Id01164828 -->
<g id="edge16" class="edge"><title>Id01164918&#45;&gt;Id01164828</title>
<path fill="none" stroke="black" d="M784.682,-288.878C769.321,-275.373 749.793,-258.204 733.178,-243.597"/>
<polygon fill="black" stroke="black" points="735.109,-240.634 725.287,-236.66 730.487,-245.891 735.109,-240.634"/>
</g>
<!-- Id011648B8 -->
<g id="node21" class="node"><title>Id011648B8</title>
<ellipse fill="none" stroke="black" cx="850.175" cy="-211.823" rx="67.3507" ry="26.7407"/>
<text text-anchor="middle" x="850.175" y="-215.623" font-family="Times New Roman,serif" font-size="14.00">var or method</text>
<text text-anchor="middle" x="850.175" y="-200.623" font-family="Times New Roman,serif" font-size="14.00"> localnum = 2</text>
</g>
<!-- Id01164918&#45;&gt;Id011648B8 -->
<g id="edge17" class="edge"><title>Id01164918&#45;&gt;Id011648B8</title>
<path fill="none" stroke="black" d="M821.219,-286.586C825.823,-274.858 831.355,-260.765 836.345,-248.055"/>
<polygon fill="black" stroke="black" points="839.634,-249.254 840.03,-238.666 833.118,-246.696 839.634,-249.254"/>
</g>
<!-- IdVal01164828 -->
<g id="node20" class="node"><title>IdVal01164828</title>
<ellipse fill="none" stroke="black" cx="698.175" cy="-110.477" rx="27" ry="18"/>
<text text-anchor="middle" x="698.175" y="-106.777" font-family="Times New Roman,serif" font-size="14.00">a</text>
</g>
<!-- Id01164828&#45;&gt;IdVal01164828 -->
<g id="edge14" class="edge"><title>Id01164828&#45;&gt;IdVal01164828</title>
<path fill="none" stroke="black" d="M698.175,-184.721C698.175,-170.611 698.175,-153.198 698.175,-138.89"/>
<polygon fill="black" stroke="black" points="701.675,-138.661 698.175,-128.661 694.675,-138.661 701.675,-138.661"/>
</g>
<!-- IdVal011648B8 -->
<g id="node22" class="node"><title>IdVal011648B8</title>
<ellipse fill="none" stroke="black" cx="850.175" cy="-110.477" rx="27" ry="18"/>
<text text-anchor="middle" x="850.175" y="-106.777" font-family="Times New Roman,serif" font-size="14.00">b</text>
</g>
<!-- Id011648B8&#45;&gt;IdVal011648B8 -->
<g id="edge15" class="edge"><title>Id011648B8&#45;&gt;IdVal011648B8</title>
<path fill="none" stroke="black" d="M850.175,-184.721C850.175,-170.611 850.175,-153.198 850.175,-138.89"/>
<polygon fill="black" stroke="black" points="853.675,-138.661 850.175,-128.661 846.675,-138.661 853.675,-138.661"/>
</g>
<!-- Id01164F20 -->
<g id="node24" class="node"><title>Id01164F20</title>
<ellipse fill="none" stroke="black" cx="957.175" cy="-428.517" rx="27" ry="18"/>
<text text-anchor="middle" x="957.175" y="-424.817" font-family="Times New Roman,serif" font-size="14.00">=</text>
</g>
<!-- Id01164158&#45;&gt;Id01164F20 -->
<g id="edge29" class="edge"><title>Id01164158&#45;&gt;Id01164F20</title>
<path fill="none" stroke="black" d="M889.014,-495.108C901.761,-482.841 920.328,-464.975 934.865,-450.985"/>
<polygon fill="black" stroke="black" points="937.686,-453.128 942.465,-443.672 932.832,-448.084 937.686,-453.128"/>
</g>
<!-- Id01164A48 -->
<g id="node25" class="node"><title>Id01164A48</title>
<ellipse fill="none" stroke="black" cx="957.175" cy="-313.17" rx="67.3507" ry="26.7407"/>
<text text-anchor="middle" x="957.175" y="-316.97" font-family="Times New Roman,serif" font-size="14.00">var or method</text>
<text text-anchor="middle" x="957.175" y="-301.97" font-family="Times New Roman,serif" font-size="14.00"> localnum = 4</text>
</g>
<!-- Id01164F20&#45;&gt;Id01164A48 -->
<g id="edge27" class="edge"><title>Id01164F20&#45;&gt;Id01164A48</title>
<path fill="none" stroke="black" d="M957.175,-410.302C957.175,-394.481 957.175,-370.514 957.175,-350.47"/>
<polygon fill="black" stroke="black" points="960.675,-350.41 957.175,-340.41 953.675,-350.41 960.675,-350.41"/>
</g>
<!-- Id01164F80 -->
<g id="node27" class="node"><title>Id01164F80</title>
<ellipse fill="none" stroke="black" cx="1101.18" cy="-313.17" rx="58.8803" ry="26.7407"/>
<text text-anchor="middle" x="1101.18" y="-316.97" font-family="Times New Roman,serif" font-size="14.00">*</text>
<text text-anchor="middle" x="1101.18" y="-301.97" font-family="Times New Roman,serif" font-size="14.00"> mref = #24</text>
</g>
<!-- Id01164F20&#45;&gt;Id01164F80 -->
<g id="edge28" class="edge"><title>Id01164F20&#45;&gt;Id01164F80</title>
<path fill="none" stroke="black" d="M973.976,-414.293C996.083,-396.891 1035.54,-365.831 1064.67,-342.905"/>
<polygon fill="black" stroke="black" points="1066.89,-345.608 1072.59,-336.673 1062.56,-340.108 1066.89,-345.608"/>
</g>
<!-- IdVal01164A48 -->
<g id="node26" class="node"><title>IdVal01164A48</title>
<ellipse fill="none" stroke="black" cx="962.175" cy="-211.823" rx="27" ry="18"/>
<text text-anchor="middle" x="962.175" y="-208.123" font-family="Times New Roman,serif" font-size="14.00">d</text>
</g>
<!-- Id01164A48&#45;&gt;IdVal01164A48 -->
<g id="edge22" class="edge"><title>Id01164A48&#45;&gt;IdVal01164A48</title>
<path fill="none" stroke="black" d="M958.489,-286.068C959.199,-271.958 960.075,-254.544 960.795,-240.237"/>
<polygon fill="black" stroke="black" points="964.303,-240.171 961.31,-230.008 957.312,-239.819 964.303,-240.171"/>
</g>
<!-- Id01165220 -->
<g id="node28" class="node"><title>Id01165220</title>
<ellipse fill="none" stroke="black" cx="1074.18" cy="-211.823" rx="67.3507" ry="26.7407"/>
<text text-anchor="middle" x="1074.18" y="-215.623" font-family="Times New Roman,serif" font-size="14.00">var or method</text>
<text text-anchor="middle" x="1074.18" y="-200.623" font-family="Times New Roman,serif" font-size="14.00"> localnum = 3</text>
</g>
<!-- Id01164F80&#45;&gt;Id01165220 -->
<g id="edge25" class="edge"><title>Id01164F80&#45;&gt;Id01165220</title>
<path fill="none" stroke="black" d="M1094.15,-286.327C1091.02,-274.805 1087.28,-261.04 1083.89,-248.554"/>
<polygon fill="black" stroke="black" points="1087.26,-247.614 1081.26,-238.882 1080.5,-249.45 1087.26,-247.614"/>
</g>
<!-- Id01164B00 -->
<g id="node30" class="node"><title>Id01164B00</title>
<ellipse fill="none" stroke="black" cx="1226.18" cy="-211.823" rx="67.3507" ry="26.7407"/>
<text text-anchor="middle" x="1226.18" y="-215.623" font-family="Times New Roman,serif" font-size="14.00">var or method</text>
<text text-anchor="middle" x="1226.18" y="-200.623" font-family="Times New Roman,serif" font-size="14.00"> localnum = 3</text>
</g>
<!-- Id01164F80&#45;&gt;Id01164B00 -->
<g id="edge26" class="edge"><title>Id01164F80&#45;&gt;Id01164B00</title>
<path fill="none" stroke="black" d="M1129.54,-289.627C1147.06,-275.701 1169.75,-257.672 1188.73,-242.581"/>
<polygon fill="black" stroke="black" points="1190.97,-245.276 1196.62,-236.314 1186.61,-239.796 1190.97,-245.276"/>
</g>
<!-- IdVal01165220 -->
<g id="node29" class="node"><title>IdVal01165220</title>
<ellipse fill="none" stroke="black" cx="1074.18" cy="-110.477" rx="27" ry="18"/>
<text text-anchor="middle" x="1074.18" y="-106.777" font-family="Times New Roman,serif" font-size="14.00">c</text>
</g>
<!-- Id01165220&#45;&gt;IdVal01165220 -->
<g id="edge23" class="edge"><title>Id01165220&#45;&gt;IdVal01165220</title>
<path fill="none" stroke="black" d="M1074.18,-184.721C1074.18,-170.611 1074.18,-153.198 1074.18,-138.89"/>
<polygon fill="black" stroke="black" points="1077.68,-138.661 1074.18,-128.661 1070.68,-138.661 1077.68,-138.661"/>
</g>
<!-- IdVal01164B00 -->
<g id="node31" class="node"><title>IdVal01164B00</title>
<ellipse fill="none" stroke="black" cx="1226.18" cy="-110.477" rx="27" ry="18"/>
<text text-anchor="middle" x="1226.18" y="-106.777" font-family="Times New Roman,serif" font-size="14.00">c</text>
</g>
<!-- Id01164B00&#45;&gt;IdVal01164B00 -->
<g id="edge24" class="edge"><title>Id01164B00&#45;&gt;IdVal01164B00</title>
<path fill="none" stroke="black" d="M1226.18,-184.721C1226.18,-170.611 1226.18,-153.198 1226.18,-138.89"/>
<polygon fill="black" stroke="black" points="1229.68,-138.661 1226.18,-128.661 1222.68,-138.661 1229.68,-138.661"/>
</g>
<!-- Id01164E60 -->
<g id="node33" class="node"><title>Id01164E60</title>
<ellipse fill="none" stroke="black" cx="1230.18" cy="-428.517" rx="60.2083" ry="26.7407"/>
<text text-anchor="middle" x="1230.18" y="-432.317" font-family="Times New Roman,serif" font-size="14.00">method_call</text>
<text text-anchor="middle" x="1230.18" y="-417.317" font-family="Times New Roman,serif" font-size="14.00"> mref = #28</text>
</g>
<!-- Id01164068&#45;&gt;Id01164E60 -->
<g id="edge38" class="edge"><title>Id01164068&#45;&gt;Id01164E60</title>
<path fill="none" stroke="black" d="M1033.3,-500.99C1066.67,-488.875 1129.33,-466.129 1175.02,-449.541"/>
<polygon fill="black" stroke="black" points="1176.29,-452.803 1184.5,-446.101 1173.9,-446.223 1176.29,-452.803"/>
</g>
<!-- IdMethodNameVal01164E60 -->
<g id="node34" class="node"><title>IdMethodNameVal01164E60</title>
<ellipse fill="none" stroke="black" cx="1230.18" cy="-313.17" rx="33.5952" ry="18"/>
<text text-anchor="middle" x="1230.18" y="-309.47" font-family="Times New Roman,serif" font-size="14.00">println</text>
</g>
<!-- Id01164E60&#45;&gt;IdMethodNameVal01164E60 -->
<g id="edge31" class="edge"><title>Id01164E60&#45;&gt;IdMethodNameVal01164E60</title>
<path fill="none" stroke="black" d="M1230.18,-401.513C1230.18,-383.483 1230.18,-359.527 1230.18,-341.264"/>
<polygon fill="black" stroke="black" points="1233.68,-341.257 1230.18,-331.257 1226.68,-341.257 1233.68,-341.257"/>
<text text-anchor="middle" x="1245.18" y="-372.447" font-family="Times New Roman,serif" font-size="14.00">name</text>
</g>
<!-- Id0115E220 -->
<g id="node35" class="node"><title>Id0115E220</title>
<ellipse fill="none" stroke="black" cx="1328.18" cy="-313.17" rx="37.0935" ry="18"/>
<text text-anchor="middle" x="1328.18" y="-309.47" font-family="Times New Roman,serif" font-size="14.00">params</text>
</g>
<!-- Id01164E60&#45;&gt;Id0115E220 -->
<g id="edge32" class="edge"><title>Id01164E60&#45;&gt;Id0115E220</title>
<path fill="none" stroke="black" d="M1251.2,-403.201C1267.93,-383.849 1291.21,-356.927 1307.77,-337.766"/>
<polygon fill="black" stroke="black" points="1310.53,-339.928 1314.42,-330.074 1305.24,-335.35 1310.53,-339.928"/>
</g>
<!-- Id01164C80 -->
<g id="node36" class="node"><title>Id01164C80</title>
<ellipse fill="none" stroke="black" cx="1370.18" cy="-211.823" rx="58.8803" ry="26.7407"/>
<text text-anchor="middle" x="1370.18" y="-215.623" font-family="Times New Roman,serif" font-size="14.00">+</text>
<text text-anchor="middle" x="1370.18" y="-200.623" font-family="Times New Roman,serif" font-size="14.00"> mref = #21</text>
</g>
<!-- Id0115E220&#45;&gt;Id01164C80 -->
<g id="edge37" class="edge"><title>Id0115E220&#45;&gt;Id01164C80</title>
<path fill="none" stroke="black" d="M1335.3,-295.317C1340.77,-282.389 1348.5,-264.092 1355.3,-248.014"/>
<polygon fill="black" stroke="black" points="1358.71,-248.931 1359.38,-238.357 1352.26,-246.205 1358.71,-248.931"/>
</g>
<!-- Id011650A0 -->
<g id="node37" class="node"><title>Id011650A0</title>
<ellipse fill="none" stroke="black" cx="1340.18" cy="-110.477" rx="64.1938" ry="37.4533"/>
<text text-anchor="middle" x="1340.18" y="-121.777" font-family="Times New Roman,serif" font-size="14.00">STRING</text>
<text text-anchor="middle" x="1340.18" y="-106.777" font-family="Times New Roman,serif" font-size="14.00"> mref = #33</text>
<text text-anchor="middle" x="1340.18" y="-91.7767" font-family="Times New Roman,serif" font-size="14.00"> val_id = #30</text>
</g>
<!-- Id01164C80&#45;&gt;Id011650A0 -->
<g id="edge35" class="edge"><title>Id01164C80&#45;&gt;Id011650A0</title>
<path fill="none" stroke="black" d="M1362.37,-184.981C1359.82,-176.532 1356.9,-166.878 1354.04,-157.406"/>
<polygon fill="black" stroke="black" points="1357.34,-156.222 1351.1,-147.66 1350.64,-158.245 1357.34,-156.222"/>
</g>
<!-- Id01164E00 -->
<g id="node39" class="node"><title>Id01164E00</title>
<ellipse fill="none" stroke="black" cx="1487.18" cy="-110.477" rx="64.1938" ry="37.4533"/>
<text text-anchor="middle" x="1487.18" y="-121.777" font-family="Times New Roman,serif" font-size="14.00">STRING</text>
<text text-anchor="middle" x="1487.18" y="-106.777" font-family="Times New Roman,serif" font-size="14.00"> mref = #33</text>
<text text-anchor="middle" x="1487.18" y="-91.7767" font-family="Times New Roman,serif" font-size="14.00"> val_id = #35</text>
</g>
<!-- Id01164C80&#45;&gt;Id01164E00 -->
<g id="edge36" class="edge"><title>Id01164C80&#45;&gt;Id01164E00</title>
<path fill="none" stroke="black" d="M1397.31,-187.782C1410.99,-176.164 1427.92,-161.788 1443.39,-148.657"/>
<polygon fill="black" stroke="black" points="1445.96,-151.066 1451.32,-141.925 1441.43,-145.73 1445.96,-151.066"/>
</g>
<!-- IdVal011650A0 -->
<g id="node38" class="node"><title>IdVal011650A0</title>
<ellipse fill="none" stroke="black" cx="1340.18" cy="-18" rx="27" ry="18"/>
<text text-anchor="middle" x="1340.18" y="-14.3" font-family="Times New Roman,serif" font-size="14.00">23</text>
</g>
<!-- Id011650A0&#45;&gt;IdVal011650A0 -->
<g id="edge33" class="edge"><title>Id011650A0&#45;&gt;IdVal011650A0</title>
<path fill="none" stroke="black" d="M1340.18,-72.9371C1340.18,-63.9712 1340.18,-54.5316 1340.18,-46.0996"/>
<polygon fill="black" stroke="black" points="1343.68,-46.0694 1340.18,-36.0695 1336.68,-46.0695 1343.68,-46.0694"/>
</g>
<!-- IdVal01164E00 -->
<g id="node40" class="node"><title>IdVal01164E00</title>
<ellipse fill="none" stroke="black" cx="1487.18" cy="-18" rx="27" ry="18"/>
<text text-anchor="middle" x="1487.18" y="-14.3" font-family="Times New Roman,serif" font-size="14.00">asd</text>
</g>
<!-- Id01164E00&#45;&gt;IdVal01164E00 -->
<g id="edge34" class="edge"><title>Id01164E00&#45;&gt;IdVal01164E00</title>
<path fill="none" stroke="black" d="M1487.18,-72.9371C1487.18,-63.9712 1487.18,-54.5316 1487.18,-46.0996"/>
<polygon fill="black" stroke="black" points="1490.68,-46.0694 1487.18,-36.0695 1483.68,-46.0695 1490.68,-46.0694"/>
</g>
</g>
</svg>
