<?xml version="1.0" encoding="UTF-8" standalone="no"?>
<!DOCTYPE svg PUBLIC "-//W3C//DTD SVG 1.1//EN"
 "http://www.w3.org/Graphics/SVG/1.1/DTD/svg11.dtd">
<!-- Generated by graphviz version 2.38.0 (20140413.2041)
 -->
<!-- Title: G Pages: 1 -->
<svg width="413pt" height="461pt"
 viewBox="0.00 0.00 412.52 460.69" xmlns="http://www.w3.org/2000/svg" xmlns:xlink="http://www.w3.org/1999/xlink">
<g id="graph0" class="graph" transform="scale(1 1) rotate(0) translate(4 456.693)">
<title>G</title>
<polygon fill="white" stroke="none" points="-4,4 -4,-456.693 408.522,-456.693 408.522,4 -4,4"/>
<!-- Id01788B88 -->
<g id="node1" class="node"><title>Id01788B88</title>
<ellipse fill="none" stroke="black" cx="139.175" cy="-434.693" rx="41.6928" ry="18"/>
<text text-anchor="middle" x="139.175" y="-430.993" font-family="Times New Roman,serif" font-size="14.00">program</text>
</g>
<!-- Id01793DA0 -->
<g id="node2" class="node"><title>Id01793DA0</title>
<ellipse fill="none" stroke="black" cx="139.175" cy="-362.693" rx="27" ry="18"/>
<text text-anchor="middle" x="139.175" y="-358.993" font-family="Times New Roman,serif" font-size="14.00">stmt</text>
</g>
<!-- Id01788B88&#45;&gt;Id01793DA0 -->
<g id="edge9" class="edge"><title>Id01788B88&#45;&gt;Id01793DA0</title>
<path fill="none" stroke="black" d="M139.175,-416.39C139.175,-408.676 139.175,-399.406 139.175,-390.806"/>
<polygon fill="black" stroke="black" points="142.675,-390.798 139.175,-380.798 135.675,-390.798 142.675,-390.798"/>
</g>
<!-- Id01793D40 -->
<g id="node3" class="node"><title>Id01793D40</title>
<ellipse fill="none" stroke="black" cx="139.175" cy="-290.693" rx="27" ry="18"/>
<text text-anchor="middle" x="139.175" y="-286.993" font-family="Times New Roman,serif" font-size="14.00">=</text>
</g>
<!-- Id01793DA0&#45;&gt;Id01793D40 -->
<g id="edge8" class="edge"><title>Id01793DA0&#45;&gt;Id01793D40</title>
<path fill="none" stroke="black" d="M139.175,-344.39C139.175,-336.676 139.175,-327.406 139.175,-318.806"/>
<polygon fill="black" stroke="black" points="142.675,-318.798 139.175,-308.798 135.675,-318.798 142.675,-318.798"/>
</g>
<!-- Id01793BC0 -->
<g id="node4" class="node"><title>Id01793BC0</title>
<ellipse fill="none" stroke="black" cx="67.1751" cy="-209.823" rx="67.3507" ry="26.7407"/>
<text text-anchor="middle" x="67.1751" y="-213.623" font-family="Times New Roman,serif" font-size="14.00">var or method</text>
<text text-anchor="middle" x="67.1751" y="-198.623" font-family="Times New Roman,serif" font-size="14.00"> localnum = 0</text>
</g>
<!-- Id01793D40&#45;&gt;Id01793BC0 -->
<g id="edge6" class="edge"><title>Id01793D40&#45;&gt;Id01793BC0</title>
<path fill="none" stroke="black" d="M125.632,-274.859C117.358,-265.795 106.448,-253.844 96.2964,-242.723"/>
<polygon fill="black" stroke="black" points="98.7581,-240.229 89.431,-235.203 93.5883,-244.948 98.7581,-240.229"/>
</g>
<!-- Id01793CE0 -->
<g id="node6" class="node"><title>Id01793CE0</title>
<ellipse fill="none" stroke="black" cx="211.175" cy="-209.823" rx="58.8803" ry="26.7407"/>
<text text-anchor="middle" x="211.175" y="-213.623" font-family="Times New Roman,serif" font-size="14.00">&#45;</text>
<text text-anchor="middle" x="211.175" y="-198.623" font-family="Times New Roman,serif" font-size="14.00"> mref = #13</text>
</g>
<!-- Id01793D40&#45;&gt;Id01793CE0 -->
<g id="edge7" class="edge"><title>Id01793D40&#45;&gt;Id01793CE0</title>
<path fill="none" stroke="black" d="M152.718,-274.859C161.058,-265.722 172.077,-253.652 182.297,-242.457"/>
<polygon fill="black" stroke="black" points="185.046,-244.637 189.203,-234.892 179.876,-239.918 185.046,-244.637"/>
</g>
<!-- IdVal01793BC0 -->
<g id="node5" class="node"><title>IdVal01793BC0</title>
<ellipse fill="none" stroke="black" cx="67.1751" cy="-109.477" rx="27" ry="18"/>
<text text-anchor="middle" x="67.1751" y="-105.777" font-family="Times New Roman,serif" font-size="14.00">a</text>
</g>
<!-- Id01793BC0&#45;&gt;IdVal01793BC0 -->
<g id="edge1" class="edge"><title>Id01793BC0&#45;&gt;IdVal01793BC0</title>
<path fill="none" stroke="black" d="M67.1751,-182.726C67.1751,-168.85 67.1751,-151.804 67.1751,-137.754"/>
<polygon fill="black" stroke="black" points="70.6752,-137.696 67.1751,-127.696 63.6752,-137.696 70.6752,-137.696"/>
</g>
<!-- Id01793C20 -->
<g id="node7" class="node"><title>Id01793C20</title>
<ellipse fill="none" stroke="black" cx="193.175" cy="-109.477" rx="64.1938" ry="37.4533"/>
<text text-anchor="middle" x="193.175" y="-120.777" font-family="Times New Roman,serif" font-size="14.00">INT</text>
<text text-anchor="middle" x="193.175" y="-105.777" font-family="Times New Roman,serif" font-size="14.00"> mref = #20</text>
<text text-anchor="middle" x="193.175" y="-90.7767" font-family="Times New Roman,serif" font-size="14.00"> val_id = #14</text>
</g>
<!-- Id01793CE0&#45;&gt;Id01793C20 -->
<g id="edge4" class="edge"><title>Id01793CE0&#45;&gt;Id01793C20</title>
<path fill="none" stroke="black" d="M206.446,-182.984C204.978,-174.962 203.312,-165.862 201.669,-156.885"/>
<polygon fill="black" stroke="black" points="205.079,-156.072 199.835,-146.866 198.193,-157.333 205.079,-156.072"/>
</g>
<!-- Id01793C80 -->
<g id="node9" class="node"><title>Id01793C80</title>
<ellipse fill="none" stroke="black" cx="340.175" cy="-109.477" rx="64.1938" ry="37.4533"/>
<text text-anchor="middle" x="340.175" y="-120.777" font-family="Times New Roman,serif" font-size="14.00">INT</text>
<text text-anchor="middle" x="340.175" y="-105.777" font-family="Times New Roman,serif" font-size="14.00"> mref = #20</text>
<text text-anchor="middle" x="340.175" y="-90.7767" font-family="Times New Roman,serif" font-size="14.00"> val_id = #21</text>
</g>
<!-- Id01793CE0&#45;&gt;Id01793C80 -->
<g id="edge5" class="edge"><title>Id01793CE0&#45;&gt;Id01793C80</title>
<path fill="none" stroke="black" d="M240.447,-186.507C256.176,-174.515 275.938,-159.45 293.712,-145.899"/>
<polygon fill="black" stroke="black" points="295.886,-148.643 301.717,-139.797 291.642,-143.076 295.886,-148.643"/>
</g>
<!-- IdVal01793C20 -->
<g id="node8" class="node"><title>IdVal01793C20</title>
<ellipse fill="none" stroke="black" cx="193.175" cy="-18" rx="27" ry="18"/>
<text text-anchor="middle" x="193.175" y="-14.3" font-family="Times New Roman,serif" font-size="14.00">2</text>
</g>
<!-- Id01793C20&#45;&gt;IdVal01793C20 -->
<g id="edge2" class="edge"><title>Id01793C20&#45;&gt;IdVal01793C20</title>
<path fill="none" stroke="black" d="M193.175,-71.8249C193.175,-63.3308 193.175,-54.4344 193.175,-46.4159"/>
<polygon fill="black" stroke="black" points="196.675,-46.1461 193.175,-36.1461 189.675,-46.1462 196.675,-46.1461"/>
</g>
<!-- IdVal01793C80 -->
<g id="node10" class="node"><title>IdVal01793C80</title>
<ellipse fill="none" stroke="black" cx="340.175" cy="-18" rx="27" ry="18"/>
<text text-anchor="middle" x="340.175" y="-14.3" font-family="Times New Roman,serif" font-size="14.00">1</text>
</g>
<!-- Id01793C80&#45;&gt;IdVal01793C80 -->
<g id="edge3" class="edge"><title>Id01793C80&#45;&gt;IdVal01793C80</title>
<path fill="none" stroke="black" d="M340.175,-71.8249C340.175,-63.3308 340.175,-54.4344 340.175,-46.4159"/>
<polygon fill="black" stroke="black" points="343.675,-46.1461 340.175,-36.1461 336.675,-46.1462 343.675,-46.1461"/>
</g>
</g>
</svg>
