<?xml version="1.0" encoding="UTF-8" standalone="no"?>
<!DOCTYPE svg PUBLIC "-//W3C//DTD SVG 1.1//EN"
 "http://www.w3.org/Graphics/SVG/1.1/DTD/svg11.dtd">
<!-- Generated by graphviz version 2.38.0 (20140413.2041)
 -->
<!-- Title: G Pages: 1 -->
<svg width="880pt" height="1251pt"
 viewBox="0.00 0.00 879.74 1251.00" xmlns="http://www.w3.org/2000/svg" xmlns:xlink="http://www.w3.org/1999/xlink">
<g id="graph0" class="graph" transform="scale(1 1) rotate(0) translate(4 1247)">
<title>G</title>
<polygon fill="white" stroke="none" points="-4,4 -4,-1247 875.745,-1247 875.745,4 -4,4"/>
<!-- Id01074400 -->
<g id="node1" class="node"><title>Id01074400</title>
<ellipse fill="none" stroke="black" cx="475" cy="-1225" rx="41.6928" ry="18"/>
<text text-anchor="middle" x="475" y="-1221.3" font-family="Times New Roman,serif" font-size="14.00">program</text>
</g>
<!-- Id01072458 -->
<g id="node2" class="node"><title>Id01072458</title>
<ellipse fill="none" stroke="black" cx="321" cy="-1152" rx="27" ry="18"/>
<text text-anchor="middle" x="321" y="-1148.3" font-family="Times New Roman,serif" font-size="14.00">stmt</text>
</g>
<!-- Id01074400&#45;&gt;Id01072458 -->
<g id="edge15" class="edge"><title>Id01074400&#45;&gt;Id01072458</title>
<path fill="none" stroke="black" d="M447.468,-1211.31C420.691,-1198.96 380.072,-1180.23 352.132,-1167.35"/>
<polygon fill="black" stroke="black" points="353.369,-1164.07 342.822,-1163.06 350.438,-1170.43 353.369,-1164.07"/>
</g>
<!-- Id01072F28 -->
<g id="node17" class="node"><title>Id01072F28</title>
<ellipse fill="none" stroke="black" cx="475" cy="-1152" rx="54.6905" ry="18"/>
<text text-anchor="middle" x="475" y="-1148.3" font-family="Times New Roman,serif" font-size="14.00">def_method</text>
</g>
<!-- Id01074400&#45;&gt;Id01072F28 -->
<g id="edge61" class="edge"><title>Id01074400&#45;&gt;Id01072F28</title>
<path fill="none" stroke="black" d="M475,-1206.81C475,-1198.79 475,-1189.05 475,-1180.07"/>
<polygon fill="black" stroke="black" points="478.5,-1180.03 475,-1170.03 471.5,-1180.03 478.5,-1180.03"/>
</g>
<!-- Id01073B18 -->
<g id="node63" class="node"><title>Id01073B18</title>
<ellipse fill="none" stroke="black" cx="601" cy="-1152" rx="27" ry="18"/>
<text text-anchor="middle" x="601" y="-1148.3" font-family="Times New Roman,serif" font-size="14.00">stmt</text>
</g>
<!-- Id01074400&#45;&gt;Id01073B18 -->
<g id="edge67" class="edge"><title>Id01074400&#45;&gt;Id01073B18</title>
<path fill="none" stroke="black" d="M499.294,-1210.31C520.068,-1198.6 550.01,-1181.73 572.029,-1169.33"/>
<polygon fill="black" stroke="black" points="573.937,-1172.27 580.93,-1164.31 570.5,-1166.17 573.937,-1172.27"/>
</g>
<!-- Id010723B8 -->
<g id="node3" class="node"><title>Id010723B8</title>
<ellipse fill="none" stroke="black" cx="221" cy="-1065" rx="27" ry="18"/>
<text text-anchor="middle" x="221" y="-1061.3" font-family="Times New Roman,serif" font-size="14.00">=</text>
</g>
<!-- Id01072458&#45;&gt;Id010723B8 -->
<g id="edge14" class="edge"><title>Id01072458&#45;&gt;Id010723B8</title>
<path fill="none" stroke="black" d="M304.933,-1137.34C288.678,-1123.53 263.362,-1102.01 244.782,-1086.21"/>
<polygon fill="black" stroke="black" points="246.913,-1083.43 237.027,-1079.62 242.379,-1088.77 246.913,-1083.43"/>
</g>
<!-- Id01069D28 -->
<g id="node4" class="node"><title>Id01069D28</title>
<ellipse fill="none" stroke="black" cx="79" cy="-978" rx="61.99" ry="18"/>
<text text-anchor="middle" x="79" y="-974.3" font-family="Times New Roman,serif" font-size="14.00">var or method</text>
</g>
<!-- Id010723B8&#45;&gt;Id01069D28 -->
<g id="edge12" class="edge"><title>Id010723B8&#45;&gt;Id01069D28</title>
<path fill="none" stroke="black" d="M201.553,-1052.36C178.867,-1038.78 140.944,-1016.08 113.281,-999.52"/>
<polygon fill="black" stroke="black" points="115.071,-996.512 104.693,-994.379 111.475,-1002.52 115.071,-996.512"/>
</g>
<!-- Id01072728 -->
<g id="node6" class="node"><title>Id01072728</title>
<ellipse fill="none" stroke="black" cx="237" cy="-978" rx="28.6953" ry="18"/>
<text text-anchor="middle" x="237" y="-974.3" font-family="Times New Roman,serif" font-size="14.00">array</text>
</g>
<!-- Id010723B8&#45;&gt;Id01072728 -->
<g id="edge13" class="edge"><title>Id010723B8&#45;&gt;Id01072728</title>
<path fill="none" stroke="black" d="M224.238,-1046.8C226.428,-1035.16 229.367,-1019.55 231.873,-1006.24"/>
<polygon fill="black" stroke="black" points="235.357,-1006.65 233.767,-996.175 228.477,-1005.36 235.357,-1006.65"/>
</g>
<!-- IdVal01069D28 -->
<g id="node5" class="node"><title>IdVal01069D28</title>
<ellipse fill="none" stroke="black" cx="27" cy="-891" rx="27" ry="18"/>
<text text-anchor="middle" x="27" y="-887.3" font-family="Times New Roman,serif" font-size="14.00">arr</text>
</g>
<!-- Id01069D28&#45;&gt;IdVal01069D28 -->
<g id="edge1" class="edge"><title>Id01069D28&#45;&gt;IdVal01069D28</title>
<path fill="none" stroke="black" d="M68.7265,-960.207C61.1026,-947.745 50.5889,-930.559 42.0227,-916.556"/>
<polygon fill="black" stroke="black" points="44.9288,-914.6 36.7246,-907.896 38.9575,-918.253 44.9288,-914.6"/>
</g>
<!-- Id01069D78 -->
<g id="node7" class="node"><title>Id01069D78</title>
<ellipse fill="none" stroke="black" cx="99" cy="-891" rx="27" ry="18"/>
<text text-anchor="middle" x="99" y="-887.3" font-family="Times New Roman,serif" font-size="14.00">INT</text>
</g>
<!-- Id01072728&#45;&gt;Id01069D78 -->
<g id="edge3" class="edge"><title>Id01072728&#45;&gt;Id01069D78</title>
<path fill="none" stroke="black" d="M217.228,-964.822C193.525,-950.222 153.649,-925.661 126.839,-909.147"/>
<polygon fill="black" stroke="black" points="128.64,-906.146 118.29,-903.882 124.969,-912.106 128.64,-906.146"/>
</g>
<!-- Id0106F0A0 -->
<g id="node9" class="node"><title>Id0106F0A0</title>
<ellipse fill="none" stroke="black" cx="171" cy="-891" rx="27" ry="18"/>
<text text-anchor="middle" x="171" y="-887.3" font-family="Times New Roman,serif" font-size="14.00">INT</text>
</g>
<!-- Id01072728&#45;&gt;Id0106F0A0 -->
<g id="edge5" class="edge"><title>Id01072728&#45;&gt;Id0106F0A0</title>
<path fill="none" stroke="black" d="M224.895,-961.41C214.878,-948.509 200.497,-929.989 189.11,-915.323"/>
<polygon fill="black" stroke="black" points="191.704,-912.957 182.807,-907.205 186.175,-917.251 191.704,-912.957"/>
</g>
<!-- Id010604D0 -->
<g id="node11" class="node"><title>Id010604D0</title>
<ellipse fill="none" stroke="black" cx="243" cy="-891" rx="27" ry="18"/>
<text text-anchor="middle" x="243" y="-887.3" font-family="Times New Roman,serif" font-size="14.00">INT</text>
</g>
<!-- Id01072728&#45;&gt;Id010604D0 -->
<g id="edge7" class="edge"><title>Id01072728&#45;&gt;Id010604D0</title>
<path fill="none" stroke="black" d="M238.214,-959.799C239.036,-948.163 240.138,-932.548 241.077,-919.237"/>
<polygon fill="black" stroke="black" points="244.575,-919.397 241.788,-909.175 237.592,-918.904 244.575,-919.397"/>
</g>
<!-- Id01072098 -->
<g id="node13" class="node"><title>Id01072098</title>
<ellipse fill="none" stroke="black" cx="315" cy="-891" rx="27" ry="18"/>
<text text-anchor="middle" x="315" y="-887.3" font-family="Times New Roman,serif" font-size="14.00">INT</text>
</g>
<!-- Id01072728&#45;&gt;Id01072098 -->
<g id="edge9" class="edge"><title>Id01072728&#45;&gt;Id01072098</title>
<path fill="none" stroke="black" d="M250.945,-961.804C263.11,-948.547 280.914,-929.145 294.666,-914.159"/>
<polygon fill="black" stroke="black" points="297.255,-916.514 301.437,-906.78 292.097,-911.782 297.255,-916.514"/>
</g>
<!-- Id010722C8 -->
<g id="node15" class="node"><title>Id010722C8</title>
<ellipse fill="none" stroke="black" cx="387" cy="-891" rx="27" ry="18"/>
<text text-anchor="middle" x="387" y="-887.3" font-family="Times New Roman,serif" font-size="14.00">INT</text>
</g>
<!-- Id01072728&#45;&gt;Id010722C8 -->
<g id="edge11" class="edge"><title>Id01072728&#45;&gt;Id010722C8</title>
<path fill="none" stroke="black" d="M257.542,-965.359C283.607,-950.59 328.709,-925.031 358.2,-908.32"/>
<polygon fill="black" stroke="black" points="360.208,-911.205 367.183,-903.23 356.757,-905.115 360.208,-911.205"/>
</g>
<!-- IdVal01069D78 -->
<g id="node8" class="node"><title>IdVal01069D78</title>
<ellipse fill="none" stroke="black" cx="99" cy="-804" rx="27" ry="18"/>
<text text-anchor="middle" x="99" y="-800.3" font-family="Times New Roman,serif" font-size="14.00">1</text>
</g>
<!-- Id01069D78&#45;&gt;IdVal01069D78 -->
<g id="edge2" class="edge"><title>Id01069D78&#45;&gt;IdVal01069D78</title>
<path fill="none" stroke="black" d="M99,-872.799C99,-861.163 99,-845.548 99,-832.237"/>
<polygon fill="black" stroke="black" points="102.5,-832.175 99,-822.175 95.5001,-832.175 102.5,-832.175"/>
</g>
<!-- IdVal0106F0A0 -->
<g id="node10" class="node"><title>IdVal0106F0A0</title>
<ellipse fill="none" stroke="black" cx="171" cy="-804" rx="27" ry="18"/>
<text text-anchor="middle" x="171" y="-800.3" font-family="Times New Roman,serif" font-size="14.00">2</text>
</g>
<!-- Id0106F0A0&#45;&gt;IdVal0106F0A0 -->
<g id="edge4" class="edge"><title>Id0106F0A0&#45;&gt;IdVal0106F0A0</title>
<path fill="none" stroke="black" d="M171,-872.799C171,-861.163 171,-845.548 171,-832.237"/>
<polygon fill="black" stroke="black" points="174.5,-832.175 171,-822.175 167.5,-832.175 174.5,-832.175"/>
</g>
<!-- IdVal010604D0 -->
<g id="node12" class="node"><title>IdVal010604D0</title>
<ellipse fill="none" stroke="black" cx="243" cy="-804" rx="27" ry="18"/>
<text text-anchor="middle" x="243" y="-800.3" font-family="Times New Roman,serif" font-size="14.00">3</text>
</g>
<!-- Id010604D0&#45;&gt;IdVal010604D0 -->
<g id="edge6" class="edge"><title>Id010604D0&#45;&gt;IdVal010604D0</title>
<path fill="none" stroke="black" d="M243,-872.799C243,-861.163 243,-845.548 243,-832.237"/>
<polygon fill="black" stroke="black" points="246.5,-832.175 243,-822.175 239.5,-832.175 246.5,-832.175"/>
</g>
<!-- IdVal01072098 -->
<g id="node14" class="node"><title>IdVal01072098</title>
<ellipse fill="none" stroke="black" cx="315" cy="-804" rx="27" ry="18"/>
<text text-anchor="middle" x="315" y="-800.3" font-family="Times New Roman,serif" font-size="14.00">4</text>
</g>
<!-- Id01072098&#45;&gt;IdVal01072098 -->
<g id="edge8" class="edge"><title>Id01072098&#45;&gt;IdVal01072098</title>
<path fill="none" stroke="black" d="M315,-872.799C315,-861.163 315,-845.548 315,-832.237"/>
<polygon fill="black" stroke="black" points="318.5,-832.175 315,-822.175 311.5,-832.175 318.5,-832.175"/>
</g>
<!-- IdVal010722C8 -->
<g id="node16" class="node"><title>IdVal010722C8</title>
<ellipse fill="none" stroke="black" cx="387" cy="-804" rx="27" ry="18"/>
<text text-anchor="middle" x="387" y="-800.3" font-family="Times New Roman,serif" font-size="14.00">5</text>
</g>
<!-- Id010722C8&#45;&gt;IdVal010722C8 -->
<g id="edge10" class="edge"><title>Id010722C8&#45;&gt;IdVal010722C8</title>
<path fill="none" stroke="black" d="M387,-872.799C387,-861.163 387,-845.548 387,-832.237"/>
<polygon fill="black" stroke="black" points="390.5,-832.175 387,-822.175 383.5,-832.175 390.5,-832.175"/>
</g>
<!-- IdName01072F28 -->
<g id="node18" class="node"><title>IdName01072F28</title>
<ellipse fill="none" stroke="black" cx="343" cy="-1065" rx="77.1866" ry="18"/>
<text text-anchor="middle" x="343" y="-1061.3" font-family="Times New Roman,serif" font-size="14.00">printOddNumbers</text>
</g>
<!-- Id01072F28&#45;&gt;IdName01072F28 -->
<g id="edge16" class="edge"><title>Id01072F28&#45;&gt;IdName01072F28</title>
<path fill="none" stroke="black" d="M451.096,-1135.61C430.278,-1122.2 399.871,-1102.62 376.605,-1087.64"/>
<polygon fill="black" stroke="black" points="378.376,-1084.62 368.073,-1082.15 374.586,-1090.5 378.376,-1084.62"/>
<text text-anchor="middle" x="432" y="-1104.8" font-family="Times New Roman,serif" font-size="14.00">name</text>
</g>
<!-- Id01072C90 -->
<g id="node19" class="node"><title>Id01072C90</title>
<ellipse fill="none" stroke="black" cx="475" cy="-1065" rx="37.0935" ry="18"/>
<text text-anchor="middle" x="475" y="-1061.3" font-family="Times New Roman,serif" font-size="14.00">params</text>
</g>
<!-- Id01072F28&#45;&gt;Id01072C90 -->
<g id="edge19" class="edge"><title>Id01072F28&#45;&gt;Id01072C90</title>
<path fill="none" stroke="black" d="M475,-1133.8C475,-1122.16 475,-1106.55 475,-1093.24"/>
<polygon fill="black" stroke="black" points="478.5,-1093.18 475,-1083.18 471.5,-1093.18 478.5,-1093.18"/>
</g>
<!-- Id01072F98 -->
<g id="node22" class="node"><title>Id01072F98</title>
<ellipse fill="none" stroke="black" cx="560" cy="-1065" rx="29.795" ry="18"/>
<text text-anchor="middle" x="560" y="-1061.3" font-family="Times New Roman,serif" font-size="14.00">body</text>
</g>
<!-- Id01072F28&#45;&gt;Id01072F98 -->
<g id="edge60" class="edge"><title>Id01072F28&#45;&gt;Id01072F98</title>
<path fill="none" stroke="black" d="M491.389,-1134.61C504.617,-1121.38 523.355,-1102.64 537.908,-1088.09"/>
<polygon fill="black" stroke="black" points="540.488,-1090.46 545.085,-1080.92 535.539,-1085.51 540.488,-1090.46"/>
</g>
<!-- Id01072C58 -->
<g id="node20" class="node"><title>Id01072C58</title>
<ellipse fill="none" stroke="black" cx="475" cy="-978" rx="33.2948" ry="18"/>
<text text-anchor="middle" x="475" y="-974.3" font-family="Times New Roman,serif" font-size="14.00">param</text>
</g>
<!-- Id01072C90&#45;&gt;Id01072C58 -->
<g id="edge17" class="edge"><title>Id01072C90&#45;&gt;Id01072C58</title>
<path fill="none" stroke="black" d="M475,-1046.8C475,-1035.16 475,-1019.55 475,-1006.24"/>
<polygon fill="black" stroke="black" points="478.5,-1006.18 475,-996.175 471.5,-1006.18 478.5,-1006.18"/>
</g>
<!-- IdNameVal01072C58 -->
<g id="node21" class="node"><title>IdNameVal01072C58</title>
<ellipse fill="none" stroke="black" cx="475" cy="-891" rx="27" ry="18"/>
<text text-anchor="middle" x="475" y="-887.3" font-family="Times New Roman,serif" font-size="14.00">arr</text>
</g>
<!-- Id01072C58&#45;&gt;IdNameVal01072C58 -->
<g id="edge18" class="edge"><title>Id01072C58&#45;&gt;IdNameVal01072C58</title>
<path fill="none" stroke="black" d="M475,-959.799C475,-948.163 475,-932.548 475,-919.237"/>
<polygon fill="black" stroke="black" points="478.5,-919.175 475,-909.175 471.5,-919.175 478.5,-919.175"/>
<text text-anchor="middle" x="490" y="-930.8" font-family="Times New Roman,serif" font-size="14.00">name</text>
</g>
<!-- Id01072368 -->
<g id="node23" class="node"><title>Id01072368</title>
<ellipse fill="none" stroke="black" cx="556" cy="-978" rx="27" ry="18"/>
<text text-anchor="middle" x="556" y="-974.3" font-family="Times New Roman,serif" font-size="14.00">stmt</text>
</g>
<!-- Id01072F98&#45;&gt;Id01072368 -->
<g id="edge59" class="edge"><title>Id01072F98&#45;&gt;Id01072368</title>
<path fill="none" stroke="black" d="M559.191,-1046.8C558.643,-1035.16 557.908,-1019.55 557.282,-1006.24"/>
<polygon fill="black" stroke="black" points="560.775,-1006 556.808,-996.175 553.782,-1006.33 560.775,-1006"/>
</g>
<!-- Id01073120 -->
<g id="node24" class="node"><title>Id01073120</title>
<ellipse fill="none" stroke="black" cx="556" cy="-891" rx="27" ry="18"/>
<text text-anchor="middle" x="556" y="-887.3" font-family="Times New Roman,serif" font-size="14.00">for</text>
</g>
<!-- Id01072368&#45;&gt;Id01073120 -->
<g id="edge58" class="edge"><title>Id01072368&#45;&gt;Id01073120</title>
<path fill="none" stroke="black" d="M556,-959.799C556,-948.163 556,-932.548 556,-919.237"/>
<polygon fill="black" stroke="black" points="559.5,-919.175 556,-909.175 552.5,-919.175 559.5,-919.175"/>
</g>
<!-- IdItersName01073120 -->
<g id="node25" class="node"><title>IdItersName01073120</title>
<ellipse fill="none" stroke="black" cx="472" cy="-804" rx="27" ry="18"/>
<text text-anchor="middle" x="472" y="-800.3" font-family="Times New Roman,serif" font-size="14.00">i</text>
</g>
<!-- Id01073120&#45;&gt;IdItersName01073120 -->
<g id="edge20" class="edge"><title>Id01073120&#45;&gt;IdItersName01073120</title>
<path fill="none" stroke="black" d="M532.122,-882.296C518.153,-876.7 501.131,-867.836 490,-855 484.39,-848.531 480.482,-840.18 477.779,-832.163"/>
<polygon fill="black" stroke="black" points="481.086,-830.998 474.963,-822.353 474.358,-832.93 481.086,-830.998"/>
<text text-anchor="middle" x="520.5" y="-843.8" font-family="Times New Roman,serif" font-size="14.00">iterable var</text>
</g>
<!-- Id01072278 -->
<g id="node26" class="node"><title>Id01072278</title>
<ellipse fill="none" stroke="black" cx="553" cy="-804" rx="27" ry="18"/>
<text text-anchor="middle" x="553" y="-800.3" font-family="Times New Roman,serif" font-size="14.00">..</text>
</g>
<!-- Id01073120&#45;&gt;Id01072278 -->
<g id="edge25" class="edge"><title>Id01073120&#45;&gt;Id01072278</title>
<path fill="none" stroke="black" d="M555.393,-872.799C554.982,-861.163 554.431,-845.548 553.961,-832.237"/>
<polygon fill="black" stroke="black" points="557.457,-832.046 553.606,-822.175 550.461,-832.293 557.457,-832.046"/>
<text text-anchor="middle" x="581.5" y="-843.8" font-family="Times New Roman,serif" font-size="14.00">condition</text>
</g>
<!-- IdBody01073120 -->
<g id="node31" class="node"><title>IdBody01073120</title>
<ellipse fill="none" stroke="black" cx="629" cy="-804" rx="29.795" ry="18"/>
<text text-anchor="middle" x="629" y="-800.3" font-family="Times New Roman,serif" font-size="14.00">body</text>
</g>
<!-- Id01073120&#45;&gt;IdBody01073120 -->
<g id="edge57" class="edge"><title>Id01073120&#45;&gt;IdBody01073120</title>
<path fill="none" stroke="black" d="M578.271,-880.568C589.758,-874.703 603.172,-866.143 612,-855 617.284,-848.33 620.971,-839.924 623.525,-831.918"/>
<polygon fill="black" stroke="black" points="626.934,-832.72 626.188,-822.151 620.18,-830.878 626.934,-832.72"/>
</g>
<!-- Id01072408 -->
<g id="node27" class="node"><title>Id01072408</title>
<ellipse fill="none" stroke="black" cx="481" cy="-731" rx="27" ry="18"/>
<text text-anchor="middle" x="481" y="-727.3" font-family="Times New Roman,serif" font-size="14.00">INT</text>
</g>
<!-- Id01072278&#45;&gt;Id01072408 -->
<g id="edge23" class="edge"><title>Id01072278&#45;&gt;Id01072408</title>
<path fill="none" stroke="black" d="M538.43,-788.632C528.183,-778.527 514.294,-764.831 502.741,-753.439"/>
<polygon fill="black" stroke="black" points="505.126,-750.876 495.549,-746.347 500.211,-755.86 505.126,-750.876"/>
</g>
<!-- Id010726D8 -->
<g id="node29" class="node"><title>Id010726D8</title>
<ellipse fill="none" stroke="black" cx="553" cy="-731" rx="27" ry="18"/>
<text text-anchor="middle" x="553" y="-727.3" font-family="Times New Roman,serif" font-size="14.00">INT</text>
</g>
<!-- Id01072278&#45;&gt;Id010726D8 -->
<g id="edge24" class="edge"><title>Id01072278&#45;&gt;Id010726D8</title>
<path fill="none" stroke="black" d="M553,-785.813C553,-777.789 553,-768.047 553,-759.069"/>
<polygon fill="black" stroke="black" points="556.5,-759.029 553,-749.029 549.5,-759.029 556.5,-759.029"/>
</g>
<!-- IdVal01072408 -->
<g id="node28" class="node"><title>IdVal01072408</title>
<ellipse fill="none" stroke="black" cx="481" cy="-658" rx="27" ry="18"/>
<text text-anchor="middle" x="481" y="-654.3" font-family="Times New Roman,serif" font-size="14.00">0</text>
</g>
<!-- Id01072408&#45;&gt;IdVal01072408 -->
<g id="edge21" class="edge"><title>Id01072408&#45;&gt;IdVal01072408</title>
<path fill="none" stroke="black" d="M481,-712.813C481,-704.789 481,-695.047 481,-686.069"/>
<polygon fill="black" stroke="black" points="484.5,-686.029 481,-676.029 477.5,-686.029 484.5,-686.029"/>
</g>
<!-- IdVal010726D8 -->
<g id="node30" class="node"><title>IdVal010726D8</title>
<ellipse fill="none" stroke="black" cx="553" cy="-658" rx="27" ry="18"/>
<text text-anchor="middle" x="553" y="-654.3" font-family="Times New Roman,serif" font-size="14.00">4</text>
</g>
<!-- Id010726D8&#45;&gt;IdVal010726D8 -->
<g id="edge22" class="edge"><title>Id010726D8&#45;&gt;IdVal010726D8</title>
<path fill="none" stroke="black" d="M553,-712.813C553,-704.789 553,-695.047 553,-686.069"/>
<polygon fill="black" stroke="black" points="556.5,-686.029 553,-676.029 549.5,-686.029 556.5,-686.029"/>
</g>
<!-- Id01072318 -->
<g id="node32" class="node"><title>Id01072318</title>
<ellipse fill="none" stroke="black" cx="633" cy="-731" rx="27" ry="18"/>
<text text-anchor="middle" x="633" y="-727.3" font-family="Times New Roman,serif" font-size="14.00">stmt</text>
</g>
<!-- IdBody01073120&#45;&gt;Id01072318 -->
<g id="edge56" class="edge"><title>IdBody01073120&#45;&gt;Id01072318</title>
<path fill="none" stroke="black" d="M629.968,-785.813C630.42,-777.789 630.969,-768.047 631.475,-759.069"/>
<polygon fill="black" stroke="black" points="634.973,-759.21 632.041,-749.029 627.984,-758.816 634.973,-759.21"/>
</g>
<!-- Id01072F60 -->
<g id="node33" class="node"><title>Id01072F60</title>
<ellipse fill="none" stroke="black" cx="634" cy="-658" rx="36.2938" ry="18"/>
<text text-anchor="middle" x="634" y="-654.3" font-family="Times New Roman,serif" font-size="14.00">if_stmt</text>
</g>
<!-- Id01072318&#45;&gt;Id01072F60 -->
<g id="edge55" class="edge"><title>Id01072318&#45;&gt;Id01072F60</title>
<path fill="none" stroke="black" d="M633.242,-712.813C633.355,-704.789 633.492,-695.047 633.619,-686.069"/>
<polygon fill="black" stroke="black" points="637.119,-686.077 633.76,-676.029 630.12,-685.979 637.119,-686.077"/>
</g>
<!-- Id01072E60 -->
<g id="node34" class="node"><title>Id01072E60</title>
<ellipse fill="none" stroke="black" cx="559" cy="-585" rx="35.9954" ry="18"/>
<text text-anchor="middle" x="559" y="-581.3" font-family="Times New Roman,serif" font-size="14.00">branch</text>
</g>
<!-- Id01072F60&#45;&gt;Id01072E60 -->
<g id="edge47" class="edge"><title>Id01072F60&#45;&gt;Id01072E60</title>
<path fill="none" stroke="black" d="M617.726,-641.594C607.435,-631.852 593.963,-619.099 582.519,-608.265"/>
<polygon fill="black" stroke="black" points="584.653,-605.465 574.984,-601.132 579.84,-610.548 584.653,-605.465"/>
</g>
<!-- IdElse010731C8 -->
<g id="node56" class="node"><title>IdElse010731C8</title>
<ellipse fill="none" stroke="black" cx="667" cy="-585" rx="53.8905" ry="18"/>
<text text-anchor="middle" x="667" y="-581.3" font-family="Times New Roman,serif" font-size="14.00">else_branch</text>
</g>
<!-- Id01072F60&#45;&gt;IdElse010731C8 -->
<g id="edge54" class="edge"><title>Id01072F60&#45;&gt;IdElse010731C8</title>
<path fill="none" stroke="black" d="M641.821,-640.174C645.668,-631.896 650.396,-621.723 654.712,-612.438"/>
<polygon fill="black" stroke="black" points="657.965,-613.742 659.006,-603.198 651.618,-610.792 657.965,-613.742"/>
</g>
<!-- Id01072638 -->
<g id="node35" class="node"><title>Id01072638</title>
<ellipse fill="none" stroke="black" cx="466" cy="-498" rx="27" ry="18"/>
<text text-anchor="middle" x="466" y="-494.3" font-family="Times New Roman,serif" font-size="14.00">!=</text>
</g>
<!-- Id01072E60&#45;&gt;Id01072638 -->
<g id="edge36" class="edge"><title>Id01072E60&#45;&gt;Id01072638</title>
<path fill="none" stroke="black" d="M535.225,-571.383C525.022,-565.355 513.328,-557.583 504,-549 495.816,-541.47 488.121,-532.003 481.825,-523.337"/>
<polygon fill="black" stroke="black" points="484.625,-521.234 476.028,-515.041 478.887,-525.243 484.625,-521.234"/>
<text text-anchor="middle" x="530.5" y="-537.8" font-family="Times New Roman,serif" font-size="14.00">condition</text>
</g>
<!-- IdBody01072E60 -->
<g id="node46" class="node"><title>IdBody01072E60</title>
<ellipse fill="none" stroke="black" cx="563" cy="-498" rx="29.795" ry="18"/>
<text text-anchor="middle" x="563" y="-494.3" font-family="Times New Roman,serif" font-size="14.00">body</text>
</g>
<!-- Id01072E60&#45;&gt;IdBody01072E60 -->
<g id="edge46" class="edge"><title>Id01072E60&#45;&gt;IdBody01072E60</title>
<path fill="none" stroke="black" d="M559.809,-566.799C560.357,-555.163 561.092,-539.548 561.718,-526.237"/>
<polygon fill="black" stroke="black" points="565.218,-526.329 562.192,-516.175 558.225,-526 565.218,-526.329"/>
</g>
<!-- Id01072598 -->
<g id="node36" class="node"><title>Id01072598</title>
<ellipse fill="none" stroke="black" cx="394" cy="-425" rx="27" ry="18"/>
</g>
<!-- Id01072638&#45;&gt;Id01072598 -->
<g id="edge34" class="edge"><title>Id01072638&#45;&gt;Id01072598</title>
<path fill="none" stroke="black" d="M451.43,-482.632C441.183,-472.527 427.294,-458.831 415.741,-447.439"/>
<polygon fill="black" stroke="black" points="418.126,-444.876 408.549,-440.347 413.211,-449.86 418.126,-444.876"/>
</g>
<!-- Id010725E8 -->
<g id="node44" class="node"><title>Id010725E8</title>
<ellipse fill="none" stroke="black" cx="466" cy="-425" rx="27" ry="18"/>
<text text-anchor="middle" x="466" y="-421.3" font-family="Times New Roman,serif" font-size="14.00">INT</text>
</g>
<!-- Id01072638&#45;&gt;Id010725E8 -->
<g id="edge35" class="edge"><title>Id01072638&#45;&gt;Id010725E8</title>
<path fill="none" stroke="black" d="M466,-479.813C466,-471.789 466,-462.047 466,-453.069"/>
<polygon fill="black" stroke="black" points="469.5,-453.029 466,-443.029 462.5,-453.029 469.5,-453.029"/>
</g>
<!-- Id01072778 -->
<g id="node37" class="node"><title>Id01072778</title>
<ellipse fill="none" stroke="black" cx="282" cy="-338" rx="66.8882" ry="18"/>
<text text-anchor="middle" x="282" y="-334.3" font-family="Times New Roman,serif" font-size="14.00">member access</text>
</g>
<!-- Id01072598&#45;&gt;Id01072778 -->
<g id="edge31" class="edge"><title>Id01072598&#45;&gt;Id01072778</title>
<path fill="none" stroke="black" d="M376.5,-410.719C359.088,-397.505 332.053,-376.986 311.352,-361.276"/>
<polygon fill="black" stroke="black" points="313.28,-358.345 303.198,-355.088 309.048,-363.921 313.28,-358.345"/>
</g>
<!-- Id01072548 -->
<g id="node42" class="node"><title>Id01072548</title>
<ellipse fill="none" stroke="black" cx="394" cy="-338" rx="27" ry="18"/>
<text text-anchor="middle" x="394" y="-334.3" font-family="Times New Roman,serif" font-size="14.00">INT</text>
</g>
<!-- Id01072598&#45;&gt;Id01072548 -->
<g id="edge32" class="edge"><title>Id01072598&#45;&gt;Id01072548</title>
<path fill="none" stroke="black" d="M394,-406.799C394,-395.163 394,-379.548 394,-366.237"/>
<polygon fill="black" stroke="black" points="397.5,-366.175 394,-356.175 390.5,-366.175 397.5,-366.175"/>
</g>
<!-- Id010724A8 -->
<g id="node38" class="node"><title>Id010724A8</title>
<ellipse fill="none" stroke="black" cx="145" cy="-251" rx="61.99" ry="18"/>
<text text-anchor="middle" x="145" y="-247.3" font-family="Times New Roman,serif" font-size="14.00">var or method</text>
</g>
<!-- Id01072778&#45;&gt;Id010724A8 -->
<g id="edge28" class="edge"><title>Id01072778&#45;&gt;Id010724A8</title>
<path fill="none" stroke="black" d="M256.552,-321.211C234.733,-307.674 203.112,-288.055 179.104,-273.159"/>
<polygon fill="black" stroke="black" points="180.654,-270.002 170.311,-267.704 176.963,-275.95 180.654,-270.002"/>
<text text-anchor="middle" x="236" y="-290.8" font-family="Times New Roman,serif" font-size="14.00">array</text>
</g>
<!-- Id010724F8 -->
<g id="node40" class="node"><title>Id010724F8</title>
<ellipse fill="none" stroke="black" cx="286" cy="-251" rx="61.99" ry="18"/>
<text text-anchor="middle" x="286" y="-247.3" font-family="Times New Roman,serif" font-size="14.00">var or method</text>
</g>
<!-- Id01072778&#45;&gt;Id010724F8 -->
<g id="edge29" class="edge"><title>Id01072778&#45;&gt;Id010724F8</title>
<path fill="none" stroke="black" d="M282.809,-319.799C283.357,-308.163 284.092,-292.548 284.718,-279.237"/>
<polygon fill="black" stroke="black" points="288.218,-279.329 285.192,-269.175 281.225,-279 288.218,-279.329"/>
<text text-anchor="middle" x="300.5" y="-290.8" font-family="Times New Roman,serif" font-size="14.00">index</text>
</g>
<!-- IdVal010724A8 -->
<g id="node39" class="node"><title>IdVal010724A8</title>
<ellipse fill="none" stroke="black" cx="145" cy="-178" rx="27" ry="18"/>
<text text-anchor="middle" x="145" y="-174.3" font-family="Times New Roman,serif" font-size="14.00">arr</text>
</g>
<!-- Id010724A8&#45;&gt;IdVal010724A8 -->
<g id="edge26" class="edge"><title>Id010724A8&#45;&gt;IdVal010724A8</title>
<path fill="none" stroke="black" d="M145,-232.813C145,-224.789 145,-215.047 145,-206.069"/>
<polygon fill="black" stroke="black" points="148.5,-206.029 145,-196.029 141.5,-206.029 148.5,-206.029"/>
</g>
<!-- IdVal010724F8 -->
<g id="node41" class="node"><title>IdVal010724F8</title>
<ellipse fill="none" stroke="black" cx="286" cy="-178" rx="27" ry="18"/>
<text text-anchor="middle" x="286" y="-174.3" font-family="Times New Roman,serif" font-size="14.00">i</text>
</g>
<!-- Id010724F8&#45;&gt;IdVal010724F8 -->
<g id="edge27" class="edge"><title>Id010724F8&#45;&gt;IdVal010724F8</title>
<path fill="none" stroke="black" d="M286,-232.813C286,-224.789 286,-215.047 286,-206.069"/>
<polygon fill="black" stroke="black" points="289.5,-206.029 286,-196.029 282.5,-206.029 289.5,-206.029"/>
</g>
<!-- IdVal01072548 -->
<g id="node43" class="node"><title>IdVal01072548</title>
<ellipse fill="none" stroke="black" cx="394" cy="-251" rx="27" ry="18"/>
<text text-anchor="middle" x="394" y="-247.3" font-family="Times New Roman,serif" font-size="14.00">2</text>
</g>
<!-- Id01072548&#45;&gt;IdVal01072548 -->
<g id="edge30" class="edge"><title>Id01072548&#45;&gt;IdVal01072548</title>
<path fill="none" stroke="black" d="M394,-319.799C394,-308.163 394,-292.548 394,-279.237"/>
<polygon fill="black" stroke="black" points="397.5,-279.175 394,-269.175 390.5,-279.175 397.5,-279.175"/>
</g>
<!-- IdVal010725E8 -->
<g id="node45" class="node"><title>IdVal010725E8</title>
<ellipse fill="none" stroke="black" cx="466" cy="-338" rx="27" ry="18"/>
<text text-anchor="middle" x="466" y="-334.3" font-family="Times New Roman,serif" font-size="14.00">0</text>
</g>
<!-- Id010725E8&#45;&gt;IdVal010725E8 -->
<g id="edge33" class="edge"><title>Id010725E8&#45;&gt;IdVal010725E8</title>
<path fill="none" stroke="black" d="M466,-406.799C466,-395.163 466,-379.548 466,-366.237"/>
<polygon fill="black" stroke="black" points="469.5,-366.175 466,-356.175 462.5,-366.175 469.5,-366.175"/>
</g>
<!-- Id01072138 -->
<g id="node47" class="node"><title>Id01072138</title>
<ellipse fill="none" stroke="black" cx="566" cy="-425" rx="27" ry="18"/>
<text text-anchor="middle" x="566" y="-421.3" font-family="Times New Roman,serif" font-size="14.00">stmt</text>
</g>
<!-- IdBody01072E60&#45;&gt;Id01072138 -->
<g id="edge45" class="edge"><title>IdBody01072E60&#45;&gt;Id01072138</title>
<path fill="none" stroke="black" d="M563.726,-479.813C564.065,-471.789 564.477,-462.047 564.856,-453.069"/>
<polygon fill="black" stroke="black" points="568.355,-453.168 565.28,-443.029 561.361,-452.872 568.355,-453.168"/>
</g>
<!-- Id01072688 -->
<g id="node48" class="node"><title>Id01072688</title>
<ellipse fill="none" stroke="black" cx="566" cy="-338" rx="55.4913" ry="18"/>
<text text-anchor="middle" x="566" y="-334.3" font-family="Times New Roman,serif" font-size="14.00">method_call</text>
</g>
<!-- Id01072138&#45;&gt;Id01072688 -->
<g id="edge44" class="edge"><title>Id01072138&#45;&gt;Id01072688</title>
<path fill="none" stroke="black" d="M566,-406.799C566,-395.163 566,-379.548 566,-366.237"/>
<polygon fill="black" stroke="black" points="569.5,-366.175 566,-356.175 562.5,-366.175 569.5,-366.175"/>
</g>
<!-- IdMethodNameVal01072688 -->
<g id="node49" class="node"><title>IdMethodNameVal01072688</title>
<ellipse fill="none" stroke="black" cx="529" cy="-251" rx="27.0966" ry="18"/>
<text text-anchor="middle" x="529" y="-247.3" font-family="Times New Roman,serif" font-size="14.00">print</text>
</g>
<!-- Id01072688&#45;&gt;IdMethodNameVal01072688 -->
<g id="edge37" class="edge"><title>Id01072688&#45;&gt;IdMethodNameVal01072688</title>
<path fill="none" stroke="black" d="M556.823,-320.096C553.868,-314.412 550.669,-307.992 548,-302 544.637,-294.451 541.316,-286.107 538.414,-278.434"/>
<polygon fill="black" stroke="black" points="541.624,-277.022 534.872,-268.857 535.058,-279.45 541.624,-277.022"/>
<text text-anchor="middle" x="563" y="-290.8" font-family="Times New Roman,serif" font-size="14.00">name</text>
</g>
<!-- Id01072DF0 -->
<g id="node50" class="node"><title>Id01072DF0</title>
<ellipse fill="none" stroke="black" cx="611" cy="-251" rx="37.0935" ry="18"/>
<text text-anchor="middle" x="611" y="-247.3" font-family="Times New Roman,serif" font-size="14.00">params</text>
</g>
<!-- Id01072688&#45;&gt;Id01072DF0 -->
<g id="edge38" class="edge"><title>Id01072688&#45;&gt;Id01072DF0</title>
<path fill="none" stroke="black" d="M574.891,-320.207C581.3,-308.099 590.071,-291.533 597.363,-277.759"/>
<polygon fill="black" stroke="black" points="600.542,-279.234 602.128,-268.758 594.356,-275.959 600.542,-279.234"/>
</g>
<!-- Id010720E8 -->
<g id="node51" class="node"><title>Id010720E8</title>
<ellipse fill="none" stroke="black" cx="611" cy="-178" rx="66.8882" ry="18"/>
<text text-anchor="middle" x="611" y="-174.3" font-family="Times New Roman,serif" font-size="14.00">member access</text>
</g>
<!-- Id01072DF0&#45;&gt;Id010720E8 -->
<g id="edge43" class="edge"><title>Id01072DF0&#45;&gt;Id010720E8</title>
<path fill="none" stroke="black" d="M611,-232.813C611,-224.789 611,-215.047 611,-206.069"/>
<polygon fill="black" stroke="black" points="614.5,-206.029 611,-196.029 607.5,-206.029 614.5,-206.029"/>
</g>
<!-- Id010727C8 -->
<g id="node52" class="node"><title>Id010727C8</title>
<ellipse fill="none" stroke="black" cx="518" cy="-91" rx="61.99" ry="18"/>
<text text-anchor="middle" x="518" y="-87.3" font-family="Times New Roman,serif" font-size="14.00">var or method</text>
</g>
<!-- Id010720E8&#45;&gt;Id010727C8 -->
<g id="edge41" class="edge"><title>Id010720E8&#45;&gt;Id010727C8</title>
<path fill="none" stroke="black" d="M593.069,-160.611C579.045,-147.794 559.361,-129.803 543.668,-115.46"/>
<polygon fill="black" stroke="black" points="545.619,-112.502 535.876,-108.339 540.896,-117.669 545.619,-112.502"/>
<text text-anchor="middle" x="585" y="-130.8" font-family="Times New Roman,serif" font-size="14.00">array</text>
</g>
<!-- Id01072048 -->
<g id="node54" class="node"><title>Id01072048</title>
<ellipse fill="none" stroke="black" cx="659" cy="-91" rx="61.99" ry="18"/>
<text text-anchor="middle" x="659" y="-87.3" font-family="Times New Roman,serif" font-size="14.00">var or method</text>
</g>
<!-- Id010720E8&#45;&gt;Id01072048 -->
<g id="edge42" class="edge"><title>Id010720E8&#45;&gt;Id01072048</title>
<path fill="none" stroke="black" d="M620.714,-159.799C627.524,-147.738 636.749,-131.403 644.436,-117.79"/>
<polygon fill="black" stroke="black" points="647.595,-119.314 649.465,-108.885 641.5,-115.872 647.595,-119.314"/>
<text text-anchor="middle" x="653.5" y="-130.8" font-family="Times New Roman,serif" font-size="14.00">index</text>
</g>
<!-- IdVal010727C8 -->
<g id="node53" class="node"><title>IdVal010727C8</title>
<ellipse fill="none" stroke="black" cx="518" cy="-18" rx="27" ry="18"/>
<text text-anchor="middle" x="518" y="-14.3" font-family="Times New Roman,serif" font-size="14.00">arr</text>
</g>
<!-- Id010727C8&#45;&gt;IdVal010727C8 -->
<g id="edge39" class="edge"><title>Id010727C8&#45;&gt;IdVal010727C8</title>
<path fill="none" stroke="black" d="M518,-72.8129C518,-64.7895 518,-55.0475 518,-46.0691"/>
<polygon fill="black" stroke="black" points="521.5,-46.0288 518,-36.0288 514.5,-46.0289 521.5,-46.0288"/>
</g>
<!-- IdVal01072048 -->
<g id="node55" class="node"><title>IdVal01072048</title>
<ellipse fill="none" stroke="black" cx="659" cy="-18" rx="27" ry="18"/>
<text text-anchor="middle" x="659" y="-14.3" font-family="Times New Roman,serif" font-size="14.00">i</text>
</g>
<!-- Id01072048&#45;&gt;IdVal01072048 -->
<g id="edge40" class="edge"><title>Id01072048&#45;&gt;IdVal01072048</title>
<path fill="none" stroke="black" d="M659,-72.8129C659,-64.7895 659,-55.0475 659,-46.0691"/>
<polygon fill="black" stroke="black" points="662.5,-46.0288 659,-36.0288 655.5,-46.0289 662.5,-46.0288"/>
</g>
<!-- Id01072228 -->
<g id="node57" class="node"><title>Id01072228</title>
<ellipse fill="none" stroke="black" cx="667" cy="-498" rx="27" ry="18"/>
<text text-anchor="middle" x="667" y="-494.3" font-family="Times New Roman,serif" font-size="14.00">stmt</text>
</g>
<!-- IdElse010731C8&#45;&gt;Id01072228 -->
<g id="edge53" class="edge"><title>IdElse010731C8&#45;&gt;Id01072228</title>
<path fill="none" stroke="black" d="M667,-566.799C667,-555.163 667,-539.548 667,-526.237"/>
<polygon fill="black" stroke="black" points="670.5,-526.175 667,-516.175 663.5,-526.175 670.5,-526.175"/>
</g>
<!-- Id010721D8 -->
<g id="node58" class="node"><title>Id010721D8</title>
<ellipse fill="none" stroke="black" cx="667" cy="-425" rx="55.4913" ry="18"/>
<text text-anchor="middle" x="667" y="-421.3" font-family="Times New Roman,serif" font-size="14.00">method_call</text>
</g>
<!-- Id01072228&#45;&gt;Id010721D8 -->
<g id="edge52" class="edge"><title>Id01072228&#45;&gt;Id010721D8</title>
<path fill="none" stroke="black" d="M667,-479.813C667,-471.789 667,-462.047 667,-453.069"/>
<polygon fill="black" stroke="black" points="670.5,-453.029 667,-443.029 663.5,-453.029 670.5,-453.029"/>
</g>
<!-- IdMethodNameVal010721D8 -->
<g id="node59" class="node"><title>IdMethodNameVal010721D8</title>
<ellipse fill="none" stroke="black" cx="667" cy="-338" rx="27.0966" ry="18"/>
<text text-anchor="middle" x="667" y="-334.3" font-family="Times New Roman,serif" font-size="14.00">print</text>
</g>
<!-- Id010721D8&#45;&gt;IdMethodNameVal010721D8 -->
<g id="edge48" class="edge"><title>Id010721D8&#45;&gt;IdMethodNameVal010721D8</title>
<path fill="none" stroke="black" d="M667,-406.799C667,-395.163 667,-379.548 667,-366.237"/>
<polygon fill="black" stroke="black" points="670.5,-366.175 667,-356.175 663.5,-366.175 670.5,-366.175"/>
<text text-anchor="middle" x="682" y="-377.8" font-family="Times New Roman,serif" font-size="14.00">name</text>
</g>
<!-- Id01073238 -->
<g id="node60" class="node"><title>Id01073238</title>
<ellipse fill="none" stroke="black" cx="749" cy="-338" rx="37.0935" ry="18"/>
<text text-anchor="middle" x="749" y="-334.3" font-family="Times New Roman,serif" font-size="14.00">params</text>
</g>
<!-- Id010721D8&#45;&gt;Id01073238 -->
<g id="edge49" class="edge"><title>Id010721D8&#45;&gt;Id01073238</title>
<path fill="none" stroke="black" d="M682.933,-407.638C688.64,-401.767 695.115,-395.094 701,-389 709.448,-380.252 718.706,-370.619 726.819,-362.162"/>
<polygon fill="black" stroke="black" points="729.496,-364.427 733.891,-354.786 724.444,-359.582 729.496,-364.427"/>
</g>
<!-- Id01072188 -->
<g id="node61" class="node"><title>Id01072188</title>
<ellipse fill="none" stroke="black" cx="749" cy="-251" rx="44.393" ry="18"/>
<text text-anchor="middle" x="749" y="-247.3" font-family="Times New Roman,serif" font-size="14.00">STRING</text>
</g>
<!-- Id01073238&#45;&gt;Id01072188 -->
<g id="edge51" class="edge"><title>Id01073238&#45;&gt;Id01072188</title>
<path fill="none" stroke="black" d="M749,-319.799C749,-308.163 749,-292.548 749,-279.237"/>
<polygon fill="black" stroke="black" points="752.5,-279.175 749,-269.175 745.5,-279.175 752.5,-279.175"/>
</g>
<!-- IdVal01072188 -->
<g id="node62" class="node"><title>IdVal01072188</title>
<ellipse fill="none" stroke="black" cx="749" cy="-178" rx="27" ry="18"/>
<text text-anchor="middle" x="749" y="-174.3" font-family="Times New Roman,serif" font-size="14.00">*</text>
</g>
<!-- Id01072188&#45;&gt;IdVal01072188 -->
<g id="edge50" class="edge"><title>Id01072188&#45;&gt;IdVal01072188</title>
<path fill="none" stroke="black" d="M749,-232.813C749,-224.789 749,-215.047 749,-206.069"/>
<polygon fill="black" stroke="black" points="752.5,-206.029 749,-196.029 745.5,-206.029 752.5,-206.029"/>
</g>
<!-- Id01073AC8 -->
<g id="node64" class="node"><title>Id01073AC8</title>
<ellipse fill="none" stroke="black" cx="678" cy="-1065" rx="55.4913" ry="18"/>
<text text-anchor="middle" x="678" y="-1061.3" font-family="Times New Roman,serif" font-size="14.00">method_call</text>
</g>
<!-- Id01073B18&#45;&gt;Id01073AC8 -->
<g id="edge66" class="edge"><title>Id01073B18&#45;&gt;Id01073AC8</title>
<path fill="none" stroke="black" d="M614.412,-1136.19C625.901,-1123.51 642.668,-1105 656.1,-1090.18"/>
<polygon fill="black" stroke="black" points="659.045,-1092.14 663.165,-1082.38 653.857,-1087.44 659.045,-1092.14"/>
</g>
<!-- IdMethodNameVal01073AC8 -->
<g id="node65" class="node"><title>IdMethodNameVal01073AC8</title>
<ellipse fill="none" stroke="black" cx="678" cy="-978" rx="77.1866" ry="18"/>
<text text-anchor="middle" x="678" y="-974.3" font-family="Times New Roman,serif" font-size="14.00">printOddNumbers</text>
</g>
<!-- Id01073AC8&#45;&gt;IdMethodNameVal01073AC8 -->
<g id="edge62" class="edge"><title>Id01073AC8&#45;&gt;IdMethodNameVal01073AC8</title>
<path fill="none" stroke="black" d="M678,-1046.8C678,-1035.16 678,-1019.55 678,-1006.24"/>
<polygon fill="black" stroke="black" points="681.5,-1006.18 678,-996.175 674.5,-1006.18 681.5,-1006.18"/>
<text text-anchor="middle" x="693" y="-1017.8" font-family="Times New Roman,serif" font-size="14.00">name</text>
</g>
<!-- Id01073200 -->
<g id="node66" class="node"><title>Id01073200</title>
<ellipse fill="none" stroke="black" cx="810" cy="-978" rx="37.0935" ry="18"/>
<text text-anchor="middle" x="810" y="-974.3" font-family="Times New Roman,serif" font-size="14.00">params</text>
</g>
<!-- Id01073AC8&#45;&gt;Id01073200 -->
<g id="edge63" class="edge"><title>Id01073AC8&#45;&gt;Id01073200</title>
<path fill="none" stroke="black" d="M701.904,-1048.61C723.776,-1034.52 756.233,-1013.62 779.871,-998.401"/>
<polygon fill="black" stroke="black" points="781.946,-1001.23 788.459,-992.871 778.156,-995.342 781.946,-1001.23"/>
</g>
<!-- Id01073A28 -->
<g id="node67" class="node"><title>Id01073A28</title>
<ellipse fill="none" stroke="black" cx="810" cy="-891" rx="61.99" ry="18"/>
<text text-anchor="middle" x="810" y="-887.3" font-family="Times New Roman,serif" font-size="14.00">var or method</text>
</g>
<!-- Id01073200&#45;&gt;Id01073A28 -->
<g id="edge65" class="edge"><title>Id01073200&#45;&gt;Id01073A28</title>
<path fill="none" stroke="black" d="M810,-959.799C810,-948.163 810,-932.548 810,-919.237"/>
<polygon fill="black" stroke="black" points="813.5,-919.175 810,-909.175 806.5,-919.175 813.5,-919.175"/>
</g>
<!-- IdVal01073A28 -->
<g id="node68" class="node"><title>IdVal01073A28</title>
<ellipse fill="none" stroke="black" cx="810" cy="-804" rx="27" ry="18"/>
<text text-anchor="middle" x="810" y="-800.3" font-family="Times New Roman,serif" font-size="14.00">arr</text>
</g>
<!-- Id01073A28&#45;&gt;IdVal01073A28 -->
<g id="edge64" class="edge"><title>Id01073A28&#45;&gt;IdVal01073A28</title>
<path fill="none" stroke="black" d="M810,-872.799C810,-861.163 810,-845.548 810,-832.237"/>
<polygon fill="black" stroke="black" points="813.5,-832.175 810,-822.175 806.5,-832.175 813.5,-832.175"/>
</g>
</g>
</svg>
