<?xml version="1.0" encoding="UTF-8" standalone="no"?>
<!DOCTYPE svg PUBLIC "-//W3C//DTD SVG 1.1//EN"
 "http://www.w3.org/Graphics/SVG/1.1/DTD/svg11.dtd">
<!-- Generated by graphviz version 2.38.0 (20140413.2041)
 -->
<!-- Title: G Pages: 1 -->
<svg width="411pt" height="461pt"
 viewBox="0.00 0.00 410.52 460.69" xmlns="http://www.w3.org/2000/svg" xmlns:xlink="http://www.w3.org/1999/xlink">
<g id="graph0" class="graph" transform="scale(1 1) rotate(0) translate(4 456.693)">
<title>G</title>
<polygon fill="white" stroke="none" points="-4,4 -4,-456.693 406.522,-456.693 406.522,4 -4,4"/>
<!-- Id01143D38 -->
<g id="node1" class="node"><title>Id01143D38</title>
<ellipse fill="none" stroke="black" cx="136.175" cy="-434.693" rx="41.6928" ry="18"/>
<text text-anchor="middle" x="136.175" y="-430.993" font-family="Times New Roman,serif" font-size="14.00">program</text>
</g>
<!-- Id01143CA8 -->
<g id="node2" class="node"><title>Id01143CA8</title>
<ellipse fill="none" stroke="black" cx="136.175" cy="-362.693" rx="27" ry="18"/>
<text text-anchor="middle" x="136.175" y="-358.993" font-family="Times New Roman,serif" font-size="14.00">stmt</text>
</g>
<!-- Id01143D38&#45;&gt;Id01143CA8 -->
<g id="edge9" class="edge"><title>Id01143D38&#45;&gt;Id01143CA8</title>
<path fill="none" stroke="black" d="M136.175,-416.39C136.175,-408.676 136.175,-399.406 136.175,-390.806"/>
<polygon fill="black" stroke="black" points="139.675,-390.798 136.175,-380.798 132.675,-390.798 139.675,-390.798"/>
</g>
<!-- Id01143C48 -->
<g id="node3" class="node"><title>Id01143C48</title>
<ellipse fill="none" stroke="black" cx="136.175" cy="-290.693" rx="27" ry="18"/>
<text text-anchor="middle" x="136.175" y="-286.993" font-family="Times New Roman,serif" font-size="14.00">=</text>
</g>
<!-- Id01143CA8&#45;&gt;Id01143C48 -->
<g id="edge8" class="edge"><title>Id01143CA8&#45;&gt;Id01143C48</title>
<path fill="none" stroke="black" d="M136.175,-344.39C136.175,-336.676 136.175,-327.406 136.175,-318.806"/>
<polygon fill="black" stroke="black" points="139.675,-318.798 136.175,-308.798 132.675,-318.798 139.675,-318.798"/>
</g>
<!-- Id01135178 -->
<g id="node4" class="node"><title>Id01135178</title>
<ellipse fill="none" stroke="black" cx="67.1751" cy="-209.823" rx="67.3507" ry="26.7407"/>
<text text-anchor="middle" x="67.1751" y="-213.623" font-family="Times New Roman,serif" font-size="14.00">var or method</text>
<text text-anchor="middle" x="67.1751" y="-198.623" font-family="Times New Roman,serif" font-size="14.00"> localnum = 0</text>
</g>
<!-- Id01143C48&#45;&gt;Id01135178 -->
<g id="edge6" class="edge"><title>Id01143C48&#45;&gt;Id01135178</title>
<path fill="none" stroke="black" d="M123.197,-274.859C115.406,-265.954 105.178,-254.262 95.5956,-243.309"/>
<polygon fill="black" stroke="black" points="97.9952,-240.736 88.7765,-235.515 92.7268,-245.346 97.9952,-240.736"/>
</g>
<!-- Id01143BE8 -->
<g id="node6" class="node"><title>Id01143BE8</title>
<ellipse fill="none" stroke="black" cx="206.175" cy="-209.823" rx="53.9813" ry="26.7407"/>
<text text-anchor="middle" x="206.175" y="-213.623" font-family="Times New Roman,serif" font-size="14.00">&#45;</text>
<text text-anchor="middle" x="206.175" y="-198.623" font-family="Times New Roman,serif" font-size="14.00"> mref = #9</text>
</g>
<!-- Id01143C48&#45;&gt;Id01143BE8 -->
<g id="edge7" class="edge"><title>Id01143C48&#45;&gt;Id01143BE8</title>
<path fill="none" stroke="black" d="M149.342,-274.859C157.515,-265.65 168.333,-253.461 178.336,-242.19"/>
<polygon fill="black" stroke="black" points="181.068,-244.385 185.088,-234.582 175.833,-239.738 181.068,-244.385"/>
</g>
<!-- IdVal01135178 -->
<g id="node5" class="node"><title>IdVal01135178</title>
<ellipse fill="none" stroke="black" cx="67.1751" cy="-109.477" rx="27" ry="18"/>
<text text-anchor="middle" x="67.1751" y="-105.777" font-family="Times New Roman,serif" font-size="14.00">a</text>
</g>
<!-- Id01135178&#45;&gt;IdVal01135178 -->
<g id="edge1" class="edge"><title>Id01135178&#45;&gt;IdVal01135178</title>
<path fill="none" stroke="black" d="M67.1751,-182.726C67.1751,-168.85 67.1751,-151.804 67.1751,-137.754"/>
<polygon fill="black" stroke="black" points="70.6752,-137.696 67.1751,-127.696 63.6752,-137.696 70.6752,-137.696"/>
</g>
<!-- Id01139CE0 -->
<g id="node7" class="node"><title>Id01139CE0</title>
<ellipse fill="none" stroke="black" cx="191.175" cy="-109.477" rx="64.1938" ry="37.4533"/>
<text text-anchor="middle" x="191.175" y="-120.777" font-family="Times New Roman,serif" font-size="14.00">INT</text>
<text text-anchor="middle" x="191.175" y="-105.777" font-family="Times New Roman,serif" font-size="14.00"> mref = #16</text>
<text text-anchor="middle" x="191.175" y="-90.7767" font-family="Times New Roman,serif" font-size="14.00"> val_id = #10</text>
</g>
<!-- Id01143BE8&#45;&gt;Id01139CE0 -->
<g id="edge4" class="edge"><title>Id01143BE8&#45;&gt;Id01139CE0</title>
<path fill="none" stroke="black" d="M202.234,-182.984C201.011,-174.962 199.623,-165.862 198.253,-156.885"/>
<polygon fill="black" stroke="black" points="201.693,-156.224 196.725,-146.866 194.773,-157.279 201.693,-156.224"/>
</g>
<!-- Id01139D40 -->
<g id="node9" class="node"><title>Id01139D40</title>
<ellipse fill="none" stroke="black" cx="338.175" cy="-109.477" rx="64.1938" ry="37.4533"/>
<text text-anchor="middle" x="338.175" y="-120.777" font-family="Times New Roman,serif" font-size="14.00">INT</text>
<text text-anchor="middle" x="338.175" y="-105.777" font-family="Times New Roman,serif" font-size="14.00"> mref = #16</text>
<text text-anchor="middle" x="338.175" y="-90.7767" font-family="Times New Roman,serif" font-size="14.00"> val_id = #17</text>
</g>
<!-- Id01143BE8&#45;&gt;Id01139D40 -->
<g id="edge5" class="edge"><title>Id01143BE8&#45;&gt;Id01139D40</title>
<path fill="none" stroke="black" d="M235.47,-186.997C251.673,-174.925 272.204,-159.629 290.643,-145.89"/>
<polygon fill="black" stroke="black" points="293.017,-148.486 298.945,-139.705 288.835,-142.873 293.017,-148.486"/>
</g>
<!-- IdVal01139CE0 -->
<g id="node8" class="node"><title>IdVal01139CE0</title>
<ellipse fill="none" stroke="black" cx="191.175" cy="-18" rx="27" ry="18"/>
<text text-anchor="middle" x="191.175" y="-14.3" font-family="Times New Roman,serif" font-size="14.00">2</text>
</g>
<!-- Id01139CE0&#45;&gt;IdVal01139CE0 -->
<g id="edge2" class="edge"><title>Id01139CE0&#45;&gt;IdVal01139CE0</title>
<path fill="none" stroke="black" d="M191.175,-71.8249C191.175,-63.3308 191.175,-54.4344 191.175,-46.4159"/>
<polygon fill="black" stroke="black" points="194.675,-46.1461 191.175,-36.1461 187.675,-46.1462 194.675,-46.1461"/>
</g>
<!-- IdVal01139D40 -->
<g id="node10" class="node"><title>IdVal01139D40</title>
<ellipse fill="none" stroke="black" cx="338.175" cy="-18" rx="27" ry="18"/>
<text text-anchor="middle" x="338.175" y="-14.3" font-family="Times New Roman,serif" font-size="14.00">1</text>
</g>
<!-- Id01139D40&#45;&gt;IdVal01139D40 -->
<g id="edge3" class="edge"><title>Id01139D40&#45;&gt;IdVal01139D40</title>
<path fill="none" stroke="black" d="M338.175,-71.8249C338.175,-63.3308 338.175,-54.4344 338.175,-46.4159"/>
<polygon fill="black" stroke="black" points="341.675,-46.1461 338.175,-36.1461 334.675,-46.1462 341.675,-46.1461"/>
</g>
</g>
</svg>
