<?xml version="1.0" encoding="UTF-8" standalone="no"?>
<!DOCTYPE svg PUBLIC "-//W3C//DTD SVG 1.1//EN"
 "http://www.w3.org/Graphics/SVG/1.1/DTD/svg11.dtd">
<!-- Generated by graphviz version 2.38.0 (20140413.2041)
 -->
<!-- Title: G Pages: 1 -->
<svg width="772pt" height="609pt"
 viewBox="0.00 0.00 772.35 609.39" xmlns="http://www.w3.org/2000/svg" xmlns:xlink="http://www.w3.org/1999/xlink">
<g id="graph0" class="graph" transform="scale(1 1) rotate(0) translate(4 605.387)">
<title>G</title>
<polygon fill="white" stroke="none" points="-4,4 -4,-605.387 768.347,-605.387 768.347,4 -4,4"/>
<!-- Id01356770 -->
<g id="node1" class="node"><title>Id01356770</title>
<ellipse fill="none" stroke="black" cx="354" cy="-583.387" rx="41.6928" ry="18"/>
<text text-anchor="middle" x="354" y="-579.687" font-family="Times New Roman,serif" font-size="14.00">program</text>
</g>
<!-- Id01355CB8 -->
<g id="node2" class="node"><title>Id01355CB8</title>
<ellipse fill="none" stroke="black" cx="311" cy="-510.387" rx="27" ry="18"/>
<text text-anchor="middle" x="311" y="-506.687" font-family="Times New Roman,serif" font-size="14.00">stmt</text>
</g>
<!-- Id01356770&#45;&gt;Id01355CB8 -->
<g id="edge11" class="edge"><title>Id01356770&#45;&gt;Id01355CB8</title>
<path fill="none" stroke="black" d="M343.81,-565.561C338.54,-556.86 332.003,-546.066 326.154,-536.409"/>
<polygon fill="black" stroke="black" points="328.995,-534.344 320.821,-527.603 323.008,-537.97 328.995,-534.344"/>
</g>
<!-- Id01355F50 -->
<g id="node13" class="node"><title>Id01355F50</title>
<ellipse fill="none" stroke="black" cx="386" cy="-510.387" rx="27" ry="18"/>
<text text-anchor="middle" x="386" y="-506.687" font-family="Times New Roman,serif" font-size="14.00">stmt</text>
</g>
<!-- Id01356770&#45;&gt;Id01355F50 -->
<g id="edge20" class="edge"><title>Id01356770&#45;&gt;Id01355F50</title>
<path fill="none" stroke="black" d="M361.584,-565.561C365.369,-557.161 370.034,-546.811 374.269,-537.415"/>
<polygon fill="black" stroke="black" points="377.553,-538.647 378.471,-528.092 371.171,-535.771 377.553,-538.647"/>
</g>
<!-- Id0134F0F8 -->
<g id="node3" class="node"><title>Id0134F0F8</title>
<ellipse fill="none" stroke="black" cx="283" cy="-428.517" rx="27" ry="18"/>
<text text-anchor="middle" x="283" y="-424.817" font-family="Times New Roman,serif" font-size="14.00">=</text>
</g>
<!-- Id01355CB8&#45;&gt;Id0134F0F8 -->
<g id="edge10" class="edge"><title>Id01355CB8&#45;&gt;Id0134F0F8</title>
<path fill="none" stroke="black" d="M305.062,-492.448C301.325,-481.788 296.424,-467.81 292.192,-455.736"/>
<polygon fill="black" stroke="black" points="295.445,-454.436 288.834,-446.157 288.839,-456.752 295.445,-454.436"/>
</g>
<!-- Id0134EA38 -->
<g id="node4" class="node"><title>Id0134EA38</title>
<ellipse fill="none" stroke="black" cx="98" cy="-323.777" rx="67.3507" ry="26.7407"/>
<text text-anchor="middle" x="98" y="-327.577" font-family="Times New Roman,serif" font-size="14.00">var or method</text>
<text text-anchor="middle" x="98" y="-312.577" font-family="Times New Roman,serif" font-size="14.00"> localnum = 1</text>
</g>
<!-- Id0134F0F8&#45;&gt;Id0134EA38 -->
<g id="edge8" class="edge"><title>Id0134F0F8&#45;&gt;Id0134EA38</title>
<path fill="none" stroke="black" d="M262.85,-416.326C234.759,-400.726 183.003,-371.983 144.952,-350.851"/>
<polygon fill="black" stroke="black" points="146.525,-347.722 136.083,-345.926 143.126,-353.841 146.525,-347.722"/>
</g>
<!-- Id0134F088 -->
<g id="node6" class="node"><title>Id0134F088</title>
<ellipse fill="none" stroke="black" cx="283" cy="-323.777" rx="28.6953" ry="18"/>
<text text-anchor="middle" x="283" y="-320.077" font-family="Times New Roman,serif" font-size="14.00">array</text>
</g>
<!-- Id0134F0F8&#45;&gt;Id0134F088 -->
<g id="edge9" class="edge"><title>Id0134F0F8&#45;&gt;Id0134F088</title>
<path fill="none" stroke="black" d="M283,-410.088C283,-394.2 283,-370.47 283,-352.067"/>
<polygon fill="black" stroke="black" points="286.5,-351.948 283,-341.948 279.5,-351.948 286.5,-351.948"/>
</g>
<!-- IdVal0134EA38 -->
<g id="node5" class="node"><title>IdVal0134EA38</title>
<ellipse fill="none" stroke="black" cx="27" cy="-222.43" rx="27" ry="18"/>
<text text-anchor="middle" x="27" y="-218.73" font-family="Times New Roman,serif" font-size="14.00">a</text>
</g>
<!-- Id0134EA38&#45;&gt;IdVal0134EA38 -->
<g id="edge1" class="edge"><title>Id0134EA38&#45;&gt;IdVal0134EA38</title>
<path fill="none" stroke="black" d="M80.0837,-297.707C69.026,-282.235 54.9233,-262.502 44.0334,-247.264"/>
<polygon fill="black" stroke="black" points="46.7022,-244.979 38.0402,-238.878 41.0071,-249.049 46.7022,-244.979"/>
</g>
<!-- Id0134EF38 -->
<g id="node7" class="node"><title>Id0134EF38</title>
<ellipse fill="none" stroke="black" cx="136" cy="-222.43" rx="64.1938" ry="37.4533"/>
<text text-anchor="middle" x="136" y="-233.73" font-family="Times New Roman,serif" font-size="14.00">INT</text>
<text text-anchor="middle" x="136" y="-218.73" font-family="Times New Roman,serif" font-size="14.00"> mref = #30</text>
<text text-anchor="middle" x="136" y="-203.73" font-family="Times New Roman,serif" font-size="14.00"> val_id = #27</text>
</g>
<!-- Id0134F088&#45;&gt;Id0134EF38 -->
<g id="edge3" class="edge"><title>Id0134F088&#45;&gt;Id0134EF38</title>
<path fill="none" stroke="black" d="M264.083,-309.992C244.421,-296.704 212.821,-275.348 185.929,-257.173"/>
<polygon fill="black" stroke="black" points="187.629,-254.098 177.384,-251.398 183.71,-259.898 187.629,-254.098"/>
</g>
<!-- Id0134EFA8 -->
<g id="node9" class="node"><title>Id0134EFA8</title>
<ellipse fill="none" stroke="black" cx="283" cy="-222.43" rx="64.1938" ry="37.4533"/>
<text text-anchor="middle" x="283" y="-233.73" font-family="Times New Roman,serif" font-size="14.00">INT</text>
<text text-anchor="middle" x="283" y="-218.73" font-family="Times New Roman,serif" font-size="14.00"> mref = #30</text>
<text text-anchor="middle" x="283" y="-203.73" font-family="Times New Roman,serif" font-size="14.00"> val_id = #31</text>
</g>
<!-- Id0134F088&#45;&gt;Id0134EFA8 -->
<g id="edge5" class="edge"><title>Id0134F088&#45;&gt;Id0134EFA8</title>
<path fill="none" stroke="black" d="M283,-305.472C283,-295.743 283,-283.08 283,-270.626"/>
<polygon fill="black" stroke="black" points="286.5,-270.282 283,-260.282 279.5,-270.282 286.5,-270.282"/>
</g>
<!-- Id0134F018 -->
<g id="node11" class="node"><title>Id0134F018</title>
<ellipse fill="none" stroke="black" cx="430" cy="-222.43" rx="64.1938" ry="37.4533"/>
<text text-anchor="middle" x="430" y="-233.73" font-family="Times New Roman,serif" font-size="14.00">INT</text>
<text text-anchor="middle" x="430" y="-218.73" font-family="Times New Roman,serif" font-size="14.00"> mref = #30</text>
<text text-anchor="middle" x="430" y="-203.73" font-family="Times New Roman,serif" font-size="14.00"> val_id = #32</text>
</g>
<!-- Id0134F088&#45;&gt;Id0134F018 -->
<g id="edge7" class="edge"><title>Id0134F088&#45;&gt;Id0134F018</title>
<path fill="none" stroke="black" d="M301.917,-309.992C321.579,-296.704 353.179,-275.348 380.071,-257.173"/>
<polygon fill="black" stroke="black" points="382.29,-259.898 388.616,-251.398 378.371,-254.098 382.29,-259.898"/>
</g>
<!-- IdVal0134EF38 -->
<g id="node8" class="node"><title>IdVal0134EF38</title>
<ellipse fill="none" stroke="black" cx="136" cy="-110.477" rx="27" ry="18"/>
<text text-anchor="middle" x="136" y="-106.777" font-family="Times New Roman,serif" font-size="14.00">1</text>
</g>
<!-- Id0134EF38&#45;&gt;IdVal0134EF38 -->
<g id="edge2" class="edge"><title>Id0134EF38&#45;&gt;IdVal0134EF38</title>
<path fill="none" stroke="black" d="M136,-184.817C136,-169.832 136,-152.79 136,-138.908"/>
<polygon fill="black" stroke="black" points="139.5,-138.551 136,-128.551 132.5,-138.551 139.5,-138.551"/>
</g>
<!-- IdVal0134EFA8 -->
<g id="node10" class="node"><title>IdVal0134EFA8</title>
<ellipse fill="none" stroke="black" cx="283" cy="-110.477" rx="27" ry="18"/>
<text text-anchor="middle" x="283" y="-106.777" font-family="Times New Roman,serif" font-size="14.00">2</text>
</g>
<!-- Id0134EFA8&#45;&gt;IdVal0134EFA8 -->
<g id="edge4" class="edge"><title>Id0134EFA8&#45;&gt;IdVal0134EFA8</title>
<path fill="none" stroke="black" d="M283,-184.817C283,-169.832 283,-152.79 283,-138.908"/>
<polygon fill="black" stroke="black" points="286.5,-138.551 283,-128.551 279.5,-138.551 286.5,-138.551"/>
</g>
<!-- IdVal0134F018 -->
<g id="node12" class="node"><title>IdVal0134F018</title>
<ellipse fill="none" stroke="black" cx="430" cy="-110.477" rx="27" ry="18"/>
<text text-anchor="middle" x="430" y="-106.777" font-family="Times New Roman,serif" font-size="14.00">3</text>
</g>
<!-- Id0134F018&#45;&gt;IdVal0134F018 -->
<g id="edge6" class="edge"><title>Id0134F018&#45;&gt;IdVal0134F018</title>
<path fill="none" stroke="black" d="M430,-184.817C430,-169.832 430,-152.79 430,-138.908"/>
<polygon fill="black" stroke="black" points="433.5,-138.551 430,-128.551 426.5,-138.551 433.5,-138.551"/>
</g>
<!-- Id01355EB8 -->
<g id="node14" class="node"><title>Id01355EB8</title>
<ellipse fill="none" stroke="black" cx="400" cy="-428.517" rx="60.2083" ry="26.7407"/>
<text text-anchor="middle" x="400" y="-432.317" font-family="Times New Roman,serif" font-size="14.00">method_call</text>
<text text-anchor="middle" x="400" y="-417.317" font-family="Times New Roman,serif" font-size="14.00"> mref = #36</text>
</g>
<!-- Id01355F50&#45;&gt;Id01355EB8 -->
<g id="edge19" class="edge"><title>Id01355F50&#45;&gt;Id01355EB8</title>
<path fill="none" stroke="black" d="M388.969,-492.448C390.348,-484.58 392.044,-474.904 393.689,-465.52"/>
<polygon fill="black" stroke="black" points="397.157,-466.006 395.436,-455.552 390.262,-464.797 397.157,-466.006"/>
</g>
<!-- IdMethodNameVal01355EB8 -->
<g id="node15" class="node"><title>IdMethodNameVal01355EB8</title>
<ellipse fill="none" stroke="black" cx="400" cy="-323.777" rx="33.5952" ry="18"/>
<text text-anchor="middle" x="400" y="-320.077" font-family="Times New Roman,serif" font-size="14.00">println</text>
</g>
<!-- Id01355EB8&#45;&gt;IdMethodNameVal01355EB8 -->
<g id="edge12" class="edge"><title>Id01355EB8&#45;&gt;IdMethodNameVal01355EB8</title>
<path fill="none" stroke="black" d="M400,-401.591C400,-386.571 400,-367.668 400,-352.373"/>
<polygon fill="black" stroke="black" points="403.5,-351.98 400,-341.98 396.5,-351.98 403.5,-351.98"/>
<text text-anchor="middle" x="415" y="-372.447" font-family="Times New Roman,serif" font-size="14.00">name</text>
</g>
<!-- Id01350658 -->
<g id="node16" class="node"><title>Id01350658</title>
<ellipse fill="none" stroke="black" cx="512" cy="-323.777" rx="37.0935" ry="18"/>
<text text-anchor="middle" x="512" y="-320.077" font-family="Times New Roman,serif" font-size="14.00">params</text>
</g>
<!-- Id01355EB8&#45;&gt;Id01350658 -->
<g id="edge13" class="edge"><title>Id01355EB8&#45;&gt;Id01350658</title>
<path fill="none" stroke="black" d="M425.695,-403.946C444.456,-386.736 469.711,-363.569 488.052,-346.745"/>
<polygon fill="black" stroke="black" points="490.446,-349.298 495.45,-339.959 485.714,-344.139 490.446,-349.298"/>
</g>
<!-- Id01355E48 -->
<g id="node17" class="node"><title>Id01355E48</title>
<ellipse fill="none" stroke="black" cx="571" cy="-222.43" rx="58.8803" ry="26.7407"/>
<text text-anchor="middle" x="571" y="-226.23" font-family="Times New Roman,serif" font-size="14.00">*</text>
<text text-anchor="middle" x="571" y="-211.23" font-family="Times New Roman,serif" font-size="14.00"> mref = #40</text>
</g>
<!-- Id01350658&#45;&gt;Id01355E48 -->
<g id="edge18" class="edge"><title>Id01350658&#45;&gt;Id01355E48</title>
<path fill="none" stroke="black" d="M521.743,-306.372C529.641,-293.072 541.036,-273.885 550.877,-257.314"/>
<polygon fill="black" stroke="black" points="554.055,-258.816 556.152,-248.431 548.037,-255.242 554.055,-258.816"/>
</g>
<!-- Id01355D38 -->
<g id="node18" class="node"><title>Id01355D38</title>
<ellipse fill="none" stroke="black" cx="550" cy="-110.477" rx="67.3507" ry="26.7407"/>
<text text-anchor="middle" x="550" y="-114.277" font-family="Times New Roman,serif" font-size="14.00">var or method</text>
<text text-anchor="middle" x="550" y="-99.2767" font-family="Times New Roman,serif" font-size="14.00"> localnum = 1</text>
</g>
<!-- Id01355E48&#45;&gt;Id01355D38 -->
<g id="edge16" class="edge"><title>Id01355E48&#45;&gt;Id01355D38</title>
<path fill="none" stroke="black" d="M566.076,-195.651C563.332,-181.28 559.871,-163.159 556.864,-147.415"/>
<polygon fill="black" stroke="black" points="560.279,-146.641 554.965,-137.475 553.404,-147.954 560.279,-146.641"/>
</g>
<!-- Id01355DD8 -->
<g id="node20" class="node"><title>Id01355DD8</title>
<ellipse fill="none" stroke="black" cx="700" cy="-110.477" rx="64.1938" ry="37.4533"/>
<text text-anchor="middle" x="700" y="-121.777" font-family="Times New Roman,serif" font-size="14.00">STRING</text>
<text text-anchor="middle" x="700" y="-106.777" font-family="Times New Roman,serif" font-size="14.00"> mref = #45</text>
<text text-anchor="middle" x="700" y="-91.7767" font-family="Times New Roman,serif" font-size="14.00"> val_id = #42</text>
</g>
<!-- Id01355E48&#45;&gt;Id01355DD8 -->
<g id="edge17" class="edge"><title>Id01355E48&#45;&gt;Id01355DD8</title>
<path fill="none" stroke="black" d="M598.043,-198.38C614.926,-183.99 637.048,-165.134 656.37,-148.665"/>
<polygon fill="black" stroke="black" points="658.836,-151.162 664.176,-142.011 654.295,-145.834 658.836,-151.162"/>
</g>
<!-- IdVal01355D38 -->
<g id="node19" class="node"><title>IdVal01355D38</title>
<ellipse fill="none" stroke="black" cx="550" cy="-18" rx="27" ry="18"/>
<text text-anchor="middle" x="550" y="-14.3" font-family="Times New Roman,serif" font-size="14.00">a</text>
</g>
<!-- Id01355D38&#45;&gt;IdVal01355D38 -->
<g id="edge14" class="edge"><title>Id01355D38&#45;&gt;IdVal01355D38</title>
<path fill="none" stroke="black" d="M550,-83.3071C550,-71.7193 550,-58.0883 550,-46.3654"/>
<polygon fill="black" stroke="black" points="553.5,-46.2492 550,-36.2493 546.5,-46.2493 553.5,-46.2492"/>
</g>
<!-- IdVal01355DD8 -->
<g id="node21" class="node"><title>IdVal01355DD8</title>
<ellipse fill="none" stroke="black" cx="700" cy="-18" rx="27" ry="18"/>
<text text-anchor="middle" x="700" y="-14.3" font-family="Times New Roman,serif" font-size="14.00">a</text>
</g>
<!-- Id01355DD8&#45;&gt;IdVal01355DD8 -->
<g id="edge15" class="edge"><title>Id01355DD8&#45;&gt;IdVal01355DD8</title>
<path fill="none" stroke="black" d="M700,-72.9371C700,-63.9712 700,-54.5316 700,-46.0996"/>
<polygon fill="black" stroke="black" points="703.5,-46.0694 700,-36.0695 696.5,-46.0695 703.5,-46.0694"/>
</g>
</g>
</svg>
