<?xml version="1.0" encoding="UTF-8" standalone="no"?>
<!DOCTYPE svg PUBLIC "-//W3C//DTD SVG 1.1//EN"
 "http://www.w3.org/Graphics/SVG/1.1/DTD/svg11.dtd">
<!-- Generated by graphviz version 2.38.0 (20140413.2041)
 -->
<!-- Title: G Pages: 1 -->
<svg width="606pt" height="423pt"
 viewBox="0.00 0.00 606.49 423.00" xmlns="http://www.w3.org/2000/svg" xmlns:xlink="http://www.w3.org/1999/xlink">
<g id="graph0" class="graph" transform="scale(1 1) rotate(0) translate(4 419)">
<title>G</title>
<polygon fill="white" stroke="none" points="-4,4 -4,-419 602.489,-419 602.489,4 -4,4"/>
<!-- Id014D4760 -->
<g id="node1" class="node"><title>Id014D4760</title>
<ellipse fill="none" stroke="black" cx="334.745" cy="-397" rx="41.6928" ry="18"/>
<text text-anchor="middle" x="334.745" y="-393.3" font-family="Times New Roman,serif" font-size="14.00">program</text>
</g>
<!-- Id014D3C38 -->
<g id="node2" class="node"><title>Id014D3C38</title>
<ellipse fill="none" stroke="black" cx="239.745" cy="-324" rx="27" ry="18"/>
<text text-anchor="middle" x="239.745" y="-320.3" font-family="Times New Roman,serif" font-size="14.00">stmt</text>
</g>
<!-- Id014D4760&#45;&gt;Id014D3C38 -->
<g id="edge6" class="edge"><title>Id014D4760&#45;&gt;Id014D3C38</title>
<path fill="none" stroke="black" d="M314.597,-380.943C300.167,-370.158 280.629,-355.555 265.132,-343.974"/>
<polygon fill="black" stroke="black" points="267.102,-341.077 256.996,-337.894 262.911,-346.684 267.102,-341.077"/>
</g>
<!-- Id014D4270 -->
<g id="node8" class="node"><title>Id014D4270</title>
<ellipse fill="none" stroke="black" cx="334.745" cy="-324" rx="27" ry="18"/>
<text text-anchor="middle" x="334.745" y="-320.3" font-family="Times New Roman,serif" font-size="14.00">stmt</text>
</g>
<!-- Id014D4760&#45;&gt;Id014D4270 -->
<g id="edge12" class="edge"><title>Id014D4760&#45;&gt;Id014D4270</title>
<path fill="none" stroke="black" d="M334.745,-378.813C334.745,-370.789 334.745,-361.047 334.745,-352.069"/>
<polygon fill="black" stroke="black" points="338.245,-352.029 334.745,-342.029 331.245,-352.029 338.245,-352.029"/>
</g>
<!-- Id014D41D0 -->
<g id="node14" class="node"><title>Id014D41D0</title>
<ellipse fill="none" stroke="black" cx="418.745" cy="-324" rx="27" ry="18"/>
<text text-anchor="middle" x="418.745" y="-320.3" font-family="Times New Roman,serif" font-size="14.00">stmt</text>
</g>
<!-- Id014D4760&#45;&gt;Id014D41D0 -->
<g id="edge18" class="edge"><title>Id014D4760&#45;&gt;Id014D41D0</title>
<path fill="none" stroke="black" d="M352.971,-380.594C365.199,-370.259 381.434,-356.536 394.715,-345.31"/>
<polygon fill="black" stroke="black" points="397.163,-347.825 402.541,-338.696 392.644,-342.478 397.163,-347.825"/>
</g>
<!-- Id014D3BD8 -->
<g id="node3" class="node"><title>Id014D3BD8</title>
<ellipse fill="none" stroke="black" cx="168.745" cy="-251" rx="27" ry="18"/>
<text text-anchor="middle" x="168.745" y="-247.3" font-family="Times New Roman,serif" font-size="14.00">=</text>
</g>
<!-- Id014D3C38&#45;&gt;Id014D3BD8 -->
<g id="edge5" class="edge"><title>Id014D3C38&#45;&gt;Id014D3BD8</title>
<path fill="none" stroke="black" d="M225.377,-308.632C215.272,-298.527 201.576,-284.831 190.184,-273.439"/>
<polygon fill="black" stroke="black" points="192.637,-270.943 183.091,-266.347 187.687,-275.893 192.637,-270.943"/>
</g>
<!-- Id014C9F78 -->
<g id="node4" class="node"><title>Id014C9F78</title>
<ellipse fill="none" stroke="black" cx="61.7445" cy="-164" rx="61.99" ry="18"/>
<text text-anchor="middle" x="61.7445" y="-160.3" font-family="Times New Roman,serif" font-size="14.00">var or method</text>
</g>
<!-- Id014D3BD8&#45;&gt;Id014C9F78 -->
<g id="edge3" class="edge"><title>Id014D3BD8&#45;&gt;Id014C9F78</title>
<path fill="none" stroke="black" d="M152.026,-236.719C135.465,-223.563 109.792,-203.169 90.05,-187.486"/>
<polygon fill="black" stroke="black" points="92.0033,-184.567 81.9962,-181.088 87.6492,-190.048 92.0033,-184.567"/>
</g>
<!-- Id014C5148 -->
<g id="node6" class="node"><title>Id014C5148</title>
<ellipse fill="none" stroke="black" cx="168.745" cy="-164" rx="27" ry="18"/>
<text text-anchor="middle" x="168.745" y="-160.3" font-family="Times New Roman,serif" font-size="14.00">INT</text>
</g>
<!-- Id014D3BD8&#45;&gt;Id014C5148 -->
<g id="edge4" class="edge"><title>Id014D3BD8&#45;&gt;Id014C5148</title>
<path fill="none" stroke="black" d="M168.745,-232.799C168.745,-221.163 168.745,-205.548 168.745,-192.237"/>
<polygon fill="black" stroke="black" points="172.245,-192.175 168.745,-182.175 165.245,-192.175 172.245,-192.175"/>
</g>
<!-- IdVal014C9F78 -->
<g id="node5" class="node"><title>IdVal014C9F78</title>
<ellipse fill="none" stroke="black" cx="61.7445" cy="-91" rx="27" ry="18"/>
<text text-anchor="middle" x="61.7445" y="-87.3" font-family="Times New Roman,serif" font-size="14.00">a</text>
</g>
<!-- Id014C9F78&#45;&gt;IdVal014C9F78 -->
<g id="edge1" class="edge"><title>Id014C9F78&#45;&gt;IdVal014C9F78</title>
<path fill="none" stroke="black" d="M61.7445,-145.813C61.7445,-137.789 61.7445,-128.047 61.7445,-119.069"/>
<polygon fill="black" stroke="black" points="65.2446,-119.029 61.7445,-109.029 58.2446,-119.029 65.2446,-119.029"/>
</g>
<!-- IdVal014C5148 -->
<g id="node7" class="node"><title>IdVal014C5148</title>
<ellipse fill="none" stroke="black" cx="168.745" cy="-91" rx="27" ry="18"/>
<text text-anchor="middle" x="168.745" y="-87.3" font-family="Times New Roman,serif" font-size="14.00">2</text>
</g>
<!-- Id014C5148&#45;&gt;IdVal014C5148 -->
<g id="edge2" class="edge"><title>Id014C5148&#45;&gt;IdVal014C5148</title>
<path fill="none" stroke="black" d="M168.745,-145.813C168.745,-137.789 168.745,-128.047 168.745,-119.069"/>
<polygon fill="black" stroke="black" points="172.245,-119.029 168.745,-109.029 165.245,-119.029 172.245,-119.029"/>
</g>
<!-- Id014D3D88 -->
<g id="node9" class="node"><title>Id014D3D88</title>
<ellipse fill="none" stroke="black" cx="334.745" cy="-251" rx="27" ry="18"/>
<text text-anchor="middle" x="334.745" y="-247.3" font-family="Times New Roman,serif" font-size="14.00">=</text>
</g>
<!-- Id014D4270&#45;&gt;Id014D3D88 -->
<g id="edge11" class="edge"><title>Id014D4270&#45;&gt;Id014D3D88</title>
<path fill="none" stroke="black" d="M334.745,-305.813C334.745,-297.789 334.745,-288.047 334.745,-279.069"/>
<polygon fill="black" stroke="black" points="338.245,-279.029 334.745,-269.029 331.245,-279.029 338.245,-279.029"/>
</g>
<!-- Id014D3CC8 -->
<g id="node10" class="node"><title>Id014D3CC8</title>
<ellipse fill="none" stroke="black" cx="275.745" cy="-164" rx="61.99" ry="18"/>
<text text-anchor="middle" x="275.745" y="-160.3" font-family="Times New Roman,serif" font-size="14.00">var or method</text>
</g>
<!-- Id014D3D88&#45;&gt;Id014D3CC8 -->
<g id="edge9" class="edge"><title>Id014D3D88&#45;&gt;Id014D3CC8</title>
<path fill="none" stroke="black" d="M323.923,-234.41C315.383,-222.106 303.294,-204.69 293.363,-190.383"/>
<polygon fill="black" stroke="black" points="296.087,-188.168 287.509,-181.949 290.336,-192.16 296.087,-188.168"/>
</g>
<!-- Id014D3D28 -->
<g id="node12" class="node"><title>Id014D3D28</title>
<ellipse fill="none" stroke="black" cx="382.745" cy="-164" rx="27" ry="18"/>
<text text-anchor="middle" x="382.745" y="-160.3" font-family="Times New Roman,serif" font-size="14.00">INT</text>
</g>
<!-- Id014D3D88&#45;&gt;Id014D3D28 -->
<g id="edge10" class="edge"><title>Id014D3D88&#45;&gt;Id014D3D28</title>
<path fill="none" stroke="black" d="M343.773,-234.012C350.768,-221.625 360.588,-204.235 368.621,-190.011"/>
<polygon fill="black" stroke="black" points="371.724,-191.634 373.593,-181.205 365.628,-188.192 371.724,-191.634"/>
</g>
<!-- IdVal014D3CC8 -->
<g id="node11" class="node"><title>IdVal014D3CC8</title>
<ellipse fill="none" stroke="black" cx="275.745" cy="-91" rx="27" ry="18"/>
<text text-anchor="middle" x="275.745" y="-87.3" font-family="Times New Roman,serif" font-size="14.00">b</text>
</g>
<!-- Id014D3CC8&#45;&gt;IdVal014D3CC8 -->
<g id="edge7" class="edge"><title>Id014D3CC8&#45;&gt;IdVal014D3CC8</title>
<path fill="none" stroke="black" d="M275.745,-145.813C275.745,-137.789 275.745,-128.047 275.745,-119.069"/>
<polygon fill="black" stroke="black" points="279.245,-119.029 275.745,-109.029 272.245,-119.029 279.245,-119.029"/>
</g>
<!-- IdVal014D3D28 -->
<g id="node13" class="node"><title>IdVal014D3D28</title>
<ellipse fill="none" stroke="black" cx="382.745" cy="-91" rx="27" ry="18"/>
<text text-anchor="middle" x="382.745" y="-87.3" font-family="Times New Roman,serif" font-size="14.00">3</text>
</g>
<!-- Id014D3D28&#45;&gt;IdVal014D3D28 -->
<g id="edge8" class="edge"><title>Id014D3D28&#45;&gt;IdVal014D3D28</title>
<path fill="none" stroke="black" d="M382.745,-145.813C382.745,-137.789 382.745,-128.047 382.745,-119.069"/>
<polygon fill="black" stroke="black" points="386.245,-119.029 382.745,-109.029 379.245,-119.029 386.245,-119.029"/>
</g>
<!-- Id014D46C0 -->
<g id="node15" class="node"><title>Id014D46C0</title>
<ellipse fill="none" stroke="black" cx="454.745" cy="-251" rx="55.4913" ry="18"/>
<text text-anchor="middle" x="454.745" y="-247.3" font-family="Times New Roman,serif" font-size="14.00">method_call</text>
</g>
<!-- Id014D41D0&#45;&gt;Id014D46C0 -->
<g id="edge17" class="edge"><title>Id014D41D0&#45;&gt;Id014D46C0</title>
<path fill="none" stroke="black" d="M427.094,-306.533C431.394,-298.053 436.736,-287.516 441.576,-277.972"/>
<polygon fill="black" stroke="black" points="444.789,-279.373 446.19,-268.871 438.546,-276.207 444.789,-279.373"/>
</g>
<!-- IdMethodNameVal014D46C0 -->
<g id="node16" class="node"><title>IdMethodNameVal014D46C0</title>
<ellipse fill="none" stroke="black" cx="454.745" cy="-164" rx="27.0966" ry="18"/>
<text text-anchor="middle" x="454.745" y="-160.3" font-family="Times New Roman,serif" font-size="14.00">print</text>
</g>
<!-- Id014D46C0&#45;&gt;IdMethodNameVal014D46C0 -->
<g id="edge13" class="edge"><title>Id014D46C0&#45;&gt;IdMethodNameVal014D46C0</title>
<path fill="none" stroke="black" d="M454.745,-232.799C454.745,-221.163 454.745,-205.548 454.745,-192.237"/>
<polygon fill="black" stroke="black" points="458.245,-192.175 454.745,-182.175 451.245,-192.175 458.245,-192.175"/>
<text text-anchor="middle" x="469.745" y="-203.8" font-family="Times New Roman,serif" font-size="14.00">name</text>
</g>
<!-- Id014CE1F8 -->
<g id="node17" class="node"><title>Id014CE1F8</title>
<ellipse fill="none" stroke="black" cx="536.745" cy="-164" rx="37.0935" ry="18"/>
<text text-anchor="middle" x="536.745" y="-160.3" font-family="Times New Roman,serif" font-size="14.00">params</text>
</g>
<!-- Id014D46C0&#45;&gt;Id014CE1F8 -->
<g id="edge14" class="edge"><title>Id014D46C0&#45;&gt;Id014CE1F8</title>
<path fill="none" stroke="black" d="M470.678,-233.638C476.384,-227.767 482.86,-221.094 488.745,-215 497.192,-206.252 506.451,-196.619 514.563,-188.162"/>
<polygon fill="black" stroke="black" points="517.241,-190.427 521.635,-180.786 512.188,-185.582 517.241,-190.427"/>
</g>
<!-- Id014D4660 -->
<g id="node18" class="node"><title>Id014D4660</title>
<ellipse fill="none" stroke="black" cx="536.745" cy="-91" rx="61.99" ry="18"/>
<text text-anchor="middle" x="536.745" y="-87.3" font-family="Times New Roman,serif" font-size="14.00">var or method</text>
</g>
<!-- Id014CE1F8&#45;&gt;Id014D4660 -->
<g id="edge16" class="edge"><title>Id014CE1F8&#45;&gt;Id014D4660</title>
<path fill="none" stroke="black" d="M536.745,-145.813C536.745,-137.789 536.745,-128.047 536.745,-119.069"/>
<polygon fill="black" stroke="black" points="540.245,-119.029 536.745,-109.029 533.245,-119.029 540.245,-119.029"/>
</g>
<!-- IdVal014D4660 -->
<g id="node19" class="node"><title>IdVal014D4660</title>
<ellipse fill="none" stroke="black" cx="536.745" cy="-18" rx="27" ry="18"/>
<text text-anchor="middle" x="536.745" y="-14.3" font-family="Times New Roman,serif" font-size="14.00">a</text>
</g>
<!-- Id014D4660&#45;&gt;IdVal014D4660 -->
<g id="edge15" class="edge"><title>Id014D4660&#45;&gt;IdVal014D4660</title>
<path fill="none" stroke="black" d="M536.745,-72.8129C536.745,-64.7895 536.745,-55.0475 536.745,-46.0691"/>
<polygon fill="black" stroke="black" points="540.245,-46.0288 536.745,-36.0288 533.245,-46.0289 540.245,-46.0288"/>
</g>
</g>
</svg>
