<?xml version="1.0" encoding="UTF-8" standalone="no"?>
<!DOCTYPE svg PUBLIC "-//W3C//DTD SVG 1.1//EN"
 "http://www.w3.org/Graphics/SVG/1.1/DTD/svg11.dtd">
<!-- Generated by graphviz version 2.38.0 (20140413.2041)
 -->
<!-- Title: G Pages: 1 -->
<svg width="1010pt" height="826pt"
 viewBox="0.00 0.00 1009.52 826.08" xmlns="http://www.w3.org/2000/svg" xmlns:xlink="http://www.w3.org/1999/xlink">
<g id="graph0" class="graph" transform="scale(1 1) rotate(0) translate(4 822.08)">
<title>G</title>
<polygon fill="white" stroke="none" points="-4,4 -4,-822.08 1005.52,-822.08 1005.52,4 -4,4"/>
<!-- Id00A553B0 -->
<g id="node1" class="node"><title>Id00A553B0</title>
<ellipse fill="none" stroke="black" cx="504.175" cy="-800.08" rx="41.6928" ry="18"/>
<text text-anchor="middle" x="504.175" y="-796.38" font-family="Times New Roman,serif" font-size="14.00">program</text>
</g>
<!-- Id00A53DB0 -->
<g id="node2" class="node"><title>Id00A53DB0</title>
<ellipse fill="none" stroke="black" cx="378.175" cy="-727.08" rx="27" ry="18"/>
<text text-anchor="middle" x="378.175" y="-723.38" font-family="Times New Roman,serif" font-size="14.00">stmt</text>
</g>
<!-- Id00A553B0&#45;&gt;Id00A53DB0 -->
<g id="edge6" class="edge"><title>Id00A553B0&#45;&gt;Id00A53DB0</title>
<path fill="none" stroke="black" d="M479.881,-785.391C459.107,-773.685 429.165,-756.813 407.146,-744.405"/>
<polygon fill="black" stroke="black" points="408.675,-741.249 398.245,-739.389 405.239,-747.348 408.675,-741.249"/>
</g>
<!-- Id00A54138 -->
<g id="node8" class="node"><title>Id00A54138</title>
<ellipse fill="none" stroke="black" cx="504.175" cy="-727.08" rx="27" ry="18"/>
<text text-anchor="middle" x="504.175" y="-723.38" font-family="Times New Roman,serif" font-size="14.00">stmt</text>
</g>
<!-- Id00A553B0&#45;&gt;Id00A54138 -->
<g id="edge29" class="edge"><title>Id00A553B0&#45;&gt;Id00A54138</title>
<path fill="none" stroke="black" d="M504.175,-781.893C504.175,-773.87 504.175,-764.128 504.175,-755.149"/>
<polygon fill="black" stroke="black" points="507.675,-755.109 504.175,-745.109 500.675,-755.109 507.675,-755.109"/>
</g>
<!-- Id00A54278 -->
<g id="node31" class="node"><title>Id00A54278</title>
<ellipse fill="none" stroke="black" cx="591.175" cy="-727.08" rx="27" ry="18"/>
<text text-anchor="middle" x="591.175" y="-723.38" font-family="Times New Roman,serif" font-size="14.00">stmt</text>
</g>
<!-- Id00A553B0&#45;&gt;Id00A54278 -->
<g id="edge35" class="edge"><title>Id00A553B0&#45;&gt;Id00A54278</title>
<path fill="none" stroke="black" d="M523.053,-783.674C535.8,-773.272 552.752,-759.437 566.557,-748.171"/>
<polygon fill="black" stroke="black" points="569.145,-750.576 574.68,-741.542 564.72,-745.153 569.145,-750.576"/>
</g>
<!-- Id00A53D40 -->
<g id="node3" class="node"><title>Id00A53D40</title>
<ellipse fill="none" stroke="black" cx="217.175" cy="-645.21" rx="27" ry="18"/>
<text text-anchor="middle" x="217.175" y="-641.51" font-family="Times New Roman,serif" font-size="14.00">=</text>
</g>
<!-- Id00A53DB0&#45;&gt;Id00A53D40 -->
<g id="edge5" class="edge"><title>Id00A53DB0&#45;&gt;Id00A53D40</title>
<path fill="none" stroke="black" d="M357.127,-715.639C329.164,-701.767 279.577,-677.167 247.558,-661.283"/>
<polygon fill="black" stroke="black" points="248.742,-657.963 238.228,-656.654 245.631,-664.234 248.742,-657.963"/>
</g>
<!-- Id00A451E8 -->
<g id="node4" class="node"><title>Id00A451E8</title>
<ellipse fill="none" stroke="black" cx="67.1751" cy="-529.864" rx="67.3507" ry="26.7407"/>
<text text-anchor="middle" x="67.1751" y="-533.664" font-family="Times New Roman,serif" font-size="14.00">var or method</text>
<text text-anchor="middle" x="67.1751" y="-518.664" font-family="Times New Roman,serif" font-size="14.00"> localnum = 1</text>
</g>
<!-- Id00A53D40&#45;&gt;Id00A451E8 -->
<g id="edge3" class="edge"><title>Id00A53D40&#45;&gt;Id00A451E8</title>
<path fill="none" stroke="black" d="M199.968,-631.208C177.178,-613.987 136.323,-583.115 105.926,-560.146"/>
<polygon fill="black" stroke="black" points="107.743,-557.131 97.6541,-553.895 103.522,-562.716 107.743,-557.131"/>
</g>
<!-- Id00A53CD0 -->
<g id="node6" class="node"><title>Id00A53CD0</title>
<ellipse fill="none" stroke="black" cx="217.175" cy="-529.864" rx="64.1938" ry="37.4533"/>
<text text-anchor="middle" x="217.175" y="-541.164" font-family="Times New Roman,serif" font-size="14.00">INT</text>
<text text-anchor="middle" x="217.175" y="-526.164" font-family="Times New Roman,serif" font-size="14.00"> mref = #16</text>
<text text-anchor="middle" x="217.175" y="-511.164" font-family="Times New Roman,serif" font-size="14.00"> val_id = #10</text>
</g>
<!-- Id00A53D40&#45;&gt;Id00A53CD0 -->
<g id="edge4" class="edge"><title>Id00A53D40&#45;&gt;Id00A53CD0</title>
<path fill="none" stroke="black" d="M217.175,-626.995C217.175,-613.846 217.175,-595.07 217.175,-577.596"/>
<polygon fill="black" stroke="black" points="220.675,-577.51 217.175,-567.51 213.675,-577.51 220.675,-577.51"/>
</g>
<!-- IdVal00A451E8 -->
<g id="node5" class="node"><title>IdVal00A451E8</title>
<ellipse fill="none" stroke="black" cx="67.1751" cy="-417.91" rx="27" ry="18"/>
<text text-anchor="middle" x="67.1751" y="-414.21" font-family="Times New Roman,serif" font-size="14.00">a</text>
</g>
<!-- Id00A451E8&#45;&gt;IdVal00A451E8 -->
<g id="edge1" class="edge"><title>Id00A451E8&#45;&gt;IdVal00A451E8</title>
<path fill="none" stroke="black" d="M67.1751,-502.806C67.1751,-485.767 67.1751,-463.546 67.1751,-446.254"/>
<polygon fill="black" stroke="black" points="70.6752,-446.215 67.1751,-436.215 63.6752,-446.215 70.6752,-446.215"/>
</g>
<!-- IdVal00A53CD0 -->
<g id="node7" class="node"><title>IdVal00A53CD0</title>
<ellipse fill="none" stroke="black" cx="178.175" cy="-417.91" rx="27" ry="18"/>
<text text-anchor="middle" x="178.175" y="-414.21" font-family="Times New Roman,serif" font-size="14.00">0</text>
</g>
<!-- Id00A53CD0&#45;&gt;IdVal00A53CD0 -->
<g id="edge2" class="edge"><title>Id00A53CD0&#45;&gt;IdVal00A53CD0</title>
<path fill="none" stroke="black" d="M204.405,-492.861C198.899,-477.338 192.578,-459.515 187.52,-445.256"/>
<polygon fill="black" stroke="black" points="190.732,-443.842 184.09,-435.587 184.135,-446.182 190.732,-443.842"/>
</g>
<!-- Id00A4E0F0 -->
<g id="node9" class="node"><title>Id00A4E0F0</title>
<ellipse fill="none" stroke="black" cx="504.175" cy="-645.21" rx="29.4969" ry="18"/>
<text text-anchor="middle" x="504.175" y="-641.51" font-family="Times New Roman,serif" font-size="14.00">while</text>
</g>
<!-- Id00A54138&#45;&gt;Id00A4E0F0 -->
<g id="edge28" class="edge"><title>Id00A54138&#45;&gt;Id00A4E0F0</title>
<path fill="none" stroke="black" d="M504.175,-708.75C504.175,-698.422 504.175,-685.088 504.175,-673.387"/>
<polygon fill="black" stroke="black" points="507.675,-673.233 504.175,-663.233 500.675,-673.233 507.675,-673.233"/>
</g>
<!-- Id00A53F10 -->
<g id="node10" class="node"><title>Id00A53F10</title>
<ellipse fill="none" stroke="black" cx="440.175" cy="-529.864" rx="58.8803" ry="26.7407"/>
<text text-anchor="middle" x="440.175" y="-533.664" font-family="Times New Roman,serif" font-size="14.00">&lt;</text>
<text text-anchor="middle" x="440.175" y="-518.664" font-family="Times New Roman,serif" font-size="14.00"> mref = #20</text>
</g>
<!-- Id00A4E0F0&#45;&gt;Id00A53F10 -->
<g id="edge11" class="edge"><title>Id00A4E0F0&#45;&gt;Id00A53F10</title>
<path fill="none" stroke="black" d="M489,-629.422C481.377,-621.368 472.453,-610.91 466.175,-600.34 459.918,-589.806 454.721,-577.507 450.66,-566.209"/>
<polygon fill="black" stroke="black" points="453.927,-564.943 447.386,-556.608 447.301,-567.202 453.927,-564.943"/>
<text text-anchor="middle" x="492.675" y="-589.14" font-family="Times New Roman,serif" font-size="14.00">condition</text>
</g>
<!-- Id00A4E358 -->
<g id="node15" class="node"><title>Id00A4E358</title>
<ellipse fill="none" stroke="black" cx="549.175" cy="-529.864" rx="29.795" ry="18"/>
<text text-anchor="middle" x="549.175" y="-526.164" font-family="Times New Roman,serif" font-size="14.00">body</text>
</g>
<!-- Id00A4E0F0&#45;&gt;Id00A4E358 -->
<g id="edge12" class="edge"><title>Id00A4E0F0&#45;&gt;Id00A4E358</title>
<path fill="none" stroke="black" d="M510.815,-627.486C518.193,-608.902 530.2,-578.657 538.817,-556.955"/>
<polygon fill="black" stroke="black" points="542.071,-558.243 542.508,-547.657 535.565,-555.66 542.071,-558.243"/>
</g>
<!-- Id00A53E30 -->
<g id="node11" class="node"><title>Id00A53E30</title>
<ellipse fill="none" stroke="black" cx="290.175" cy="-417.91" rx="67.3507" ry="26.7407"/>
<text text-anchor="middle" x="290.175" y="-421.71" font-family="Times New Roman,serif" font-size="14.00">var or method</text>
<text text-anchor="middle" x="290.175" y="-406.71" font-family="Times New Roman,serif" font-size="14.00"> localnum = 1</text>
</g>
<!-- Id00A53F10&#45;&gt;Id00A53E30 -->
<g id="edge9" class="edge"><title>Id00A53F10&#45;&gt;Id00A53E30</title>
<path fill="none" stroke="black" d="M409.82,-506.613C386.747,-489.699 354.81,-466.289 329.735,-447.908"/>
<polygon fill="black" stroke="black" points="331.652,-444.974 321.517,-441.885 327.513,-450.62 331.652,-444.974"/>
</g>
<!-- Id00A53EA0 -->
<g id="node13" class="node"><title>Id00A53EA0</title>
<ellipse fill="none" stroke="black" cx="440.175" cy="-417.91" rx="64.1938" ry="37.4533"/>
<text text-anchor="middle" x="440.175" y="-429.21" font-family="Times New Roman,serif" font-size="14.00">INT</text>
<text text-anchor="middle" x="440.175" y="-414.21" font-family="Times New Roman,serif" font-size="14.00"> mref = #16</text>
<text text-anchor="middle" x="440.175" y="-399.21" font-family="Times New Roman,serif" font-size="14.00"> val_id = #21</text>
</g>
<!-- Id00A53F10&#45;&gt;Id00A53EA0 -->
<g id="edge10" class="edge"><title>Id00A53F10&#45;&gt;Id00A53EA0</title>
<path fill="none" stroke="black" d="M440.175,-502.806C440.175,-491.682 440.175,-478.349 440.175,-465.621"/>
<polygon fill="black" stroke="black" points="443.675,-465.597 440.175,-455.597 436.675,-465.597 443.675,-465.597"/>
</g>
<!-- IdVal00A53E30 -->
<g id="node12" class="node"><title>IdVal00A53E30</title>
<ellipse fill="none" stroke="black" cx="290.175" cy="-316.563" rx="27" ry="18"/>
<text text-anchor="middle" x="290.175" y="-312.863" font-family="Times New Roman,serif" font-size="14.00">a</text>
</g>
<!-- Id00A53E30&#45;&gt;IdVal00A53E30 -->
<g id="edge7" class="edge"><title>Id00A53E30&#45;&gt;IdVal00A53E30</title>
<path fill="none" stroke="black" d="M290.175,-390.808C290.175,-376.698 290.175,-359.284 290.175,-344.977"/>
<polygon fill="black" stroke="black" points="293.675,-344.748 290.175,-334.748 286.675,-344.748 293.675,-344.748"/>
</g>
<!-- IdVal00A53EA0 -->
<g id="node14" class="node"><title>IdVal00A53EA0</title>
<ellipse fill="none" stroke="black" cx="440.175" cy="-316.563" rx="27" ry="18"/>
<text text-anchor="middle" x="440.175" y="-312.863" font-family="Times New Roman,serif" font-size="14.00">4</text>
</g>
<!-- Id00A53EA0&#45;&gt;IdVal00A53EA0 -->
<g id="edge8" class="edge"><title>Id00A53EA0&#45;&gt;IdVal00A53EA0</title>
<path fill="none" stroke="black" d="M440.175,-380.199C440.175,-368.509 440.175,-355.789 440.175,-344.884"/>
<polygon fill="black" stroke="black" points="443.675,-344.69 440.175,-334.69 436.675,-344.69 443.675,-344.69"/>
</g>
<!-- Id00A54408 -->
<g id="node16" class="node"><title>Id00A54408</title>
<ellipse fill="none" stroke="black" cx="549.175" cy="-417.91" rx="27" ry="18"/>
<text text-anchor="middle" x="549.175" y="-414.21" font-family="Times New Roman,serif" font-size="14.00">stmt</text>
</g>
<!-- Id00A4E358&#45;&gt;Id00A54408 -->
<g id="edge18" class="edge"><title>Id00A4E358&#45;&gt;Id00A54408</title>
<path fill="none" stroke="black" d="M549.175,-511.683C549.175,-494.174 549.175,-466.75 549.175,-446.252"/>
<polygon fill="black" stroke="black" points="552.675,-445.97 549.175,-435.97 545.675,-445.97 552.675,-445.97"/>
</g>
<!-- Id00A543B8 -->
<g id="node22" class="node"><title>Id00A543B8</title>
<ellipse fill="none" stroke="black" cx="625.175" cy="-417.91" rx="27" ry="18"/>
<text text-anchor="middle" x="625.175" y="-414.21" font-family="Times New Roman,serif" font-size="14.00">stmt</text>
</g>
<!-- Id00A4E358&#45;&gt;Id00A543B8 -->
<g id="edge27" class="edge"><title>Id00A4E358&#45;&gt;Id00A543B8</title>
<path fill="none" stroke="black" d="M560.389,-512.64C573.107,-494.241 593.968,-464.059 608.573,-442.93"/>
<polygon fill="black" stroke="black" points="611.6,-444.705 614.407,-434.489 605.842,-440.725 611.6,-444.705"/>
</g>
<!-- Id00A54020 -->
<g id="node17" class="node"><title>Id00A54020</title>
<ellipse fill="none" stroke="black" cx="545.175" cy="-316.563" rx="60.2083" ry="26.7407"/>
<text text-anchor="middle" x="545.175" y="-320.363" font-family="Times New Roman,serif" font-size="14.00">method_call</text>
<text text-anchor="middle" x="545.175" y="-305.363" font-family="Times New Roman,serif" font-size="14.00"> mref = #25</text>
</g>
<!-- Id00A54408&#45;&gt;Id00A54020 -->
<g id="edge17" class="edge"><title>Id00A54408&#45;&gt;Id00A54020</title>
<path fill="none" stroke="black" d="M548.478,-399.605C547.973,-387.048 547.27,-369.603 546.643,-354.027"/>
<polygon fill="black" stroke="black" points="550.124,-353.476 546.224,-343.625 543.13,-353.758 550.124,-353.476"/>
</g>
<!-- IdMethodNameVal00A54020 -->
<g id="node18" class="node"><title>IdMethodNameVal00A54020</title>
<ellipse fill="none" stroke="black" cx="455.175" cy="-211.823" rx="33.5952" ry="18"/>
<text text-anchor="middle" x="455.175" y="-208.123" font-family="Times New Roman,serif" font-size="14.00">println</text>
</g>
<!-- Id00A54020&#45;&gt;IdMethodNameVal00A54020 -->
<g id="edge13" class="edge"><title>Id00A54020&#45;&gt;IdMethodNameVal00A54020</title>
<path fill="none" stroke="black" d="M523.846,-291.216C509.194,-274.489 489.862,-252.42 475.443,-235.96"/>
<polygon fill="black" stroke="black" points="478.023,-233.594 468.801,-228.379 472.758,-238.207 478.023,-233.594"/>
<text text-anchor="middle" x="521.175" y="-260.493" font-family="Times New Roman,serif" font-size="14.00">name</text>
</g>
<!-- Id00A4E630 -->
<g id="node19" class="node"><title>Id00A4E630</title>
<ellipse fill="none" stroke="black" cx="544.175" cy="-211.823" rx="37.0935" ry="18"/>
<text text-anchor="middle" x="544.175" y="-208.123" font-family="Times New Roman,serif" font-size="14.00">params</text>
</g>
<!-- Id00A54020&#45;&gt;Id00A4E630 -->
<g id="edge14" class="edge"><title>Id00A54020&#45;&gt;Id00A4E630</title>
<path fill="none" stroke="black" d="M544.923,-289.638C544.777,-274.618 544.593,-255.715 544.444,-240.42"/>
<polygon fill="black" stroke="black" points="547.94,-239.992 544.343,-230.027 540.94,-240.061 547.94,-239.992"/>
</g>
<!-- Id00A53FB0 -->
<g id="node20" class="node"><title>Id00A53FB0</title>
<ellipse fill="none" stroke="black" cx="544.175" cy="-110.477" rx="67.3507" ry="26.7407"/>
<text text-anchor="middle" x="544.175" y="-114.277" font-family="Times New Roman,serif" font-size="14.00">var or method</text>
<text text-anchor="middle" x="544.175" y="-99.2767" font-family="Times New Roman,serif" font-size="14.00"> localnum = 1</text>
</g>
<!-- Id00A4E630&#45;&gt;Id00A53FB0 -->
<g id="edge16" class="edge"><title>Id00A4E630&#45;&gt;Id00A53FB0</title>
<path fill="none" stroke="black" d="M544.175,-193.518C544.175,-180.961 544.175,-163.517 544.175,-147.94"/>
<polygon fill="black" stroke="black" points="547.675,-147.538 544.175,-137.538 540.675,-147.538 547.675,-147.538"/>
</g>
<!-- IdVal00A53FB0 -->
<g id="node21" class="node"><title>IdVal00A53FB0</title>
<ellipse fill="none" stroke="black" cx="544.175" cy="-18" rx="27" ry="18"/>
<text text-anchor="middle" x="544.175" y="-14.3" font-family="Times New Roman,serif" font-size="14.00">a</text>
</g>
<!-- Id00A53FB0&#45;&gt;IdVal00A53FB0 -->
<g id="edge15" class="edge"><title>Id00A53FB0&#45;&gt;IdVal00A53FB0</title>
<path fill="none" stroke="black" d="M544.175,-83.3071C544.175,-71.7193 544.175,-58.0883 544.175,-46.3654"/>
<polygon fill="black" stroke="black" points="547.675,-46.2492 544.175,-36.2493 540.675,-46.2493 547.675,-46.2492"/>
</g>
<!-- Id00A54AB8 -->
<g id="node23" class="node"><title>Id00A54AB8</title>
<ellipse fill="none" stroke="black" cx="664.175" cy="-316.563" rx="27" ry="18"/>
<text text-anchor="middle" x="664.175" y="-312.863" font-family="Times New Roman,serif" font-size="14.00">=</text>
</g>
<!-- Id00A543B8&#45;&gt;Id00A54AB8 -->
<g id="edge26" class="edge"><title>Id00A543B8&#45;&gt;Id00A54AB8</title>
<path fill="none" stroke="black" d="M631.791,-400.057C637.851,-384.622 646.914,-361.533 653.913,-343.704"/>
<polygon fill="black" stroke="black" points="657.261,-344.755 657.657,-334.167 650.745,-342.197 657.261,-344.755"/>
</g>
<!-- Id00A548C8 -->
<g id="node24" class="node"><title>Id00A548C8</title>
<ellipse fill="none" stroke="black" cx="666.175" cy="-211.823" rx="67.3507" ry="26.7407"/>
<text text-anchor="middle" x="666.175" y="-215.623" font-family="Times New Roman,serif" font-size="14.00">var or method</text>
<text text-anchor="middle" x="666.175" y="-200.623" font-family="Times New Roman,serif" font-size="14.00"> localnum = 1</text>
</g>
<!-- Id00A54AB8&#45;&gt;Id00A548C8 -->
<g id="edge24" class="edge"><title>Id00A54AB8&#45;&gt;Id00A548C8</title>
<path fill="none" stroke="black" d="M664.514,-298.135C664.777,-284.67 665.148,-265.575 665.474,-248.862"/>
<polygon fill="black" stroke="black" points="668.973,-248.902 665.669,-238.836 661.975,-248.766 668.973,-248.902"/>
</g>
<!-- Id00A54A48 -->
<g id="node26" class="node"><title>Id00A54A48</title>
<ellipse fill="none" stroke="black" cx="810.175" cy="-211.823" rx="58.8803" ry="26.7407"/>
<text text-anchor="middle" x="810.175" y="-215.623" font-family="Times New Roman,serif" font-size="14.00">+</text>
<text text-anchor="middle" x="810.175" y="-200.623" font-family="Times New Roman,serif" font-size="14.00"> mref = #28</text>
</g>
<!-- Id00A54AB8&#45;&gt;Id00A54A48 -->
<g id="edge25" class="edge"><title>Id00A54AB8&#45;&gt;Id00A54A48</title>
<path fill="none" stroke="black" d="M682.087,-302.621C687.851,-298.476 694.272,-293.876 700.175,-289.693 723.398,-273.236 749.507,-254.98 770.459,-240.39"/>
<polygon fill="black" stroke="black" points="772.596,-243.167 778.805,-234.583 768.597,-237.422 772.596,-243.167"/>
</g>
<!-- IdVal00A548C8 -->
<g id="node25" class="node"><title>IdVal00A548C8</title>
<ellipse fill="none" stroke="black" cx="666.175" cy="-110.477" rx="27" ry="18"/>
<text text-anchor="middle" x="666.175" y="-106.777" font-family="Times New Roman,serif" font-size="14.00">a</text>
</g>
<!-- Id00A548C8&#45;&gt;IdVal00A548C8 -->
<g id="edge19" class="edge"><title>Id00A548C8&#45;&gt;IdVal00A548C8</title>
<path fill="none" stroke="black" d="M666.175,-184.721C666.175,-170.611 666.175,-153.198 666.175,-138.89"/>
<polygon fill="black" stroke="black" points="669.675,-138.661 666.175,-128.661 662.675,-138.661 669.675,-138.661"/>
</g>
<!-- Id00A54968 -->
<g id="node27" class="node"><title>Id00A54968</title>
<ellipse fill="none" stroke="black" cx="787.175" cy="-110.477" rx="67.3507" ry="26.7407"/>
<text text-anchor="middle" x="787.175" y="-114.277" font-family="Times New Roman,serif" font-size="14.00">var or method</text>
<text text-anchor="middle" x="787.175" y="-99.2767" font-family="Times New Roman,serif" font-size="14.00"> localnum = 1</text>
</g>
<!-- Id00A54A48&#45;&gt;Id00A54968 -->
<g id="edge22" class="edge"><title>Id00A54A48&#45;&gt;Id00A54968</title>
<path fill="none" stroke="black" d="M804.192,-184.981C801.551,-173.572 798.401,-159.965 795.533,-147.578"/>
<polygon fill="black" stroke="black" points="798.873,-146.488 793.208,-137.535 792.054,-148.067 798.873,-146.488"/>
</g>
<!-- Id00A549D8 -->
<g id="node29" class="node"><title>Id00A549D8</title>
<ellipse fill="none" stroke="black" cx="937.175" cy="-110.477" rx="64.1938" ry="37.4533"/>
<text text-anchor="middle" x="937.175" y="-121.777" font-family="Times New Roman,serif" font-size="14.00">INT</text>
<text text-anchor="middle" x="937.175" y="-106.777" font-family="Times New Roman,serif" font-size="14.00"> mref = #16</text>
<text text-anchor="middle" x="937.175" y="-91.7767" font-family="Times New Roman,serif" font-size="14.00"> val_id = #29</text>
</g>
<!-- Id00A54A48&#45;&gt;Id00A549D8 -->
<g id="edge23" class="edge"><title>Id00A54A48&#45;&gt;Id00A549D8</title>
<path fill="none" stroke="black" d="M838.993,-188.28C854.479,-176.167 873.933,-160.948 891.432,-147.26"/>
<polygon fill="black" stroke="black" points="893.593,-150.013 899.313,-141.095 889.28,-144.499 893.593,-150.013"/>
</g>
<!-- IdVal00A54968 -->
<g id="node28" class="node"><title>IdVal00A54968</title>
<ellipse fill="none" stroke="black" cx="787.175" cy="-18" rx="27" ry="18"/>
<text text-anchor="middle" x="787.175" y="-14.3" font-family="Times New Roman,serif" font-size="14.00">a</text>
</g>
<!-- Id00A54968&#45;&gt;IdVal00A54968 -->
<g id="edge20" class="edge"><title>Id00A54968&#45;&gt;IdVal00A54968</title>
<path fill="none" stroke="black" d="M787.175,-83.3071C787.175,-71.7193 787.175,-58.0883 787.175,-46.3654"/>
<polygon fill="black" stroke="black" points="790.675,-46.2492 787.175,-36.2493 783.675,-46.2493 790.675,-46.2492"/>
</g>
<!-- IdVal00A549D8 -->
<g id="node30" class="node"><title>IdVal00A549D8</title>
<ellipse fill="none" stroke="black" cx="937.175" cy="-18" rx="27" ry="18"/>
<text text-anchor="middle" x="937.175" y="-14.3" font-family="Times New Roman,serif" font-size="14.00">1</text>
</g>
<!-- Id00A549D8&#45;&gt;IdVal00A549D8 -->
<g id="edge21" class="edge"><title>Id00A549D8&#45;&gt;IdVal00A549D8</title>
<path fill="none" stroke="black" d="M937.175,-72.9371C937.175,-63.9712 937.175,-54.5316 937.175,-46.0996"/>
<polygon fill="black" stroke="black" points="940.675,-46.0694 937.175,-36.0695 933.675,-46.0695 940.675,-46.0694"/>
</g>
<!-- Id00A54B90 -->
<g id="node32" class="node"><title>Id00A54B90</title>
<ellipse fill="none" stroke="black" cx="635.175" cy="-645.21" rx="60.2083" ry="26.7407"/>
<text text-anchor="middle" x="635.175" y="-649.01" font-family="Times New Roman,serif" font-size="14.00">method_call</text>
<text text-anchor="middle" x="635.175" y="-634.01" font-family="Times New Roman,serif" font-size="14.00"> mref = #25</text>
</g>
<!-- Id00A54278&#45;&gt;Id00A54B90 -->
<g id="edge34" class="edge"><title>Id00A54278&#45;&gt;Id00A54B90</title>
<path fill="none" stroke="black" d="M600.079,-709.917C604.779,-701.386 610.733,-690.578 616.396,-680.298"/>
<polygon fill="black" stroke="black" points="619.499,-681.919 621.259,-671.471 613.368,-678.541 619.499,-681.919"/>
</g>
<!-- IdMethodNameVal00A54B90 -->
<g id="node33" class="node"><title>IdMethodNameVal00A54B90</title>
<ellipse fill="none" stroke="black" cx="635.175" cy="-529.864" rx="33.5952" ry="18"/>
<text text-anchor="middle" x="635.175" y="-526.164" font-family="Times New Roman,serif" font-size="14.00">println</text>
</g>
<!-- Id00A54B90&#45;&gt;IdMethodNameVal00A54B90 -->
<g id="edge30" class="edge"><title>Id00A54B90&#45;&gt;IdMethodNameVal00A54B90</title>
<path fill="none" stroke="black" d="M635.175,-618.206C635.175,-600.176 635.175,-576.22 635.175,-557.958"/>
<polygon fill="black" stroke="black" points="638.675,-557.951 635.175,-547.951 631.675,-557.951 638.675,-557.951"/>
<text text-anchor="middle" x="650.175" y="-589.14" font-family="Times New Roman,serif" font-size="14.00">name</text>
</g>
<!-- Id00A4E160 -->
<g id="node34" class="node"><title>Id00A4E160</title>
<ellipse fill="none" stroke="black" cx="726.175" cy="-529.864" rx="37.0935" ry="18"/>
<text text-anchor="middle" x="726.175" y="-526.164" font-family="Times New Roman,serif" font-size="14.00">params</text>
</g>
<!-- Id00A54B90&#45;&gt;Id00A4E160 -->
<g id="edge31" class="edge"><title>Id00A54B90&#45;&gt;Id00A4E160</title>
<path fill="none" stroke="black" d="M654.921,-619.616C670.312,-600.445 691.564,-573.974 706.848,-554.937"/>
<polygon fill="black" stroke="black" points="709.671,-557.011 713.202,-547.022 704.212,-552.629 709.671,-557.011"/>
</g>
<!-- Id00A54DC0 -->
<g id="node35" class="node"><title>Id00A54DC0</title>
<ellipse fill="none" stroke="black" cx="736.175" cy="-417.91" rx="64.1938" ry="37.4533"/>
<text text-anchor="middle" x="736.175" y="-429.21" font-family="Times New Roman,serif" font-size="14.00">INT</text>
<text text-anchor="middle" x="736.175" y="-414.21" font-family="Times New Roman,serif" font-size="14.00"> mref = #16</text>
<text text-anchor="middle" x="736.175" y="-399.21" font-family="Times New Roman,serif" font-size="14.00"> val_id = #34</text>
</g>
<!-- Id00A4E160&#45;&gt;Id00A54DC0 -->
<g id="edge33" class="edge"><title>Id00A4E160&#45;&gt;Id00A54DC0</title>
<path fill="none" stroke="black" d="M727.738,-511.683C728.866,-499.279 730.446,-481.899 731.935,-465.53"/>
<polygon fill="black" stroke="black" points="735.425,-465.799 732.845,-455.523 728.454,-465.165 735.425,-465.799"/>
</g>
<!-- IdVal00A54DC0 -->
<g id="node36" class="node"><title>IdVal00A54DC0</title>
<ellipse fill="none" stroke="black" cx="736.175" cy="-316.563" rx="27" ry="18"/>
<text text-anchor="middle" x="736.175" y="-312.863" font-family="Times New Roman,serif" font-size="14.00">123</text>
</g>
<!-- Id00A54DC0&#45;&gt;IdVal00A54DC0 -->
<g id="edge32" class="edge"><title>Id00A54DC0&#45;&gt;IdVal00A54DC0</title>
<path fill="none" stroke="black" d="M736.175,-380.199C736.175,-368.509 736.175,-355.789 736.175,-344.884"/>
<polygon fill="black" stroke="black" points="739.675,-344.69 736.175,-334.69 732.675,-344.69 739.675,-344.69"/>
</g>
</g>
</svg>
