<?xml version="1.0" encoding="UTF-8" standalone="no"?>
<!DOCTYPE svg PUBLIC "-//W3C//DTD SVG 1.1//EN"
 "http://www.w3.org/Graphics/SVG/1.1/DTD/svg11.dtd">
<!-- Generated by graphviz version 2.38.0 (20140413.2041)
 -->
<!-- Title: G Pages: 1 -->
<svg width="142pt" height="423pt"
 viewBox="0.00 0.00 141.85 423.00" xmlns="http://www.w3.org/2000/svg" xmlns:xlink="http://www.w3.org/1999/xlink">
<g id="graph0" class="graph" transform="scale(1 1) rotate(0) translate(4 419)">
<title>G</title>
<polygon fill="white" stroke="none" points="-4,4 -4,-419 137.847,-419 137.847,4 -4,4"/>
<!-- Id00D4C988 -->
<g id="node1" class="node"><title>Id00D4C988</title>
<ellipse fill="none" stroke="black" cx="57" cy="-397" rx="41.6928" ry="18"/>
<text text-anchor="middle" x="57" y="-393.3" font-family="Times New Roman,serif" font-size="14.00">program</text>
</g>
<!-- Id00D4C900 -->
<g id="node2" class="node"><title>Id00D4C900</title>
<ellipse fill="none" stroke="black" cx="57" cy="-324" rx="27" ry="18"/>
<text text-anchor="middle" x="57" y="-320.3" font-family="Times New Roman,serif" font-size="14.00">stmt</text>
</g>
<!-- Id00D4C988&#45;&gt;Id00D4C900 -->
<g id="edge6" class="edge"><title>Id00D4C988&#45;&gt;Id00D4C900</title>
<path fill="none" stroke="black" d="M57,-378.813C57,-370.789 57,-361.047 57,-352.069"/>
<polygon fill="black" stroke="black" points="60.5001,-352.029 57,-342.029 53.5001,-352.029 60.5001,-352.029"/>
</g>
<!-- Id00D4C8C8 -->
<g id="node3" class="node"><title>Id00D4C8C8</title>
<ellipse fill="none" stroke="black" cx="57" cy="-251" rx="54.6905" ry="18"/>
<text text-anchor="middle" x="57" y="-247.3" font-family="Times New Roman,serif" font-size="14.00">def_method</text>
</g>
<!-- Id00D4C900&#45;&gt;Id00D4C8C8 -->
<g id="edge5" class="edge"><title>Id00D4C900&#45;&gt;Id00D4C8C8</title>
<path fill="none" stroke="black" d="M57,-305.813C57,-297.789 57,-288.047 57,-279.069"/>
<polygon fill="black" stroke="black" points="60.5001,-279.029 57,-269.029 53.5001,-279.029 60.5001,-279.029"/>
</g>
<!-- IdName00D4C8C8 -->
<g id="node4" class="node"><title>IdName00D4C8C8</title>
<ellipse fill="none" stroke="black" cx="27" cy="-164" rx="27" ry="18"/>
<text text-anchor="middle" x="27" y="-160.3" font-family="Times New Roman,serif" font-size="14.00">a</text>
</g>
<!-- Id00D4C8C8&#45;&gt;IdName00D4C8C8 -->
<g id="edge1" class="edge"><title>Id00D4C8C8&#45;&gt;IdName00D4C8C8</title>
<path fill="none" stroke="black" d="M49.9204,-233.003C47.6255,-227.312 45.1254,-220.912 43,-215 40.2559,-207.367 37.4859,-198.998 35.0398,-191.327"/>
<polygon fill="black" stroke="black" points="38.3733,-190.26 32.0401,-181.766 31.6943,-192.355 38.3733,-190.26"/>
<text text-anchor="middle" x="58" y="-203.8" font-family="Times New Roman,serif" font-size="14.00">name</text>
</g>
<!-- Id00D4C890 -->
<g id="node5" class="node"><title>Id00D4C890</title>
<ellipse fill="none" stroke="black" cx="102" cy="-164" rx="29.795" ry="18"/>
<text text-anchor="middle" x="102" y="-160.3" font-family="Times New Roman,serif" font-size="14.00">body</text>
</g>
<!-- Id00D4C8C8&#45;&gt;Id00D4C890 -->
<g id="edge4" class="edge"><title>Id00D4C8C8&#45;&gt;Id00D4C890</title>
<path fill="none" stroke="black" d="M65.8906,-233.207C72.3421,-221.021 81.1848,-204.318 88.5048,-190.491"/>
<polygon fill="black" stroke="black" points="91.6954,-191.945 93.281,-181.469 85.5088,-188.669 91.6954,-191.945"/>
</g>
<!-- Id00D4C840 -->
<g id="node6" class="node"><title>Id00D4C840</title>
<ellipse fill="none" stroke="black" cx="102" cy="-91" rx="27" ry="18"/>
<text text-anchor="middle" x="102" y="-87.3" font-family="Times New Roman,serif" font-size="14.00">stmt</text>
</g>
<!-- Id00D4C890&#45;&gt;Id00D4C840 -->
<g id="edge3" class="edge"><title>Id00D4C890&#45;&gt;Id00D4C840</title>
<path fill="none" stroke="black" d="M102,-145.813C102,-137.789 102,-128.047 102,-119.069"/>
<polygon fill="black" stroke="black" points="105.5,-119.029 102,-109.029 98.5001,-119.029 105.5,-119.029"/>
</g>
<!-- IdName00D4C840 -->
<g id="node7" class="node"><title>IdName00D4C840</title>
<ellipse fill="none" stroke="black" cx="102" cy="-18" rx="31.6951" ry="18"/>
<text text-anchor="middle" x="102" y="-14.3" font-family="Times New Roman,serif" font-size="14.00">return</text>
</g>
<!-- Id00D4C840&#45;&gt;IdName00D4C840 -->
<g id="edge2" class="edge"><title>Id00D4C840&#45;&gt;IdName00D4C840</title>
<path fill="none" stroke="black" d="M102,-72.8129C102,-64.7895 102,-55.0475 102,-46.0691"/>
<polygon fill="black" stroke="black" points="105.5,-46.0288 102,-36.0288 98.5001,-46.0289 105.5,-46.0288"/>
</g>
</g>
</svg>
