<?xml version="1.0" encoding="UTF-8" standalone="no"?>
<!DOCTYPE svg PUBLIC "-//W3C//DTD SVG 1.1//EN"
 "http://www.w3.org/Graphics/SVG/1.1/DTD/svg11.dtd">
<!-- Generated by graphviz version 2.38.0 (20140413.2041)
 -->
<!-- Title: G Pages: 1 -->
<svg width="1239pt" height="510pt"
 viewBox="0.00 0.00 1238.74 510.00" xmlns="http://www.w3.org/2000/svg" xmlns:xlink="http://www.w3.org/1999/xlink">
<g id="graph0" class="graph" transform="scale(1 1) rotate(0) translate(4 506)">
<title>G</title>
<polygon fill="white" stroke="none" points="-4,4 -4,-506 1234.74,-506 1234.74,4 -4,4"/>
<!-- Id00F73BA8 -->
<g id="node1" class="node"><title>Id00F73BA8</title>
<ellipse fill="none" stroke="black" cx="620.745" cy="-484" rx="41.6928" ry="18"/>
<text text-anchor="middle" x="620.745" y="-480.3" font-family="Times New Roman,serif" font-size="14.00">program</text>
</g>
<!-- Id00F72600 -->
<g id="node2" class="node"><title>Id00F72600</title>
<ellipse fill="none" stroke="black" cx="403.745" cy="-411" rx="27" ry="18"/>
<text text-anchor="middle" x="403.745" y="-407.3" font-family="Times New Roman,serif" font-size="14.00">stmt</text>
</g>
<!-- Id00F73BA8&#45;&gt;Id00F72600 -->
<g id="edge13" class="edge"><title>Id00F73BA8&#45;&gt;Id00F72600</title>
<path fill="none" stroke="black" d="M588.257,-472.371C547.515,-459.04 478.037,-436.308 436.957,-422.867"/>
<polygon fill="black" stroke="black" points="438,-419.525 427.407,-419.742 435.823,-426.178 438,-419.525"/>
</g>
<!-- Id00F72740 -->
<g id="node15" class="node"><title>Id00F72740</title>
<ellipse fill="none" stroke="black" cx="537.745" cy="-411" rx="27" ry="18"/>
<text text-anchor="middle" x="537.745" y="-407.3" font-family="Times New Roman,serif" font-size="14.00">stmt</text>
</g>
<!-- Id00F73BA8&#45;&gt;Id00F72740 -->
<g id="edge28" class="edge"><title>Id00F73BA8&#45;&gt;Id00F72740</title>
<path fill="none" stroke="black" d="M602.735,-467.594C590.653,-457.259 574.611,-443.536 561.488,-432.31"/>
<polygon fill="black" stroke="black" points="563.63,-429.537 553.755,-425.696 559.079,-434.856 563.63,-429.537"/>
</g>
<!-- Id00F72510 -->
<g id="node30" class="node"><title>Id00F72510</title>
<ellipse fill="none" stroke="black" cx="620.745" cy="-411" rx="27" ry="18"/>
<text text-anchor="middle" x="620.745" y="-407.3" font-family="Times New Roman,serif" font-size="14.00">stmt</text>
</g>
<!-- Id00F73BA8&#45;&gt;Id00F72510 -->
<g id="edge33" class="edge"><title>Id00F73BA8&#45;&gt;Id00F72510</title>
<path fill="none" stroke="black" d="M620.745,-465.813C620.745,-457.789 620.745,-448.047 620.745,-439.069"/>
<polygon fill="black" stroke="black" points="624.245,-439.029 620.745,-429.029 617.245,-439.029 624.245,-439.029"/>
</g>
<!-- Id00F72420 -->
<g id="node35" class="node"><title>Id00F72420</title>
<ellipse fill="none" stroke="black" cx="726.745" cy="-411" rx="27" ry="18"/>
<text text-anchor="middle" x="726.745" y="-407.3" font-family="Times New Roman,serif" font-size="14.00">stmt</text>
</g>
<!-- Id00F73BA8&#45;&gt;Id00F72420 -->
<g id="edge39" class="edge"><title>Id00F73BA8&#45;&gt;Id00F72420</title>
<path fill="none" stroke="black" d="M642.451,-468.461C658.956,-457.405 681.77,-442.125 699.501,-430.248"/>
<polygon fill="black" stroke="black" points="701.89,-432.861 708.25,-424.388 697.994,-427.045 701.89,-432.861"/>
</g>
<!-- Id00F72EF0 -->
<g id="node41" class="node"><title>Id00F72EF0</title>
<ellipse fill="none" stroke="black" cx="853.745" cy="-411" rx="27" ry="18"/>
<text text-anchor="middle" x="853.745" y="-407.3" font-family="Times New Roman,serif" font-size="14.00">stmt</text>
</g>
<!-- Id00F73BA8&#45;&gt;Id00F72EF0 -->
<g id="edge48" class="edge"><title>Id00F73BA8&#45;&gt;Id00F72EF0</title>
<path fill="none" stroke="black" d="M653.634,-472.978C697.624,-459.573 775.231,-435.925 819.768,-422.353"/>
<polygon fill="black" stroke="black" points="820.997,-425.638 829.542,-419.375 818.956,-418.942 820.997,-425.638"/>
</g>
<!-- Id00F720B0 -->
<g id="node3" class="node"><title>Id00F720B0</title>
<ellipse fill="none" stroke="black" cx="211.745" cy="-338" rx="27" ry="18"/>
<text text-anchor="middle" x="211.745" y="-334.3" font-family="Times New Roman,serif" font-size="14.00">=</text>
</g>
<!-- Id00F72600&#45;&gt;Id00F720B0 -->
<g id="edge12" class="edge"><title>Id00F72600&#45;&gt;Id00F720B0</title>
<path fill="none" stroke="black" d="M380.585,-401.436C346.709,-388.909 283.477,-365.526 244.745,-351.203"/>
<polygon fill="black" stroke="black" points="245.58,-347.78 234.986,-347.595 243.152,-354.346 245.58,-347.78"/>
</g>
<!-- Id00F69908 -->
<g id="node4" class="node"><title>Id00F69908</title>
<ellipse fill="none" stroke="black" cx="61.7445" cy="-251" rx="61.99" ry="18"/>
<text text-anchor="middle" x="61.7445" y="-247.3" font-family="Times New Roman,serif" font-size="14.00">var or method</text>
</g>
<!-- Id00F720B0&#45;&gt;Id00F69908 -->
<g id="edge10" class="edge"><title>Id00F720B0&#45;&gt;Id00F69908</title>
<path fill="none" stroke="black" d="M191.826,-325.713C167.776,-312.084 126.885,-288.913 97.3611,-272.183"/>
<polygon fill="black" stroke="black" points="99.0204,-269.1 88.5946,-267.215 95.5693,-275.19 99.0204,-269.1"/>
</g>
<!-- Id00F723D0 -->
<g id="node6" class="node"><title>Id00F723D0</title>
<ellipse fill="none" stroke="black" cx="211.745" cy="-251" rx="28.6953" ry="18"/>
<text text-anchor="middle" x="211.745" y="-247.3" font-family="Times New Roman,serif" font-size="14.00">array</text>
</g>
<!-- Id00F720B0&#45;&gt;Id00F723D0 -->
<g id="edge11" class="edge"><title>Id00F720B0&#45;&gt;Id00F723D0</title>
<path fill="none" stroke="black" d="M211.745,-319.799C211.745,-308.163 211.745,-292.548 211.745,-279.237"/>
<polygon fill="black" stroke="black" points="215.245,-279.175 211.745,-269.175 208.245,-279.175 215.245,-279.175"/>
</g>
<!-- IdVal00F69908 -->
<g id="node5" class="node"><title>IdVal00F69908</title>
<ellipse fill="none" stroke="black" cx="36.7445" cy="-164" rx="27" ry="18"/>
<text text-anchor="middle" x="36.7445" y="-160.3" font-family="Times New Roman,serif" font-size="14.00">a</text>
</g>
<!-- Id00F69908&#45;&gt;IdVal00F69908 -->
<g id="edge1" class="edge"><title>Id00F69908&#45;&gt;IdVal00F69908</title>
<path fill="none" stroke="black" d="M56.6854,-232.799C53.2063,-220.97 48.5181,-205.03 44.5616,-191.578"/>
<polygon fill="black" stroke="black" points="47.8903,-190.491 41.7108,-181.885 41.1748,-192.467 47.8903,-190.491"/>
</g>
<!-- Id00F69958 -->
<g id="node7" class="node"><title>Id00F69958</title>
<ellipse fill="none" stroke="black" cx="108.745" cy="-164" rx="27" ry="18"/>
<text text-anchor="middle" x="108.745" y="-160.3" font-family="Times New Roman,serif" font-size="14.00">INT</text>
</g>
<!-- Id00F723D0&#45;&gt;Id00F69958 -->
<g id="edge3" class="edge"><title>Id00F723D0&#45;&gt;Id00F69958</title>
<path fill="none" stroke="black" d="M194.736,-235.964C177.913,-222.081 152.002,-200.698 133.018,-185.031"/>
<polygon fill="black" stroke="black" points="135.038,-182.16 125.097,-178.495 130.582,-187.559 135.038,-182.16"/>
</g>
<!-- Id00F699E0 -->
<g id="node9" class="node"><title>Id00F699E0</title>
<ellipse fill="none" stroke="black" cx="180.745" cy="-164" rx="27" ry="18"/>
<text text-anchor="middle" x="180.745" y="-160.3" font-family="Times New Roman,serif" font-size="14.00">INT</text>
</g>
<!-- Id00F723D0&#45;&gt;Id00F699E0 -->
<g id="edge5" class="edge"><title>Id00F723D0&#45;&gt;Id00F699E0</title>
<path fill="none" stroke="black" d="M205.62,-233.207C201.247,-221.216 195.278,-204.851 190.284,-191.157"/>
<polygon fill="black" stroke="black" points="193.571,-189.954 186.856,-181.758 186.995,-192.352 193.571,-189.954"/>
</g>
<!-- Id00F69A30 -->
<g id="node11" class="node"><title>Id00F69A30</title>
<ellipse fill="none" stroke="black" cx="252.745" cy="-164" rx="27" ry="18"/>
<text text-anchor="middle" x="252.745" y="-160.3" font-family="Times New Roman,serif" font-size="14.00">INT</text>
</g>
<!-- Id00F723D0&#45;&gt;Id00F69A30 -->
<g id="edge7" class="edge"><title>Id00F723D0&#45;&gt;Id00F69A30</title>
<path fill="none" stroke="black" d="M219.65,-233.611C225.549,-221.382 233.719,-204.443 240.466,-190.456"/>
<polygon fill="black" stroke="black" points="243.671,-191.866 244.864,-181.339 237.367,-188.825 243.671,-191.866"/>
</g>
<!-- Id00F72060 -->
<g id="node13" class="node"><title>Id00F72060</title>
<ellipse fill="none" stroke="black" cx="324.745" cy="-164" rx="27" ry="18"/>
<text text-anchor="middle" x="324.745" y="-160.3" font-family="Times New Roman,serif" font-size="14.00">INT</text>
</g>
<!-- Id00F723D0&#45;&gt;Id00F72060 -->
<g id="edge9" class="edge"><title>Id00F723D0&#45;&gt;Id00F72060</title>
<path fill="none" stroke="black" d="M229.401,-236.719C248.168,-222.602 278.018,-200.148 299.317,-184.127"/>
<polygon fill="black" stroke="black" points="301.695,-186.718 307.582,-177.91 297.487,-181.124 301.695,-186.718"/>
</g>
<!-- IdVal00F69958 -->
<g id="node8" class="node"><title>IdVal00F69958</title>
<ellipse fill="none" stroke="black" cx="108.745" cy="-91" rx="27" ry="18"/>
<text text-anchor="middle" x="108.745" y="-87.3" font-family="Times New Roman,serif" font-size="14.00">1</text>
</g>
<!-- Id00F69958&#45;&gt;IdVal00F69958 -->
<g id="edge2" class="edge"><title>Id00F69958&#45;&gt;IdVal00F69958</title>
<path fill="none" stroke="black" d="M108.745,-145.813C108.745,-137.789 108.745,-128.047 108.745,-119.069"/>
<polygon fill="black" stroke="black" points="112.245,-119.029 108.745,-109.029 105.245,-119.029 112.245,-119.029"/>
</g>
<!-- IdVal00F699E0 -->
<g id="node10" class="node"><title>IdVal00F699E0</title>
<ellipse fill="none" stroke="black" cx="180.745" cy="-91" rx="27" ry="18"/>
<text text-anchor="middle" x="180.745" y="-87.3" font-family="Times New Roman,serif" font-size="14.00">2</text>
</g>
<!-- Id00F699E0&#45;&gt;IdVal00F699E0 -->
<g id="edge4" class="edge"><title>Id00F699E0&#45;&gt;IdVal00F699E0</title>
<path fill="none" stroke="black" d="M180.745,-145.813C180.745,-137.789 180.745,-128.047 180.745,-119.069"/>
<polygon fill="black" stroke="black" points="184.245,-119.029 180.745,-109.029 177.245,-119.029 184.245,-119.029"/>
</g>
<!-- IdVal00F69A30 -->
<g id="node12" class="node"><title>IdVal00F69A30</title>
<ellipse fill="none" stroke="black" cx="252.745" cy="-91" rx="27" ry="18"/>
<text text-anchor="middle" x="252.745" y="-87.3" font-family="Times New Roman,serif" font-size="14.00">3</text>
</g>
<!-- Id00F69A30&#45;&gt;IdVal00F69A30 -->
<g id="edge6" class="edge"><title>Id00F69A30&#45;&gt;IdVal00F69A30</title>
<path fill="none" stroke="black" d="M252.745,-145.813C252.745,-137.789 252.745,-128.047 252.745,-119.069"/>
<polygon fill="black" stroke="black" points="256.245,-119.029 252.745,-109.029 249.245,-119.029 256.245,-119.029"/>
</g>
<!-- IdVal00F72060 -->
<g id="node14" class="node"><title>IdVal00F72060</title>
<ellipse fill="none" stroke="black" cx="324.745" cy="-91" rx="27" ry="18"/>
<text text-anchor="middle" x="324.745" y="-87.3" font-family="Times New Roman,serif" font-size="14.00">4</text>
</g>
<!-- Id00F72060&#45;&gt;IdVal00F72060 -->
<g id="edge8" class="edge"><title>Id00F72060&#45;&gt;IdVal00F72060</title>
<path fill="none" stroke="black" d="M324.745,-145.813C324.745,-137.789 324.745,-128.047 324.745,-119.069"/>
<polygon fill="black" stroke="black" points="328.245,-119.029 324.745,-109.029 321.245,-119.029 328.245,-119.029"/>
</g>
<!-- Id00F71FC0 -->
<g id="node16" class="node"><title>Id00F71FC0</title>
<ellipse fill="none" stroke="black" cx="504.745" cy="-338" rx="27" ry="18"/>
<text text-anchor="middle" x="504.745" y="-334.3" font-family="Times New Roman,serif" font-size="14.00">=</text>
</g>
<!-- Id00F72740&#45;&gt;Id00F71FC0 -->
<g id="edge27" class="edge"><title>Id00F72740&#45;&gt;Id00F71FC0</title>
<path fill="none" stroke="black" d="M530.091,-393.533C526.092,-384.93 521.11,-374.21 516.623,-364.557"/>
<polygon fill="black" stroke="black" points="519.746,-362.971 512.357,-355.378 513.398,-365.922 519.746,-362.971"/>
</g>
<!-- Id00F72650 -->
<g id="node17" class="node"><title>Id00F72650</title>
<ellipse fill="none" stroke="black" cx="396.745" cy="-251" rx="61.99" ry="18"/>
<text text-anchor="middle" x="396.745" y="-247.3" font-family="Times New Roman,serif" font-size="14.00">var or method</text>
</g>
<!-- Id00F71FC0&#45;&gt;Id00F72650 -->
<g id="edge25" class="edge"><title>Id00F71FC0&#45;&gt;Id00F72650</title>
<path fill="none" stroke="black" d="M487.87,-323.719C471.08,-310.505 445.009,-289.986 425.048,-274.276"/>
<polygon fill="black" stroke="black" points="427.208,-271.522 417.185,-268.088 422.879,-277.023 427.208,-271.522"/>
</g>
<!-- Id00F721A0 -->
<g id="node19" class="node"><title>Id00F721A0</title>
<ellipse fill="none" stroke="black" cx="504.745" cy="-251" rx="28.6953" ry="18"/>
<text text-anchor="middle" x="504.745" y="-247.3" font-family="Times New Roman,serif" font-size="14.00">array</text>
</g>
<!-- Id00F71FC0&#45;&gt;Id00F721A0 -->
<g id="edge26" class="edge"><title>Id00F71FC0&#45;&gt;Id00F721A0</title>
<path fill="none" stroke="black" d="M504.745,-319.799C504.745,-308.163 504.745,-292.548 504.745,-279.237"/>
<polygon fill="black" stroke="black" points="508.245,-279.175 504.745,-269.175 501.245,-279.175 508.245,-279.175"/>
</g>
<!-- IdVal00F72650 -->
<g id="node18" class="node"><title>IdVal00F72650</title>
<ellipse fill="none" stroke="black" cx="396.745" cy="-164" rx="27" ry="18"/>
<text text-anchor="middle" x="396.745" y="-160.3" font-family="Times New Roman,serif" font-size="14.00">b</text>
</g>
<!-- Id00F72650&#45;&gt;IdVal00F72650 -->
<g id="edge14" class="edge"><title>Id00F72650&#45;&gt;IdVal00F72650</title>
<path fill="none" stroke="black" d="M396.745,-232.799C396.745,-221.163 396.745,-205.548 396.745,-192.237"/>
<polygon fill="black" stroke="black" points="400.245,-192.175 396.745,-182.175 393.245,-192.175 400.245,-192.175"/>
</g>
<!-- Id00F722E0 -->
<g id="node20" class="node"><title>Id00F722E0</title>
<ellipse fill="none" stroke="black" cx="470.745" cy="-164" rx="28.6953" ry="18"/>
<text text-anchor="middle" x="470.745" y="-160.3" font-family="Times New Roman,serif" font-size="14.00">array</text>
</g>
<!-- Id00F721A0&#45;&gt;Id00F722E0 -->
<g id="edge19" class="edge"><title>Id00F721A0&#45;&gt;Id00F722E0</title>
<path fill="none" stroke="black" d="M498.027,-233.207C493.231,-221.216 486.685,-204.851 481.207,-191.157"/>
<polygon fill="black" stroke="black" points="484.412,-189.743 477.448,-181.758 477.912,-192.343 484.412,-189.743"/>
</g>
<!-- Id00F72470 -->
<g id="node25" class="node"><title>Id00F72470</title>
<ellipse fill="none" stroke="black" cx="545.745" cy="-164" rx="28.6953" ry="18"/>
<text text-anchor="middle" x="545.745" y="-160.3" font-family="Times New Roman,serif" font-size="14.00">array</text>
</g>
<!-- Id00F721A0&#45;&gt;Id00F72470 -->
<g id="edge24" class="edge"><title>Id00F721A0&#45;&gt;Id00F72470</title>
<path fill="none" stroke="black" d="M512.65,-233.611C518.549,-221.382 526.719,-204.443 533.466,-190.456"/>
<polygon fill="black" stroke="black" points="536.671,-191.866 537.864,-181.339 530.367,-188.825 536.671,-191.866"/>
</g>
<!-- Id00F72380 -->
<g id="node21" class="node"><title>Id00F72380</title>
<ellipse fill="none" stroke="black" cx="399.745" cy="-91" rx="27" ry="18"/>
<text text-anchor="middle" x="399.745" y="-87.3" font-family="Times New Roman,serif" font-size="14.00">INT</text>
</g>
<!-- Id00F722E0&#45;&gt;Id00F72380 -->
<g id="edge16" class="edge"><title>Id00F722E0&#45;&gt;Id00F72380</title>
<path fill="none" stroke="black" d="M456.033,-148.289C446.133,-138.388 432.901,-125.157 421.754,-114.01"/>
<polygon fill="black" stroke="black" points="423.983,-111.289 414.437,-106.692 419.033,-116.238 423.983,-111.289"/>
</g>
<!-- Id00F726A0 -->
<g id="node23" class="node"><title>Id00F726A0</title>
<ellipse fill="none" stroke="black" cx="471.745" cy="-91" rx="27" ry="18"/>
<text text-anchor="middle" x="471.745" y="-87.3" font-family="Times New Roman,serif" font-size="14.00">INT</text>
</g>
<!-- Id00F722E0&#45;&gt;Id00F726A0 -->
<g id="edge18" class="edge"><title>Id00F722E0&#45;&gt;Id00F726A0</title>
<path fill="none" stroke="black" d="M470.987,-145.813C471.1,-137.789 471.237,-128.047 471.363,-119.069"/>
<polygon fill="black" stroke="black" points="474.863,-119.077 471.505,-109.029 467.864,-118.979 474.863,-119.077"/>
</g>
<!-- IdVal00F72380 -->
<g id="node22" class="node"><title>IdVal00F72380</title>
<ellipse fill="none" stroke="black" cx="399.745" cy="-18" rx="27" ry="18"/>
<text text-anchor="middle" x="399.745" y="-14.3" font-family="Times New Roman,serif" font-size="14.00">1</text>
</g>
<!-- Id00F72380&#45;&gt;IdVal00F72380 -->
<g id="edge15" class="edge"><title>Id00F72380&#45;&gt;IdVal00F72380</title>
<path fill="none" stroke="black" d="M399.745,-72.8129C399.745,-64.7895 399.745,-55.0475 399.745,-46.0691"/>
<polygon fill="black" stroke="black" points="403.245,-46.0288 399.745,-36.0288 396.245,-46.0289 403.245,-46.0288"/>
</g>
<!-- IdVal00F726A0 -->
<g id="node24" class="node"><title>IdVal00F726A0</title>
<ellipse fill="none" stroke="black" cx="471.745" cy="-18" rx="27" ry="18"/>
<text text-anchor="middle" x="471.745" y="-14.3" font-family="Times New Roman,serif" font-size="14.00">2</text>
</g>
<!-- Id00F726A0&#45;&gt;IdVal00F726A0 -->
<g id="edge17" class="edge"><title>Id00F726A0&#45;&gt;IdVal00F726A0</title>
<path fill="none" stroke="black" d="M471.745,-72.8129C471.745,-64.7895 471.745,-55.0475 471.745,-46.0691"/>
<polygon fill="black" stroke="black" points="475.245,-46.0288 471.745,-36.0288 468.245,-46.0289 475.245,-46.0288"/>
</g>
<!-- Id00F724C0 -->
<g id="node26" class="node"><title>Id00F724C0</title>
<ellipse fill="none" stroke="black" cx="544.745" cy="-91" rx="27" ry="18"/>
<text text-anchor="middle" x="544.745" y="-87.3" font-family="Times New Roman,serif" font-size="14.00">INT</text>
</g>
<!-- Id00F72470&#45;&gt;Id00F724C0 -->
<g id="edge21" class="edge"><title>Id00F72470&#45;&gt;Id00F724C0</title>
<path fill="none" stroke="black" d="M545.502,-145.813C545.389,-137.789 545.252,-128.047 545.126,-119.069"/>
<polygon fill="black" stroke="black" points="548.625,-118.979 544.984,-109.029 541.626,-119.077 548.625,-118.979"/>
</g>
<!-- Id00F726F0 -->
<g id="node28" class="node"><title>Id00F726F0</title>
<ellipse fill="none" stroke="black" cx="616.745" cy="-91" rx="27" ry="18"/>
<text text-anchor="middle" x="616.745" y="-87.3" font-family="Times New Roman,serif" font-size="14.00">INT</text>
</g>
<!-- Id00F72470&#45;&gt;Id00F726F0 -->
<g id="edge23" class="edge"><title>Id00F72470&#45;&gt;Id00F726F0</title>
<path fill="none" stroke="black" d="M560.456,-148.289C570.356,-138.388 583.588,-125.157 594.735,-114.01"/>
<polygon fill="black" stroke="black" points="597.456,-116.238 602.052,-106.692 592.506,-111.289 597.456,-116.238"/>
</g>
<!-- IdVal00F724C0 -->
<g id="node27" class="node"><title>IdVal00F724C0</title>
<ellipse fill="none" stroke="black" cx="544.745" cy="-18" rx="27" ry="18"/>
<text text-anchor="middle" x="544.745" y="-14.3" font-family="Times New Roman,serif" font-size="14.00">1</text>
</g>
<!-- Id00F724C0&#45;&gt;IdVal00F724C0 -->
<g id="edge20" class="edge"><title>Id00F724C0&#45;&gt;IdVal00F724C0</title>
<path fill="none" stroke="black" d="M544.745,-72.8129C544.745,-64.7895 544.745,-55.0475 544.745,-46.0691"/>
<polygon fill="black" stroke="black" points="548.245,-46.0288 544.745,-36.0288 541.245,-46.0289 548.245,-46.0288"/>
</g>
<!-- IdVal00F726F0 -->
<g id="node29" class="node"><title>IdVal00F726F0</title>
<ellipse fill="none" stroke="black" cx="616.745" cy="-18" rx="27" ry="18"/>
<text text-anchor="middle" x="616.745" y="-14.3" font-family="Times New Roman,serif" font-size="14.00">2</text>
</g>
<!-- Id00F726F0&#45;&gt;IdVal00F726F0 -->
<g id="edge22" class="edge"><title>Id00F726F0&#45;&gt;IdVal00F726F0</title>
<path fill="none" stroke="black" d="M616.745,-72.8129C616.745,-64.7895 616.745,-55.0475 616.745,-46.0691"/>
<polygon fill="black" stroke="black" points="620.245,-46.0288 616.745,-36.0288 613.245,-46.0289 620.245,-46.0288"/>
</g>
<!-- Id00F72240 -->
<g id="node31" class="node"><title>Id00F72240</title>
<ellipse fill="none" stroke="black" cx="620.745" cy="-338" rx="27" ry="18"/>
<text text-anchor="middle" x="620.745" y="-334.3" font-family="Times New Roman,serif" font-size="14.00">=</text>
</g>
<!-- Id00F72510&#45;&gt;Id00F72240 -->
<g id="edge32" class="edge"><title>Id00F72510&#45;&gt;Id00F72240</title>
<path fill="none" stroke="black" d="M620.745,-392.813C620.745,-384.789 620.745,-375.047 620.745,-366.069"/>
<polygon fill="black" stroke="black" points="624.245,-366.029 620.745,-356.029 617.245,-366.029 624.245,-366.029"/>
</g>
<!-- Id00F72010 -->
<g id="node32" class="node"><title>Id00F72010</title>
<ellipse fill="none" stroke="black" cx="612.745" cy="-251" rx="61.99" ry="18"/>
<text text-anchor="middle" x="612.745" y="-247.3" font-family="Times New Roman,serif" font-size="14.00">var or method</text>
</g>
<!-- Id00F72240&#45;&gt;Id00F72010 -->
<g id="edge30" class="edge"><title>Id00F72240&#45;&gt;Id00F72010</title>
<path fill="none" stroke="black" d="M619.126,-319.799C618.03,-308.163 616.561,-292.548 615.308,-279.237"/>
<polygon fill="black" stroke="black" points="618.783,-278.803 614.361,-269.175 611.814,-279.459 618.783,-278.803"/>
</g>
<!-- Id00F72100 -->
<g id="node34" class="node"><title>Id00F72100</title>
<ellipse fill="none" stroke="black" cx="720.745" cy="-251" rx="28.6953" ry="18"/>
<text text-anchor="middle" x="720.745" y="-247.3" font-family="Times New Roman,serif" font-size="14.00">array</text>
</g>
<!-- Id00F72240&#45;&gt;Id00F72100 -->
<g id="edge31" class="edge"><title>Id00F72240&#45;&gt;Id00F72100</title>
<path fill="none" stroke="black" d="M636.811,-323.343C652.971,-309.608 678.083,-288.262 696.632,-272.495"/>
<polygon fill="black" stroke="black" points="699.033,-275.049 704.385,-265.905 694.499,-269.715 699.033,-275.049"/>
</g>
<!-- IdVal00F72010 -->
<g id="node33" class="node"><title>IdVal00F72010</title>
<ellipse fill="none" stroke="black" cx="619.745" cy="-164" rx="27" ry="18"/>
<text text-anchor="middle" x="619.745" y="-160.3" font-family="Times New Roman,serif" font-size="14.00">c</text>
</g>
<!-- Id00F72010&#45;&gt;IdVal00F72010 -->
<g id="edge29" class="edge"><title>Id00F72010&#45;&gt;IdVal00F72010</title>
<path fill="none" stroke="black" d="M614.161,-232.799C615.119,-221.163 616.405,-205.548 617.501,-192.237"/>
<polygon fill="black" stroke="black" points="620.997,-192.429 618.33,-182.175 614.021,-191.854 620.997,-192.429"/>
</g>
<!-- Id00F72290 -->
<g id="node36" class="node"><title>Id00F72290</title>
<ellipse fill="none" stroke="black" cx="828.745" cy="-338" rx="66.8882" ry="18"/>
<text text-anchor="middle" x="828.745" y="-334.3" font-family="Times New Roman,serif" font-size="14.00">member access</text>
</g>
<!-- Id00F72420&#45;&gt;Id00F72290 -->
<g id="edge38" class="edge"><title>Id00F72420&#45;&gt;Id00F72290</title>
<path fill="none" stroke="black" d="M744.98,-397.307C759.424,-387.253 779.948,-372.966 797.065,-361.052"/>
<polygon fill="black" stroke="black" points="799.447,-363.658 805.655,-355.072 795.448,-357.913 799.447,-363.658"/>
</g>
<!-- Id00F72150 -->
<g id="node37" class="node"><title>Id00F72150</title>
<ellipse fill="none" stroke="black" cx="828.745" cy="-251" rx="61.99" ry="18"/>
<text text-anchor="middle" x="828.745" y="-247.3" font-family="Times New Roman,serif" font-size="14.00">var or method</text>
</g>
<!-- Id00F72290&#45;&gt;Id00F72150 -->
<g id="edge36" class="edge"><title>Id00F72290&#45;&gt;Id00F72150</title>
<path fill="none" stroke="black" d="M828.745,-319.799C828.745,-308.163 828.745,-292.548 828.745,-279.237"/>
<polygon fill="black" stroke="black" points="832.245,-279.175 828.745,-269.175 825.245,-279.175 832.245,-279.175"/>
<text text-anchor="middle" x="842.745" y="-290.8" font-family="Times New Roman,serif" font-size="14.00">array</text>
</g>
<!-- Id00F721F0 -->
<g id="node39" class="node"><title>Id00F721F0</title>
<ellipse fill="none" stroke="black" cx="935.745" cy="-251" rx="27" ry="18"/>
<text text-anchor="middle" x="935.745" y="-247.3" font-family="Times New Roman,serif" font-size="14.00">INT</text>
</g>
<!-- Id00F72290&#45;&gt;Id00F721F0 -->
<g id="edge37" class="edge"><title>Id00F72290&#45;&gt;Id00F721F0</title>
<path fill="none" stroke="black" d="M849.122,-320.812C866.764,-306.798 892.327,-286.491 911.112,-271.568"/>
<polygon fill="black" stroke="black" points="913.306,-274.295 918.959,-265.335 908.952,-268.814 913.306,-274.295"/>
<text text-anchor="middle" x="904.245" y="-290.8" font-family="Times New Roman,serif" font-size="14.00">index</text>
</g>
<!-- IdVal00F72150 -->
<g id="node38" class="node"><title>IdVal00F72150</title>
<ellipse fill="none" stroke="black" cx="828.745" cy="-164" rx="27" ry="18"/>
<text text-anchor="middle" x="828.745" y="-160.3" font-family="Times New Roman,serif" font-size="14.00">a</text>
</g>
<!-- Id00F72150&#45;&gt;IdVal00F72150 -->
<g id="edge34" class="edge"><title>Id00F72150&#45;&gt;IdVal00F72150</title>
<path fill="none" stroke="black" d="M828.745,-232.799C828.745,-221.163 828.745,-205.548 828.745,-192.237"/>
<polygon fill="black" stroke="black" points="832.245,-192.175 828.745,-182.175 825.245,-192.175 832.245,-192.175"/>
</g>
<!-- IdVal00F721F0 -->
<g id="node40" class="node"><title>IdVal00F721F0</title>
<ellipse fill="none" stroke="black" cx="917.745" cy="-164" rx="27" ry="18"/>
<text text-anchor="middle" x="917.745" y="-160.3" font-family="Times New Roman,serif" font-size="14.00">1</text>
</g>
<!-- Id00F721F0&#45;&gt;IdVal00F721F0 -->
<g id="edge35" class="edge"><title>Id00F721F0&#45;&gt;IdVal00F721F0</title>
<path fill="none" stroke="black" d="M932.102,-232.799C929.622,-221.086 926.288,-205.342 923.457,-191.974"/>
<polygon fill="black" stroke="black" points="926.816,-190.943 921.32,-181.885 919.968,-192.394 926.816,-190.943"/>
</g>
<!-- Id00F73260 -->
<g id="node42" class="node"><title>Id00F73260</title>
<ellipse fill="none" stroke="black" cx="1051.74" cy="-338" rx="66.8882" ry="18"/>
<text text-anchor="middle" x="1051.74" y="-334.3" font-family="Times New Roman,serif" font-size="14.00">member access</text>
</g>
<!-- Id00F72EF0&#45;&gt;Id00F73260 -->
<g id="edge47" class="edge"><title>Id00F72EF0&#45;&gt;Id00F73260</title>
<path fill="none" stroke="black" d="M877.235,-401.577C908.276,-390.446 963.698,-370.572 1003.77,-356.203"/>
<polygon fill="black" stroke="black" points="1005.12,-359.438 1013.35,-352.768 1002.75,-352.849 1005.12,-359.438"/>
</g>
<!-- Id00F725B0 -->
<g id="node43" class="node"><title>Id00F725B0</title>
<ellipse fill="none" stroke="black" cx="1051.74" cy="-251" rx="66.8882" ry="18"/>
<text text-anchor="middle" x="1051.74" y="-247.3" font-family="Times New Roman,serif" font-size="14.00">member access</text>
</g>
<!-- Id00F73260&#45;&gt;Id00F725B0 -->
<g id="edge45" class="edge"><title>Id00F73260&#45;&gt;Id00F725B0</title>
<path fill="none" stroke="black" d="M1051.74,-319.799C1051.74,-308.163 1051.74,-292.548 1051.74,-279.237"/>
<polygon fill="black" stroke="black" points="1055.24,-279.175 1051.74,-269.175 1048.24,-279.175 1055.24,-279.175"/>
<text text-anchor="middle" x="1065.74" y="-290.8" font-family="Times New Roman,serif" font-size="14.00">array</text>
</g>
<!-- Id00F72BD0 -->
<g id="node48" class="node"><title>Id00F72BD0</title>
<ellipse fill="none" stroke="black" cx="1174.74" cy="-251" rx="27" ry="18"/>
<text text-anchor="middle" x="1174.74" y="-247.3" font-family="Times New Roman,serif" font-size="14.00">INT</text>
</g>
<!-- Id00F73260&#45;&gt;Id00F72BD0 -->
<g id="edge46" class="edge"><title>Id00F73260&#45;&gt;Id00F72BD0</title>
<path fill="none" stroke="black" d="M1074.88,-321.012C1095.68,-306.641 1126.21,-285.537 1148.04,-270.454"/>
<polygon fill="black" stroke="black" points="1150.28,-273.161 1156.52,-264.596 1146.3,-267.402 1150.28,-273.161"/>
<text text-anchor="middle" x="1136.24" y="-290.8" font-family="Times New Roman,serif" font-size="14.00">index</text>
</g>
<!-- Id00F72330 -->
<g id="node44" class="node"><title>Id00F72330</title>
<ellipse fill="none" stroke="black" cx="1024.74" cy="-164" rx="61.99" ry="18"/>
<text text-anchor="middle" x="1024.74" y="-160.3" font-family="Times New Roman,serif" font-size="14.00">var or method</text>
</g>
<!-- Id00F725B0&#45;&gt;Id00F72330 -->
<g id="edge42" class="edge"><title>Id00F725B0&#45;&gt;Id00F72330</title>
<path fill="none" stroke="black" d="M1046.28,-232.799C1042.55,-221.047 1037.53,-205.238 1033.27,-191.842"/>
<polygon fill="black" stroke="black" points="1036.56,-190.647 1030.2,-182.175 1029.89,-192.766 1036.56,-190.647"/>
<text text-anchor="middle" x="1054.74" y="-203.8" font-family="Times New Roman,serif" font-size="14.00">array</text>
</g>
<!-- Id00F72560 -->
<g id="node46" class="node"><title>Id00F72560</title>
<ellipse fill="none" stroke="black" cx="1131.74" cy="-164" rx="27" ry="18"/>
<text text-anchor="middle" x="1131.74" y="-160.3" font-family="Times New Roman,serif" font-size="14.00">INT</text>
</g>
<!-- Id00F725B0&#45;&gt;Id00F72560 -->
<g id="edge43" class="edge"><title>Id00F725B0&#45;&gt;Id00F72560</title>
<path fill="none" stroke="black" d="M1067.55,-233.207C1079.92,-220.062 1097.24,-201.662 1110.77,-187.285"/>
<polygon fill="black" stroke="black" points="1113.54,-189.452 1117.84,-179.771 1108.44,-184.654 1113.54,-189.452"/>
<text text-anchor="middle" x="1112.24" y="-203.8" font-family="Times New Roman,serif" font-size="14.00">index</text>
</g>
<!-- IdVal00F72330 -->
<g id="node45" class="node"><title>IdVal00F72330</title>
<ellipse fill="none" stroke="black" cx="1024.74" cy="-91" rx="27" ry="18"/>
<text text-anchor="middle" x="1024.74" y="-87.3" font-family="Times New Roman,serif" font-size="14.00">a</text>
</g>
<!-- Id00F72330&#45;&gt;IdVal00F72330 -->
<g id="edge40" class="edge"><title>Id00F72330&#45;&gt;IdVal00F72330</title>
<path fill="none" stroke="black" d="M1024.74,-145.813C1024.74,-137.789 1024.74,-128.047 1024.74,-119.069"/>
<polygon fill="black" stroke="black" points="1028.24,-119.029 1024.74,-109.029 1021.24,-119.029 1028.24,-119.029"/>
</g>
<!-- IdVal00F72560 -->
<g id="node47" class="node"><title>IdVal00F72560</title>
<ellipse fill="none" stroke="black" cx="1131.74" cy="-91" rx="27" ry="18"/>
<text text-anchor="middle" x="1131.74" y="-87.3" font-family="Times New Roman,serif" font-size="14.00">2</text>
</g>
<!-- Id00F72560&#45;&gt;IdVal00F72560 -->
<g id="edge41" class="edge"><title>Id00F72560&#45;&gt;IdVal00F72560</title>
<path fill="none" stroke="black" d="M1131.74,-145.813C1131.74,-137.789 1131.74,-128.047 1131.74,-119.069"/>
<polygon fill="black" stroke="black" points="1135.24,-119.029 1131.74,-109.029 1128.24,-119.029 1135.24,-119.029"/>
</g>
<!-- IdVal00F72BD0 -->
<g id="node49" class="node"><title>IdVal00F72BD0</title>
<ellipse fill="none" stroke="black" cx="1203.74" cy="-164" rx="27" ry="18"/>
<text text-anchor="middle" x="1203.74" y="-160.3" font-family="Times New Roman,serif" font-size="14.00">0</text>
</g>
<!-- Id00F72BD0&#45;&gt;IdVal00F72BD0 -->
<g id="edge44" class="edge"><title>Id00F72BD0&#45;&gt;IdVal00F72BD0</title>
<path fill="none" stroke="black" d="M1180.47,-233.207C1184.53,-221.332 1190.04,-205.168 1194.68,-191.557"/>
<polygon fill="black" stroke="black" points="1198.11,-192.353 1198.03,-181.758 1191.49,-190.093 1198.11,-192.353"/>
</g>
</g>
</svg>
