<?xml version="1.0" encoding="UTF-8" standalone="no"?>
<!DOCTYPE svg PUBLIC "-//W3C//DTD SVG 1.1//EN"
 "http://www.w3.org/Graphics/SVG/1.1/DTD/svg11.dtd">
<!-- Generated by graphviz version 2.38.0 (20140413.2041)
 -->
<!-- Title: G Pages: 1 -->
<svg width="926pt" height="476pt"
 viewBox="0.00 0.00 925.74 476.00" xmlns="http://www.w3.org/2000/svg" xmlns:xlink="http://www.w3.org/1999/xlink">
<g id="graph0" class="graph" transform="scale(1 1) rotate(0) translate(4 472)">
<title>G</title>
<polygon fill="white" stroke="none" points="-4,4 -4,-472 921.745,-472 921.745,4 -4,4"/>
<!-- Id010C2BA0 -->
<g id="node1" class="node"><title>Id010C2BA0</title>
<ellipse fill="none" stroke="black" cx="604" cy="-450" rx="41.6928" ry="18"/>
<text text-anchor="middle" x="604" y="-446.3" font-family="Times New Roman,serif" font-size="14.00">program</text>
</g>
<!-- Id010C2510 -->
<g id="node2" class="node"><title>Id010C2510</title>
<ellipse fill="none" stroke="black" cx="334" cy="-378" rx="27" ry="18"/>
<text text-anchor="middle" x="334" y="-374.3" font-family="Times New Roman,serif" font-size="14.00">stmt</text>
</g>
<!-- Id010C2BA0&#45;&gt;Id010C2510 -->
<g id="edge13" class="edge"><title>Id010C2BA0&#45;&gt;Id010C2510</title>
<path fill="none" stroke="black" d="M569.255,-439.992C517.447,-426.56 420.511,-401.429 368.718,-388.001"/>
<polygon fill="black" stroke="black" points="369.547,-384.6 358.989,-385.479 367.79,-391.376 369.547,-384.6"/>
</g>
<!-- Id010C1FC0 -->
<g id="node15" class="node"><title>Id010C1FC0</title>
<ellipse fill="none" stroke="black" cx="514" cy="-378" rx="27" ry="18"/>
<text text-anchor="middle" x="514" y="-374.3" font-family="Times New Roman,serif" font-size="14.00">stmt</text>
</g>
<!-- Id010C2BA0&#45;&gt;Id010C1FC0 -->
<g id="edge28" class="edge"><title>Id010C2BA0&#45;&gt;Id010C1FC0</title>
<path fill="none" stroke="black" d="M584.471,-433.811C571.161,-423.458 553.416,-409.657 539.064,-398.494"/>
<polygon fill="black" stroke="black" points="541.106,-395.649 531.064,-392.272 536.809,-401.174 541.106,-395.649"/>
</g>
<!-- Id010C2010 -->
<g id="node30" class="node"><title>Id010C2010</title>
<ellipse fill="none" stroke="black" cx="604" cy="-378" rx="27" ry="18"/>
<text text-anchor="middle" x="604" y="-374.3" font-family="Times New Roman,serif" font-size="14.00">stmt</text>
</g>
<!-- Id010C2BA0&#45;&gt;Id010C2010 -->
<g id="edge33" class="edge"><title>Id010C2BA0&#45;&gt;Id010C2010</title>
<path fill="none" stroke="black" d="M604,-431.697C604,-423.983 604,-414.712 604,-406.112"/>
<polygon fill="black" stroke="black" points="607.5,-406.104 604,-396.104 600.5,-406.104 607.5,-406.104"/>
</g>
<!-- Id010C22E0 -->
<g id="node35" class="node"><title>Id010C22E0</title>
<ellipse fill="none" stroke="black" cx="694" cy="-378" rx="27" ry="18"/>
<text text-anchor="middle" x="694" y="-374.3" font-family="Times New Roman,serif" font-size="14.00">stmt</text>
</g>
<!-- Id010C2BA0&#45;&gt;Id010C22E0 -->
<g id="edge36" class="edge"><title>Id010C2BA0&#45;&gt;Id010C22E0</title>
<path fill="none" stroke="black" d="M623.529,-433.811C636.839,-423.458 654.584,-409.657 668.936,-398.494"/>
<polygon fill="black" stroke="black" points="671.191,-401.174 676.936,-392.272 666.894,-395.649 671.191,-401.174"/>
</g>
<!-- Id010C23D0 -->
<g id="node38" class="node"><title>Id010C23D0</title>
<ellipse fill="none" stroke="black" cx="811" cy="-378" rx="27" ry="18"/>
<text text-anchor="middle" x="811" y="-374.3" font-family="Times New Roman,serif" font-size="14.00">stmt</text>
</g>
<!-- Id010C2BA0&#45;&gt;Id010C23D0 -->
<g id="edge39" class="edge"><title>Id010C2BA0&#45;&gt;Id010C23D0</title>
<path fill="none" stroke="black" d="M635.89,-438.216C674.387,-425.198 738.808,-403.413 777.857,-390.208"/>
<polygon fill="black" stroke="black" points="779.092,-393.485 787.444,-386.966 776.85,-386.854 779.092,-393.485"/>
</g>
<!-- Id010C2740 -->
<g id="node3" class="node"><title>Id010C2740</title>
<ellipse fill="none" stroke="black" cx="207" cy="-306" rx="27" ry="18"/>
<text text-anchor="middle" x="207" y="-302.3" font-family="Times New Roman,serif" font-size="14.00">=</text>
</g>
<!-- Id010C2510&#45;&gt;Id010C2740 -->
<g id="edge12" class="edge"><title>Id010C2510&#45;&gt;Id010C2740</title>
<path fill="none" stroke="black" d="M313.876,-365.908C293.006,-354.405 260.162,-336.302 236.388,-323.198"/>
<polygon fill="black" stroke="black" points="237.897,-320.034 227.45,-318.272 234.518,-326.164 237.897,-320.034"/>
</g>
<!-- Id010B9908 -->
<g id="node4" class="node"><title>Id010B9908</title>
<ellipse fill="none" stroke="black" cx="63" cy="-234" rx="61.99" ry="18"/>
<text text-anchor="middle" x="63" y="-230.3" font-family="Times New Roman,serif" font-size="14.00">var or method</text>
</g>
<!-- Id010C2740&#45;&gt;Id010B9908 -->
<g id="edge10" class="edge"><title>Id010C2740&#45;&gt;Id010B9908</title>
<path fill="none" stroke="black" d="M185.752,-294.671C163.918,-284.057 129.413,-267.284 102.539,-254.22"/>
<polygon fill="black" stroke="black" points="103.909,-250.995 93.3847,-249.77 100.848,-257.29 103.909,-250.995"/>
</g>
<!-- Id010C26F0 -->
<g id="node6" class="node"><title>Id010C26F0</title>
<ellipse fill="none" stroke="black" cx="207" cy="-234" rx="28.6953" ry="18"/>
<text text-anchor="middle" x="207" y="-230.3" font-family="Times New Roman,serif" font-size="14.00">array</text>
</g>
<!-- Id010C2740&#45;&gt;Id010C26F0 -->
<g id="edge11" class="edge"><title>Id010C2740&#45;&gt;Id010C26F0</title>
<path fill="none" stroke="black" d="M207,-287.697C207,-279.983 207,-270.712 207,-262.112"/>
<polygon fill="black" stroke="black" points="210.5,-262.104 207,-252.104 203.5,-262.104 210.5,-262.104"/>
</g>
<!-- IdVal010B9908 -->
<g id="node5" class="node"><title>IdVal010B9908</title>
<ellipse fill="none" stroke="black" cx="27" cy="-162" rx="27" ry="18"/>
<text text-anchor="middle" x="27" y="-158.3" font-family="Times New Roman,serif" font-size="14.00">a</text>
</g>
<!-- Id010B9908&#45;&gt;IdVal010B9908 -->
<g id="edge1" class="edge"><title>Id010B9908&#45;&gt;IdVal010B9908</title>
<path fill="none" stroke="black" d="M54.2854,-216.055C50.0228,-207.767 44.8034,-197.618 40.0753,-188.424"/>
<polygon fill="black" stroke="black" points="43.0725,-186.599 35.3865,-179.307 36.8475,-189.801 43.0725,-186.599"/>
</g>
<!-- Id010B9958 -->
<g id="node7" class="node"><title>Id010B9958</title>
<ellipse fill="none" stroke="black" cx="99" cy="-162" rx="27" ry="18"/>
<text text-anchor="middle" x="99" y="-158.3" font-family="Times New Roman,serif" font-size="14.00">INT</text>
</g>
<!-- Id010C26F0&#45;&gt;Id010B9958 -->
<g id="edge3" class="edge"><title>Id010C26F0&#45;&gt;Id010B9958</title>
<path fill="none" stroke="black" d="M187.692,-220.485C170.617,-209.418 145.516,-193.149 126.371,-180.741"/>
<polygon fill="black" stroke="black" points="128.075,-177.674 117.779,-175.172 124.267,-183.548 128.075,-177.674"/>
</g>
<!-- Id010B99E0 -->
<g id="node9" class="node"><title>Id010B99E0</title>
<ellipse fill="none" stroke="black" cx="171" cy="-162" rx="27" ry="18"/>
<text text-anchor="middle" x="171" y="-158.3" font-family="Times New Roman,serif" font-size="14.00">INT</text>
</g>
<!-- Id010C26F0&#45;&gt;Id010B99E0 -->
<g id="edge5" class="edge"><title>Id010C26F0&#45;&gt;Id010B99E0</title>
<path fill="none" stroke="black" d="M198.65,-216.765C194.288,-208.283 188.853,-197.714 183.959,-188.197"/>
<polygon fill="black" stroke="black" points="186.99,-186.439 179.304,-179.147 180.765,-189.641 186.99,-186.439"/>
</g>
<!-- Id010B9A30 -->
<g id="node11" class="node"><title>Id010B9A30</title>
<ellipse fill="none" stroke="black" cx="243" cy="-162" rx="27" ry="18"/>
<text text-anchor="middle" x="243" y="-158.3" font-family="Times New Roman,serif" font-size="14.00">INT</text>
</g>
<!-- Id010C26F0&#45;&gt;Id010B9A30 -->
<g id="edge7" class="edge"><title>Id010C26F0&#45;&gt;Id010B9A30</title>
<path fill="none" stroke="black" d="M215.35,-216.765C219.712,-208.283 225.147,-197.714 230.041,-188.197"/>
<polygon fill="black" stroke="black" points="233.235,-189.641 234.696,-179.147 227.01,-186.439 233.235,-189.641"/>
</g>
<!-- Id010C2600 -->
<g id="node13" class="node"><title>Id010C2600</title>
<ellipse fill="none" stroke="black" cx="315" cy="-162" rx="27" ry="18"/>
<text text-anchor="middle" x="315" y="-158.3" font-family="Times New Roman,serif" font-size="14.00">INT</text>
</g>
<!-- Id010C26F0&#45;&gt;Id010C2600 -->
<g id="edge9" class="edge"><title>Id010C26F0&#45;&gt;Id010C2600</title>
<path fill="none" stroke="black" d="M226.308,-220.485C243.383,-209.418 268.484,-193.149 287.629,-180.741"/>
<polygon fill="black" stroke="black" points="289.733,-183.548 296.221,-175.172 285.925,-177.674 289.733,-183.548"/>
</g>
<!-- IdVal010B9958 -->
<g id="node8" class="node"><title>IdVal010B9958</title>
<ellipse fill="none" stroke="black" cx="99" cy="-90" rx="27" ry="18"/>
<text text-anchor="middle" x="99" y="-86.3" font-family="Times New Roman,serif" font-size="14.00">1</text>
</g>
<!-- Id010B9958&#45;&gt;IdVal010B9958 -->
<g id="edge2" class="edge"><title>Id010B9958&#45;&gt;IdVal010B9958</title>
<path fill="none" stroke="black" d="M99,-143.697C99,-135.983 99,-126.712 99,-118.112"/>
<polygon fill="black" stroke="black" points="102.5,-118.104 99,-108.104 95.5001,-118.104 102.5,-118.104"/>
</g>
<!-- IdVal010B99E0 -->
<g id="node10" class="node"><title>IdVal010B99E0</title>
<ellipse fill="none" stroke="black" cx="171" cy="-90" rx="27" ry="18"/>
<text text-anchor="middle" x="171" y="-86.3" font-family="Times New Roman,serif" font-size="14.00">2</text>
</g>
<!-- Id010B99E0&#45;&gt;IdVal010B99E0 -->
<g id="edge4" class="edge"><title>Id010B99E0&#45;&gt;IdVal010B99E0</title>
<path fill="none" stroke="black" d="M171,-143.697C171,-135.983 171,-126.712 171,-118.112"/>
<polygon fill="black" stroke="black" points="174.5,-118.104 171,-108.104 167.5,-118.104 174.5,-118.104"/>
</g>
<!-- IdVal010B9A30 -->
<g id="node12" class="node"><title>IdVal010B9A30</title>
<ellipse fill="none" stroke="black" cx="243" cy="-90" rx="27" ry="18"/>
<text text-anchor="middle" x="243" y="-86.3" font-family="Times New Roman,serif" font-size="14.00">3</text>
</g>
<!-- Id010B9A30&#45;&gt;IdVal010B9A30 -->
<g id="edge6" class="edge"><title>Id010B9A30&#45;&gt;IdVal010B9A30</title>
<path fill="none" stroke="black" d="M243,-143.697C243,-135.983 243,-126.712 243,-118.112"/>
<polygon fill="black" stroke="black" points="246.5,-118.104 243,-108.104 239.5,-118.104 246.5,-118.104"/>
</g>
<!-- IdVal010C2600 -->
<g id="node14" class="node"><title>IdVal010C2600</title>
<ellipse fill="none" stroke="black" cx="315" cy="-90" rx="27" ry="18"/>
<text text-anchor="middle" x="315" y="-86.3" font-family="Times New Roman,serif" font-size="14.00">4</text>
</g>
<!-- Id010C2600&#45;&gt;IdVal010C2600 -->
<g id="edge8" class="edge"><title>Id010C2600&#45;&gt;IdVal010C2600</title>
<path fill="none" stroke="black" d="M315,-143.697C315,-135.983 315,-126.712 315,-118.112"/>
<polygon fill="black" stroke="black" points="318.5,-118.104 315,-108.104 311.5,-118.104 318.5,-118.104"/>
</g>
<!-- Id010C21F0 -->
<g id="node16" class="node"><title>Id010C21F0</title>
<ellipse fill="none" stroke="black" cx="495" cy="-306" rx="27" ry="18"/>
<text text-anchor="middle" x="495" y="-302.3" font-family="Times New Roman,serif" font-size="14.00">=</text>
</g>
<!-- Id010C1FC0&#45;&gt;Id010C21F0 -->
<g id="edge27" class="edge"><title>Id010C1FC0&#45;&gt;Id010C21F0</title>
<path fill="none" stroke="black" d="M509.401,-360.055C507.254,-352.145 504.647,-342.54 502.244,-333.688"/>
<polygon fill="black" stroke="black" points="505.554,-332.523 499.557,-323.789 498.799,-334.357 505.554,-332.523"/>
</g>
<!-- Id010C2420 -->
<g id="node17" class="node"><title>Id010C2420</title>
<ellipse fill="none" stroke="black" cx="387" cy="-234" rx="61.99" ry="18"/>
<text text-anchor="middle" x="387" y="-230.3" font-family="Times New Roman,serif" font-size="14.00">var or method</text>
</g>
<!-- Id010C21F0&#45;&gt;Id010C2420 -->
<g id="edge25" class="edge"><title>Id010C21F0&#45;&gt;Id010C2420</title>
<path fill="none" stroke="black" d="M476.188,-292.807C460.64,-282.73 438.2,-268.185 419.719,-256.207"/>
<polygon fill="black" stroke="black" points="421.575,-253.239 411.279,-250.737 417.767,-259.113 421.575,-253.239"/>
</g>
<!-- Id010C2150 -->
<g id="node19" class="node"><title>Id010C2150</title>
<ellipse fill="none" stroke="black" cx="495" cy="-234" rx="28.6953" ry="18"/>
<text text-anchor="middle" x="495" y="-230.3" font-family="Times New Roman,serif" font-size="14.00">array</text>
</g>
<!-- Id010C21F0&#45;&gt;Id010C2150 -->
<g id="edge26" class="edge"><title>Id010C21F0&#45;&gt;Id010C2150</title>
<path fill="none" stroke="black" d="M495,-287.697C495,-279.983 495,-270.712 495,-262.112"/>
<polygon fill="black" stroke="black" points="498.5,-262.104 495,-252.104 491.5,-262.104 498.5,-262.104"/>
</g>
<!-- IdVal010C2420 -->
<g id="node18" class="node"><title>IdVal010C2420</title>
<ellipse fill="none" stroke="black" cx="387" cy="-162" rx="27" ry="18"/>
<text text-anchor="middle" x="387" y="-158.3" font-family="Times New Roman,serif" font-size="14.00">b</text>
</g>
<!-- Id010C2420&#45;&gt;IdVal010C2420 -->
<g id="edge14" class="edge"><title>Id010C2420&#45;&gt;IdVal010C2420</title>
<path fill="none" stroke="black" d="M387,-215.697C387,-207.983 387,-198.712 387,-190.112"/>
<polygon fill="black" stroke="black" points="390.5,-190.104 387,-180.104 383.5,-190.104 390.5,-190.104"/>
</g>
<!-- Id010C2100 -->
<g id="node20" class="node"><title>Id010C2100</title>
<ellipse fill="none" stroke="black" cx="461" cy="-162" rx="28.6953" ry="18"/>
<text text-anchor="middle" x="461" y="-158.3" font-family="Times New Roman,serif" font-size="14.00">array</text>
</g>
<!-- Id010C2150&#45;&gt;Id010C2100 -->
<g id="edge19" class="edge"><title>Id010C2150&#45;&gt;Id010C2100</title>
<path fill="none" stroke="black" d="M486.942,-216.411C482.92,-208.129 477.964,-197.925 473.464,-188.662"/>
<polygon fill="black" stroke="black" points="476.517,-186.936 469,-179.47 470.221,-189.994 476.517,-186.936"/>
</g>
<!-- Id010C21A0 -->
<g id="node25" class="node"><title>Id010C21A0</title>
<ellipse fill="none" stroke="black" cx="536" cy="-162" rx="28.6953" ry="18"/>
<text text-anchor="middle" x="536" y="-158.3" font-family="Times New Roman,serif" font-size="14.00">array</text>
</g>
<!-- Id010C2150&#45;&gt;Id010C21A0 -->
<g id="edge24" class="edge"><title>Id010C2150&#45;&gt;Id010C21A0</title>
<path fill="none" stroke="black" d="M504.509,-216.765C509.529,-208.195 515.796,-197.494 521.415,-187.9"/>
<polygon fill="black" stroke="black" points="524.508,-189.545 526.542,-179.147 518.468,-186.007 524.508,-189.545"/>
</g>
<!-- Id010C2650 -->
<g id="node21" class="node"><title>Id010C2650</title>
<ellipse fill="none" stroke="black" cx="390" cy="-90" rx="27" ry="18"/>
<text text-anchor="middle" x="390" y="-86.3" font-family="Times New Roman,serif" font-size="14.00">INT</text>
</g>
<!-- Id010C2100&#45;&gt;Id010C2650 -->
<g id="edge16" class="edge"><title>Id010C2100&#45;&gt;Id010C2650</title>
<path fill="none" stroke="black" d="M446.289,-146.496C436.388,-136.735 423.157,-123.69 412.01,-112.7"/>
<polygon fill="black" stroke="black" points="414.271,-110.014 404.692,-105.485 409.356,-114.999 414.271,-110.014"/>
</g>
<!-- Id010C2380 -->
<g id="node23" class="node"><title>Id010C2380</title>
<ellipse fill="none" stroke="black" cx="462" cy="-90" rx="27" ry="18"/>
<text text-anchor="middle" x="462" y="-86.3" font-family="Times New Roman,serif" font-size="14.00">INT</text>
</g>
<!-- Id010C2100&#45;&gt;Id010C2380 -->
<g id="edge18" class="edge"><title>Id010C2100&#45;&gt;Id010C2380</title>
<path fill="none" stroke="black" d="M461.247,-143.697C461.357,-135.983 461.49,-126.712 461.613,-118.112"/>
<polygon fill="black" stroke="black" points="465.112,-118.153 461.756,-108.104 458.113,-118.053 465.112,-118.153"/>
</g>
<!-- IdVal010C2650 -->
<g id="node22" class="node"><title>IdVal010C2650</title>
<ellipse fill="none" stroke="black" cx="390" cy="-18" rx="27" ry="18"/>
<text text-anchor="middle" x="390" y="-14.3" font-family="Times New Roman,serif" font-size="14.00">1</text>
</g>
<!-- Id010C2650&#45;&gt;IdVal010C2650 -->
<g id="edge15" class="edge"><title>Id010C2650&#45;&gt;IdVal010C2650</title>
<path fill="none" stroke="black" d="M390,-71.6966C390,-63.9827 390,-54.7125 390,-46.1124"/>
<polygon fill="black" stroke="black" points="393.5,-46.1043 390,-36.1043 386.5,-46.1044 393.5,-46.1043"/>
</g>
<!-- IdVal010C2380 -->
<g id="node24" class="node"><title>IdVal010C2380</title>
<ellipse fill="none" stroke="black" cx="462" cy="-18" rx="27" ry="18"/>
<text text-anchor="middle" x="462" y="-14.3" font-family="Times New Roman,serif" font-size="14.00">2</text>
</g>
<!-- Id010C2380&#45;&gt;IdVal010C2380 -->
<g id="edge17" class="edge"><title>Id010C2380&#45;&gt;IdVal010C2380</title>
<path fill="none" stroke="black" d="M462,-71.6966C462,-63.9827 462,-54.7125 462,-46.1124"/>
<polygon fill="black" stroke="black" points="465.5,-46.1043 462,-36.1043 458.5,-46.1044 465.5,-46.1043"/>
</g>
<!-- Id010C2470 -->
<g id="node26" class="node"><title>Id010C2470</title>
<ellipse fill="none" stroke="black" cx="534" cy="-90" rx="27" ry="18"/>
<text text-anchor="middle" x="534" y="-86.3" font-family="Times New Roman,serif" font-size="14.00">INT</text>
</g>
<!-- Id010C21A0&#45;&gt;Id010C2470 -->
<g id="edge21" class="edge"><title>Id010C21A0&#45;&gt;Id010C2470</title>
<path fill="none" stroke="black" d="M535.506,-143.697C535.285,-135.983 535.02,-126.712 534.775,-118.112"/>
<polygon fill="black" stroke="black" points="538.273,-118 534.489,-108.104 531.276,-118.2 538.273,-118"/>
</g>
<!-- Id010C24C0 -->
<g id="node28" class="node"><title>Id010C24C0</title>
<ellipse fill="none" stroke="black" cx="606" cy="-90" rx="27" ry="18"/>
<text text-anchor="middle" x="606" y="-86.3" font-family="Times New Roman,serif" font-size="14.00">INT</text>
</g>
<!-- Id010C21A0&#45;&gt;Id010C24C0 -->
<g id="edge23" class="edge"><title>Id010C21A0&#45;&gt;Id010C24C0</title>
<path fill="none" stroke="black" d="M550.845,-146.155C560.628,-136.372 573.596,-123.404 584.5,-112.5"/>
<polygon fill="black" stroke="black" points="587.059,-114.891 591.655,-105.345 582.109,-109.941 587.059,-114.891"/>
</g>
<!-- IdVal010C2470 -->
<g id="node27" class="node"><title>IdVal010C2470</title>
<ellipse fill="none" stroke="black" cx="534" cy="-18" rx="27" ry="18"/>
<text text-anchor="middle" x="534" y="-14.3" font-family="Times New Roman,serif" font-size="14.00">1</text>
</g>
<!-- Id010C2470&#45;&gt;IdVal010C2470 -->
<g id="edge20" class="edge"><title>Id010C2470&#45;&gt;IdVal010C2470</title>
<path fill="none" stroke="black" d="M534,-71.6966C534,-63.9827 534,-54.7125 534,-46.1124"/>
<polygon fill="black" stroke="black" points="537.5,-46.1043 534,-36.1043 530.5,-46.1044 537.5,-46.1043"/>
</g>
<!-- IdVal010C24C0 -->
<g id="node29" class="node"><title>IdVal010C24C0</title>
<ellipse fill="none" stroke="black" cx="606" cy="-18" rx="27" ry="18"/>
<text text-anchor="middle" x="606" y="-14.3" font-family="Times New Roman,serif" font-size="14.00">2</text>
</g>
<!-- Id010C24C0&#45;&gt;IdVal010C24C0 -->
<g id="edge22" class="edge"><title>Id010C24C0&#45;&gt;IdVal010C24C0</title>
<path fill="none" stroke="black" d="M606,-71.6966C606,-63.9827 606,-54.7125 606,-46.1124"/>
<polygon fill="black" stroke="black" points="609.5,-46.1043 606,-36.1043 602.5,-46.1044 609.5,-46.1043"/>
</g>
<!-- Id010C2560 -->
<g id="node31" class="node"><title>Id010C2560</title>
<ellipse fill="none" stroke="black" cx="604" cy="-306" rx="27" ry="18"/>
<text text-anchor="middle" x="604" y="-302.3" font-family="Times New Roman,serif" font-size="14.00">=</text>
</g>
<!-- Id010C2010&#45;&gt;Id010C2560 -->
<g id="edge32" class="edge"><title>Id010C2010&#45;&gt;Id010C2560</title>
<path fill="none" stroke="black" d="M604,-359.697C604,-351.983 604,-342.712 604,-334.112"/>
<polygon fill="black" stroke="black" points="607.5,-334.104 604,-324.104 600.5,-334.104 607.5,-334.104"/>
</g>
<!-- Id010C26A0 -->
<g id="node32" class="node"><title>Id010C26A0</title>
<ellipse fill="none" stroke="black" cx="603" cy="-234" rx="61.99" ry="18"/>
<text text-anchor="middle" x="603" y="-230.3" font-family="Times New Roman,serif" font-size="14.00">var or method</text>
</g>
<!-- Id010C2560&#45;&gt;Id010C26A0 -->
<g id="edge30" class="edge"><title>Id010C2560&#45;&gt;Id010C26A0</title>
<path fill="none" stroke="black" d="M603.753,-287.697C603.643,-279.983 603.51,-270.712 603.387,-262.112"/>
<polygon fill="black" stroke="black" points="606.887,-262.053 603.244,-252.104 599.888,-262.153 606.887,-262.053"/>
</g>
<!-- Id010C2240 -->
<g id="node34" class="node"><title>Id010C2240</title>
<ellipse fill="none" stroke="black" cx="711" cy="-234" rx="28.6953" ry="18"/>
<text text-anchor="middle" x="711" y="-230.3" font-family="Times New Roman,serif" font-size="14.00">array</text>
</g>
<!-- Id010C2560&#45;&gt;Id010C2240 -->
<g id="edge31" class="edge"><title>Id010C2560&#45;&gt;Id010C2240</title>
<path fill="none" stroke="black" d="M622.638,-292.807C639.385,-281.851 664.205,-265.613 683.28,-253.135"/>
<polygon fill="black" stroke="black" points="685.403,-255.928 691.855,-247.525 681.571,-250.07 685.403,-255.928"/>
</g>
<!-- IdVal010C26A0 -->
<g id="node33" class="node"><title>IdVal010C26A0</title>
<ellipse fill="none" stroke="black" cx="610" cy="-162" rx="27" ry="18"/>
<text text-anchor="middle" x="610" y="-158.3" font-family="Times New Roman,serif" font-size="14.00">c</text>
</g>
<!-- Id010C26A0&#45;&gt;IdVal010C26A0 -->
<g id="edge29" class="edge"><title>Id010C26A0&#45;&gt;IdVal010C26A0</title>
<path fill="none" stroke="black" d="M604.73,-215.697C605.502,-207.983 606.429,-198.712 607.289,-190.112"/>
<polygon fill="black" stroke="black" points="610.777,-190.403 608.29,-180.104 603.812,-189.706 610.777,-190.403"/>
</g>
<!-- Id010C25B0 -->
<g id="node36" class="node"><title>Id010C25B0</title>
<ellipse fill="none" stroke="black" cx="712" cy="-306" rx="61.99" ry="18"/>
<text text-anchor="middle" x="712" y="-302.3" font-family="Times New Roman,serif" font-size="14.00">var or method</text>
</g>
<!-- Id010C22E0&#45;&gt;Id010C25B0 -->
<g id="edge35" class="edge"><title>Id010C22E0&#45;&gt;Id010C25B0</title>
<path fill="none" stroke="black" d="M698.357,-360.055C700.361,-352.261 702.789,-342.822 705.037,-334.079"/>
<polygon fill="black" stroke="black" points="708.457,-334.832 707.558,-324.275 701.678,-333.089 708.457,-334.832"/>
</g>
<!-- IdVal010C25B0 -->
<g id="node37" class="node"><title>IdVal010C25B0</title>
<ellipse fill="none" stroke="black" cx="785" cy="-234" rx="27" ry="18"/>
<text text-anchor="middle" x="785" y="-230.3" font-family="Times New Roman,serif" font-size="14.00">a</text>
</g>
<!-- Id010C25B0&#45;&gt;IdVal010C25B0 -->
<g id="edge34" class="edge"><title>Id010C25B0&#45;&gt;IdVal010C25B0</title>
<path fill="none" stroke="black" d="M729.3,-288.411C739.343,-278.781 752.096,-266.552 762.864,-256.226"/>
<polygon fill="black" stroke="black" points="765.492,-258.555 770.288,-249.108 760.647,-253.503 765.492,-258.555"/>
</g>
<!-- Id010C2060 -->
<g id="node39" class="node"><title>Id010C2060</title>
<ellipse fill="none" stroke="black" cx="856" cy="-306" rx="61.99" ry="18"/>
<text text-anchor="middle" x="856" y="-302.3" font-family="Times New Roman,serif" font-size="14.00">var or method</text>
</g>
<!-- Id010C23D0&#45;&gt;Id010C2060 -->
<g id="edge38" class="edge"><title>Id010C23D0&#45;&gt;Id010C2060</title>
<path fill="none" stroke="black" d="M821.211,-361.116C826.691,-352.592 833.573,-341.886 839.767,-332.251"/>
<polygon fill="black" stroke="black" points="842.738,-334.102 845.202,-323.797 836.85,-330.316 842.738,-334.102"/>
</g>
<!-- IdVal010C2060 -->
<g id="node40" class="node"><title>IdVal010C2060</title>
<ellipse fill="none" stroke="black" cx="857" cy="-234" rx="27" ry="18"/>
<text text-anchor="middle" x="857" y="-230.3" font-family="Times New Roman,serif" font-size="14.00">a</text>
</g>
<!-- Id010C2060&#45;&gt;IdVal010C2060 -->
<g id="edge37" class="edge"><title>Id010C2060&#45;&gt;IdVal010C2060</title>
<path fill="none" stroke="black" d="M856.247,-287.697C856.357,-279.983 856.49,-270.712 856.613,-262.112"/>
<polygon fill="black" stroke="black" points="860.112,-262.153 856.756,-252.104 853.113,-262.053 860.112,-262.153"/>
</g>
</g>
</svg>
