<?xml version="1.0" encoding="UTF-8" standalone="no"?>
<!DOCTYPE svg PUBLIC "-//W3C//DTD SVG 1.1//EN"
 "http://www.w3.org/Graphics/SVG/1.1/DTD/svg11.dtd">
<!-- Generated by graphviz version 2.38.0 (20140413.2041)
 -->
<!-- Title: G Pages: 1 -->
<svg width="1077pt" height="519pt"
 viewBox="0.00 0.00 1077.18 518.65" xmlns="http://www.w3.org/2000/svg" xmlns:xlink="http://www.w3.org/1999/xlink">
<g id="graph0" class="graph" transform="scale(1 1) rotate(0) translate(4 514.647)">
<title>G</title>
<polygon fill="white" stroke="none" points="-4,4 -4,-514.647 1073.18,-514.647 1073.18,4 -4,4"/>
<!-- Id014250E0 -->
<g id="node1" class="node"><title>Id014250E0</title>
<ellipse fill="none" stroke="black" cx="650" cy="-492.647" rx="41.6928" ry="18"/>
<text text-anchor="middle" x="650" y="-488.947" font-family="Times New Roman,serif" font-size="14.00">program</text>
</g>
<!-- Id01424488 -->
<g id="node2" class="node"><title>Id01424488</title>
<ellipse fill="none" stroke="black" cx="504" cy="-419.647" rx="27" ry="18"/>
<text text-anchor="middle" x="504" y="-415.947" font-family="Times New Roman,serif" font-size="14.00">stmt</text>
</g>
<!-- Id014250E0&#45;&gt;Id01424488 -->
<g id="edge11" class="edge"><title>Id014250E0&#45;&gt;Id01424488</title>
<path fill="none" stroke="black" d="M623.221,-478.624C598.147,-466.43 560.712,-448.226 534.497,-435.478"/>
<polygon fill="black" stroke="black" points="535.915,-432.275 525.391,-431.049 532.853,-438.57 535.915,-432.275"/>
</g>
<!-- Id01424DB0 -->
<g id="node13" class="node"><title>Id01424DB0</title>
<ellipse fill="none" stroke="black" cx="650" cy="-419.647" rx="27" ry="18"/>
<text text-anchor="middle" x="650" y="-415.947" font-family="Times New Roman,serif" font-size="14.00">stmt</text>
</g>
<!-- Id014250E0&#45;&gt;Id01424DB0 -->
<g id="edge19" class="edge"><title>Id014250E0&#45;&gt;Id01424DB0</title>
<path fill="none" stroke="black" d="M650,-474.46C650,-466.436 650,-456.694 650,-447.716"/>
<polygon fill="black" stroke="black" points="653.5,-447.676 650,-437.676 646.5,-447.676 653.5,-447.676"/>
</g>
<!-- Id01424AE0 -->
<g id="node21" class="node"><title>Id01424AE0</title>
<ellipse fill="none" stroke="black" cx="770" cy="-419.647" rx="27" ry="18"/>
<text text-anchor="middle" x="770" y="-415.947" font-family="Times New Roman,serif" font-size="14.00">stmt</text>
</g>
<!-- Id014250E0&#45;&gt;Id01424AE0 -->
<g id="edge25" class="edge"><title>Id014250E0&#45;&gt;Id01424AE0</title>
<path fill="none" stroke="black" d="M673.708,-477.619C693.224,-466.073 720.945,-449.671 741.636,-437.429"/>
<polygon fill="black" stroke="black" points="743.486,-440.401 750.31,-432.296 739.922,-434.376 743.486,-440.401"/>
</g>
<!-- Id01424418 -->
<g id="node3" class="node"><title>Id01424418</title>
<ellipse fill="none" stroke="black" cx="283" cy="-337.777" rx="27" ry="18"/>
<text text-anchor="middle" x="283" y="-334.077" font-family="Times New Roman,serif" font-size="14.00">=</text>
</g>
<!-- Id01424488&#45;&gt;Id01424418 -->
<g id="edge10" class="edge"><title>Id01424488&#45;&gt;Id01424418</title>
<path fill="none" stroke="black" d="M480.767,-410.25C441.306,-395.989 361.081,-366.996 315.876,-350.658"/>
<polygon fill="black" stroke="black" points="316.848,-347.288 306.253,-347.181 314.469,-353.871 316.848,-347.288"/>
</g>
<!-- Id014241E8 -->
<g id="node4" class="node"><title>Id014241E8</title>
<ellipse fill="none" stroke="black" cx="98" cy="-222.43" rx="67.3507" ry="26.7407"/>
<text text-anchor="middle" x="98" y="-226.23" font-family="Times New Roman,serif" font-size="14.00">var or method</text>
<text text-anchor="middle" x="98" y="-211.23" font-family="Times New Roman,serif" font-size="14.00"> localnum = 1</text>
</g>
<!-- Id01424418&#45;&gt;Id014241E8 -->
<g id="edge8" class="edge"><title>Id01424418&#45;&gt;Id014241E8</title>
<path fill="none" stroke="black" d="M263.551,-324.861C235.038,-307.391 181.098,-274.343 142.535,-250.716"/>
<polygon fill="black" stroke="black" points="143.933,-247.468 133.577,-245.228 140.276,-253.436 143.933,-247.468"/>
</g>
<!-- Id014243A8 -->
<g id="node6" class="node"><title>Id014243A8</title>
<ellipse fill="none" stroke="black" cx="283" cy="-222.43" rx="28.6953" ry="18"/>
<text text-anchor="middle" x="283" y="-218.73" font-family="Times New Roman,serif" font-size="14.00">array</text>
</g>
<!-- Id01424418&#45;&gt;Id014243A8 -->
<g id="edge9" class="edge"><title>Id01424418&#45;&gt;Id014243A8</title>
<path fill="none" stroke="black" d="M283,-319.562C283,-301.231 283,-271.966 283,-250.536"/>
<polygon fill="black" stroke="black" points="286.5,-250.435 283,-240.436 279.5,-250.436 286.5,-250.435"/>
</g>
<!-- IdVal014241E8 -->
<g id="node5" class="node"><title>IdVal014241E8</title>
<ellipse fill="none" stroke="black" cx="27" cy="-110.477" rx="27" ry="18"/>
<text text-anchor="middle" x="27" y="-106.777" font-family="Times New Roman,serif" font-size="14.00">a</text>
</g>
<!-- Id014241E8&#45;&gt;IdVal014241E8 -->
<g id="edge1" class="edge"><title>Id014241E8&#45;&gt;IdVal014241E8</title>
<path fill="none" stroke="black" d="M81.7112,-196.204C70.0667,-178.171 54.4761,-154.027 42.9169,-136.126"/>
<polygon fill="black" stroke="black" points="45.6469,-133.902 37.2819,-127.4 39.7663,-137.699 45.6469,-133.902"/>
</g>
<!-- Id01424258 -->
<g id="node7" class="node"><title>Id01424258</title>
<ellipse fill="none" stroke="black" cx="136" cy="-110.477" rx="64.1938" ry="37.4533"/>
<text text-anchor="middle" x="136" y="-121.777" font-family="Times New Roman,serif" font-size="14.00">INT</text>
<text text-anchor="middle" x="136" y="-106.777" font-family="Times New Roman,serif" font-size="14.00"> mref = #30</text>
<text text-anchor="middle" x="136" y="-91.7767" font-family="Times New Roman,serif" font-size="14.00"> val_id = #27</text>
</g>
<!-- Id014243A8&#45;&gt;Id01424258 -->
<g id="edge3" class="edge"><title>Id014243A8&#45;&gt;Id01424258</title>
<path fill="none" stroke="black" d="M265.268,-208.167C244.974,-192.987 210.918,-167.514 182.856,-146.524"/>
<polygon fill="black" stroke="black" points="184.844,-143.64 174.74,-140.453 180.651,-149.246 184.844,-143.64"/>
</g>
<!-- Id014242C8 -->
<g id="node9" class="node"><title>Id014242C8</title>
<ellipse fill="none" stroke="black" cx="283" cy="-110.477" rx="64.1938" ry="37.4533"/>
<text text-anchor="middle" x="283" y="-121.777" font-family="Times New Roman,serif" font-size="14.00">STRING</text>
<text text-anchor="middle" x="283" y="-106.777" font-family="Times New Roman,serif" font-size="14.00"> mref = #35</text>
<text text-anchor="middle" x="283" y="-91.7767" font-family="Times New Roman,serif" font-size="14.00"> val_id = #32</text>
</g>
<!-- Id014243A8&#45;&gt;Id014242C8 -->
<g id="edge5" class="edge"><title>Id014243A8&#45;&gt;Id014242C8</title>
<path fill="none" stroke="black" d="M283,-204.25C283,-191.845 283,-174.465 283,-158.097"/>
<polygon fill="black" stroke="black" points="286.5,-158.089 283,-148.09 279.5,-158.09 286.5,-158.089"/>
</g>
<!-- Id01424338 -->
<g id="node11" class="node"><title>Id01424338</title>
<ellipse fill="none" stroke="black" cx="430" cy="-110.477" rx="64.1938" ry="37.4533"/>
<text text-anchor="middle" x="430" y="-121.777" font-family="Times New Roman,serif" font-size="14.00">BOOLEAN</text>
<text text-anchor="middle" x="430" y="-106.777" font-family="Times New Roman,serif" font-size="14.00"> mref = #38</text>
<text text-anchor="middle" x="430" y="-91.7767" font-family="Times New Roman,serif" font-size="14.00"> val_id = #27</text>
</g>
<!-- Id014243A8&#45;&gt;Id01424338 -->
<g id="edge7" class="edge"><title>Id014243A8&#45;&gt;Id01424338</title>
<path fill="none" stroke="black" d="M300.732,-208.167C321.026,-192.987 355.082,-167.514 383.144,-146.524"/>
<polygon fill="black" stroke="black" points="385.349,-149.246 391.26,-140.453 381.156,-143.64 385.349,-149.246"/>
</g>
<!-- IdVal01424258 -->
<g id="node8" class="node"><title>IdVal01424258</title>
<ellipse fill="none" stroke="black" cx="136" cy="-18" rx="27" ry="18"/>
<text text-anchor="middle" x="136" y="-14.3" font-family="Times New Roman,serif" font-size="14.00">1</text>
</g>
<!-- Id01424258&#45;&gt;IdVal01424258 -->
<g id="edge2" class="edge"><title>Id01424258&#45;&gt;IdVal01424258</title>
<path fill="none" stroke="black" d="M136,-72.9371C136,-63.9712 136,-54.5316 136,-46.0996"/>
<polygon fill="black" stroke="black" points="139.5,-46.0694 136,-36.0695 132.5,-46.0695 139.5,-46.0694"/>
</g>
<!-- IdVal014242C8 -->
<g id="node10" class="node"><title>IdVal014242C8</title>
<ellipse fill="none" stroke="black" cx="283" cy="-18" rx="27" ry="18"/>
<text text-anchor="middle" x="283" y="-14.3" font-family="Times New Roman,serif" font-size="14.00">123</text>
</g>
<!-- Id014242C8&#45;&gt;IdVal014242C8 -->
<g id="edge4" class="edge"><title>Id014242C8&#45;&gt;IdVal014242C8</title>
<path fill="none" stroke="black" d="M283,-72.9371C283,-63.9712 283,-54.5316 283,-46.0996"/>
<polygon fill="black" stroke="black" points="286.5,-46.0694 283,-36.0695 279.5,-46.0695 286.5,-46.0694"/>
</g>
<!-- IdVal01424338 -->
<g id="node12" class="node"><title>IdVal01424338</title>
<ellipse fill="none" stroke="black" cx="430" cy="-18" rx="27" ry="18"/>
<text text-anchor="middle" x="430" y="-14.3" font-family="Times New Roman,serif" font-size="14.00">true</text>
</g>
<!-- Id01424338&#45;&gt;IdVal01424338 -->
<g id="edge6" class="edge"><title>Id01424338&#45;&gt;IdVal01424338</title>
<path fill="none" stroke="black" d="M430,-72.9371C430,-63.9712 430,-54.5316 430,-46.0996"/>
<polygon fill="black" stroke="black" points="433.5,-46.0694 430,-36.0695 426.5,-46.0695 433.5,-46.0694"/>
</g>
<!-- Id014246D8 -->
<g id="node14" class="node"><title>Id014246D8</title>
<ellipse fill="none" stroke="black" cx="650" cy="-337.777" rx="55.7232" ry="26.7407"/>
<text text-anchor="middle" x="650" y="-341.577" font-family="Times New Roman,serif" font-size="14.00">[]=</text>
<text text-anchor="middle" x="650" y="-326.577" font-family="Times New Roman,serif" font-size="14.00">mref = #42</text>
</g>
<!-- Id01424DB0&#45;&gt;Id014246D8 -->
<g id="edge18" class="edge"><title>Id01424DB0&#45;&gt;Id014246D8</title>
<path fill="none" stroke="black" d="M650,-401.316C650,-393.583 650,-384.163 650,-375.005"/>
<polygon fill="black" stroke="black" points="653.5,-374.881 650,-364.881 646.5,-374.881 653.5,-374.881"/>
</g>
<!-- Id01424518 -->
<g id="node15" class="node"><title>Id01424518</title>
<ellipse fill="none" stroke="black" cx="500" cy="-222.43" rx="67.3507" ry="26.7407"/>
<text text-anchor="middle" x="500" y="-226.23" font-family="Times New Roman,serif" font-size="14.00">var or method</text>
<text text-anchor="middle" x="500" y="-211.23" font-family="Times New Roman,serif" font-size="14.00"> localnum = 1</text>
</g>
<!-- Id014246D8&#45;&gt;Id01424518 -->
<g id="edge13" class="edge"><title>Id014246D8&#45;&gt;Id01424518</title>
<path fill="none" stroke="black" d="M620.722,-314.653C597.258,-296.922 564.138,-271.895 538.522,-252.539"/>
<polygon fill="black" stroke="black" points="540.579,-249.707 530.491,-246.47 536.359,-255.292 540.579,-249.707"/>
<text text-anchor="middle" x="603" y="-281.707" font-family="Times New Roman,serif" font-size="14.00">array</text>
</g>
<!-- Id01424588 -->
<g id="node17" class="node"><title>Id01424588</title>
<ellipse fill="none" stroke="black" cx="650" cy="-222.43" rx="64.1938" ry="37.4533"/>
<text text-anchor="middle" x="650" y="-233.73" font-family="Times New Roman,serif" font-size="14.00">INT</text>
<text text-anchor="middle" x="650" y="-218.73" font-family="Times New Roman,serif" font-size="14.00"> mref = #30</text>
<text text-anchor="middle" x="650" y="-203.73" font-family="Times New Roman,serif" font-size="14.00"> val_id = #27</text>
</g>
<!-- Id014246D8&#45;&gt;Id01424588 -->
<g id="edge15" class="edge"><title>Id014246D8&#45;&gt;Id01424588</title>
<path fill="none" stroke="black" d="M650,-310.773C650,-298.794 650,-284.198 650,-270.395"/>
<polygon fill="black" stroke="black" points="653.5,-270.051 650,-260.051 646.5,-270.051 653.5,-270.051"/>
<text text-anchor="middle" x="665.5" y="-281.707" font-family="Times New Roman,serif" font-size="14.00">index</text>
</g>
<!-- Id01424668 -->
<g id="node19" class="node"><title>Id01424668</title>
<ellipse fill="none" stroke="black" cx="797" cy="-222.43" rx="64.1938" ry="37.4533"/>
<text text-anchor="middle" x="797" y="-233.73" font-family="Times New Roman,serif" font-size="14.00">INT</text>
<text text-anchor="middle" x="797" y="-218.73" font-family="Times New Roman,serif" font-size="14.00"> mref = #30</text>
<text text-anchor="middle" x="797" y="-203.73" font-family="Times New Roman,serif" font-size="14.00"> val_id = #43</text>
</g>
<!-- Id014246D8&#45;&gt;Id01424668 -->
<g id="edge17" class="edge"><title>Id014246D8&#45;&gt;Id01424668</title>
<path fill="none" stroke="black" d="M678.692,-314.653C699.171,-298.862 727.155,-277.285 750.766,-259.08"/>
<polygon fill="black" stroke="black" points="753.133,-261.674 758.915,-252.796 748.859,-256.13 753.133,-261.674"/>
<text text-anchor="middle" x="732" y="-281.707" font-family="Times New Roman,serif" font-size="14.00">val</text>
</g>
<!-- IdVal01424518 -->
<g id="node16" class="node"><title>IdVal01424518</title>
<ellipse fill="none" stroke="black" cx="539" cy="-110.477" rx="27" ry="18"/>
<text text-anchor="middle" x="539" y="-106.777" font-family="Times New Roman,serif" font-size="14.00">a</text>
</g>
<!-- Id01424518&#45;&gt;IdVal01424518 -->
<g id="edge12" class="edge"><title>Id01424518&#45;&gt;IdVal01424518</title>
<path fill="none" stroke="black" d="M509.144,-195.651C515.317,-178.247 523.441,-155.344 529.655,-137.822"/>
<polygon fill="black" stroke="black" points="533.02,-138.805 533.065,-128.21 526.423,-136.465 533.02,-138.805"/>
</g>
<!-- IdVal01424588 -->
<g id="node18" class="node"><title>IdVal01424588</title>
<ellipse fill="none" stroke="black" cx="650" cy="-110.477" rx="27" ry="18"/>
<text text-anchor="middle" x="650" y="-106.777" font-family="Times New Roman,serif" font-size="14.00">1</text>
</g>
<!-- Id01424588&#45;&gt;IdVal01424588 -->
<g id="edge14" class="edge"><title>Id01424588&#45;&gt;IdVal01424588</title>
<path fill="none" stroke="black" d="M650,-184.817C650,-169.832 650,-152.79 650,-138.908"/>
<polygon fill="black" stroke="black" points="653.5,-138.551 650,-128.551 646.5,-138.551 653.5,-138.551"/>
</g>
<!-- IdVal01424668 -->
<g id="node20" class="node"><title>IdVal01424668</title>
<ellipse fill="none" stroke="black" cx="797" cy="-110.477" rx="27" ry="18"/>
<text text-anchor="middle" x="797" y="-106.777" font-family="Times New Roman,serif" font-size="14.00">2</text>
</g>
<!-- Id01424668&#45;&gt;IdVal01424668 -->
<g id="edge16" class="edge"><title>Id01424668&#45;&gt;IdVal01424668</title>
<path fill="none" stroke="black" d="M797,-184.817C797,-169.832 797,-152.79 797,-138.908"/>
<polygon fill="black" stroke="black" points="800.5,-138.551 797,-128.551 793.5,-138.551 800.5,-138.551"/>
</g>
<!-- Id01425030 -->
<g id="node22" class="node"><title>Id01425030</title>
<ellipse fill="none" stroke="black" cx="913" cy="-337.777" rx="60.2083" ry="26.7407"/>
<text text-anchor="middle" x="913" y="-341.577" font-family="Times New Roman,serif" font-size="14.00">method_call</text>
<text text-anchor="middle" x="913" y="-326.577" font-family="Times New Roman,serif" font-size="14.00"> mref = #47</text>
</g>
<!-- Id01424AE0&#45;&gt;Id01425030 -->
<g id="edge24" class="edge"><title>Id01424AE0&#45;&gt;Id01425030</title>
<path fill="none" stroke="black" d="M790.185,-407.373C810.157,-396.218 841.419,-378.757 867.403,-364.244"/>
<polygon fill="black" stroke="black" points="869.323,-367.181 876.347,-359.249 865.909,-361.069 869.323,-367.181"/>
</g>
<!-- IdMethodNameVal01425030 -->
<g id="node23" class="node"><title>IdMethodNameVal01425030</title>
<ellipse fill="none" stroke="black" cx="913" cy="-222.43" rx="33.5952" ry="18"/>
<text text-anchor="middle" x="913" y="-218.73" font-family="Times New Roman,serif" font-size="14.00">println</text>
</g>
<!-- Id01425030&#45;&gt;IdMethodNameVal01425030 -->
<g id="edge20" class="edge"><title>Id01425030&#45;&gt;IdMethodNameVal01425030</title>
<path fill="none" stroke="black" d="M913,-310.773C913,-292.743 913,-268.787 913,-250.524"/>
<polygon fill="black" stroke="black" points="916.5,-250.517 913,-240.517 909.5,-250.517 916.5,-250.517"/>
<text text-anchor="middle" x="928" y="-281.707" font-family="Times New Roman,serif" font-size="14.00">name</text>
</g>
<!-- Id0141EBF8 -->
<g id="node24" class="node"><title>Id0141EBF8</title>
<ellipse fill="none" stroke="black" cx="1002" cy="-222.43" rx="37.0935" ry="18"/>
<text text-anchor="middle" x="1002" y="-218.73" font-family="Times New Roman,serif" font-size="14.00">params</text>
</g>
<!-- Id01425030&#45;&gt;Id0141EBF8 -->
<g id="edge21" class="edge"><title>Id01425030&#45;&gt;Id0141EBF8</title>
<path fill="none" stroke="black" d="M932.312,-312.182C947.364,-293.012 968.15,-266.54 983.097,-247.504"/>
<polygon fill="black" stroke="black" points="985.889,-249.616 989.312,-239.589 980.383,-245.293 985.889,-249.616"/>
</g>
<!-- Id01424FC0 -->
<g id="node25" class="node"><title>Id01424FC0</title>
<ellipse fill="none" stroke="black" cx="1002" cy="-110.477" rx="67.3507" ry="26.7407"/>
<text text-anchor="middle" x="1002" y="-114.277" font-family="Times New Roman,serif" font-size="14.00">var or method</text>
<text text-anchor="middle" x="1002" y="-99.2767" font-family="Times New Roman,serif" font-size="14.00"> localnum = 1</text>
</g>
<!-- Id0141EBF8&#45;&gt;Id01424FC0 -->
<g id="edge23" class="edge"><title>Id0141EBF8&#45;&gt;Id01424FC0</title>
<path fill="none" stroke="black" d="M1002,-204.25C1002,-189.165 1002,-166.722 1002,-147.689"/>
<polygon fill="black" stroke="black" points="1005.5,-147.534 1002,-137.534 998.5,-147.534 1005.5,-147.534"/>
</g>
<!-- IdVal01424FC0 -->
<g id="node26" class="node"><title>IdVal01424FC0</title>
<ellipse fill="none" stroke="black" cx="1002" cy="-18" rx="27" ry="18"/>
<text text-anchor="middle" x="1002" y="-14.3" font-family="Times New Roman,serif" font-size="14.00">a</text>
</g>
<!-- Id01424FC0&#45;&gt;IdVal01424FC0 -->
<g id="edge22" class="edge"><title>Id01424FC0&#45;&gt;IdVal01424FC0</title>
<path fill="none" stroke="black" d="M1002,-83.3071C1002,-71.7193 1002,-58.0883 1002,-46.3654"/>
<polygon fill="black" stroke="black" points="1005.5,-46.2492 1002,-36.2493 998.5,-46.2493 1005.5,-46.2492"/>
</g>
</g>
</svg>
