<?xml version="1.0" encoding="UTF-8" standalone="no"?>
<!DOCTYPE svg PUBLIC "-//W3C//DTD SVG 1.1//EN"
 "http://www.w3.org/Graphics/SVG/1.1/DTD/svg11.dtd">
<!-- Generated by graphviz version 2.38.0 (20140413.2041)
 -->
<!-- Title: G Pages: 1 -->
<svg width="393pt" height="423pt"
 viewBox="0.00 0.00 393.49 423.00" xmlns="http://www.w3.org/2000/svg" xmlns:xlink="http://www.w3.org/1999/xlink">
<g id="graph0" class="graph" transform="scale(1 1) rotate(0) translate(4 419)">
<title>G</title>
<polygon fill="white" stroke="none" points="-4,4 -4,-419 389.489,-419 389.489,4 -4,4"/>
<!-- Id007A9FA8 -->
<g id="node1" class="node"><title>Id007A9FA8</title>
<ellipse fill="none" stroke="black" cx="213.745" cy="-397" rx="41.6928" ry="18"/>
<text text-anchor="middle" x="213.745" y="-393.3" font-family="Times New Roman,serif" font-size="14.00">program</text>
</g>
<!-- Id007B4110 -->
<g id="node2" class="node"><title>Id007B4110</title>
<ellipse fill="none" stroke="black" cx="171.745" cy="-324" rx="27" ry="18"/>
<text text-anchor="middle" x="171.745" y="-320.3" font-family="Times New Roman,serif" font-size="14.00">stmt</text>
</g>
<!-- Id007A9FA8&#45;&gt;Id007B4110 -->
<g id="edge6" class="edge"><title>Id007A9FA8&#45;&gt;Id007B4110</title>
<path fill="none" stroke="black" d="M203.791,-379.174C198.644,-370.473 192.259,-359.679 186.546,-350.022"/>
<polygon fill="black" stroke="black" points="189.441,-348.041 181.337,-341.217 183.416,-351.605 189.441,-348.041"/>
</g>
<!-- Id007B3FD0 -->
<g id="node8" class="node"><title>Id007B3FD0</title>
<ellipse fill="none" stroke="black" cx="245.745" cy="-324" rx="27" ry="18"/>
<text text-anchor="middle" x="245.745" y="-320.3" font-family="Times New Roman,serif" font-size="14.00">stmt</text>
</g>
<!-- Id007A9FA8&#45;&gt;Id007B3FD0 -->
<g id="edge12" class="edge"><title>Id007A9FA8&#45;&gt;Id007B3FD0</title>
<path fill="none" stroke="black" d="M221.328,-379.174C225.114,-370.774 229.779,-360.424 234.013,-351.029"/>
<polygon fill="black" stroke="black" points="237.297,-352.26 238.215,-341.705 230.915,-349.384 237.297,-352.26"/>
</g>
<!-- Id007B3E40 -->
<g id="node3" class="node"><title>Id007B3E40</title>
<ellipse fill="none" stroke="black" cx="154.745" cy="-251" rx="27" ry="18"/>
<text text-anchor="middle" x="154.745" y="-247.3" font-family="Times New Roman,serif" font-size="14.00">=</text>
</g>
<!-- Id007B4110&#45;&gt;Id007B3E40 -->
<g id="edge5" class="edge"><title>Id007B4110&#45;&gt;Id007B3E40</title>
<path fill="none" stroke="black" d="M167.716,-306.174C165.775,-298.07 163.4,-288.151 161.215,-279.025"/>
<polygon fill="black" stroke="black" points="164.595,-278.109 158.862,-269.198 157.787,-279.739 164.595,-278.109"/>
</g>
<!-- Id007A5178 -->
<g id="node4" class="node"><title>Id007A5178</title>
<ellipse fill="none" stroke="black" cx="61.7445" cy="-164" rx="61.99" ry="18"/>
<text text-anchor="middle" x="61.7445" y="-160.3" font-family="Times New Roman,serif" font-size="14.00">var or method</text>
</g>
<!-- Id007B3E40&#45;&gt;Id007A5178 -->
<g id="edge3" class="edge"><title>Id007B3E40&#45;&gt;Id007A5178</title>
<path fill="none" stroke="black" d="M139.387,-235.964C125.289,-223.078 104.121,-203.731 87.4463,-188.491"/>
<polygon fill="black" stroke="black" points="89.4151,-185.549 79.6724,-181.386 84.6926,-190.716 89.4151,-185.549"/>
</g>
<!-- Id007B3DA0 -->
<g id="node6" class="node"><title>Id007B3DA0</title>
<ellipse fill="none" stroke="black" cx="168.745" cy="-164" rx="27" ry="18"/>
<text text-anchor="middle" x="168.745" y="-160.3" font-family="Times New Roman,serif" font-size="14.00">INT</text>
</g>
<!-- Id007B3E40&#45;&gt;Id007B3DA0 -->
<g id="edge4" class="edge"><title>Id007B3E40&#45;&gt;Id007B3DA0</title>
<path fill="none" stroke="black" d="M157.578,-232.799C159.494,-221.163 162.066,-205.548 164.258,-192.237"/>
<polygon fill="black" stroke="black" points="167.744,-192.611 165.916,-182.175 160.837,-191.474 167.744,-192.611"/>
</g>
<!-- IdVal007A5178 -->
<g id="node5" class="node"><title>IdVal007A5178</title>
<ellipse fill="none" stroke="black" cx="61.7445" cy="-91" rx="27" ry="18"/>
<text text-anchor="middle" x="61.7445" y="-87.3" font-family="Times New Roman,serif" font-size="14.00">a</text>
</g>
<!-- Id007A5178&#45;&gt;IdVal007A5178 -->
<g id="edge1" class="edge"><title>Id007A5178&#45;&gt;IdVal007A5178</title>
<path fill="none" stroke="black" d="M61.7445,-145.813C61.7445,-137.789 61.7445,-128.047 61.7445,-119.069"/>
<polygon fill="black" stroke="black" points="65.2446,-119.029 61.7445,-109.029 58.2446,-119.029 65.2446,-119.029"/>
</g>
<!-- IdVal007B3DA0 -->
<g id="node7" class="node"><title>IdVal007B3DA0</title>
<ellipse fill="none" stroke="black" cx="168.745" cy="-91" rx="27" ry="18"/>
<text text-anchor="middle" x="168.745" y="-87.3" font-family="Times New Roman,serif" font-size="14.00">2</text>
</g>
<!-- Id007B3DA0&#45;&gt;IdVal007B3DA0 -->
<g id="edge2" class="edge"><title>Id007B3DA0&#45;&gt;IdVal007B3DA0</title>
<path fill="none" stroke="black" d="M168.745,-145.813C168.745,-137.789 168.745,-128.047 168.745,-119.069"/>
<polygon fill="black" stroke="black" points="172.245,-119.029 168.745,-109.029 165.245,-119.029 172.245,-119.029"/>
</g>
<!-- Id007B4160 -->
<g id="node9" class="node"><title>Id007B4160</title>
<ellipse fill="none" stroke="black" cx="254.745" cy="-251" rx="55.4913" ry="18"/>
<text text-anchor="middle" x="254.745" y="-247.3" font-family="Times New Roman,serif" font-size="14.00">method_call</text>
</g>
<!-- Id007B3FD0&#45;&gt;Id007B4160 -->
<g id="edge11" class="edge"><title>Id007B3FD0&#45;&gt;Id007B4160</title>
<path fill="none" stroke="black" d="M247.923,-305.813C248.94,-297.789 250.175,-288.047 251.313,-279.069"/>
<polygon fill="black" stroke="black" points="254.801,-279.39 252.586,-269.029 247.856,-278.509 254.801,-279.39"/>
</g>
<!-- IdMethodNameVal007B4160 -->
<g id="node10" class="node"><title>IdMethodNameVal007B4160</title>
<ellipse fill="none" stroke="black" cx="241.745" cy="-164" rx="27.0966" ry="18"/>
<text text-anchor="middle" x="241.745" y="-160.3" font-family="Times New Roman,serif" font-size="14.00">print</text>
</g>
<!-- Id007B4160&#45;&gt;IdMethodNameVal007B4160 -->
<g id="edge7" class="edge"><title>Id007B4160&#45;&gt;IdMethodNameVal007B4160</title>
<path fill="none" stroke="black" d="M252.114,-232.799C250.334,-221.163 247.946,-205.548 245.91,-192.237"/>
<polygon fill="black" stroke="black" points="249.343,-191.531 244.371,-182.175 242.423,-192.59 249.343,-191.531"/>
<text text-anchor="middle" x="263.745" y="-203.8" font-family="Times New Roman,serif" font-size="14.00">name</text>
</g>
<!-- Id007AE198 -->
<g id="node11" class="node"><title>Id007AE198</title>
<ellipse fill="none" stroke="black" cx="323.745" cy="-164" rx="37.0935" ry="18"/>
<text text-anchor="middle" x="323.745" y="-160.3" font-family="Times New Roman,serif" font-size="14.00">params</text>
</g>
<!-- Id007B4160&#45;&gt;Id007AE198 -->
<g id="edge8" class="edge"><title>Id007B4160&#45;&gt;Id007AE198</title>
<path fill="none" stroke="black" d="M268.377,-233.207C278.686,-220.507 292.977,-202.902 304.457,-188.76"/>
<polygon fill="black" stroke="black" points="307.256,-190.866 310.841,-180.896 301.821,-186.454 307.256,-190.866"/>
</g>
<!-- Id007B3D50 -->
<g id="node12" class="node"><title>Id007B3D50</title>
<ellipse fill="none" stroke="black" cx="323.745" cy="-91" rx="61.99" ry="18"/>
<text text-anchor="middle" x="323.745" y="-87.3" font-family="Times New Roman,serif" font-size="14.00">var or method</text>
</g>
<!-- Id007AE198&#45;&gt;Id007B3D50 -->
<g id="edge10" class="edge"><title>Id007AE198&#45;&gt;Id007B3D50</title>
<path fill="none" stroke="black" d="M323.745,-145.813C323.745,-137.789 323.745,-128.047 323.745,-119.069"/>
<polygon fill="black" stroke="black" points="327.245,-119.029 323.745,-109.029 320.245,-119.029 327.245,-119.029"/>
</g>
<!-- IdVal007B3D50 -->
<g id="node13" class="node"><title>IdVal007B3D50</title>
<ellipse fill="none" stroke="black" cx="323.745" cy="-18" rx="27" ry="18"/>
<text text-anchor="middle" x="323.745" y="-14.3" font-family="Times New Roman,serif" font-size="14.00">a</text>
</g>
<!-- Id007B3D50&#45;&gt;IdVal007B3D50 -->
<g id="edge9" class="edge"><title>Id007B3D50&#45;&gt;IdVal007B3D50</title>
<path fill="none" stroke="black" d="M323.745,-72.8129C323.745,-64.7895 323.745,-55.0475 323.745,-46.0691"/>
<polygon fill="black" stroke="black" points="327.245,-46.0288 323.745,-36.0288 320.245,-46.0289 327.245,-46.0288"/>
</g>
</g>
</svg>
