<?xml version="1.0" encoding="UTF-8" standalone="no"?>
<!DOCTYPE svg PUBLIC "-//W3C//DTD SVG 1.1//EN"
 "http://www.w3.org/Graphics/SVG/1.1/DTD/svg11.dtd">
<!-- Generated by graphviz version 2.38.0 (20140413.2041)
 -->
<!-- Title: G Pages: 1 -->
<svg width="238pt" height="332pt"
 viewBox="0.00 0.00 237.94 332.00" xmlns="http://www.w3.org/2000/svg" xmlns:xlink="http://www.w3.org/1999/xlink">
<g id="graph0" class="graph" transform="scale(1 1) rotate(0) translate(4 328)">
<title>G</title>
<polygon fill="white" stroke="none" points="-4,4 -4,-328 233.941,-328 233.941,4 -4,4"/>
<!-- Id00939AB8 -->
<g id="node1" class="node"><title>Id00939AB8</title>
<ellipse fill="none" stroke="black" cx="123.745" cy="-306" rx="41.6928" ry="18"/>
<text text-anchor="middle" x="123.745" y="-302.3" font-family="Times New Roman,serif" font-size="14.00">program</text>
</g>
<!-- Id00939A30 -->
<g id="node2" class="node"><title>Id00939A30</title>
<ellipse fill="none" stroke="black" cx="123.745" cy="-234" rx="27" ry="18"/>
<text text-anchor="middle" x="123.745" y="-230.3" font-family="Times New Roman,serif" font-size="14.00">stmt</text>
</g>
<!-- Id00939AB8&#45;&gt;Id00939A30 -->
<g id="edge6" class="edge"><title>Id00939AB8&#45;&gt;Id00939A30</title>
<path fill="none" stroke="black" d="M123.745,-287.697C123.745,-279.983 123.745,-270.712 123.745,-262.112"/>
<polygon fill="black" stroke="black" points="127.245,-262.104 123.745,-252.104 120.245,-262.104 127.245,-262.104"/>
</g>
<!-- Id009399E0 -->
<g id="node3" class="node"><title>Id009399E0</title>
<ellipse fill="none" stroke="black" cx="123.745" cy="-162" rx="27" ry="18"/>
<text text-anchor="middle" x="123.745" y="-158.3" font-family="Times New Roman,serif" font-size="14.00">=</text>
</g>
<!-- Id00939A30&#45;&gt;Id009399E0 -->
<g id="edge5" class="edge"><title>Id00939A30&#45;&gt;Id009399E0</title>
<path fill="none" stroke="black" d="M123.745,-215.697C123.745,-207.983 123.745,-198.712 123.745,-190.112"/>
<polygon fill="black" stroke="black" points="127.245,-190.104 123.745,-180.104 120.245,-190.104 127.245,-190.104"/>
</g>
<!-- Id00939908 -->
<g id="node4" class="node"><title>Id00939908</title>
<ellipse fill="none" stroke="black" cx="61.7445" cy="-90" rx="61.99" ry="18"/>
<text text-anchor="middle" x="61.7445" y="-86.3" font-family="Times New Roman,serif" font-size="14.00">var or method</text>
</g>
<!-- Id009399E0&#45;&gt;Id00939908 -->
<g id="edge3" class="edge"><title>Id009399E0&#45;&gt;Id00939908</title>
<path fill="none" stroke="black" d="M110.596,-146.155C102.665,-137.2 92.3687,-125.576 83.2751,-115.309"/>
<polygon fill="black" stroke="black" points="85.8652,-112.954 76.6148,-107.789 80.6251,-117.596 85.8652,-112.954"/>
</g>
<!-- Id00939990 -->
<g id="node6" class="node"><title>Id00939990</title>
<ellipse fill="none" stroke="black" cx="185.745" cy="-90" rx="44.393" ry="18"/>
<text text-anchor="middle" x="185.745" y="-86.3" font-family="Times New Roman,serif" font-size="14.00">STRING</text>
</g>
<!-- Id009399E0&#45;&gt;Id00939990 -->
<g id="edge4" class="edge"><title>Id009399E0&#45;&gt;Id00939990</title>
<path fill="none" stroke="black" d="M136.893,-146.155C144.938,-137.072 155.415,-125.243 164.603,-114.87"/>
<polygon fill="black" stroke="black" points="167.306,-117.097 171.316,-107.29 162.065,-112.456 167.306,-117.097"/>
</g>
<!-- IdVal00939908 -->
<g id="node5" class="node"><title>IdVal00939908</title>
<ellipse fill="none" stroke="black" cx="61.7445" cy="-18" rx="27" ry="18"/>
<text text-anchor="middle" x="61.7445" y="-14.3" font-family="Times New Roman,serif" font-size="14.00">a</text>
</g>
<!-- Id00939908&#45;&gt;IdVal00939908 -->
<g id="edge1" class="edge"><title>Id00939908&#45;&gt;IdVal00939908</title>
<path fill="none" stroke="black" d="M61.7445,-71.6966C61.7445,-63.9827 61.7445,-54.7125 61.7445,-46.1124"/>
<polygon fill="black" stroke="black" points="65.2446,-46.1043 61.7445,-36.1043 58.2446,-46.1044 65.2446,-46.1043"/>
</g>
<!-- IdVal00939990 -->
<g id="node7" class="node"><title>IdVal00939990</title>
<ellipse fill="none" stroke="black" cx="185.745" cy="-18" rx="27" ry="18"/>
<text text-anchor="middle" x="185.745" y="-14.3" font-family="Times New Roman,serif" font-size="14.00">asdr</text>
</g>
<!-- Id00939990&#45;&gt;IdVal00939990 -->
<g id="edge2" class="edge"><title>Id00939990&#45;&gt;IdVal00939990</title>
<path fill="none" stroke="black" d="M185.745,-71.6966C185.745,-63.9827 185.745,-54.7125 185.745,-46.1124"/>
<polygon fill="black" stroke="black" points="189.245,-46.1043 185.745,-36.1043 182.245,-46.1044 189.245,-46.1043"/>
</g>
</g>
</svg>
