<?xml version="1.0" encoding="UTF-8" standalone="no"?>
<!DOCTYPE svg PUBLIC "-//W3C//DTD SVG 1.1//EN"
 "http://www.w3.org/Graphics/SVG/1.1/DTD/svg11.dtd">
<!-- Generated by graphviz version 2.38.0 (20140413.2041)
 -->
<!-- Title: G Pages: 1 -->
<svg width="572pt" height="743pt"
 viewBox="0.00 0.00 571.99 743.00" xmlns="http://www.w3.org/2000/svg" xmlns:xlink="http://www.w3.org/1999/xlink">
<g id="graph0" class="graph" transform="scale(1 1) rotate(0) translate(4 739)">
<title>G</title>
<polygon fill="white" stroke="none" points="-4,4 -4,-739 567.992,-739 567.992,4 -4,4"/>
<!-- Id011B9AE0 -->
<g id="node1" class="node"><title>Id011B9AE0</title>
<ellipse fill="none" stroke="black" cx="265.945" cy="-717" rx="41.6928" ry="18"/>
<text text-anchor="middle" x="265.945" y="-713.3" font-family="Times New Roman,serif" font-size="14.00">program</text>
</g>
<!-- Id011C21A0 -->
<g id="node2" class="node"><title>Id011C21A0</title>
<ellipse fill="none" stroke="black" cx="265.945" cy="-644" rx="27" ry="18"/>
<text text-anchor="middle" x="265.945" y="-640.3" font-family="Times New Roman,serif" font-size="14.00">stmt</text>
</g>
<!-- Id011B9AE0&#45;&gt;Id011C21A0 -->
<g id="edge29" class="edge"><title>Id011B9AE0&#45;&gt;Id011C21A0</title>
<path fill="none" stroke="black" d="M265.945,-698.813C265.945,-690.789 265.945,-681.047 265.945,-672.069"/>
<polygon fill="black" stroke="black" points="269.445,-672.029 265.945,-662.029 262.445,-672.029 269.445,-672.029"/>
</g>
<!-- Id011C2F80 -->
<g id="node3" class="node"><title>Id011C2F80</title>
<ellipse fill="none" stroke="black" cx="265.945" cy="-571" rx="36.2938" ry="18"/>
<text text-anchor="middle" x="265.945" y="-567.3" font-family="Times New Roman,serif" font-size="14.00">if_stmt</text>
</g>
<!-- Id011C21A0&#45;&gt;Id011C2F80 -->
<g id="edge28" class="edge"><title>Id011C21A0&#45;&gt;Id011C2F80</title>
<path fill="none" stroke="black" d="M265.945,-625.813C265.945,-617.789 265.945,-608.047 265.945,-599.069"/>
<polygon fill="black" stroke="black" points="269.445,-599.029 265.945,-589.029 262.445,-599.029 269.445,-599.029"/>
</g>
<!-- Id011B9AA8 -->
<g id="node4" class="node"><title>Id011B9AA8</title>
<ellipse fill="none" stroke="black" cx="155.945" cy="-498" rx="35.9954" ry="18"/>
<text text-anchor="middle" x="155.945" y="-494.3" font-family="Times New Roman,serif" font-size="14.00">branch</text>
</g>
<!-- Id011C2F80&#45;&gt;Id011B9AA8 -->
<g id="edge10" class="edge"><title>Id011C2F80&#45;&gt;Id011B9AA8</title>
<path fill="none" stroke="black" d="M244.736,-556.31C227.921,-545.457 204.225,-530.162 185.542,-518.103"/>
<polygon fill="black" stroke="black" points="187.389,-515.13 177.089,-512.647 183.593,-521.011 187.389,-515.13"/>
</g>
<!-- Id011B0578 -->
<g id="node14" class="node"><title>Id011B0578</title>
<ellipse fill="none" stroke="black" cx="265.945" cy="-498" rx="35.9954" ry="18"/>
<text text-anchor="middle" x="265.945" y="-494.3" font-family="Times New Roman,serif" font-size="14.00">branch</text>
</g>
<!-- Id011C2F80&#45;&gt;Id011B0578 -->
<g id="edge20" class="edge"><title>Id011C2F80&#45;&gt;Id011B0578</title>
<path fill="none" stroke="black" d="M265.945,-552.813C265.945,-544.789 265.945,-535.047 265.945,-526.069"/>
<polygon fill="black" stroke="black" points="269.445,-526.029 265.945,-516.029 262.445,-526.029 269.445,-526.029"/>
</g>
<!-- IdElse011C2DF8 -->
<g id="node24" class="node"><title>IdElse011C2DF8</title>
<ellipse fill="none" stroke="black" cx="376.945" cy="-498" rx="53.8905" ry="18"/>
<text text-anchor="middle" x="376.945" y="-494.3" font-family="Times New Roman,serif" font-size="14.00">else_branch</text>
</g>
<!-- Id011C2F80&#45;&gt;IdElse011C2DF8 -->
<g id="edge27" class="edge"><title>Id011C2F80&#45;&gt;IdElse011C2DF8</title>
<path fill="none" stroke="black" d="M287.347,-556.31C303.481,-545.991 325.891,-531.656 344.262,-519.905"/>
<polygon fill="black" stroke="black" points="346.373,-522.71 352.911,-514.373 342.601,-516.813 346.373,-522.71"/>
</g>
<!-- Id011B98C0 -->
<g id="node5" class="node"><title>Id011B98C0</title>
<ellipse fill="none" stroke="black" cx="53.9452" cy="-411" rx="53.8905" ry="18"/>
<text text-anchor="middle" x="53.9452" y="-407.3" font-family="Times New Roman,serif" font-size="14.00">BOOLEAN</text>
</g>
<!-- Id011B9AA8&#45;&gt;Id011B98C0 -->
<g id="edge2" class="edge"><title>Id011B9AA8&#45;&gt;Id011B98C0</title>
<path fill="none" stroke="black" d="M132.178,-484.459C121.535,-478.338 109.119,-470.471 98.9452,-462 89.9677,-454.525 81.1353,-445.257 73.7053,-436.74"/>
<polygon fill="black" stroke="black" points="76.1867,-434.254 67.0525,-428.886 70.8454,-438.778 76.1867,-434.254"/>
<text text-anchor="middle" x="125.445" y="-450.8" font-family="Times New Roman,serif" font-size="14.00">condition</text>
</g>
<!-- IdBody011B9AA8 -->
<g id="node7" class="node"><title>IdBody011B9AA8</title>
<ellipse fill="none" stroke="black" cx="155.945" cy="-411" rx="29.795" ry="18"/>
<text text-anchor="middle" x="155.945" y="-407.3" font-family="Times New Roman,serif" font-size="14.00">body</text>
</g>
<!-- Id011B9AA8&#45;&gt;IdBody011B9AA8 -->
<g id="edge9" class="edge"><title>Id011B9AA8&#45;&gt;IdBody011B9AA8</title>
<path fill="none" stroke="black" d="M155.945,-479.799C155.945,-468.163 155.945,-452.548 155.945,-439.237"/>
<polygon fill="black" stroke="black" points="159.445,-439.175 155.945,-429.175 152.445,-439.175 159.445,-439.175"/>
</g>
<!-- IdVal011B98C0 -->
<g id="node6" class="node"><title>IdVal011B98C0</title>
<ellipse fill="none" stroke="black" cx="53.9452" cy="-338" rx="27" ry="18"/>
<text text-anchor="middle" x="53.9452" y="-334.3" font-family="Times New Roman,serif" font-size="14.00">true</text>
</g>
<!-- Id011B98C0&#45;&gt;IdVal011B98C0 -->
<g id="edge1" class="edge"><title>Id011B98C0&#45;&gt;IdVal011B98C0</title>
<path fill="none" stroke="black" d="M53.9452,-392.813C53.9452,-384.789 53.9452,-375.047 53.9452,-366.069"/>
<polygon fill="black" stroke="black" points="57.4453,-366.029 53.9452,-356.029 50.4453,-366.029 57.4453,-366.029"/>
</g>
<!-- Id011B9A20 -->
<g id="node8" class="node"><title>Id011B9A20</title>
<ellipse fill="none" stroke="black" cx="155.945" cy="-338" rx="27" ry="18"/>
<text text-anchor="middle" x="155.945" y="-334.3" font-family="Times New Roman,serif" font-size="14.00">stmt</text>
</g>
<!-- IdBody011B9AA8&#45;&gt;Id011B9A20 -->
<g id="edge8" class="edge"><title>IdBody011B9AA8&#45;&gt;Id011B9A20</title>
<path fill="none" stroke="black" d="M155.945,-392.813C155.945,-384.789 155.945,-375.047 155.945,-366.069"/>
<polygon fill="black" stroke="black" points="159.445,-366.029 155.945,-356.029 152.445,-366.029 159.445,-366.029"/>
</g>
<!-- Id011B99D0 -->
<g id="node9" class="node"><title>Id011B99D0</title>
<ellipse fill="none" stroke="black" cx="155.945" cy="-251" rx="55.4913" ry="18"/>
<text text-anchor="middle" x="155.945" y="-247.3" font-family="Times New Roman,serif" font-size="14.00">method_call</text>
</g>
<!-- Id011B9A20&#45;&gt;Id011B99D0 -->
<g id="edge7" class="edge"><title>Id011B9A20&#45;&gt;Id011B99D0</title>
<path fill="none" stroke="black" d="M155.945,-319.799C155.945,-308.163 155.945,-292.548 155.945,-279.237"/>
<polygon fill="black" stroke="black" points="159.445,-279.175 155.945,-269.175 152.445,-279.175 159.445,-279.175"/>
</g>
<!-- IdMethodNameVal011B99D0 -->
<g id="node10" class="node"><title>IdMethodNameVal011B99D0</title>
<ellipse fill="none" stroke="black" cx="114.945" cy="-164" rx="27.0966" ry="18"/>
<text text-anchor="middle" x="114.945" y="-160.3" font-family="Times New Roman,serif" font-size="14.00">print</text>
</g>
<!-- Id011B99D0&#45;&gt;IdMethodNameVal011B99D0 -->
<g id="edge3" class="edge"><title>Id011B99D0&#45;&gt;IdMethodNameVal011B99D0</title>
<path fill="none" stroke="black" d="M145.132,-233.216C141.677,-227.54 137.968,-221.094 134.945,-215 131.206,-207.462 127.624,-199.044 124.551,-191.297"/>
<polygon fill="black" stroke="black" points="127.816,-190.035 120.957,-181.96 121.283,-192.549 127.816,-190.035"/>
<text text-anchor="middle" x="149.945" y="-203.8" font-family="Times New Roman,serif" font-size="14.00">name</text>
</g>
<!-- Id011B9998 -->
<g id="node11" class="node"><title>Id011B9998</title>
<ellipse fill="none" stroke="black" cx="196.945" cy="-164" rx="37.0935" ry="18"/>
<text text-anchor="middle" x="196.945" y="-160.3" font-family="Times New Roman,serif" font-size="14.00">params</text>
</g>
<!-- Id011B99D0&#45;&gt;Id011B9998 -->
<g id="edge4" class="edge"><title>Id011B99D0&#45;&gt;Id011B9998</title>
<path fill="none" stroke="black" d="M164.242,-232.799C170.041,-220.776 177.889,-204.506 184.444,-190.918"/>
<polygon fill="black" stroke="black" points="187.747,-192.125 188.94,-181.597 181.443,-189.083 187.747,-192.125"/>
</g>
<!-- Id011B9948 -->
<g id="node12" class="node"><title>Id011B9948</title>
<ellipse fill="none" stroke="black" cx="196.945" cy="-91" rx="27" ry="18"/>
<text text-anchor="middle" x="196.945" y="-87.3" font-family="Times New Roman,serif" font-size="14.00">INT</text>
</g>
<!-- Id011B9998&#45;&gt;Id011B9948 -->
<g id="edge6" class="edge"><title>Id011B9998&#45;&gt;Id011B9948</title>
<path fill="none" stroke="black" d="M196.945,-145.813C196.945,-137.789 196.945,-128.047 196.945,-119.069"/>
<polygon fill="black" stroke="black" points="200.445,-119.029 196.945,-109.029 193.445,-119.029 200.445,-119.029"/>
</g>
<!-- IdVal011B9948 -->
<g id="node13" class="node"><title>IdVal011B9948</title>
<ellipse fill="none" stroke="black" cx="196.945" cy="-18" rx="27" ry="18"/>
<text text-anchor="middle" x="196.945" y="-14.3" font-family="Times New Roman,serif" font-size="14.00">3</text>
</g>
<!-- Id011B9948&#45;&gt;IdVal011B9948 -->
<g id="edge5" class="edge"><title>Id011B9948&#45;&gt;IdVal011B9948</title>
<path fill="none" stroke="black" d="M196.945,-72.8129C196.945,-64.7895 196.945,-55.0475 196.945,-46.0691"/>
<polygon fill="black" stroke="black" points="200.445,-46.0288 196.945,-36.0288 193.445,-46.0289 200.445,-46.0288"/>
</g>
<!-- Id011C20B0 -->
<g id="node15" class="node"><title>Id011C20B0</title>
<ellipse fill="none" stroke="black" cx="257.945" cy="-411" rx="53.8905" ry="18"/>
<text text-anchor="middle" x="257.945" y="-407.3" font-family="Times New Roman,serif" font-size="14.00">BOOLEAN</text>
</g>
<!-- Id011B0578&#45;&gt;Id011C20B0 -->
<g id="edge12" class="edge"><title>Id011B0578&#45;&gt;Id011C20B0</title>
<path fill="none" stroke="black" d="M264.326,-479.799C263.231,-468.163 261.761,-452.548 260.509,-439.237"/>
<polygon fill="black" stroke="black" points="263.983,-438.803 259.562,-429.175 257.014,-439.459 263.983,-438.803"/>
<text text-anchor="middle" x="289.445" y="-450.8" font-family="Times New Roman,serif" font-size="14.00">condition</text>
</g>
<!-- IdBody011B0578 -->
<g id="node17" class="node"><title>IdBody011B0578</title>
<ellipse fill="none" stroke="black" cx="359.945" cy="-411" rx="29.795" ry="18"/>
<text text-anchor="middle" x="359.945" y="-407.3" font-family="Times New Roman,serif" font-size="14.00">body</text>
</g>
<!-- Id011B0578&#45;&gt;IdBody011B0578 -->
<g id="edge19" class="edge"><title>Id011B0578&#45;&gt;IdBody011B0578</title>
<path fill="none" stroke="black" d="M289.175,-484.206C299.172,-478.145 310.668,-470.396 319.945,-462 328.352,-454.392 336.41,-444.908 343.062,-436.252"/>
<polygon fill="black" stroke="black" points="346.058,-438.088 349.207,-427.972 340.437,-433.917 346.058,-438.088"/>
</g>
<!-- IdVal011C20B0 -->
<g id="node16" class="node"><title>IdVal011C20B0</title>
<ellipse fill="none" stroke="black" cx="257.945" cy="-338" rx="27.0966" ry="18"/>
<text text-anchor="middle" x="257.945" y="-334.3" font-family="Times New Roman,serif" font-size="14.00">false</text>
</g>
<!-- Id011C20B0&#45;&gt;IdVal011C20B0 -->
<g id="edge11" class="edge"><title>Id011C20B0&#45;&gt;IdVal011C20B0</title>
<path fill="none" stroke="black" d="M257.945,-392.813C257.945,-384.789 257.945,-375.047 257.945,-366.069"/>
<polygon fill="black" stroke="black" points="261.445,-366.029 257.945,-356.029 254.445,-366.029 261.445,-366.029"/>
</g>
<!-- Id011C2240 -->
<g id="node18" class="node"><title>Id011C2240</title>
<ellipse fill="none" stroke="black" cx="344.945" cy="-338" rx="27" ry="18"/>
<text text-anchor="middle" x="344.945" y="-334.3" font-family="Times New Roman,serif" font-size="14.00">stmt</text>
</g>
<!-- IdBody011B0578&#45;&gt;Id011C2240 -->
<g id="edge18" class="edge"><title>IdBody011B0578&#45;&gt;Id011C2240</title>
<path fill="none" stroke="black" d="M356.314,-392.813C354.619,-384.789 352.561,-375.047 350.664,-366.069"/>
<polygon fill="black" stroke="black" points="354.034,-365.089 348.543,-356.029 347.186,-366.536 354.034,-365.089"/>
</g>
<!-- Id011C2560 -->
<g id="node19" class="node"><title>Id011C2560</title>
<ellipse fill="none" stroke="black" cx="343.945" cy="-251" rx="55.4913" ry="18"/>
<text text-anchor="middle" x="343.945" y="-247.3" font-family="Times New Roman,serif" font-size="14.00">method_call</text>
</g>
<!-- Id011C2240&#45;&gt;Id011C2560 -->
<g id="edge17" class="edge"><title>Id011C2240&#45;&gt;Id011C2560</title>
<path fill="none" stroke="black" d="M344.743,-319.799C344.606,-308.163 344.422,-292.548 344.266,-279.237"/>
<polygon fill="black" stroke="black" points="347.765,-279.134 344.147,-269.175 340.765,-279.216 347.765,-279.134"/>
</g>
<!-- IdMethodNameVal011C2560 -->
<g id="node20" class="node"><title>IdMethodNameVal011C2560</title>
<ellipse fill="none" stroke="black" cx="311.945" cy="-164" rx="27.0966" ry="18"/>
<text text-anchor="middle" x="311.945" y="-160.3" font-family="Times New Roman,serif" font-size="14.00">print</text>
</g>
<!-- Id011C2560&#45;&gt;IdMethodNameVal011C2560 -->
<g id="edge13" class="edge"><title>Id011C2560&#45;&gt;IdMethodNameVal011C2560</title>
<path fill="none" stroke="black" d="M337.47,-232.799C332.987,-220.893 326.937,-204.822 321.852,-191.315"/>
<polygon fill="black" stroke="black" points="324.992,-189.723 318.193,-181.597 318.441,-192.189 324.992,-189.723"/>
<text text-anchor="middle" x="344.945" y="-203.8" font-family="Times New Roman,serif" font-size="14.00">name</text>
</g>
<!-- Id011B0508 -->
<g id="node21" class="node"><title>Id011B0508</title>
<ellipse fill="none" stroke="black" cx="393.945" cy="-164" rx="37.0935" ry="18"/>
<text text-anchor="middle" x="393.945" y="-160.3" font-family="Times New Roman,serif" font-size="14.00">params</text>
</g>
<!-- Id011C2560&#45;&gt;Id011B0508 -->
<g id="edge14" class="edge"><title>Id011C2560&#45;&gt;Id011B0508</title>
<path fill="none" stroke="black" d="M353.824,-233.207C361.061,-220.903 371.006,-203.996 379.185,-190.093"/>
<polygon fill="black" stroke="black" points="382.204,-191.863 384.257,-181.469 376.17,-188.314 382.204,-191.863"/>
</g>
<!-- Id011C2150 -->
<g id="node22" class="node"><title>Id011C2150</title>
<ellipse fill="none" stroke="black" cx="393.945" cy="-91" rx="27" ry="18"/>
<text text-anchor="middle" x="393.945" y="-87.3" font-family="Times New Roman,serif" font-size="14.00">INT</text>
</g>
<!-- Id011B0508&#45;&gt;Id011C2150 -->
<g id="edge16" class="edge"><title>Id011B0508&#45;&gt;Id011C2150</title>
<path fill="none" stroke="black" d="M393.945,-145.813C393.945,-137.789 393.945,-128.047 393.945,-119.069"/>
<polygon fill="black" stroke="black" points="397.445,-119.029 393.945,-109.029 390.445,-119.029 397.445,-119.029"/>
</g>
<!-- IdVal011C2150 -->
<g id="node23" class="node"><title>IdVal011C2150</title>
<ellipse fill="none" stroke="black" cx="393.945" cy="-18" rx="27" ry="18"/>
<text text-anchor="middle" x="393.945" y="-14.3" font-family="Times New Roman,serif" font-size="14.00">2</text>
</g>
<!-- Id011C2150&#45;&gt;IdVal011C2150 -->
<g id="edge15" class="edge"><title>Id011C2150&#45;&gt;IdVal011C2150</title>
<path fill="none" stroke="black" d="M393.945,-72.8129C393.945,-64.7895 393.945,-55.0475 393.945,-46.0691"/>
<polygon fill="black" stroke="black" points="397.445,-46.0288 393.945,-36.0288 390.445,-46.0289 397.445,-46.0288"/>
</g>
<!-- Id011C1FC0 -->
<g id="node25" class="node"><title>Id011C1FC0</title>
<ellipse fill="none" stroke="black" cx="436.945" cy="-411" rx="27" ry="18"/>
<text text-anchor="middle" x="436.945" y="-407.3" font-family="Times New Roman,serif" font-size="14.00">stmt</text>
</g>
<!-- IdElse011C2DF8&#45;&gt;Id011C1FC0 -->
<g id="edge26" class="edge"><title>IdElse011C2DF8&#45;&gt;Id011C1FC0</title>
<path fill="none" stroke="black" d="M388.799,-480.207C397.736,-467.546 410.115,-450.009 420.083,-435.889"/>
<polygon fill="black" stroke="black" points="423.018,-437.8 425.925,-427.612 417.299,-433.763 423.018,-437.8"/>
</g>
<!-- Id011C2100 -->
<g id="node26" class="node"><title>Id011C2100</title>
<ellipse fill="none" stroke="black" cx="444.945" cy="-338" rx="55.4913" ry="18"/>
<text text-anchor="middle" x="444.945" y="-334.3" font-family="Times New Roman,serif" font-size="14.00">method_call</text>
</g>
<!-- Id011C1FC0&#45;&gt;Id011C2100 -->
<g id="edge25" class="edge"><title>Id011C1FC0&#45;&gt;Id011C2100</title>
<path fill="none" stroke="black" d="M438.882,-392.813C439.786,-384.789 440.884,-375.047 441.895,-366.069"/>
<polygon fill="black" stroke="black" points="445.385,-366.358 443.026,-356.029 438.429,-365.574 445.385,-366.358"/>
</g>
<!-- IdMethodNameVal011C2100 -->
<g id="node27" class="node"><title>IdMethodNameVal011C2100</title>
<ellipse fill="none" stroke="black" cx="444.945" cy="-251" rx="27.0966" ry="18"/>
<text text-anchor="middle" x="444.945" y="-247.3" font-family="Times New Roman,serif" font-size="14.00">print</text>
</g>
<!-- Id011C2100&#45;&gt;IdMethodNameVal011C2100 -->
<g id="edge21" class="edge"><title>Id011C2100&#45;&gt;IdMethodNameVal011C2100</title>
<path fill="none" stroke="black" d="M444.945,-319.799C444.945,-308.163 444.945,-292.548 444.945,-279.237"/>
<polygon fill="black" stroke="black" points="448.445,-279.175 444.945,-269.175 441.445,-279.175 448.445,-279.175"/>
<text text-anchor="middle" x="459.945" y="-290.8" font-family="Times New Roman,serif" font-size="14.00">name</text>
</g>
<!-- Id011C2C38 -->
<g id="node28" class="node"><title>Id011C2C38</title>
<ellipse fill="none" stroke="black" cx="526.945" cy="-251" rx="37.0935" ry="18"/>
<text text-anchor="middle" x="526.945" y="-247.3" font-family="Times New Roman,serif" font-size="14.00">params</text>
</g>
<!-- Id011C2100&#45;&gt;Id011C2C38 -->
<g id="edge22" class="edge"><title>Id011C2100&#45;&gt;Id011C2C38</title>
<path fill="none" stroke="black" d="M460.879,-320.638C466.585,-314.767 473.06,-308.094 478.945,-302 487.393,-293.252 496.652,-283.619 504.764,-275.162"/>
<polygon fill="black" stroke="black" points="507.442,-277.427 511.836,-267.786 502.389,-272.582 507.442,-277.427"/>
</g>
<!-- Id011C21F0 -->
<g id="node29" class="node"><title>Id011C21F0</title>
<ellipse fill="none" stroke="black" cx="526.945" cy="-164" rx="27" ry="18"/>
<text text-anchor="middle" x="526.945" y="-160.3" font-family="Times New Roman,serif" font-size="14.00">INT</text>
</g>
<!-- Id011C2C38&#45;&gt;Id011C21F0 -->
<g id="edge24" class="edge"><title>Id011C2C38&#45;&gt;Id011C21F0</title>
<path fill="none" stroke="black" d="M526.945,-232.799C526.945,-221.163 526.945,-205.548 526.945,-192.237"/>
<polygon fill="black" stroke="black" points="530.445,-192.175 526.945,-182.175 523.445,-192.175 530.445,-192.175"/>
</g>
<!-- IdVal011C21F0 -->
<g id="node30" class="node"><title>IdVal011C21F0</title>
<ellipse fill="none" stroke="black" cx="526.945" cy="-91" rx="27" ry="18"/>
<text text-anchor="middle" x="526.945" y="-87.3" font-family="Times New Roman,serif" font-size="14.00">1</text>
</g>
<!-- Id011C21F0&#45;&gt;IdVal011C21F0 -->
<g id="edge23" class="edge"><title>Id011C21F0&#45;&gt;IdVal011C21F0</title>
<path fill="none" stroke="black" d="M526.945,-145.813C526.945,-137.789 526.945,-128.047 526.945,-119.069"/>
<polygon fill="black" stroke="black" points="530.445,-119.029 526.945,-109.029 523.445,-119.029 530.445,-119.029"/>
</g>
</g>
</svg>
