<?xml version="1.0" encoding="UTF-8" standalone="no"?>
<!DOCTYPE svg PUBLIC "-//W3C//DTD SVG 1.1//EN"
 "http://www.w3.org/Graphics/SVG/1.1/DTD/svg11.dtd">
<!-- Generated by graphviz version 2.38.0 (20140413.2041)
 -->
<!-- Title: G Pages: 1 -->
<svg width="1403pt" height="781pt"
 viewBox="0.00 0.00 1403.35 781.08" xmlns="http://www.w3.org/2000/svg" xmlns:xlink="http://www.w3.org/1999/xlink">
<g id="graph0" class="graph" transform="scale(1 1) rotate(0) translate(4 777.08)">
<title>G</title>
<polygon fill="white" stroke="none" points="-4,4 -4,-777.08 1399.35,-777.08 1399.35,4 -4,4"/>
<!-- Id00E05460 -->
<g id="node1" class="node"><title>Id00E05460</title>
<ellipse fill="none" stroke="black" cx="630.175" cy="-755.08" rx="41.6928" ry="18"/>
<text text-anchor="middle" x="630.175" y="-751.38" font-family="Times New Roman,serif" font-size="14.00">program</text>
</g>
<!-- Id00E03E50 -->
<g id="node2" class="node"><title>Id00E03E50</title>
<ellipse fill="none" stroke="black" cx="403.175" cy="-673.21" rx="27" ry="18"/>
<text text-anchor="middle" x="403.175" y="-669.51" font-family="Times New Roman,serif" font-size="14.00">stmt</text>
</g>
<!-- Id00E05460&#45;&gt;Id00E03E50 -->
<g id="edge9" class="edge"><title>Id00E05460&#45;&gt;Id00E03E50</title>
<path fill="none" stroke="black" d="M598.612,-742.975C555.777,-727.903 479.605,-701.102 436.085,-685.789"/>
<polygon fill="black" stroke="black" points="437.135,-682.449 426.54,-682.431 434.812,-689.052 437.135,-682.449"/>
</g>
<!-- Id00E04A68 -->
<g id="node11" class="node"><title>Id00E04A68</title>
<ellipse fill="none" stroke="black" cx="577.175" cy="-673.21" rx="59.2941" ry="26.7407"/>
<text text-anchor="middle" x="577.175" y="-677.01" font-family="Times New Roman,serif" font-size="14.00">def_method</text>
<text text-anchor="middle" x="577.175" y="-662.01" font-family="Times New Roman,serif" font-size="14.00"> mref = #19</text>
</g>
<!-- Id00E05460&#45;&gt;Id00E04A68 -->
<g id="edge29" class="edge"><title>Id00E05460&#45;&gt;Id00E04A68</title>
<path fill="none" stroke="black" d="M619.194,-737.531C613.461,-728.892 606.233,-718 599.395,-707.695"/>
<polygon fill="black" stroke="black" points="602.23,-705.637 593.785,-699.24 596.397,-709.508 602.23,-705.637"/>
</g>
<!-- Id00E04368 -->
<g id="node31" class="node"><title>Id00E04368</title>
<ellipse fill="none" stroke="black" cx="684.175" cy="-673.21" rx="27" ry="18"/>
<text text-anchor="middle" x="684.175" y="-669.51" font-family="Times New Roman,serif" font-size="14.00">stmt</text>
</g>
<!-- Id00E05460&#45;&gt;Id00E04368 -->
<g id="edge35" class="edge"><title>Id00E05460&#45;&gt;Id00E04368</title>
<path fill="none" stroke="black" d="M641.364,-737.531C649.045,-726.171 659.361,-710.912 667.942,-698.22"/>
<polygon fill="black" stroke="black" points="670.85,-700.168 673.552,-689.923 665.051,-696.247 670.85,-700.168"/>
</g>
<!-- Id00E04188 -->
<g id="node37" class="node"><title>Id00E04188</title>
<ellipse fill="none" stroke="black" cx="837.175" cy="-673.21" rx="27" ry="18"/>
<text text-anchor="middle" x="837.175" y="-669.51" font-family="Times New Roman,serif" font-size="14.00">stmt</text>
</g>
<!-- Id00E05460&#45;&gt;Id00E04188 -->
<g id="edge50" class="edge"><title>Id00E05460&#45;&gt;Id00E04188</title>
<path fill="none" stroke="black" d="M660.275,-742.467C698.832,-727.589 765.389,-701.908 804.946,-686.646"/>
<polygon fill="black" stroke="black" points="806.318,-689.868 814.388,-683.003 803.798,-683.337 806.318,-689.868"/>
</g>
<!-- Id00E03DF0 -->
<g id="node3" class="node"><title>Id00E03DF0</title>
<ellipse fill="none" stroke="black" cx="219.175" cy="-568.47" rx="27" ry="18"/>
<text text-anchor="middle" x="219.175" y="-564.77" font-family="Times New Roman,serif" font-size="14.00">=</text>
</g>
<!-- Id00E03E50&#45;&gt;Id00E03DF0 -->
<g id="edge8" class="edge"><title>Id00E03E50&#45;&gt;Id00E03DF0</title>
<path fill="none" stroke="black" d="M383.134,-661.02C350.505,-642.801 285.771,-606.655 248.139,-585.643"/>
<polygon fill="black" stroke="black" points="249.629,-582.466 239.192,-580.647 246.217,-588.578 249.629,-582.466"/>
</g>
<!-- Id00DF51E8 -->
<g id="node4" class="node"><title>Id00DF51E8</title>
<ellipse fill="none" stroke="black" cx="67.1751" cy="-453.123" rx="67.3507" ry="26.7407"/>
<text text-anchor="middle" x="67.1751" y="-456.923" font-family="Times New Roman,serif" font-size="14.00">var or method</text>
<text text-anchor="middle" x="67.1751" y="-441.923" font-family="Times New Roman,serif" font-size="14.00"> localnum = 0</text>
</g>
<!-- Id00E03DF0&#45;&gt;Id00DF51E8 -->
<g id="edge6" class="edge"><title>Id00E03DF0&#45;&gt;Id00DF51E8</title>
<path fill="none" stroke="black" d="M201.739,-554.468C178.645,-537.246 137.245,-506.374 106.443,-483.406"/>
<polygon fill="black" stroke="black" points="108.169,-480.327 98.0605,-477.155 103.985,-485.938 108.169,-480.327"/>
</g>
<!-- Id00E03D90 -->
<g id="node6" class="node"><title>Id00E03D90</title>
<ellipse fill="none" stroke="black" cx="219.175" cy="-453.123" rx="53.9813" ry="26.7407"/>
<text text-anchor="middle" x="219.175" y="-456.923" font-family="Times New Roman,serif" font-size="14.00">&#45;</text>
<text text-anchor="middle" x="219.175" y="-441.923" font-family="Times New Roman,serif" font-size="14.00"> mref = #7</text>
</g>
<!-- Id00E03DF0&#45;&gt;Id00E03D90 -->
<g id="edge7" class="edge"><title>Id00E03DF0&#45;&gt;Id00E03D90</title>
<path fill="none" stroke="black" d="M219.175,-550.255C219.175,-534.434 219.175,-510.468 219.175,-490.424"/>
<polygon fill="black" stroke="black" points="222.675,-490.363 219.175,-480.363 215.675,-490.363 222.675,-490.363"/>
</g>
<!-- IdVal00DF51E8 -->
<g id="node5" class="node"><title>IdVal00DF51E8</title>
<ellipse fill="none" stroke="black" cx="40.1751" cy="-327.17" rx="27" ry="18"/>
<text text-anchor="middle" x="40.1751" y="-323.47" font-family="Times New Roman,serif" font-size="14.00">a</text>
</g>
<!-- Id00DF51E8&#45;&gt;IdVal00DF51E8 -->
<g id="edge1" class="edge"><title>Id00DF51E8&#45;&gt;IdVal00DF51E8</title>
<path fill="none" stroke="black" d="M61.5151,-426.139C56.9645,-405.248 50.5951,-376.007 46.0011,-354.916"/>
<polygon fill="black" stroke="black" points="49.3902,-354.03 43.8419,-345.004 42.5505,-355.52 49.3902,-354.03"/>
</g>
<!-- Id00E03CD0 -->
<g id="node7" class="node"><title>Id00E03CD0</title>
<ellipse fill="none" stroke="black" cx="144.175" cy="-327.17" rx="59.2941" ry="37.4533"/>
<text text-anchor="middle" x="144.175" y="-338.47" font-family="Times New Roman,serif" font-size="14.00">INT</text>
<text text-anchor="middle" x="144.175" y="-323.47" font-family="Times New Roman,serif" font-size="14.00"> mref = #14</text>
<text text-anchor="middle" x="144.175" y="-308.47" font-family="Times New Roman,serif" font-size="14.00"> val_id = #8</text>
</g>
<!-- Id00E03D90&#45;&gt;Id00E03CD0 -->
<g id="edge4" class="edge"><title>Id00E03D90&#45;&gt;Id00E03CD0</title>
<path fill="none" stroke="black" d="M203.998,-427.04C194.317,-411.039 181.514,-389.881 170.238,-371.245"/>
<polygon fill="black" stroke="black" points="173.185,-369.354 165.014,-362.611 167.196,-372.978 173.185,-369.354"/>
</g>
<!-- Id00E03D30 -->
<g id="node9" class="node"><title>Id00E03D30</title>
<ellipse fill="none" stroke="black" cx="286.175" cy="-327.17" rx="64.1938" ry="37.4533"/>
<text text-anchor="middle" x="286.175" y="-338.47" font-family="Times New Roman,serif" font-size="14.00">INT</text>
<text text-anchor="middle" x="286.175" y="-323.47" font-family="Times New Roman,serif" font-size="14.00"> mref = #14</text>
<text text-anchor="middle" x="286.175" y="-308.47" font-family="Times New Roman,serif" font-size="14.00"> val_id = #15</text>
</g>
<!-- Id00E03D90&#45;&gt;Id00E03D30 -->
<g id="edge5" class="edge"><title>Id00E03D90&#45;&gt;Id00E03D30</title>
<path fill="none" stroke="black" d="M232.734,-427.04C241.277,-411.233 252.542,-390.394 262.525,-371.924"/>
<polygon fill="black" stroke="black" points="265.63,-373.541 267.306,-363.079 259.472,-370.212 265.63,-373.541"/>
</g>
<!-- IdVal00E03CD0 -->
<g id="node8" class="node"><title>IdVal00E03CD0</title>
<ellipse fill="none" stroke="black" cx="144.175" cy="-201.217" rx="27" ry="18"/>
<text text-anchor="middle" x="144.175" y="-197.517" font-family="Times New Roman,serif" font-size="14.00">2</text>
</g>
<!-- Id00E03CD0&#45;&gt;IdVal00E03CD0 -->
<g id="edge2" class="edge"><title>Id00E03CD0&#45;&gt;IdVal00E03CD0</title>
<path fill="none" stroke="black" d="M144.175,-289.65C144.175,-270.371 144.175,-247.114 144.175,-229.435"/>
<polygon fill="black" stroke="black" points="147.675,-229.233 144.175,-219.233 140.675,-229.233 147.675,-229.233"/>
</g>
<!-- IdVal00E03D30 -->
<g id="node10" class="node"><title>IdVal00E03D30</title>
<ellipse fill="none" stroke="black" cx="286.175" cy="-201.217" rx="27" ry="18"/>
<text text-anchor="middle" x="286.175" y="-197.517" font-family="Times New Roman,serif" font-size="14.00">1</text>
</g>
<!-- Id00E03D30&#45;&gt;IdVal00E03D30 -->
<g id="edge3" class="edge"><title>Id00E03D30&#45;&gt;IdVal00E03D30</title>
<path fill="none" stroke="black" d="M286.175,-289.65C286.175,-270.371 286.175,-247.114 286.175,-229.435"/>
<polygon fill="black" stroke="black" points="289.675,-229.233 286.175,-219.233 282.675,-229.233 289.675,-229.233"/>
</g>
<!-- IdName00E04A68 -->
<g id="node12" class="node"><title>IdName00E04A68</title>
<ellipse fill="none" stroke="black" cx="480.175" cy="-568.47" rx="27.0966" ry="18"/>
<text text-anchor="middle" x="480.175" y="-564.77" font-family="Times New Roman,serif" font-size="14.00">aasd</text>
</g>
<!-- Id00E04A68&#45;&gt;IdName00E04A68 -->
<g id="edge10" class="edge"><title>Id00E04A68&#45;&gt;IdName00E04A68</title>
<path fill="none" stroke="black" d="M554.015,-648.125C547.875,-641.71 541.261,-634.775 535.175,-628.34 523.884,-616.401 511.373,-603.022 501.139,-592.038"/>
<polygon fill="black" stroke="black" points="503.516,-589.454 494.141,-584.519 498.392,-594.224 503.516,-589.454"/>
<text text-anchor="middle" x="550.175" y="-617.14" font-family="Times New Roman,serif" font-size="14.00">name</text>
</g>
<!-- Id00DFE400 -->
<g id="node13" class="node"><title>Id00DFE400</title>
<ellipse fill="none" stroke="black" cx="562.175" cy="-568.47" rx="37.0935" ry="18"/>
<text text-anchor="middle" x="562.175" y="-564.77" font-family="Times New Roman,serif" font-size="14.00">params</text>
</g>
<!-- Id00E04A68&#45;&gt;Id00DFE400 -->
<g id="edge15" class="edge"><title>Id00E04A68&#45;&gt;Id00DFE400</title>
<path fill="none" stroke="black" d="M573.39,-646.285C571.176,-631.119 568.384,-611.994 566.139,-596.622"/>
<polygon fill="black" stroke="black" points="569.595,-596.063 564.687,-586.674 562.668,-597.075 569.595,-596.063"/>
</g>
<!-- Id00DFE128 -->
<g id="node18" class="node"><title>Id00DFE128</title>
<ellipse fill="none" stroke="black" cx="655.175" cy="-568.47" rx="29.795" ry="18"/>
<text text-anchor="middle" x="655.175" y="-564.77" font-family="Times New Roman,serif" font-size="14.00">body</text>
</g>
<!-- Id00E04A68&#45;&gt;Id00DFE128 -->
<g id="edge28" class="edge"><title>Id00E04A68&#45;&gt;Id00DFE128</title>
<path fill="none" stroke="black" d="M595.858,-647.601C608.37,-631.121 624.752,-609.543 637.129,-593.24"/>
<polygon fill="black" stroke="black" points="639.936,-595.331 643.195,-585.25 634.361,-591.098 639.936,-595.331"/>
</g>
<!-- Id00E03EE0 -->
<g id="node14" class="node"><title>Id00E03EE0</title>
<ellipse fill="none" stroke="black" cx="378.175" cy="-453.123" rx="71.3357" ry="26.7407"/>
<text text-anchor="middle" x="378.175" y="-456.923" font-family="Times New Roman,serif" font-size="14.00">param</text>
<text text-anchor="middle" x="378.175" y="-441.923" font-family="Times New Roman,serif" font-size="14.00"> localnum = #0</text>
</g>
<!-- Id00DFE400&#45;&gt;Id00E03EE0 -->
<g id="edge11" class="edge"><title>Id00DFE400&#45;&gt;Id00E03EE0</title>
<path fill="none" stroke="black" d="M539.98,-553.798C511.133,-536.027 460.073,-504.574 423.01,-481.743"/>
<polygon fill="black" stroke="black" points="424.735,-478.694 414.385,-476.429 421.064,-484.654 424.735,-478.694"/>
</g>
<!-- Id00E03F50 -->
<g id="node16" class="node"><title>Id00E03F50</title>
<ellipse fill="none" stroke="black" cx="539.175" cy="-453.123" rx="71.3357" ry="26.7407"/>
<text text-anchor="middle" x="539.175" y="-456.923" font-family="Times New Roman,serif" font-size="14.00">param</text>
<text text-anchor="middle" x="539.175" y="-441.923" font-family="Times New Roman,serif" font-size="14.00"> localnum = #1</text>
</g>
<!-- Id00DFE400&#45;&gt;Id00E03F50 -->
<g id="edge13" class="edge"><title>Id00DFE400&#45;&gt;Id00E03F50</title>
<path fill="none" stroke="black" d="M558.682,-550.255C555.435,-534.255 550.498,-509.926 546.404,-489.747"/>
<polygon fill="black" stroke="black" points="549.831,-489.039 544.413,-479.934 542.971,-490.431 549.831,-489.039"/>
</g>
<!-- IdNameVal00E03EE0 -->
<g id="node15" class="node"><title>IdNameVal00E03EE0</title>
<ellipse fill="none" stroke="black" cx="395.175" cy="-327.17" rx="27" ry="18"/>
<text text-anchor="middle" x="395.175" y="-323.47" font-family="Times New Roman,serif" font-size="14.00">b</text>
</g>
<!-- Id00E03EE0&#45;&gt;IdNameVal00E03EE0 -->
<g id="edge12" class="edge"><title>Id00E03EE0&#45;&gt;IdNameVal00E03EE0</title>
<path fill="none" stroke="black" d="M381.739,-426.139C384.587,-405.369 388.568,-376.347 391.456,-355.285"/>
<polygon fill="black" stroke="black" points="394.925,-355.753 392.816,-345.37 387.99,-354.801 394.925,-355.753"/>
<text text-anchor="middle" x="403.175" y="-386.447" font-family="Times New Roman,serif" font-size="14.00">name</text>
</g>
<!-- IdNameVal00E03F50 -->
<g id="node17" class="node"><title>IdNameVal00E03F50</title>
<ellipse fill="none" stroke="black" cx="539.175" cy="-327.17" rx="27" ry="18"/>
<text text-anchor="middle" x="539.175" y="-323.47" font-family="Times New Roman,serif" font-size="14.00">d</text>
</g>
<!-- Id00E03F50&#45;&gt;IdNameVal00E03F50 -->
<g id="edge14" class="edge"><title>Id00E03F50&#45;&gt;IdNameVal00E03F50</title>
<path fill="none" stroke="black" d="M539.175,-426.139C539.175,-405.464 539.175,-376.611 539.175,-355.574"/>
<polygon fill="black" stroke="black" points="542.675,-355.37 539.175,-345.37 535.675,-355.37 542.675,-355.37"/>
<text text-anchor="middle" x="554.175" y="-386.447" font-family="Times New Roman,serif" font-size="14.00">name</text>
</g>
<!-- Id00E04688 -->
<g id="node19" class="node"><title>Id00E04688</title>
<ellipse fill="none" stroke="black" cx="655.175" cy="-453.123" rx="27" ry="18"/>
<text text-anchor="middle" x="655.175" y="-449.423" font-family="Times New Roman,serif" font-size="14.00">stmt</text>
</g>
<!-- Id00DFE128&#45;&gt;Id00E04688 -->
<g id="edge21" class="edge"><title>Id00DFE128&#45;&gt;Id00E04688</title>
<path fill="none" stroke="black" d="M655.175,-550.255C655.175,-531.924 655.175,-502.66 655.175,-481.229"/>
<polygon fill="black" stroke="black" points="658.675,-481.129 655.175,-471.129 651.675,-481.129 658.675,-481.129"/>
</g>
<!-- Id00E045E8 -->
<g id="node25" class="node"><title>Id00E045E8</title>
<ellipse fill="none" stroke="black" cx="727.175" cy="-453.123" rx="27" ry="18"/>
<text text-anchor="middle" x="727.175" y="-449.423" font-family="Times New Roman,serif" font-size="14.00">stmt</text>
</g>
<!-- Id00DFE128&#45;&gt;Id00E045E8 -->
<g id="edge27" class="edge"><title>Id00DFE128&#45;&gt;Id00E045E8</title>
<path fill="none" stroke="black" d="M665.491,-551.23C677.589,-532.185 697.762,-500.427 711.729,-478.44"/>
<polygon fill="black" stroke="black" points="714.703,-480.285 717.111,-469.968 708.794,-476.532 714.703,-480.285"/>
</g>
<!-- Id00E04080 -->
<g id="node20" class="node"><title>Id00E04080</title>
<ellipse fill="none" stroke="black" cx="615.175" cy="-327.17" rx="27" ry="18"/>
<text text-anchor="middle" x="615.175" y="-323.47" font-family="Times New Roman,serif" font-size="14.00">=</text>
</g>
<!-- Id00E04688&#45;&gt;Id00E04080 -->
<g id="edge20" class="edge"><title>Id00E04688&#45;&gt;Id00E04080</title>
<path fill="none" stroke="black" d="M649.781,-435.407C643.101,-414.706 631.641,-379.195 623.751,-354.744"/>
<polygon fill="black" stroke="black" points="627.014,-353.46 620.612,-345.018 620.352,-355.61 627.014,-353.46"/>
</g>
<!-- Id00E03FC0 -->
<g id="node21" class="node"><title>Id00E03FC0</title>
<ellipse fill="none" stroke="black" cx="465.175" cy="-201.217" rx="67.3507" ry="26.7407"/>
<text text-anchor="middle" x="465.175" y="-205.017" font-family="Times New Roman,serif" font-size="14.00">var or method</text>
<text text-anchor="middle" x="465.175" y="-190.017" font-family="Times New Roman,serif" font-size="14.00"> localnum = 2</text>
</g>
<!-- Id00E04080&#45;&gt;Id00E03FC0 -->
<g id="edge18" class="edge"><title>Id00E04080&#45;&gt;Id00E03FC0</title>
<path fill="none" stroke="black" d="M600.196,-312.068C592.775,-305.197 583.617,-296.885 575.175,-289.693 551.788,-269.77 524.796,-248.283 503.403,-231.591"/>
<polygon fill="black" stroke="black" points="505.539,-228.818 495.497,-225.441 501.241,-234.344 505.539,-228.818"/>
</g>
<!-- Id00E04020 -->
<g id="node23" class="node"><title>Id00E04020</title>
<ellipse fill="none" stroke="black" cx="615.175" cy="-201.217" rx="64.1938" ry="37.4533"/>
<text text-anchor="middle" x="615.175" y="-212.517" font-family="Times New Roman,serif" font-size="14.00">INT</text>
<text text-anchor="middle" x="615.175" y="-197.517" font-family="Times New Roman,serif" font-size="14.00"> mref = #14</text>
<text text-anchor="middle" x="615.175" y="-182.517" font-family="Times New Roman,serif" font-size="14.00"> val_id = #15</text>
</g>
<!-- Id00E04080&#45;&gt;Id00E04020 -->
<g id="edge19" class="edge"><title>Id00E04080&#45;&gt;Id00E04020</title>
<path fill="none" stroke="black" d="M615.175,-308.935C615.175,-293.443 615.175,-269.964 615.175,-248.97"/>
<polygon fill="black" stroke="black" points="618.675,-248.909 615.175,-238.909 611.675,-248.909 618.675,-248.909"/>
</g>
<!-- IdVal00E03FC0 -->
<g id="node22" class="node"><title>IdVal00E03FC0</title>
<ellipse fill="none" stroke="black" cx="465.175" cy="-99.8701" rx="27" ry="18"/>
<text text-anchor="middle" x="465.175" y="-96.1701" font-family="Times New Roman,serif" font-size="14.00">i</text>
</g>
<!-- Id00E03FC0&#45;&gt;IdVal00E03FC0 -->
<g id="edge16" class="edge"><title>Id00E03FC0&#45;&gt;IdVal00E03FC0</title>
<path fill="none" stroke="black" d="M465.175,-174.115C465.175,-160.004 465.175,-142.591 465.175,-128.284"/>
<polygon fill="black" stroke="black" points="468.675,-128.054 465.175,-118.054 461.675,-128.054 468.675,-128.054"/>
</g>
<!-- IdVal00E04020 -->
<g id="node24" class="node"><title>IdVal00E04020</title>
<ellipse fill="none" stroke="black" cx="615.175" cy="-99.8701" rx="27" ry="18"/>
<text text-anchor="middle" x="615.175" y="-96.1701" font-family="Times New Roman,serif" font-size="14.00">1</text>
</g>
<!-- Id00E04020&#45;&gt;IdVal00E04020 -->
<g id="edge17" class="edge"><title>Id00E04020&#45;&gt;IdVal00E04020</title>
<path fill="none" stroke="black" d="M615.175,-163.506C615.175,-151.816 615.175,-139.095 615.175,-128.191"/>
<polygon fill="black" stroke="black" points="618.675,-127.997 615.175,-117.997 611.675,-127.997 618.675,-127.997"/>
</g>
<!-- Id00E049D8 -->
<g id="node26" class="node"><title>Id00E049D8</title>
<ellipse fill="none" stroke="black" cx="765.175" cy="-327.17" rx="27" ry="18"/>
<text text-anchor="middle" x="765.175" y="-323.47" font-family="Times New Roman,serif" font-size="14.00">=</text>
</g>
<!-- Id00E045E8&#45;&gt;Id00E049D8 -->
<g id="edge26" class="edge"><title>Id00E045E8&#45;&gt;Id00E049D8</title>
<path fill="none" stroke="black" d="M732.3,-435.407C738.646,-414.706 749.533,-379.195 757.028,-354.744"/>
<polygon fill="black" stroke="black" points="760.425,-355.605 760.01,-345.018 753.733,-353.553 760.425,-355.605"/>
</g>
<!-- Id00E04918 -->
<g id="node27" class="node"><title>Id00E04918</title>
<ellipse fill="none" stroke="black" cx="765.175" cy="-201.217" rx="67.3507" ry="26.7407"/>
<text text-anchor="middle" x="765.175" y="-205.017" font-family="Times New Roman,serif" font-size="14.00">var or method</text>
<text text-anchor="middle" x="765.175" y="-190.017" font-family="Times New Roman,serif" font-size="14.00"> localnum = 3</text>
</g>
<!-- Id00E049D8&#45;&gt;Id00E04918 -->
<g id="edge24" class="edge"><title>Id00E049D8&#45;&gt;Id00E04918</title>
<path fill="none" stroke="black" d="M765.175,-308.935C765.175,-290.821 765.175,-261.79 765.175,-238.577"/>
<polygon fill="black" stroke="black" points="768.675,-238.381 765.175,-228.381 761.675,-238.381 768.675,-238.381"/>
</g>
<!-- Id00E04978 -->
<g id="node29" class="node"><title>Id00E04978</title>
<ellipse fill="none" stroke="black" cx="910.175" cy="-201.217" rx="59.2941" ry="37.4533"/>
<text text-anchor="middle" x="910.175" y="-212.517" font-family="Times New Roman,serif" font-size="14.00">INT</text>
<text text-anchor="middle" x="910.175" y="-197.517" font-family="Times New Roman,serif" font-size="14.00"> mref = #14</text>
<text text-anchor="middle" x="910.175" y="-182.517" font-family="Times New Roman,serif" font-size="14.00"> val_id = #8</text>
</g>
<!-- Id00E049D8&#45;&gt;Id00E04978 -->
<g id="edge25" class="edge"><title>Id00E049D8&#45;&gt;Id00E04978</title>
<path fill="none" stroke="black" d="M779.716,-311.687C786.69,-304.878 795.236,-296.729 803.175,-289.693 823.219,-271.93 846.126,-253.026 865.589,-237.354"/>
<polygon fill="black" stroke="black" points="867.81,-240.059 873.421,-231.072 863.43,-234.599 867.81,-240.059"/>
</g>
<!-- IdVal00E04918 -->
<g id="node28" class="node"><title>IdVal00E04918</title>
<ellipse fill="none" stroke="black" cx="765.175" cy="-99.8701" rx="27" ry="18"/>
<text text-anchor="middle" x="765.175" y="-96.1701" font-family="Times New Roman,serif" font-size="14.00">e</text>
</g>
<!-- Id00E04918&#45;&gt;IdVal00E04918 -->
<g id="edge22" class="edge"><title>Id00E04918&#45;&gt;IdVal00E04918</title>
<path fill="none" stroke="black" d="M765.175,-174.115C765.175,-160.004 765.175,-142.591 765.175,-128.284"/>
<polygon fill="black" stroke="black" points="768.675,-128.054 765.175,-118.054 761.675,-128.054 768.675,-128.054"/>
</g>
<!-- IdVal00E04978 -->
<g id="node30" class="node"><title>IdVal00E04978</title>
<ellipse fill="none" stroke="black" cx="910.175" cy="-99.8701" rx="27" ry="18"/>
<text text-anchor="middle" x="910.175" y="-96.1701" font-family="Times New Roman,serif" font-size="14.00">2</text>
</g>
<!-- Id00E04978&#45;&gt;IdVal00E04978 -->
<g id="edge23" class="edge"><title>Id00E04978&#45;&gt;IdVal00E04978</title>
<path fill="none" stroke="black" d="M910.175,-163.506C910.175,-151.816 910.175,-139.095 910.175,-128.191"/>
<polygon fill="black" stroke="black" points="913.675,-127.997 910.175,-117.997 906.675,-127.997 913.675,-127.997"/>
</g>
<!-- Id00E04F30 -->
<g id="node32" class="node"><title>Id00E04F30</title>
<ellipse fill="none" stroke="black" cx="839.175" cy="-568.47" rx="27" ry="18"/>
<text text-anchor="middle" x="839.175" y="-564.77" font-family="Times New Roman,serif" font-size="14.00">=</text>
</g>
<!-- Id00E04368&#45;&gt;Id00E04F30 -->
<g id="edge34" class="edge"><title>Id00E04368&#45;&gt;Id00E04F30</title>
<path fill="none" stroke="black" d="M702.564,-660.021C729.569,-642.121 780.149,-608.595 811.61,-587.741"/>
<polygon fill="black" stroke="black" points="813.925,-590.406 820.326,-581.964 810.058,-584.571 813.925,-590.406"/>
</g>
<!-- Id00E04AE8 -->
<g id="node33" class="node"><title>Id00E04AE8</title>
<ellipse fill="none" stroke="black" cx="839.175" cy="-453.123" rx="67.3507" ry="26.7407"/>
<text text-anchor="middle" x="839.175" y="-456.923" font-family="Times New Roman,serif" font-size="14.00">var or method</text>
<text text-anchor="middle" x="839.175" y="-441.923" font-family="Times New Roman,serif" font-size="14.00"> localnum = 1</text>
</g>
<!-- Id00E04F30&#45;&gt;Id00E04AE8 -->
<g id="edge32" class="edge"><title>Id00E04F30&#45;&gt;Id00E04AE8</title>
<path fill="none" stroke="black" d="M839.175,-550.255C839.175,-534.434 839.175,-510.468 839.175,-490.424"/>
<polygon fill="black" stroke="black" points="842.675,-490.363 839.175,-480.363 835.675,-490.363 842.675,-490.363"/>
</g>
<!-- Id00E05110 -->
<g id="node35" class="node"><title>Id00E05110</title>
<ellipse fill="none" stroke="black" cx="989.175" cy="-453.123" rx="64.1938" ry="37.4533"/>
<text text-anchor="middle" x="989.175" y="-464.423" font-family="Times New Roman,serif" font-size="14.00">INT</text>
<text text-anchor="middle" x="989.175" y="-449.423" font-family="Times New Roman,serif" font-size="14.00"> mref = #14</text>
<text text-anchor="middle" x="989.175" y="-434.423" font-family="Times New Roman,serif" font-size="14.00"> val_id = #15</text>
</g>
<!-- Id00E04F30&#45;&gt;Id00E05110 -->
<g id="edge33" class="edge"><title>Id00E04F30&#45;&gt;Id00E05110</title>
<path fill="none" stroke="black" d="M856.382,-554.468C877.273,-538.682 913.344,-511.425 942.623,-489.3"/>
<polygon fill="black" stroke="black" points="944.815,-492.031 950.683,-483.209 940.595,-486.446 944.815,-492.031"/>
</g>
<!-- IdVal00E04AE8 -->
<g id="node34" class="node"><title>IdVal00E04AE8</title>
<ellipse fill="none" stroke="black" cx="839.175" cy="-327.17" rx="27" ry="18"/>
<text text-anchor="middle" x="839.175" y="-323.47" font-family="Times New Roman,serif" font-size="14.00">b</text>
</g>
<!-- Id00E04AE8&#45;&gt;IdVal00E04AE8 -->
<g id="edge30" class="edge"><title>Id00E04AE8&#45;&gt;IdVal00E04AE8</title>
<path fill="none" stroke="black" d="M839.175,-426.139C839.175,-405.464 839.175,-376.611 839.175,-355.574"/>
<polygon fill="black" stroke="black" points="842.675,-355.37 839.175,-345.37 835.675,-355.37 842.675,-355.37"/>
</g>
<!-- IdVal00E05110 -->
<g id="node36" class="node"><title>IdVal00E05110</title>
<ellipse fill="none" stroke="black" cx="940.175" cy="-327.17" rx="27" ry="18"/>
<text text-anchor="middle" x="940.175" y="-323.47" font-family="Times New Roman,serif" font-size="14.00">1</text>
</g>
<!-- Id00E05110&#45;&gt;IdVal00E05110 -->
<g id="edge31" class="edge"><title>Id00E05110&#45;&gt;IdVal00E05110</title>
<path fill="none" stroke="black" d="M975.002,-416.271C967.132,-396.363 957.522,-372.052 950.392,-354.015"/>
<polygon fill="black" stroke="black" points="953.644,-352.721 946.713,-344.708 947.134,-355.295 953.644,-352.721"/>
</g>
<!-- Id00E05170 -->
<g id="node38" class="node"><title>Id00E05170</title>
<ellipse fill="none" stroke="black" cx="1099.18" cy="-568.47" rx="60.2083" ry="26.7407"/>
<text text-anchor="middle" x="1099.18" y="-572.27" font-family="Times New Roman,serif" font-size="14.00">method_call</text>
<text text-anchor="middle" x="1099.18" y="-557.27" font-family="Times New Roman,serif" font-size="14.00"> mref = #23</text>
</g>
<!-- Id00E04188&#45;&gt;Id00E05170 -->
<g id="edge49" class="edge"><title>Id00E04188&#45;&gt;Id00E05170</title>
<path fill="none" stroke="black" d="M859.968,-663.272C901.041,-647.166 988.502,-612.869 1045.52,-590.512"/>
<polygon fill="black" stroke="black" points="1047.06,-593.667 1055.09,-586.757 1044.5,-587.15 1047.06,-593.667"/>
</g>
<!-- IdMethodNameVal00E05170 -->
<g id="node39" class="node"><title>IdMethodNameVal00E05170</title>
<ellipse fill="none" stroke="black" cx="1099.18" cy="-453.123" rx="27.0966" ry="18"/>
<text text-anchor="middle" x="1099.18" y="-449.423" font-family="Times New Roman,serif" font-size="14.00">print</text>
</g>
<!-- Id00E05170&#45;&gt;IdMethodNameVal00E05170 -->
<g id="edge36" class="edge"><title>Id00E05170&#45;&gt;IdMethodNameVal00E05170</title>
<path fill="none" stroke="black" d="M1099.18,-541.466C1099.18,-523.436 1099.18,-499.48 1099.18,-481.217"/>
<polygon fill="black" stroke="black" points="1102.68,-481.21 1099.18,-471.21 1095.68,-481.211 1102.68,-481.21"/>
<text text-anchor="middle" x="1114.18" y="-512.4" font-family="Times New Roman,serif" font-size="14.00">name</text>
</g>
<!-- Id00DFE2E8 -->
<g id="node40" class="node"><title>Id00DFE2E8</title>
<ellipse fill="none" stroke="black" cx="1181.18" cy="-453.123" rx="37.0935" ry="18"/>
<text text-anchor="middle" x="1181.18" y="-449.423" font-family="Times New Roman,serif" font-size="14.00">params</text>
</g>
<!-- Id00E05170&#45;&gt;Id00DFE2E8 -->
<g id="edge37" class="edge"><title>Id00E05170&#45;&gt;Id00DFE2E8</title>
<path fill="none" stroke="black" d="M1118.83,-542.595C1123.59,-536.437 1128.62,-529.82 1133.18,-523.6 1143.8,-509.087 1155.27,-492.527 1164.33,-479.216"/>
<polygon fill="black" stroke="black" points="1167.46,-480.827 1170.17,-470.585 1161.67,-476.9 1167.46,-480.827"/>
</g>
<!-- Id00E04C30 -->
<g id="node41" class="node"><title>Id00E04C30</title>
<ellipse fill="none" stroke="black" cx="1045.18" cy="-327.17" rx="60.2083" ry="26.7407"/>
<text text-anchor="middle" x="1045.18" y="-330.97" font-family="Times New Roman,serif" font-size="14.00">method_call</text>
<text text-anchor="middle" x="1045.18" y="-315.97" font-family="Times New Roman,serif" font-size="14.00"> mref = #19</text>
</g>
<!-- Id00DFE2E8&#45;&gt;Id00E04C30 -->
<g id="edge44" class="edge"><title>Id00DFE2E8&#45;&gt;Id00E04C30</title>
<path fill="none" stroke="black" d="M1164.5,-436.924C1143.1,-417.424 1105.5,-383.153 1078.22,-358.284"/>
<polygon fill="black" stroke="black" points="1080.56,-355.689 1070.82,-351.539 1075.85,-360.862 1080.56,-355.689"/>
</g>
<!-- Id00E04C90 -->
<g id="node48" class="node"><title>Id00E04C90</title>
<ellipse fill="none" stroke="black" cx="1183.18" cy="-327.17" rx="59.2941" ry="37.4533"/>
<text text-anchor="middle" x="1183.18" y="-338.47" font-family="Times New Roman,serif" font-size="14.00">INT</text>
<text text-anchor="middle" x="1183.18" y="-323.47" font-family="Times New Roman,serif" font-size="14.00"> mref = #14</text>
<text text-anchor="middle" x="1183.18" y="-308.47" font-family="Times New Roman,serif" font-size="14.00"> val_id = #8</text>
</g>
<!-- Id00DFE2E8&#45;&gt;Id00E04C90 -->
<g id="edge46" class="edge"><title>Id00DFE2E8&#45;&gt;Id00E04C90</title>
<path fill="none" stroke="black" d="M1181.45,-434.888C1181.7,-419.396 1182.08,-395.917 1182.42,-374.923"/>
<polygon fill="black" stroke="black" points="1185.92,-374.917 1182.58,-364.862 1178.92,-374.804 1185.92,-374.917"/>
</g>
<!-- Id00E04ED0 -->
<g id="node50" class="node"><title>Id00E04ED0</title>
<ellipse fill="none" stroke="black" cx="1328.18" cy="-327.17" rx="67.3507" ry="26.7407"/>
<text text-anchor="middle" x="1328.18" y="-330.97" font-family="Times New Roman,serif" font-size="14.00">var or method</text>
<text text-anchor="middle" x="1328.18" y="-315.97" font-family="Times New Roman,serif" font-size="14.00"> localnum = 0</text>
</g>
<!-- Id00DFE2E8&#45;&gt;Id00E04ED0 -->
<g id="edge48" class="edge"><title>Id00DFE2E8&#45;&gt;Id00E04ED0</title>
<path fill="none" stroke="black" d="M1198.91,-437.172C1222.04,-417.666 1263.05,-383.085 1292.69,-358.095"/>
<polygon fill="black" stroke="black" points="1294.95,-360.765 1300.34,-351.643 1290.44,-355.414 1294.95,-360.765"/>
</g>
<!-- IdMethodNameVal00E04C30 -->
<g id="node42" class="node"><title>IdMethodNameVal00E04C30</title>
<ellipse fill="none" stroke="black" cx="1018.18" cy="-201.217" rx="27.0966" ry="18"/>
<text text-anchor="middle" x="1018.18" y="-197.517" font-family="Times New Roman,serif" font-size="14.00">aasd</text>
</g>
<!-- Id00E04C30&#45;&gt;IdMethodNameVal00E04C30 -->
<g id="edge38" class="edge"><title>Id00E04C30&#45;&gt;IdMethodNameVal00E04C30</title>
<path fill="none" stroke="black" d="M1039.52,-300.185C1034.99,-279.416 1028.67,-250.393 1024.08,-229.332"/>
<polygon fill="black" stroke="black" points="1027.47,-228.442 1021.92,-219.416 1020.63,-229.932 1027.47,-228.442"/>
<text text-anchor="middle" x="1049.18" y="-260.493" font-family="Times New Roman,serif" font-size="14.00">name</text>
</g>
<!-- Id00DFE4A8 -->
<g id="node43" class="node"><title>Id00DFE4A8</title>
<ellipse fill="none" stroke="black" cx="1100.18" cy="-201.217" rx="37.0935" ry="18"/>
<text text-anchor="middle" x="1100.18" y="-197.517" font-family="Times New Roman,serif" font-size="14.00">params</text>
</g>
<!-- Id00E04C30&#45;&gt;Id00DFE4A8 -->
<g id="edge39" class="edge"><title>Id00E04C30&#45;&gt;Id00DFE4A8</title>
<path fill="none" stroke="black" d="M1056.57,-300.487C1065.92,-279.428 1079.09,-249.738 1088.51,-228.514"/>
<polygon fill="black" stroke="black" points="1091.81,-229.696 1092.67,-219.135 1085.41,-226.856 1091.81,-229.696"/>
</g>
<!-- Id00E050B0 -->
<g id="node44" class="node"><title>Id00E050B0</title>
<ellipse fill="none" stroke="black" cx="1041.18" cy="-99.8701" rx="67.3507" ry="26.7407"/>
<text text-anchor="middle" x="1041.18" y="-103.67" font-family="Times New Roman,serif" font-size="14.00">var or method</text>
<text text-anchor="middle" x="1041.18" y="-88.6701" font-family="Times New Roman,serif" font-size="14.00"> localnum = 1</text>
</g>
<!-- Id00DFE4A8&#45;&gt;Id00E050B0 -->
<g id="edge41" class="edge"><title>Id00DFE4A8&#45;&gt;Id00E050B0</title>
<path fill="none" stroke="black" d="M1090.43,-183.812C1082.59,-170.606 1071.3,-151.593 1061.5,-135.102"/>
<polygon fill="black" stroke="black" points="1064.37,-133.064 1056.25,-126.253 1058.35,-136.638 1064.37,-133.064"/>
</g>
<!-- Id00E052F0 -->
<g id="node46" class="node"><title>Id00E052F0</title>
<ellipse fill="none" stroke="black" cx="1193.18" cy="-99.8701" rx="67.3507" ry="26.7407"/>
<text text-anchor="middle" x="1193.18" y="-103.67" font-family="Times New Roman,serif" font-size="14.00">var or method</text>
<text text-anchor="middle" x="1193.18" y="-88.6701" font-family="Times New Roman,serif" font-size="14.00"> localnum = 0</text>
</g>
<!-- Id00DFE4A8&#45;&gt;Id00E052F0 -->
<g id="edge43" class="edge"><title>Id00DFE4A8&#45;&gt;Id00E052F0</title>
<path fill="none" stroke="black" d="M1115.12,-184.255C1128.03,-170.461 1147.09,-150.101 1163.14,-132.952"/>
<polygon fill="black" stroke="black" points="1166,-135.026 1170.27,-125.334 1160.88,-130.243 1166,-135.026"/>
</g>
<!-- IdVal00E050B0 -->
<g id="node45" class="node"><title>IdVal00E050B0</title>
<ellipse fill="none" stroke="black" cx="1041.18" cy="-18" rx="27" ry="18"/>
<text text-anchor="middle" x="1041.18" y="-14.3" font-family="Times New Roman,serif" font-size="14.00">b</text>
</g>
<!-- Id00E050B0&#45;&gt;IdVal00E050B0 -->
<g id="edge40" class="edge"><title>Id00E050B0&#45;&gt;IdVal00E050B0</title>
<path fill="none" stroke="black" d="M1041.18,-72.7176C1041.18,-64.2726 1041.18,-54.8903 1041.18,-46.3604"/>
<polygon fill="black" stroke="black" points="1044.68,-46.1464 1041.18,-36.1464 1037.68,-46.1464 1044.68,-46.1464"/>
</g>
<!-- IdVal00E052F0 -->
<g id="node47" class="node"><title>IdVal00E052F0</title>
<ellipse fill="none" stroke="black" cx="1193.18" cy="-18" rx="27" ry="18"/>
<text text-anchor="middle" x="1193.18" y="-14.3" font-family="Times New Roman,serif" font-size="14.00">a</text>
</g>
<!-- Id00E052F0&#45;&gt;IdVal00E052F0 -->
<g id="edge42" class="edge"><title>Id00E052F0&#45;&gt;IdVal00E052F0</title>
<path fill="none" stroke="black" d="M1193.18,-72.7176C1193.18,-64.2726 1193.18,-54.8903 1193.18,-46.3604"/>
<polygon fill="black" stroke="black" points="1196.68,-46.1464 1193.18,-36.1464 1189.68,-46.1464 1196.68,-46.1464"/>
</g>
<!-- IdVal00E04C90 -->
<g id="node49" class="node"><title>IdVal00E04C90</title>
<ellipse fill="none" stroke="black" cx="1183.18" cy="-201.217" rx="27" ry="18"/>
<text text-anchor="middle" x="1183.18" y="-197.517" font-family="Times New Roman,serif" font-size="14.00">2</text>
</g>
<!-- Id00E04C90&#45;&gt;IdVal00E04C90 -->
<g id="edge45" class="edge"><title>Id00E04C90&#45;&gt;IdVal00E04C90</title>
<path fill="none" stroke="black" d="M1183.18,-289.65C1183.18,-270.371 1183.18,-247.114 1183.18,-229.435"/>
<polygon fill="black" stroke="black" points="1186.68,-229.233 1183.18,-219.233 1179.68,-229.233 1186.68,-229.233"/>
</g>
<!-- IdVal00E04ED0 -->
<g id="node51" class="node"><title>IdVal00E04ED0</title>
<ellipse fill="none" stroke="black" cx="1328.18" cy="-201.217" rx="27" ry="18"/>
<text text-anchor="middle" x="1328.18" y="-197.517" font-family="Times New Roman,serif" font-size="14.00">a</text>
</g>
<!-- Id00E04ED0&#45;&gt;IdVal00E04ED0 -->
<g id="edge47" class="edge"><title>Id00E04ED0&#45;&gt;IdVal00E04ED0</title>
<path fill="none" stroke="black" d="M1328.18,-300.185C1328.18,-279.511 1328.18,-250.658 1328.18,-229.621"/>
<polygon fill="black" stroke="black" points="1331.68,-229.416 1328.18,-219.416 1324.68,-229.416 1331.68,-229.416"/>
</g>
</g>
</svg>
