<?xml version="1.0" encoding="UTF-8" standalone="no"?>
<!DOCTYPE svg PUBLIC "-//W3C//DTD SVG 1.1//EN"
 "http://www.w3.org/Graphics/SVG/1.1/DTD/svg11.dtd">
<!-- Generated by graphviz version 2.38.0 (20140413.2041)
 -->
<!-- Title: G Pages: 1 -->
<svg width="290pt" height="371pt"
 viewBox="0.00 0.00 289.52 370.95" xmlns="http://www.w3.org/2000/svg" xmlns:xlink="http://www.w3.org/1999/xlink">
<g id="graph0" class="graph" transform="scale(1 1) rotate(0) translate(4 366.953)">
<title>G</title>
<polygon fill="white" stroke="none" points="-4,4 -4,-366.953 285.522,-366.953 285.522,4 -4,4"/>
<!-- Id010E9D60 -->
<g id="node1" class="node"><title>Id010E9D60</title>
<ellipse fill="none" stroke="black" cx="142.175" cy="-344.953" rx="41.6928" ry="18"/>
<text text-anchor="middle" x="142.175" y="-341.253" font-family="Times New Roman,serif" font-size="14.00">program</text>
</g>
<!-- Id010F3CE0 -->
<g id="node2" class="node"><title>Id010F3CE0</title>
<ellipse fill="none" stroke="black" cx="142.175" cy="-272.953" rx="27" ry="18"/>
<text text-anchor="middle" x="142.175" y="-269.253" font-family="Times New Roman,serif" font-size="14.00">stmt</text>
</g>
<!-- Id010E9D60&#45;&gt;Id010F3CE0 -->
<g id="edge6" class="edge"><title>Id010E9D60&#45;&gt;Id010F3CE0</title>
<path fill="none" stroke="black" d="M142.175,-326.65C142.175,-318.936 142.175,-309.666 142.175,-301.066"/>
<polygon fill="black" stroke="black" points="145.675,-301.058 142.175,-291.058 138.675,-301.058 145.675,-301.058"/>
</g>
<!-- Id010F3C80 -->
<g id="node3" class="node"><title>Id010F3C80</title>
<ellipse fill="none" stroke="black" cx="142.175" cy="-200.953" rx="27" ry="18"/>
<text text-anchor="middle" x="142.175" y="-197.253" font-family="Times New Roman,serif" font-size="14.00">=</text>
</g>
<!-- Id010F3CE0&#45;&gt;Id010F3C80 -->
<g id="edge5" class="edge"><title>Id010F3CE0&#45;&gt;Id010F3C80</title>
<path fill="none" stroke="black" d="M142.175,-254.65C142.175,-246.936 142.175,-237.666 142.175,-229.066"/>
<polygon fill="black" stroke="black" points="145.675,-229.058 142.175,-219.058 138.675,-229.058 145.675,-229.058"/>
</g>
<!-- Id010F3BC0 -->
<g id="node4" class="node"><title>Id010F3BC0</title>
<ellipse fill="none" stroke="black" cx="67.1751" cy="-109.477" rx="67.3507" ry="26.7407"/>
<text text-anchor="middle" x="67.1751" y="-113.277" font-family="Times New Roman,serif" font-size="14.00">var or method</text>
<text text-anchor="middle" x="67.1751" y="-98.2767" font-family="Times New Roman,serif" font-size="14.00"> localnum = 0</text>
</g>
<!-- Id010F3C80&#45;&gt;Id010F3BC0 -->
<g id="edge3" class="edge"><title>Id010F3C80&#45;&gt;Id010F3BC0</title>
<path fill="none" stroke="black" d="M129.452,-184.775C119.861,-173.332 106.355,-157.219 94.3716,-142.923"/>
<polygon fill="black" stroke="black" points="97.0113,-140.623 87.905,-135.208 91.6466,-145.12 97.0113,-140.623"/>
</g>
<!-- Id010F3C20 -->
<g id="node6" class="node"><title>Id010F3C20</title>
<ellipse fill="none" stroke="black" cx="217.175" cy="-109.477" rx="64.1938" ry="37.4533"/>
<text text-anchor="middle" x="217.175" y="-120.777" font-family="Times New Roman,serif" font-size="14.00">STRING</text>
<text text-anchor="middle" x="217.175" y="-105.777" font-family="Times New Roman,serif" font-size="14.00"> mref = #17</text>
<text text-anchor="middle" x="217.175" y="-90.7767" font-family="Times New Roman,serif" font-size="14.00"> val_id = #11</text>
</g>
<!-- Id010F3C80&#45;&gt;Id010F3C20 -->
<g id="edge4" class="edge"><title>Id010F3C80&#45;&gt;Id010F3C20</title>
<path fill="none" stroke="black" d="M154.898,-184.775C162.646,-175.531 172.948,-163.241 182.939,-151.321"/>
<polygon fill="black" stroke="black" points="185.688,-153.49 189.429,-143.578 180.323,-148.993 185.688,-153.49"/>
</g>
<!-- IdVal010F3BC0 -->
<g id="node5" class="node"><title>IdVal010F3BC0</title>
<ellipse fill="none" stroke="black" cx="67.1751" cy="-18" rx="27" ry="18"/>
<text text-anchor="middle" x="67.1751" y="-14.3" font-family="Times New Roman,serif" font-size="14.00">a</text>
</g>
<!-- Id010F3BC0&#45;&gt;IdVal010F3BC0 -->
<g id="edge1" class="edge"><title>Id010F3BC0&#45;&gt;IdVal010F3BC0</title>
<path fill="none" stroke="black" d="M67.1751,-82.5963C67.1751,-71.1366 67.1751,-57.6563 67.1751,-46.063"/>
<polygon fill="black" stroke="black" points="70.6752,-46.0586 67.1751,-36.0586 63.6752,-46.0587 70.6752,-46.0586"/>
</g>
<!-- IdVal010F3C20 -->
<g id="node7" class="node"><title>IdVal010F3C20</title>
<ellipse fill="none" stroke="black" cx="217.175" cy="-18" rx="27" ry="18"/>
<text text-anchor="middle" x="217.175" y="-14.3" font-family="Times New Roman,serif" font-size="14.00">asd</text>
</g>
<!-- Id010F3C20&#45;&gt;IdVal010F3C20 -->
<g id="edge2" class="edge"><title>Id010F3C20&#45;&gt;IdVal010F3C20</title>
<path fill="none" stroke="black" d="M217.175,-71.8249C217.175,-63.3308 217.175,-54.4344 217.175,-46.4159"/>
<polygon fill="black" stroke="black" points="220.675,-46.1461 217.175,-36.1461 213.675,-46.1462 220.675,-46.1461"/>
</g>
</g>
</svg>
