<?xml version="1.0" encoding="UTF-8" standalone="no"?>
<!DOCTYPE svg PUBLIC "-//W3C//DTD SVG 1.1//EN"
 "http://www.w3.org/Graphics/SVG/1.1/DTD/svg11.dtd">
<!-- Generated by graphviz version 2.38.0 (20140413.2041)
 -->
<!-- Title: G Pages: 1 -->
<svg width="840pt" height="808pt"
 viewBox="0.00 0.00 840.35 808.34" xmlns="http://www.w3.org/2000/svg" xmlns:xlink="http://www.w3.org/1999/xlink">
<g id="graph0" class="graph" transform="scale(1 1) rotate(0) translate(4 804.34)">
<title>G</title>
<polygon fill="white" stroke="none" points="-4,4 -4,-804.34 836.35,-804.34 836.35,4 -4,4"/>
<!-- Id00717F20 -->
<g id="node1" class="node"><title>Id00717F20</title>
<ellipse fill="none" stroke="black" cx="323.175" cy="-782.34" rx="41.6928" ry="18"/>
<text text-anchor="middle" x="323.175" y="-778.64" font-family="Times New Roman,serif" font-size="14.00">program</text>
</g>
<!-- Id00717178 -->
<g id="node2" class="node"><title>Id00717178</title>
<ellipse fill="none" stroke="black" cx="278.175" cy="-709.34" rx="27" ry="18"/>
<text text-anchor="middle" x="278.175" y="-705.64" font-family="Times New Roman,serif" font-size="14.00">stmt</text>
</g>
<!-- Id00717F20&#45;&gt;Id00717178 -->
<g id="edge6" class="edge"><title>Id00717F20&#45;&gt;Id00717178</title>
<path fill="none" stroke="black" d="M312.738,-764.873C307.093,-755.966 300.009,-744.789 293.726,-734.876"/>
<polygon fill="black" stroke="black" points="296.556,-732.802 288.246,-726.23 290.643,-736.55 296.556,-732.802"/>
</g>
<!-- Id00716FE8 -->
<g id="node8" class="node"><title>Id00716FE8</title>
<ellipse fill="none" stroke="black" cx="356.175" cy="-709.34" rx="27" ry="18"/>
<text text-anchor="middle" x="356.175" y="-705.64" font-family="Times New Roman,serif" font-size="14.00">stmt</text>
</g>
<!-- Id00717F20&#45;&gt;Id00716FE8 -->
<g id="edge29" class="edge"><title>Id00717F20&#45;&gt;Id00716FE8</title>
<path fill="none" stroke="black" d="M330.996,-764.514C334.9,-756.114 339.711,-745.764 344.077,-736.369"/>
<polygon fill="black" stroke="black" points="347.37,-737.589 348.411,-727.045 341.022,-734.639 347.37,-737.589"/>
</g>
<!-- Id00716AF0 -->
<g id="node3" class="node"><title>Id00716AF0</title>
<ellipse fill="none" stroke="black" cx="217.175" cy="-636.34" rx="27" ry="18"/>
<text text-anchor="middle" x="217.175" y="-632.64" font-family="Times New Roman,serif" font-size="14.00">=</text>
</g>
<!-- Id00717178&#45;&gt;Id00716AF0 -->
<g id="edge5" class="edge"><title>Id00717178&#45;&gt;Id00716AF0</title>
<path fill="none" stroke="black" d="M265.239,-693.283C256.989,-683.681 246.14,-671.053 236.837,-660.225"/>
<polygon fill="black" stroke="black" points="239.265,-657.68 230.093,-652.376 233.955,-662.242 239.265,-657.68"/>
</g>
<!-- Id00716A10 -->
<g id="node4" class="node"><title>Id00716A10</title>
<ellipse fill="none" stroke="black" cx="67.1751" cy="-529.864" rx="67.3507" ry="26.7407"/>
<text text-anchor="middle" x="67.1751" y="-533.664" font-family="Times New Roman,serif" font-size="14.00">var or method</text>
<text text-anchor="middle" x="67.1751" y="-518.664" font-family="Times New Roman,serif" font-size="14.00"> localnum = 1</text>
</g>
<!-- Id00716AF0&#45;&gt;Id00716A10 -->
<g id="edge3" class="edge"><title>Id00716AF0&#45;&gt;Id00716A10</title>
<path fill="none" stroke="black" d="M199.082,-622.738C176.742,-607.178 138.061,-580.236 108.344,-559.538"/>
<polygon fill="black" stroke="black" points="110.037,-556.452 99.8306,-553.608 106.036,-562.196 110.037,-556.452"/>
</g>
<!-- Id00716A80 -->
<g id="node6" class="node"><title>Id00716A80</title>
<ellipse fill="none" stroke="black" cx="217.175" cy="-529.864" rx="64.1938" ry="37.4533"/>
<text text-anchor="middle" x="217.175" y="-541.164" font-family="Times New Roman,serif" font-size="14.00">INT</text>
<text text-anchor="middle" x="217.175" y="-526.164" font-family="Times New Roman,serif" font-size="14.00"> mref = #16</text>
<text text-anchor="middle" x="217.175" y="-511.164" font-family="Times New Roman,serif" font-size="14.00"> val_id = #10</text>
</g>
<!-- Id00716AF0&#45;&gt;Id00716A80 -->
<g id="edge4" class="edge"><title>Id00716AF0&#45;&gt;Id00716A80</title>
<path fill="none" stroke="black" d="M217.175,-618.088C217.175,-607.081 217.175,-592.24 217.175,-577.923"/>
<polygon fill="black" stroke="black" points="220.675,-577.652 217.175,-567.652 213.675,-577.652 220.675,-577.652"/>
</g>
<!-- IdVal00716A10 -->
<g id="node5" class="node"><title>IdVal00716A10</title>
<ellipse fill="none" stroke="black" cx="67.1751" cy="-417.91" rx="27" ry="18"/>
<text text-anchor="middle" x="67.1751" y="-414.21" font-family="Times New Roman,serif" font-size="14.00">a</text>
</g>
<!-- Id00716A10&#45;&gt;IdVal00716A10 -->
<g id="edge1" class="edge"><title>Id00716A10&#45;&gt;IdVal00716A10</title>
<path fill="none" stroke="black" d="M67.1751,-502.806C67.1751,-485.767 67.1751,-463.546 67.1751,-446.254"/>
<polygon fill="black" stroke="black" points="70.6752,-446.215 67.1751,-436.215 63.6752,-446.215 70.6752,-446.215"/>
</g>
<!-- IdVal00716A80 -->
<g id="node7" class="node"><title>IdVal00716A80</title>
<ellipse fill="none" stroke="black" cx="178.175" cy="-417.91" rx="27" ry="18"/>
<text text-anchor="middle" x="178.175" y="-414.21" font-family="Times New Roman,serif" font-size="14.00">5</text>
</g>
<!-- Id00716A80&#45;&gt;IdVal00716A80 -->
<g id="edge2" class="edge"><title>Id00716A80&#45;&gt;IdVal00716A80</title>
<path fill="none" stroke="black" d="M204.405,-492.861C198.899,-477.338 192.578,-459.515 187.52,-445.256"/>
<polygon fill="black" stroke="black" points="190.732,-443.842 184.09,-435.587 184.135,-446.182 190.732,-443.842"/>
</g>
<!-- Id007104E8 -->
<g id="node9" class="node"><title>Id007104E8</title>
<ellipse fill="none" stroke="black" cx="387.175" cy="-636.34" rx="27" ry="18"/>
<text text-anchor="middle" x="387.175" y="-632.64" font-family="Times New Roman,serif" font-size="14.00">until</text>
</g>
<!-- Id00716FE8&#45;&gt;Id007104E8 -->
<g id="edge28" class="edge"><title>Id00716FE8&#45;&gt;Id007104E8</title>
<path fill="none" stroke="black" d="M363.365,-691.873C367.121,-683.27 371.802,-672.551 376.016,-662.898"/>
<polygon fill="black" stroke="black" points="379.23,-664.283 380.024,-653.718 372.815,-661.482 379.23,-664.283"/>
</g>
<!-- Id00717488 -->
<g id="node10" class="node"><title>Id00717488</title>
<ellipse fill="none" stroke="black" cx="387.175" cy="-529.864" rx="58.8803" ry="26.7407"/>
<text text-anchor="middle" x="387.175" y="-533.664" font-family="Times New Roman,serif" font-size="14.00">==</text>
<text text-anchor="middle" x="387.175" y="-518.664" font-family="Times New Roman,serif" font-size="14.00"> mref = #20</text>
</g>
<!-- Id007104E8&#45;&gt;Id00717488 -->
<g id="edge11" class="edge"><title>Id007104E8&#45;&gt;Id00717488</title>
<path fill="none" stroke="black" d="M387.175,-618.088C387.175,-604.265 387.175,-584.393 387.175,-567.108"/>
<polygon fill="black" stroke="black" points="390.675,-566.756 387.175,-556.756 383.675,-566.756 390.675,-566.756"/>
<text text-anchor="middle" x="413.675" y="-589.14" font-family="Times New Roman,serif" font-size="14.00">condition</text>
</g>
<!-- Id007102B8 -->
<g id="node15" class="node"><title>Id007102B8</title>
<ellipse fill="none" stroke="black" cx="549.175" cy="-529.864" rx="29.795" ry="18"/>
<text text-anchor="middle" x="549.175" y="-526.164" font-family="Times New Roman,serif" font-size="14.00">body</text>
</g>
<!-- Id007104E8&#45;&gt;Id007102B8 -->
<g id="edge12" class="edge"><title>Id007104E8&#45;&gt;Id007102B8</title>
<path fill="none" stroke="black" d="M406.536,-623.675C417.615,-616.945 431.74,-608.269 444.175,-600.34 470.623,-583.477 500.413,-563.688 521.488,-549.553"/>
<polygon fill="black" stroke="black" points="523.603,-552.348 529.951,-543.866 519.699,-546.538 523.603,-552.348"/>
</g>
<!-- Id007173A8 -->
<g id="node11" class="node"><title>Id007173A8</title>
<ellipse fill="none" stroke="black" cx="290.175" cy="-417.91" rx="67.3507" ry="26.7407"/>
<text text-anchor="middle" x="290.175" y="-421.71" font-family="Times New Roman,serif" font-size="14.00">var or method</text>
<text text-anchor="middle" x="290.175" y="-406.71" font-family="Times New Roman,serif" font-size="14.00"> localnum = 1</text>
</g>
<!-- Id00717488&#45;&gt;Id007173A8 -->
<g id="edge9" class="edge"><title>Id00717488&#45;&gt;Id007173A8</title>
<path fill="none" stroke="black" d="M365.888,-504.734C351.96,-488.946 333.605,-468.139 318.455,-450.967"/>
<polygon fill="black" stroke="black" points="320.988,-448.547 311.748,-443.364 315.739,-453.178 320.988,-448.547"/>
</g>
<!-- Id00717418 -->
<g id="node13" class="node"><title>Id00717418</title>
<ellipse fill="none" stroke="black" cx="440.175" cy="-417.91" rx="64.1938" ry="37.4533"/>
<text text-anchor="middle" x="440.175" y="-429.21" font-family="Times New Roman,serif" font-size="14.00">INT</text>
<text text-anchor="middle" x="440.175" y="-414.21" font-family="Times New Roman,serif" font-size="14.00"> mref = #16</text>
<text text-anchor="middle" x="440.175" y="-399.21" font-family="Times New Roman,serif" font-size="14.00"> val_id = #21</text>
</g>
<!-- Id00717488&#45;&gt;Id00717418 -->
<g id="edge10" class="edge"><title>Id00717488&#45;&gt;Id00717418</title>
<path fill="none" stroke="black" d="M399.468,-503.362C405.182,-491.506 412.148,-477.055 418.691,-463.481"/>
<polygon fill="black" stroke="black" points="421.943,-464.795 423.132,-454.267 415.637,-461.756 421.943,-464.795"/>
</g>
<!-- IdVal007173A8 -->
<g id="node12" class="node"><title>IdVal007173A8</title>
<ellipse fill="none" stroke="black" cx="290.175" cy="-316.563" rx="27" ry="18"/>
<text text-anchor="middle" x="290.175" y="-312.863" font-family="Times New Roman,serif" font-size="14.00">a</text>
</g>
<!-- Id007173A8&#45;&gt;IdVal007173A8 -->
<g id="edge7" class="edge"><title>Id007173A8&#45;&gt;IdVal007173A8</title>
<path fill="none" stroke="black" d="M290.175,-390.808C290.175,-376.698 290.175,-359.284 290.175,-344.977"/>
<polygon fill="black" stroke="black" points="293.675,-344.748 290.175,-334.748 286.675,-344.748 293.675,-344.748"/>
</g>
<!-- IdVal00717418 -->
<g id="node14" class="node"><title>IdVal00717418</title>
<ellipse fill="none" stroke="black" cx="440.175" cy="-316.563" rx="27" ry="18"/>
<text text-anchor="middle" x="440.175" y="-312.863" font-family="Times New Roman,serif" font-size="14.00">10</text>
</g>
<!-- Id00717418&#45;&gt;IdVal00717418 -->
<g id="edge8" class="edge"><title>Id00717418&#45;&gt;IdVal00717418</title>
<path fill="none" stroke="black" d="M440.175,-380.199C440.175,-368.509 440.175,-355.789 440.175,-344.884"/>
<polygon fill="black" stroke="black" points="443.675,-344.69 440.175,-334.69 436.675,-344.69 443.675,-344.69"/>
</g>
<!-- Id00717088 -->
<g id="node16" class="node"><title>Id00717088</title>
<ellipse fill="none" stroke="black" cx="549.175" cy="-417.91" rx="27" ry="18"/>
<text text-anchor="middle" x="549.175" y="-414.21" font-family="Times New Roman,serif" font-size="14.00">stmt</text>
</g>
<!-- Id007102B8&#45;&gt;Id00717088 -->
<g id="edge21" class="edge"><title>Id007102B8&#45;&gt;Id00717088</title>
<path fill="none" stroke="black" d="M549.175,-511.683C549.175,-494.174 549.175,-466.75 549.175,-446.252"/>
<polygon fill="black" stroke="black" points="552.675,-445.97 549.175,-435.97 545.675,-445.97 552.675,-445.97"/>
</g>
<!-- Id007170D8 -->
<g id="node25" class="node"><title>Id007170D8</title>
<ellipse fill="none" stroke="black" cx="623.175" cy="-417.91" rx="27" ry="18"/>
<text text-anchor="middle" x="623.175" y="-414.21" font-family="Times New Roman,serif" font-size="14.00">stmt</text>
</g>
<!-- Id007102B8&#45;&gt;Id007170D8 -->
<g id="edge27" class="edge"><title>Id007102B8&#45;&gt;Id007170D8</title>
<path fill="none" stroke="black" d="M560.094,-512.64C572.407,-494.345 592.559,-464.402 606.767,-443.291"/>
<polygon fill="black" stroke="black" points="609.772,-445.094 612.452,-434.843 603.965,-441.185 609.772,-445.094"/>
</g>
<!-- Id00717DD0 -->
<g id="node17" class="node"><title>Id00717DD0</title>
<ellipse fill="none" stroke="black" cx="527.175" cy="-316.563" rx="27" ry="18"/>
<text text-anchor="middle" x="527.175" y="-312.863" font-family="Times New Roman,serif" font-size="14.00">=</text>
</g>
<!-- Id00717088&#45;&gt;Id00717DD0 -->
<g id="edge20" class="edge"><title>Id00717088&#45;&gt;Id00717DD0</title>
<path fill="none" stroke="black" d="M545.443,-400.057C542.061,-384.786 537.021,-362.023 533.09,-344.275"/>
<polygon fill="black" stroke="black" points="536.505,-343.506 530.925,-334.499 529.67,-345.019 536.505,-343.506"/>
</g>
<!-- Id00717528 -->
<g id="node18" class="node"><title>Id00717528</title>
<ellipse fill="none" stroke="black" cx="373.175" cy="-211.823" rx="67.3507" ry="26.7407"/>
<text text-anchor="middle" x="373.175" y="-215.623" font-family="Times New Roman,serif" font-size="14.00">var or method</text>
<text text-anchor="middle" x="373.175" y="-200.623" font-family="Times New Roman,serif" font-size="14.00"> localnum = 1</text>
</g>
<!-- Id00717DD0&#45;&gt;Id00717528 -->
<g id="edge18" class="edge"><title>Id00717DD0&#45;&gt;Id00717528</title>
<path fill="none" stroke="black" d="M508.599,-303.171C485.565,-287.804 445.61,-261.148 415.05,-240.76"/>
<polygon fill="black" stroke="black" points="416.962,-237.828 406.701,-235.19 413.078,-243.652 416.962,-237.828"/>
</g>
<!-- Id00717CF0 -->
<g id="node20" class="node"><title>Id00717CF0</title>
<ellipse fill="none" stroke="black" cx="527.175" cy="-211.823" rx="58.8803" ry="26.7407"/>
<text text-anchor="middle" x="527.175" y="-215.623" font-family="Times New Roman,serif" font-size="14.00">+</text>
<text text-anchor="middle" x="527.175" y="-200.623" font-family="Times New Roman,serif" font-size="14.00"> mref = #24</text>
</g>
<!-- Id00717DD0&#45;&gt;Id00717CF0 -->
<g id="edge19" class="edge"><title>Id00717DD0&#45;&gt;Id00717CF0</title>
<path fill="none" stroke="black" d="M527.175,-298.135C527.175,-284.67 527.175,-265.575 527.175,-248.862"/>
<polygon fill="black" stroke="black" points="530.675,-248.836 527.175,-238.836 523.675,-248.836 530.675,-248.836"/>
</g>
<!-- IdVal00717528 -->
<g id="node19" class="node"><title>IdVal00717528</title>
<ellipse fill="none" stroke="black" cx="353.175" cy="-110.477" rx="27" ry="18"/>
<text text-anchor="middle" x="353.175" y="-106.777" font-family="Times New Roman,serif" font-size="14.00">a</text>
</g>
<!-- Id00717528&#45;&gt;IdVal00717528 -->
<g id="edge13" class="edge"><title>Id00717528&#45;&gt;IdVal00717528</title>
<path fill="none" stroke="black" d="M367.973,-184.981C365.085,-170.639 361.499,-152.824 358.58,-138.325"/>
<polygon fill="black" stroke="black" points="361.997,-137.563 356.592,-128.45 355.135,-138.944 361.997,-137.563"/>
</g>
<!-- Id007175C8 -->
<g id="node21" class="node"><title>Id007175C8</title>
<ellipse fill="none" stroke="black" cx="465.175" cy="-110.477" rx="67.3507" ry="26.7407"/>
<text text-anchor="middle" x="465.175" y="-114.277" font-family="Times New Roman,serif" font-size="14.00">var or method</text>
<text text-anchor="middle" x="465.175" y="-99.2767" font-family="Times New Roman,serif" font-size="14.00"> localnum = 1</text>
</g>
<!-- Id00717CF0&#45;&gt;Id007175C8 -->
<g id="edge16" class="edge"><title>Id00717CF0&#45;&gt;Id007175C8</title>
<path fill="none" stroke="black" d="M511.53,-185.754C503.952,-173.611 494.736,-158.844 486.524,-145.685"/>
<polygon fill="black" stroke="black" points="489.295,-143.514 481.031,-136.884 483.356,-147.22 489.295,-143.514"/>
</g>
<!-- Id00717638 -->
<g id="node23" class="node"><title>Id00717638</title>
<ellipse fill="none" stroke="black" cx="615.175" cy="-110.477" rx="64.1938" ry="37.4533"/>
<text text-anchor="middle" x="615.175" y="-121.777" font-family="Times New Roman,serif" font-size="14.00">INT</text>
<text text-anchor="middle" x="615.175" y="-106.777" font-family="Times New Roman,serif" font-size="14.00"> mref = #16</text>
<text text-anchor="middle" x="615.175" y="-91.7767" font-family="Times New Roman,serif" font-size="14.00"> val_id = #25</text>
</g>
<!-- Id00717CF0&#45;&gt;Id00717638 -->
<g id="edge17" class="edge"><title>Id00717CF0&#45;&gt;Id00717638</title>
<path fill="none" stroke="black" d="M548.477,-186.774C557.741,-176.317 568.852,-163.772 579.326,-151.949"/>
<polygon fill="black" stroke="black" points="582.079,-154.118 586.09,-144.312 576.839,-149.477 582.079,-154.118"/>
</g>
<!-- IdVal007175C8 -->
<g id="node22" class="node"><title>IdVal007175C8</title>
<ellipse fill="none" stroke="black" cx="465.175" cy="-18" rx="27" ry="18"/>
<text text-anchor="middle" x="465.175" y="-14.3" font-family="Times New Roman,serif" font-size="14.00">a</text>
</g>
<!-- Id007175C8&#45;&gt;IdVal007175C8 -->
<g id="edge14" class="edge"><title>Id007175C8&#45;&gt;IdVal007175C8</title>
<path fill="none" stroke="black" d="M465.175,-83.3071C465.175,-71.7193 465.175,-58.0883 465.175,-46.3654"/>
<polygon fill="black" stroke="black" points="468.675,-46.2492 465.175,-36.2493 461.675,-46.2493 468.675,-46.2492"/>
</g>
<!-- IdVal00717638 -->
<g id="node24" class="node"><title>IdVal00717638</title>
<ellipse fill="none" stroke="black" cx="615.175" cy="-18" rx="27" ry="18"/>
<text text-anchor="middle" x="615.175" y="-14.3" font-family="Times New Roman,serif" font-size="14.00">1</text>
</g>
<!-- Id00717638&#45;&gt;IdVal00717638 -->
<g id="edge15" class="edge"><title>Id00717638&#45;&gt;IdVal00717638</title>
<path fill="none" stroke="black" d="M615.175,-72.9371C615.175,-63.9712 615.175,-54.5316 615.175,-46.0996"/>
<polygon fill="black" stroke="black" points="618.675,-46.0694 615.175,-36.0695 611.675,-46.0695 618.675,-46.0694"/>
</g>
<!-- Id00717970 -->
<g id="node26" class="node"><title>Id00717970</title>
<ellipse fill="none" stroke="black" cx="635.175" cy="-316.563" rx="60.2083" ry="26.7407"/>
<text text-anchor="middle" x="635.175" y="-320.363" font-family="Times New Roman,serif" font-size="14.00">method_call</text>
<text text-anchor="middle" x="635.175" y="-305.363" font-family="Times New Roman,serif" font-size="14.00"> mref = #29</text>
</g>
<!-- Id007170D8&#45;&gt;Id00717970 -->
<g id="edge26" class="edge"><title>Id007170D8&#45;&gt;Id00717970</title>
<path fill="none" stroke="black" d="M625.265,-399.605C626.797,-386.928 628.93,-369.267 630.825,-353.578"/>
<polygon fill="black" stroke="black" points="634.303,-353.973 632.027,-343.625 627.353,-353.133 634.303,-353.973"/>
</g>
<!-- IdMethodNameVal00717970 -->
<g id="node27" class="node"><title>IdMethodNameVal00717970</title>
<ellipse fill="none" stroke="black" cx="635.175" cy="-211.823" rx="27.0966" ry="18"/>
<text text-anchor="middle" x="635.175" y="-208.123" font-family="Times New Roman,serif" font-size="14.00">print</text>
</g>
<!-- Id00717970&#45;&gt;IdMethodNameVal00717970 -->
<g id="edge22" class="edge"><title>Id00717970&#45;&gt;IdMethodNameVal00717970</title>
<path fill="none" stroke="black" d="M635.175,-289.638C635.175,-274.618 635.175,-255.715 635.175,-240.42"/>
<polygon fill="black" stroke="black" points="638.675,-240.027 635.175,-230.027 631.675,-240.027 638.675,-240.027"/>
<text text-anchor="middle" x="650.175" y="-260.493" font-family="Times New Roman,serif" font-size="14.00">name</text>
</g>
<!-- Id00710328 -->
<g id="node28" class="node"><title>Id00710328</title>
<ellipse fill="none" stroke="black" cx="722.175" cy="-211.823" rx="37.0935" ry="18"/>
<text text-anchor="middle" x="722.175" y="-208.123" font-family="Times New Roman,serif" font-size="14.00">params</text>
</g>
<!-- Id00717970&#45;&gt;Id00710328 -->
<g id="edge23" class="edge"><title>Id00717970&#45;&gt;Id00710328</title>
<path fill="none" stroke="black" d="M655.793,-291.216C669.742,-274.742 688.08,-253.087 701.947,-236.711"/>
<polygon fill="black" stroke="black" points="704.953,-238.578 708.744,-228.685 699.61,-234.054 704.953,-238.578"/>
</g>
<!-- Id00717E40 -->
<g id="node29" class="node"><title>Id00717E40</title>
<ellipse fill="none" stroke="black" cx="765.175" cy="-110.477" rx="67.3507" ry="26.7407"/>
<text text-anchor="middle" x="765.175" y="-114.277" font-family="Times New Roman,serif" font-size="14.00">var or method</text>
<text text-anchor="middle" x="765.175" y="-99.2767" font-family="Times New Roman,serif" font-size="14.00"> localnum = 1</text>
</g>
<!-- Id00710328&#45;&gt;Id00717E40 -->
<g id="edge25" class="edge"><title>Id00710328&#45;&gt;Id00717E40</title>
<path fill="none" stroke="black" d="M729.47,-193.971C735.118,-180.92 743.134,-162.4 750.14,-146.213"/>
<polygon fill="black" stroke="black" points="753.363,-147.578 754.123,-137.01 746.939,-144.797 753.363,-147.578"/>
</g>
<!-- IdVal00717E40 -->
<g id="node30" class="node"><title>IdVal00717E40</title>
<ellipse fill="none" stroke="black" cx="765.175" cy="-18" rx="27" ry="18"/>
<text text-anchor="middle" x="765.175" y="-14.3" font-family="Times New Roman,serif" font-size="14.00">a</text>
</g>
<!-- Id00717E40&#45;&gt;IdVal00717E40 -->
<g id="edge24" class="edge"><title>Id00717E40&#45;&gt;IdVal00717E40</title>
<path fill="none" stroke="black" d="M765.175,-83.3071C765.175,-71.7193 765.175,-58.0883 765.175,-46.3654"/>
<polygon fill="black" stroke="black" points="768.675,-46.2492 765.175,-36.2493 761.675,-46.2493 768.675,-46.2492"/>
</g>
</g>
</svg>
